<svg xmlns="http://www.w3.org/2000/svg" viewBox="0 0 32 32"><path d="M2 2v28h28V2H2zm25.99 25.99H4.01V4.01h23.97v23.98zM15.43 9.71a2.354 2.354 0 0 0 2.02-1.12c.33-.54.44-1.18.29-1.8a2.377 2.377 0 0 0-2.86-1.77c-.62.15-1.14.52-1.48 1.06-.34.54-.44 1.18-.3 1.8a2.41 2.41 0 0 0 2.33 1.83zm-.22-3.31a.89.89 0 0 1 .72.12c.22.13.37.35.43.6s.02.51-.12.72c-.14.22-.35.37-.6.43a.91.91 0 0 1-.72-.12.952.952 0 0 1-.43-.59c-.12-.52.2-1.04.72-1.16zm-1.09 20.65c3.32 0 6.02-2.7 6.02-6.02 0-.2-.01-.39-.03-.58h.33c.19 0 .4 0 .51.1.06.06.1.17.1.31v4.64h1.84l.4-5.41c.04-.58-.14-1.13-.53-1.57-.38-.43-.91-.69-1.49-.72l-2.13-.11c-.36-.54-.8-1.01-1.31-1.41 1.47.01 3.62.02 3.62.02h.2v-1.93l-3.39.06c-.48 0-.65-.16-.65-.61v-1.37c0-1.36-1.1-2.08-2.18-2.08-.57 0-1.09.18-1.49.52-.45.38-.69.92-.69 1.56v2.6c-2.9.43-5.14 2.93-5.14 5.95-.01 3.35 2.69 6.05 6.01 6.05zm0-10.14c2.27 0 4.12 1.85 4.12 4.12s-1.85 4.12-4.12 4.12S10 23.3 10 21.03s1.85-4.12 4.12-4.12z" style="fill: #000000;"/></svg>
