<svg xmlns="http://www.w3.org/2000/svg" viewBox="0 0 32 32"><path d="M23.99 12.09c.25.16.54.24.83.24a1.542 1.542 0 0 0 1.33-.74c.22-.36.29-.78.2-1.18-.2-.84-1.04-1.37-1.89-1.17-.41.1-.75.34-.97.7-.22.36-.29.78-.2 1.18.09.4.34.75.7.97zm.24-1.7c.1-.16.25-.27.43-.31.05-.01.11-.02.16-.02a.677.677 0 0 1 .67.53c.09.37-.14.75-.52.83-.18.04-.37.01-.52-.09a.677.677 0 0 1-.22-.94zm5.41 8.25c-.25-.29-.6-.45-.98-.47l-1.4-.07c-.2-.31-.46-.57-.74-.81.96.01 2.26.02 2.26.02h.13v-1.27l-2.24.04c-.32 0-.43-.1-.43-.41V14.43c0-.9-.72-1.37-1.44-1.37-.37 0-.72.12-.98.34-.3.25-.45.61-.45 1.03v1.95c-1.91.28-3.39 1.92-3.39 3.91 0 2.19 1.78 3.97 3.97 3.97s3.97-1.78 3.97-3.97c0-.13-.03-.25-.04-.38h.23c.13 0 .26 0 .34.07.04.04.06.11.06.21v3.06h1.21l.26-3.57c.04-.38-.08-.75-.34-1.04zm-5.69 4.37c-1.5 0-2.72-1.22-2.72-2.72s1.22-2.72 2.72-2.72 2.72 1.22 2.72 2.72-1.22 2.72-2.72 2.72zm-8.31-10.93h-.04c-4.03.01-4.35 5.38-4.35 5.44v.2h1.41l.01-.19c.08-2.42.8-3.26 1.21-3.53-.2 1.07-.82 4.25-1.16 6.02l-.04.24h.97l.19 3.94v.05h1.37l.15-4h.55l.15 3.94v.06h1.36l.19-4h.97l-.05-.24c-.32-1.64-.96-4.92-1.17-6.02.41.28 1.13 1.11 1.21 3.53l.01.19h1.41v-.2c-.01-.05-.33-5.41-4.35-5.43zm-.02-.54a1.9 1.9 0 1 0 0-3.8 1.9 1.9 0 0 0-1.9 1.9c-.01 1.05.85 1.9 1.9 1.9zm0-2.76c.47 0 .86.38.86.86s-.38.86-.86.86c-.47 0-.86-.38-.86-.86s.38-.86.86-.86zm-5.25 8.73c-.07-.87-.31-2.21-1.06-3.63-.23-.43-.51-.78-.86-1.06-.56-.48-1.3-.72-2.26-.74-.96.02-1.69.27-2.25.74-.34.28-.63.64-.86 1.06a9.464 9.464 0 0 0-1.06 3.63l-.02.22h1.43l.01-.19c.08-2.43.7-3.21 1.05-3.46l-.37 4.28.29 5.85v.05h1.36l.22-5.71h.41l.22 5.66v.06h1.36l.29-5.93-.37-4.26c.35.26.97 1.05 1.05 3.46l.01.19h1.43l-.02-.22zM6.19 7.74a1.9 1.9 0 1 0 0 3.8 1.9 1.9 0 1 0 0-3.8zm0 2.75a.86.86 0 1 1 .86-.86c0 .48-.38.86-.86.86z" style="fill: #000000;"/></svg>
