<svg xmlns="http://www.w3.org/2000/svg" viewBox="0 0 32 32"><path d="M2 29.98h3v-2H2v2zm7.38-2v2H30v-2H9.38zm3.02-7.05c.86-.69 2.25-.7 2.67-.87 1.09-.44 1.95-.99 2.54-2.21l.41-.82c2.26 1.34 3.92 2.99 4.44 4.56l1.25-.58c-.52-1.56-1.93-3.69-3.97-5.19l7.18 2.2 2.6-5.22-8.14-2.5 2.72-5.46-5-2.49c-.77-.39-1.65-.45-2.47-.17-.82.27-1.48.85-1.87 1.62l-1.48 2.96-2.58-1.28-3.16 6.32 2.6 1.3-.4.81c-.53 1.05-.59 2.24-.24 3.36.16.51.77 1.3.74 2.34-.02.94-1.21 3.56-1.21 3.56l-3.3 6.81h1.68l2.86-5.89c.01-.01 1.4-2.58 2.13-3.16zm-.75-12.6l2.58 1.29 2.43-4.86c.39-.77 1.23-.63 1.49-.5l3.1 1.55L15 18.32l-4.06-2.02 2.05-4.15-2.6-1.3 1.26-2.52z" style="fill: #000000;"/></svg>
