<svg xmlns="http://www.w3.org/2000/svg" viewBox="0 0 32 32"><path d="M29.78 13.53c-.42-1.18-1.46-1.82-2.2-2.14.05-1.18-.2-3.33-2.31-4.79-2.27-1.57-4.85-1.02-6.02-.63-1.1-.98-3.99-3.08-7.79-2.29-3.99.82-5.25 4.49-5.58 5.8-1.85 1.15-4.56 3.98-3.72 7.96.89 4.19 5.44 5.24 8.21 5.24h.06c.49.67 1.53 1.72 3.42 1.98.81.12 1.58.01 2.22-.15.69-.21 1.09-.02 1.18.01 1.19.33 1.53.38 1.57 1.58l.13 2.37h1.98l-.12-4.93c0-.83-.71-1.46-1.83-1.58-.14-.02-.39-.04-.69-.08v-3.27h1.43a2.59 2.59 0 1 0 2.41-3.54c-1.09 0-2.03.68-2.41 1.64h-3.33v5.67c-.5.22-1.36.52-2.27.39-1.36-.19-2-.98-2.22-1.31v-2.33c.96-.38 1.64-1.32 1.64-2.41s-.68-2.03-1.64-2.41V9.14H7.96c.46-1.24 1.54-3.13 3.87-3.61 2.76-.57 4.99.89 5.96 1.69v2.4a2.59 2.59 0 1 0 3.36 3.36h5.27c.43.13 1.34.51 1.57 1.19.54 1.6-1.27 2.85-1.27 2.85s.19.96-.07 1.98c-.23.88-.99 1.86-2.28 2.5-.9.32-1.38 1.21-1.38 1.95l.05 5.03 1.03.01v.01H25s.11-1.13.22-2.32c.39-2.35 1.11-2.93 1.33-3.2l.01-.01c1.89-1.77 2.11-4.14 2.12-5.15.63-.68 1.81-2.28 1.1-4.29zm-7.66 3.46c.38 0 .69.31.69.69 0 .38-.31.69-.69.69-.38 0-.69-.31-.69-.69 0-.38.31-.69.69-.69zm-11.18-.94c.38 0 .69.31.69.69 0 .38-.31.69-.69.69-.38 0-.69-.31-.69-.69 0-.38.31-.69.69-.69zm-.95-5.01v3.29c-.96.38-1.64 1.32-1.64 2.41s.68 2.03 1.64 2.41v1.62c-1.71-.08-5.32-.63-5.98-3.72-.74-3.49 2.16-5.52 2.95-6.01h3.03zm8.75 1.69c-.38 0-.69-.31-.69-.69 0-.38.31-.69.69-.69s.69.31.69.69c0 .38-.31.69-.69.69zm6.94-1.64h-4.53a2.56 2.56 0 0 0-1.46-1.46V7.82c.73-.26 2.8-.83 4.49.34 1.26.87 1.49 2.13 1.5 2.93z" style="fill: #000000;"/></svg>
