<svg xmlns="http://www.w3.org/2000/svg" viewBox="0 0 32 32"><path d="M22.59 21.75c.75 0 1.36-.61 1.36-1.36v-.82L30 21.08v-3.97l-10.01-5.18c-.44-.23-.71-.68-.71-1.17V6.77c0-1.81-1.46-4.73-3.27-4.77-1.81.04-3.27 2.96-3.27 4.77v3.99c0 .49-.28.95-.71 1.17L2.01 17.11v3.97l6.05-1.51v.82c0 .75.61 1.36 1.36 1.36.75 0 1.36-.61 1.36-1.36v-1.5l1.97-.49s-.04 2.46.16 3.63c.08.46-.17.92-.56 1.17L8 26.01V30l8-1.53L24 30v-3.99l-4.34-2.8c-.39-.25-.64-.71-.56-1.17.19-1.17.16-3.63.16-3.63l1.97.49v1.5c.01.74.61 1.35 1.36 1.35zm-10.12-4.84l-8.95 2.24c.04-.71.45-1.35 1.09-1.68l7.85-4.06v3.5zM9.51 28.17c.04-.87.49-1.66 1.22-2.13l2.37-1.53.91 2.8-4.5.86zm8.24-8.66c0 3.6-1.03 6.96-1.75 7.42-.72-.46-1.75-3.82-1.75-7.42V6.77c0-1.39 1.17-3.18 1.75-3.25.59.07 1.75 1.86 1.75 3.25v12.74zm3.52 6.53c.73.47 1.18 1.26 1.22 2.13l-4.5-.86.91-2.8 2.37 1.53zm-1.74-9.13V13.4l7.85 4.06c.64.33 1.05.97 1.09 1.68l-8.94-2.23z" style="fill: #000000;"/></svg>
