<svg xmlns="http://www.w3.org/2000/svg" viewBox="0 0 32 32"><path stroke-width="0" d="M26.626 14.91c-.71-2.06.45-4.17-1.72-7.95C23.366 4.2 18.886 2 14.536 2 4.196 2 .466 12.39 5.196 19.41c.48.72.87 1.86.87 2.6l.36 7.99h1.5l.41-7.3c.05-1.57-.42-3.05-1.26-4.29-3.57-5.29-1.05-14.27 7.44-14.27 6.89 0 9.98 4.46 9.76 8.88-.15 2.99 1.3 4.49 2.49 5.98-.99.6-2.23 1.14-2.32 2.63-.05.79.11 2.41.14 3.56.02 1.02-.12 1.7-1.4 1.57-.93-.1-6-1.26-6 3.24h1.5c0-2.18 3.87-.97 5.54-1.19 1.67-.23 2.43-1.43 2.47-3.01s-.2-3.06-.12-4.12l1.33-.89c2.51-1.87-.84-4.63-1.28-5.88" style="fill: #000000;"/><path stroke-width="0" d="M11.14 9.55c0-.917-.745-1.662-1.661-1.662s-1.661.745-1.661 1.661.745 1.661 1.66 1.661 1.662-.745 1.662-1.66m-1.661.672a.675.675 0 0 1-.672-.673c0-.369.303-.672.672-.672s.672.303.672.672a.67.67 0 0 1-.672.673M20.193 7.708a1.117 1.117 0 0 0-2.231 0 1.117 1.117 0 0 0 2.231 0m-1.567 0c0-.248.204-.452.452-.452s.451.204.451.452a.45.45 0 1 1-.903 0M22.564 11.823c0-.6-.482-1.087-1.081-1.087s-1.094.487-1.094 1.087a1.089 1.089 0 0 0 2.175 0M14.77 17.753c-.599 0-1.093.487-1.093 1.087a1.089 1.089 0 1 0 1.094-1.087M15.236 10.143c.599 0 .898.399.898.898 0 1.097-1.496 1.197-1.297 2.693h.4c0-1.097 1.894-1.097 1.894-2.494 0-1.097-.997-1.496-1.895-1.496-1.097 0-1.995.599-1.995 1.895l.998.1c0-1.097.3-1.596.997-1.596" style="fill: #000000;"/><circle cx="15.117" cy="15.081" r=".649" stroke-width="0" style="fill: #000000;"/></svg>
