<svg xmlns="http://www.w3.org/2000/svg" viewBox="0 0 32 32"><path d="M30 22.01V4.99H2V22h9.99v1.35c0 1.02-.11 1.66-1.97 1.66H7.99V27H24v-1.99h-2.03c-1.86 0-1.97-.64-1.97-1.66V22h10zm-26-2V7.02h24v12.99H4zM22.52 8.5H9.48C8.66 8.5 8 9.16 8 9.98v8.52h16V9.98c0-.82-.66-1.48-1.48-1.48zm-1.77.75c.28 0 .5.22.5.5s-.22.5-.5.5-.5-.22-.5-.5.22-.5.5-.5zm-1.75 0c.28 0 .5.22.5.5s-.22.5-.5.5-.5-.22-.5-.5.22-.5.5-.5zm3.75 8H9.25V11h13.5v6.25zm-.25-7c-.28 0-.5-.22-.5-.5s.22-.5.5-.5.5.22.5.5-.22.5-.5.5z" style="fill: #000000;"/></svg>
