<svg xmlns="http://www.w3.org/2000/svg" viewBox="0 0 32 32"><path d="M18.08 16.01a2.11 2.11 0 1 1-4.22 0 2.11 2.11 0 0 1 4.22 0zm9.78 11.84c-.76.76-1.82 1.14-3.12 1.14-1.26 0-2.73-.35-4.37-1.06-1.41-.61-2.88-1.45-4.37-2.48-1.48 1.03-2.96 1.87-4.37 2.48-1.64.71-3.12 1.06-4.37 1.06-1.3 0-2.36-.38-3.12-1.14-2.19-2.19-1.12-6.84 2.4-11.88-1.02-1.47-1.85-2.94-2.46-4.33-1.44-3.34-1.41-6 .08-7.5 1.49-1.49 4.15-1.52 7.5-.08 1.4.61 2.87 1.44 4.35 2.47 1.48-1.02 2.95-1.86 4.35-2.47 3.34-1.44 6-1.41 7.5.08 1.49 1.49 1.52 4.15.08 7.5-.6 1.4-1.44 2.86-2.46 4.33 3.5 5.04 4.57 9.69 2.38 11.88zm-5.49-12.68a38.12 38.12 0 0 0-2.63-2.9A36.123 36.123 0 0 0 16 8.99c-1.22.93-2.48 2.03-3.74 3.28-.97.97-1.85 1.95-2.63 2.9 1.06 1.3 2.23 2.59 3.42 3.78.94.94 1.93 1.86 2.95 2.73 1.01-.87 2.01-1.79 2.95-2.73 1.19-1.19 2.36-2.48 3.42-3.78zm-4.69-7.39a40.334 40.334 0 0 1 5.93 5.78c2.39-3.23 3.86-6.27 3.05-7.72-.07-.11-.14-.21-.23-.3-.38-.38-.98-.57-1.74-.57-1.68.01-4.19.95-7.01 2.81zM5.56 5.55c-.09.09-.16.19-.23.3-.8 1.45.67 4.49 3.05 7.72a40.569 40.569 0 0 1 5.93-5.78C11.5 5.92 8.99 4.98 7.3 4.98c-.76 0-1.36.19-1.74.57zm-.02 20.9c.06.06.13.11.2.16 1.41.94 4.53-.55 7.85-3.01-.92-.76-1.83-1.59-2.71-2.47a39.19 39.19 0 0 1-3.08-3.46c-2.72 4.08-3.5 7.54-2.26 8.78zm18.67-8.78c-.93 1.17-1.96 2.34-3.08 3.46-.88.88-1.79 1.71-2.71 2.47 3.32 2.46 6.44 3.95 7.85 3.01.07-.05.14-.1.2-.16 1.23-1.24.45-4.7-2.26-8.78z" style="fill: #000000;"/></svg>
