<svg xmlns="http://www.w3.org/2000/svg" viewBox="0 0 24.79 28"><g data-name="Camada 2"><path d="M19.48 20.69a4.6 4.6 0 0 0-1.48-.51v.19a4.5 4.5 0 0 1 1 1.11 4.6 4.6 0 0 1 .39.8H20a9 9 0 0 1 .37-.87 10.9 10.9 0 0 1 2.21-2.82l-.11-.18a6.6 6.6 0 0 0-2.99 2.28m2.14-4.56V5.4h-4.06a2.75 2.75 0 0 0-3.08-2A3.63 3.63 0 0 0 10.81 0a3.69 3.69 0 0 0-3.68 3.44 2.74 2.74 0 0 0-3.07 2H0V28h2V7.36h2v2h13.68v-2h2V16a4.37 4.37 0 1 0 2 .1ZM10.79 5.4a1.72 1.72 0 1 1 1.72-1.72 1.72 1.72 0 0 1-1.72 1.72m9.65 18.24a3.34 3.34 0 1 1 3.33-3.34 3.34 3.34 0 0 1-3.33 3.34m-9.65-1.5A9 9 0 0 0 2.35 28h16.88a9 9 0 0 0-8.44-5.86m4.73-5.62a4.74 4.74 0 1 0-4.74 4.74 4.74 4.74 0 0 0 4.74-4.74m-8.24 0a3.5 3.5 0 1 1 3.5 3.5 3.51 3.51 0 0 1-3.5-3.5" data-name="Layer 1" style="fill: #000000;"/></g></svg>
