<svg xmlns="http://www.w3.org/2000/svg" viewBox="0 0 32 32"><path d="M15.71 20.59l-.46 1.4c-.04.12-.16.21-.29.21H13.5c-.29 0-.41.37-.18.55l1.19.87c.11.08.15.21.11.34l-.46 1.4c-.09.28.23.51.47.34l1.19-.87a.3.3 0 0 1 .36 0l1.19.87c.24.17.56-.06.47-.34l-.46-1.4c-.04-.12 0-.26.11-.34l1.19-.87c.24-.17.12-.55-.18-.55h-1.47a.3.3 0 0 1-.29-.21l-.46-1.4c-.08-.28-.48-.28-.57 0zM27.42 3.26L27.63 2h-5.99c.01 1.12-.43 9.9-5.64 12.53C10.79 11.9 10.36 3.12 10.37 2h-6l.2 1.26C4.64 3.64 6.1 11.86 14 16v1.09c-2.83.93-4.66 3.38-4.66 6.25C9.34 27.02 12.32 30 16 30s6.66-2.98 6.66-6.66c0-2.87-1.82-5.32-4.66-6.25V16c7.9-4.14 9.36-12.36 9.42-12.74zm-6.75 20.09c0 2.57-2.09 4.67-4.67 4.67-2.57 0-4.67-2.1-4.67-4.67 0-2.58 2.09-4.67 4.67-4.67s4.67 2.09 4.67 4.67z" style="fill: #000000;"/></svg>
