<svg xmlns="http://www.w3.org/2000/svg" viewBox="0 0 32 32"><path stroke-width="0" d="M17 2h-2c-1 8.003-8 11.972-8 19 0 4.971 4.029 9 9 9s9-4.029 9-9c0-7.028-7-10.997-8-19m3.912 21.053c-.274.648.198 1.295-.673 2.172-.831.837-1.58.455-2.195.687s-.952 1.087-2.044 1.087-1.428-.855-2.044-1.087c-.615-.233-1.363.15-2.195-.687-.871-.877-.399-1.524-.673-2.172S10 22.18 10 21.002c0-1.1.756-1.453 1.047-1.961.291-.507-.132-1.504.725-2.295.901-.831 1.707-.415 2.268-.694.447-.222.885-1.053 1.961-1.053s1.513.831 1.961 1.053c.561.279 1.368-.137 2.268.694.857.791.434 1.788.725 2.295s1.047.86 1.047 1.961c0 1.178-.814 1.402-1.088 2.051Z" style="fill: #000000;"/><path stroke-width="0" d="M16.761 19.989c0-.457-.278-.72-.715-.72h-.703v1.508h.703c.409 0 .715-.257.715-.788M16.052 21.046h-.709v1.686h.709c.51 0 .834-.263.834-.869 0-.56-.306-.817-.834-.817" style="fill: #000000;"/><path stroke-width="0" d="M16 16.5a4.5 4.5 0 1 0 0 9 4.5 4.5 0 0 0 0-9m.188 6.5H14.6v-4h1.588c.845 0 1.293.406 1.293.972 0 .497-.357.857-1.021.931.714.034 1.14.383 1.14.965 0 .715-.499 1.132-1.412 1.132" style="fill: #000000;"/></svg>
