<svg xmlns="http://www.w3.org/2000/svg" viewBox="0 0 32 32"><path stroke-width="0" d="M16.01 2c-1.65 0-3 1.35-3 3s1.34 3 3 3c1.65 0 3-1.35 3-3s-1.35-3-3-3m0 4.5c-.83 0-1.5-.67-1.5-1.5s.67-1.5 1.5-1.5 1.5.67 1.5 1.5-.67 1.5-1.5 1.5M21.4 18h2.4c-.302-3.546-1.343-6.383-4.016-7.994C18.648 9.321 17.407 9.024 16 9c-1.408.024-2.648.321-3.784 1.006C9.544 11.617 8.503 14.454 8.2 18h2.4c.352-6.339 2.41-6.065 2.41-6.065s-2.519 3.604-.526 8.054c.087 2.094.173 4.001.706 9.999.681.026 2.241 0 2.241 0l.068-9.999h1l.068 9.999s1.56.026 2.241 0c.532-5.998.619-7.905.706-9.999 1.994-4.45-.526-8.054-.526-8.054s2.058-.275 2.41 6.065Z" style="fill: #000000;"/></svg>
