<svg xmlns="http://www.w3.org/2000/svg" viewBox="0 0 32 32"><path d="M27.35 11.79c-1.03-1.96-2.72-3.32-4.68-3.83h.01s-1.66-.24-2.09-1.53c-.44-1.28-.18-3.58-.18-3.58h-4s.91 3.66.12 5.66c-.94 2.36-.91 3.73-.9 3.88-.04.61.01 1.2.07 1.74.11 1.19.15 1.89-.45 2.49-.52.52-1.56.75-2.67.99-.57.13-1.2.27-1.82.47 0 0-.01.01-.02.01-.2.07-.4.14-.59.22-.62.21-1.69.52-3.14.72-3.6.52-3.58 3.05-3.58 6.23v3.59h3s-.31-1.67-.31-3.01c0-.57-.05-1.51.68-1.51.3 0 .49.26.59.48.03.07.06.13.08.2.01.04.02.07.02.07v-.02c.51 1.1 1.44 2.02 2.76 2.7 1.56.79 3.46 1.38 5.41 1.38 3.12 0 6.37-1.18 8.54-2.98 4.31-3.6 5.64-9.64 3.15-14.37zm-14.37 7.78c1.34-.3 2.73-.6 3.66-1.53 1.3-1.3 1.15-2.85 1.03-4.1-.12-1.25-.21-2.24.76-3.22.79-.79 1.96-1.13 3.23-.94 1.63.25 3.08.89 4.04 3.19s.42 4.86-.35 6.39c-.99 1.99-3.2 3.43-4.5 4.09-6.24 3.18-11.76 1.35-11.82-.7.15-2.23 1.6-2.66 3.95-3.18z" style="fill: #000000;"/></svg>
