<svg xmlns="http://www.w3.org/2000/svg" viewBox="0 0 32 32"><path d="M29.52 24.92l-1.67-2.37C24.49 18.03 21.62 12.51 21 7h3V3H8v4h3c-.62 5.52-3.49 11.03-6.86 15.55l-1.67 2.37c-1.26 1.73.15 4.14 2.25 4.08h22.56c2.09.06 3.52-2.35 2.24-4.08zM23.43 24H8.57c-1.41 0-2.19-.91-1.43-2.09 1.12-1.72 2.14-3.5 3.02-5.36 1.43-3.01 2.5-6.23 2.84-9.55h6c.53 5.13 2.86 10.13 5.6 14.49 1 1.27.64 2.47-1.17 2.51zm-8.91-11.32c-1.39 0-2.52 1.13-2.52 2.52 0 1.39 1.13 2.52 2.52 2.52s2.52-1.13 2.52-2.52c0-1.39-1.13-2.52-2.52-2.52zm0 3.54c-.56 0-1.02-.46-1.02-1.02s.46-1.02 1.02-1.02 1.02.46 1.02 1.02c0 .57-.46 1.02-1.02 1.02zm6.12 2.43c0 .91-.74 1.65-1.65 1.65-.91 0-1.65-.74-1.65-1.65S18.09 17 19 17c.91 0 1.64.74 1.64 1.65zM16.29 22c0 .55-.45 1-1 1s-1-.45-1-1 .45-1 1-1 1 .45 1 1z" style="fill: #000000;"/></svg>
