<svg xmlns="http://www.w3.org/2000/svg" viewBox="0 0 32 32"><path fill-rule="evenodd" d="M24.04 19v-5.47c0-3.6-2.39-6.64-5.68-7.65v-.53C18.36 4.05 17.31 3 16 3s-2.36 1.05-2.36 2.35v.53c-3.29 1-5.68 4.05-5.68 7.65V19S4.46 21 4 24.98L5.02 26h7.96c0 1.66 1.35 3 3.02 3s3.02-1.34 3.02-3h7.96L28 24.98C27.54 21 24.04 19 24.04 19zm.52 5.03H7.45c-.81 0-.94-.52-.63-1.18.52-1.11 3.12-2.86 3.12-2.86v-6.46c0-3.33 2.72-6.03 6.06-6.03 3.34 0 6.06 2.71 6.06 6.03v6.46s2.6 1.76 3.12 2.86c.32.65.18 1.18-.62 1.18z" clip-rule="evenodd" style="fill: #000000;"/></svg>
