<svg xmlns="http://www.w3.org/2000/svg" viewBox="0 0 32 32"><path stroke-width="0" d="m26.071 6.282-7.783 7.783a3 3 0 0 1-.62 4.43 3.01 3.01 0 0 1-3.332 0 3.006 3.006 0 0 1 0-4.995 3.01 3.01 0 0 1 3.332 0c.097.066.198.162.256.222l7.793-7.793C20.237.638 11.51.688 6.101 6.096c-5.468 5.468-5.468 14.334 0 19.802s14.334 5.468 19.802 0c5.409-5.409 5.458-14.135.168-19.617ZM7.18 24.135c-4.337-4.694-4.148-12.217.41-16.697 4.153-4.083 10.56-4.52 15.204-1.326.516.355.585 1.095.142 1.538l-4.129 4.129c-.225.225-.57.308-.857.17a4.498 4.498 0 0 0-5.745 6.469 4.51 4.51 0 0 0 6.982.762 4.5 4.5 0 0 0 .868-5.126c-.139-.289-.056-.636.171-.863l4.126-4.126a1.01 1.01 0 0 1 1.545.151c3.207 4.671 2.742 11.121-1.406 15.269-4.793 4.793-12.666 4.677-17.309-.35Z" style="fill: #000000;"/></svg>
