<svg xmlns="http://www.w3.org/2000/svg" viewBox="0 0 32 32"><path stroke-width="0" d="M21.5 22c3.59 0 6.5-2.878 6.5-6.429 0-5.02-5.056-7.855-5.778-13.571h-1.444C20.056 7.717 15 10.551 15 15.571 15 19.121 17.91 22 21.5 22" style="fill: #000000;"/><path stroke-width="0" d="M21.5 23c-4.136 0-7.5-3.332-7.5-7.429 0-2.622 1.223-4.693 2.512-6.663C15.33 6.877 14.333 4.662 14 1.999h-2c-1 8.003-8 11.972-8 19a9 9 0 0 0 9 9c4.286 0 7.871-2.996 8.778-7.007q-.138.006-.278.007Z" style="fill: #000000;"/></svg>
