<svg xmlns="http://www.w3.org/2000/svg" viewBox="0 0 32 32"><path d="M25.5 20.8c-.5 0-.9.4-.9.9s.4.9.9.9.9-.4.9-.9-.4-.9-.9-.9zm-4.7 1.5c-.5 0-.9.4-.9.9s.4.9.9.9.9-.4.9-.9-.4-.9-.9-.9zm1.5-3.1c-.5 0-.9.4-.9.9s.4.9.9.9.9-.4.9-.9-.4-.9-.9-.9zm1.9 5.2c-.5 0-.9.4-.9.9s.4.9.9.9.9-.4.9-.9-.4-.9-.9-.9zm-.5-8.8h-1.8C21.3 15 19.8 14 16 14c-5.2 0-6.1 1.9-6.1 1.9.2 1.1 1 2.1 2.9 3.2 1.1.6 2.7 2.4 2.7 3.7V30h1.1v-3.5c.3.5.6.9 1 1.3V30h1.6v-.9c1.1.6 2.3.9 3.6.9 4 0 7.2-3.3 7.2-7.2 0-2.6-1.4-4.8-3.4-6.1.9-.4 1.8-1 2.3-1.8 1.9-2.9.9-5.4-.3-7.3-.7-1.2-1.5-2.5-1.6-5.6h-1.5c.1 3.5 1.1 5.1 1.9 6.4.4.6 2.1 3.2.3 5.6-.8 1.1-1.9 1.7-4 1.6zM22.8 28c-2.9 0-5.2-2.4-5.2-5.2s2.4-5.2 5.2-5.2c2.9 0 5.2 2.4 5.2 5.2S25.6 28 22.8 28zM16.2 6.5c-3 0-6.7 1-8.9 4.5-.3.5-.6 1.5-.7 1.8-.1-.1-1.3-.8.1-3C7.5 8.4 8.8 6.3 8.9 2H7.4c-.1 3.8-1.1 5.6-2 6.9-2.7 3.9.9 6.2 2.9 5.7 0-1.2.4-2.2.6-2.6.8-1.4 2.3-3 7.1-3s6.4 1.6 7.1 3c.2.4.6 1.4.6 2.6 2 .5 5.6-1.7 2.9-5.7-.9-1.3-1.9-3.1-2.1-6.9H23c.1 4.3 1.4 6.4 2.3 7.7 1.4 2.2.2 2.9.1 3-.1-.3-.4-1.3-.7-1.8-2.2-3.4-5.5-4.4-8.5-4.4zm-5.1 13.1c-1.2-.8-2.4-2.3-2.8-4-2.1.1-3.2-.4-4.1-1.6-1.7-2.3 0-5 .3-5.6.9-1.3 1.8-2.9 2-6.4H5c-.1 3.1-.9 4.4-1.7 5.6C2.1 9.5 1.1 12 3 14.9c.9 1.3 2.3 2.1 3.8 2.2.4 1.7 1.3 3 3 4 3.3 1.9 2.9 1.7 2.9 8.9h1.6c.1-6.8.9-7.6-3.2-10.4z" style="fill: #000000;"/></svg>
