<svg xmlns="http://www.w3.org/2000/svg" viewBox="0 0 32 32"><path stroke-width="0" d="M22 16c-.892 0-1.744.169-2.528.473C17.896 11.728 13.281 8.144 12.5 2h-2C9.556 9.432 3 13.116 3 19.643 3 24.259 6.806 28 11.5 28c1.677 0 3.24-.479 4.557-1.304A7 7 0 0 0 22 30c3.865 0 7-3.135 7-7s-3.135-7-7-7m0 12.5a5.5 5.5 0 1 1 .001-11.001A5.5 5.5 0 0 1 22 28.5" style="fill: #000000;"/><circle cx="20" cy="23" r="1" stroke-width="0" style="fill: #000000;"/><circle cx="25" cy="22" r="1" stroke-width="0" style="fill: #000000;"/><circle cx="22" cy="20" r="1" stroke-width="0" style="fill: #000000;"/><circle cx="23" cy="26" r="1" stroke-width="0" style="fill: #000000;"/></svg>
