<svg xmlns="http://www.w3.org/2000/svg" viewBox="0 0 32 32"><path d="M29.83 13.53c-.42-1.18-1.46-1.82-2.2-2.15.05-1.18-.2-3.34-2.31-4.8-2.28-1.58-4.87-1.03-6.04-.64-1.1-.97-4-3.09-7.81-2.29-3.98.83-5.25 4.51-5.59 5.82-1.85 1.15-4.57 3.98-3.73 7.98.84 3.98 5 5.14 7.8 5.24 1.6 2.78 5.01 2.78 7.38 1.82 1.08.18 1.89.4 1.89 1.63l.13 2.37h1.98l-.12-4.94c0-1.93-2.98-1.28-3.35-2.51-.3-.96.56-1.53 1.08-1.51l-.11-1.75c-1.49.01-3.28 1.55-2.67 3.64-2.42.29-4.12-.63-5.13-2.82-.51-1.19-1.49-2.54-3.36-3.83L6.6 16.35c2.41 1.66 2.97 3.35 3.03 4.38-1.81-.14-5.01-.81-5.62-3.71-.84-3.95 2.82-6 3.56-6.32.1-.8.79-4.46 4.27-5.19 2.5-.51 4.56.62 5.66 1.43-.87 1.09-2.78 2.75-6.28 2.73l-.01 1.9c1.2.01 2.24-.15 3.16-.41-.22.97-.26 2.18.16 3.66l1.82-.52c-.7-2.86.52-4.43 2.85-6.23.83-.56 3.02-1.26 5.03.07 1.92 1.33 1.51 3.48 1.24 4.59.39.11 2.09.24 2.57 1.43.53 1.58-2.77 2.74-4.34 1.14-.74-.9-1.04-2.06-.9-3.49l-1.89-.19c-.64 3.66 1.99 7.64 5.54 8.32-.14.74-.58 1.32-1.41 1.5-1.05.24-1.61 1.22-1.61 2.03l.05 5.03 2.17.02s.12-3.45.19-4.69c.04-.77.45-.86 1.16-1.21 2.12-1.02 1.72-3.75 1.72-4.83.01-.9 1.83-2.25 1.11-4.26z" style="fill: #000000;"/></svg>
