<svg xmlns="http://www.w3.org/2000/svg" viewBox="0 0 32 32"><path stroke-width="0" d="M29.855 12.215c-.312-2.961-1.065-7.45-3.254-9.587A4.2 4.2 0 0 0 25.779 2L25 2.991c.656.798 1.074 1.797 1.456 2.777C27.579 8.648 28 11.814 28 15.002V30l1.999-.002L30 15.841c0-1.196-.027-2.439-.145-3.626M20.383 15c-.281 1.463-.383 3.348-.383 4s.031 11 .031 11h1.966L22 19c0-.601-.09-2.556-.358-3.999h-1.258ZM10.01 21.19c-2.044.178-4.162-.331-5.454-1.967-.577-.765-.986-1.664-1.054-2.64-.099-1.342.389-2.687 1.117-3.818 2.399-3.762 6.919-5.273 9.884-8.463.524-.554.999-1.166 1.396-1.828L15.2 2c-.416.57-.884 1.097-1.396 1.585-1.58 1.488-3.446 2.615-5.207 3.88-.602.429-1.205.858-1.8 1.315-1.208.938-2.289 2.035-3.157 3.316-1.016 1.48-1.704 3.27-1.636 5.12a8.2 8.2 0 0 0 .7 3.083c.882 2.146 3.006 3.542 5.255 3.681.341.027.69.021 1.041-.005v6.024h1.996l.003-6.467c1.46-.546 2.731-1.567 3.298-3.056l-.736-.545c-1.097.753-2.282 1.131-3.551 1.258Z" style="fill: #000000;"/><path stroke-width="0" d="M6.978 17.386a8 8 0 0 1-.272-.122l-.132-.065-.064-.033-.057-.031-.453.71.08.05.074.045q.073.044.148.085.148.081.298.157a8.2 8.2 0 0 0 1.908.675l.182-.982a7 7 0 0 1-1.153-.278 7 7 0 0 1-.56-.211ZM9.464 17.936l-.044 1.05c.463.032.937.012 1.406-.073s.93-.236 1.361-.447l-.574-1.067c-.318.182-.662.32-1.024.409-.362.09-.74.131-1.125.128M12.227 16.971l.767 1.007a8.4 8.4 0 0 0 1.946-1.935l-1.19-.794a7 7 0 0 1-1.524 1.722ZM14.132 14.577l1.308.704q.69-1.182 1.06-2.503l-1.602-.389a9 9 0 0 1-.766 2.188" style="fill: #000000;"/></svg>
