<svg xmlns="http://www.w3.org/2000/svg" viewBox="0 0 32 32"><path d="M9.58 20.03a1.62 1.62 0 1 0 0 3.24c.9 0 1.62-.72 1.62-1.62-.01-.89-.73-1.62-1.62-1.62zm12.84 0a1.62 1.62 0 1 0 0 3.24 1.62 1.62 0 0 0 0-3.24zM22.1 7.38H9.9c-1.16 0-2.11.94-2.11 2.11v8.66H24.2V9.49c.01-1.16-.94-2.11-2.1-2.11zm7.38 5.39h-1.64V7.4c0-2.98-2.42-5.4-5.4-5.4H9.55c-2.98 0-5.4 2.42-5.4 5.4v5.37H2.52c-.29 0-.52.23-.52.52v4.36c0 .29.23.52.52.52h1.64v8.61h1.05v2.12c0 .6.49 1.1 1.1 1.1h1.57c.61 0 1.11-.5 1.11-1.11v-2.12h14.02v2.12c0 .61.5 1.11 1.11 1.11h1.57c.61 0 1.11-.5 1.11-1.11v-2.12h1.05v-8.61h1.64c.29 0 .52-.23.52-.52v-4.36a.53.53 0 0 0-.53-.51zM5.79 25.14V8.73c0-2.28 2.36-3.98 4.47-3.98h11.47c2.11 0 4.47 1.7 4.47 3.98l.01 16.41H5.79z" style="fill: #000000;"/></svg>
