<svg xmlns="http://www.w3.org/2000/svg" viewBox="0 0 32 32"><path fill-rule="evenodd" d="M17.59 6.63v10.11c.64 0 1.59.4 1.55 1.38 0 0-.39 9.72-.39 11.87h3.47V2c-2.56 0-4.63 2.07-4.63 4.63z" clip-rule="evenodd" style="fill: #000000;"/><path d="M15.26 2.02c0-.01-.01-.02-.01-.02h-1c0 .01-.01.02-.01.03 0 0-.14 6.94-.16 8.25h-.81l-.09-8.25c0-.01-.01-.02-.01-.03h-1.05c0 .01-.01.02-.01.03 0 0-.14 6.94-.16 8.25h-.81l-.09-8.25c0-.01-.01-.02-.01-.03H9.97c0 .01-.01.02-.01.03l-.18 8.35v.81c-.01.85.29 1.63.79 2.16l1.07 1.07L10.67 30h3.56l-.79-15.57 1.11-1.06c.5-.48.8-1.29.81-2.14v-.81l-.1-8.4z" style="fill: #000000;"/></svg>
