<svg xmlns="http://www.w3.org/2000/svg" viewBox="0 0 32 32"><path d="M29.45 11.72h-2.52L24.08 5.7H7.92l-2.84 6.02H2.55c-.43 0-1.42 2.22 1.45 2.29l-.99 2.33c.04 2.97 0 5.91 0 8.85 0 .61.56 1.11 1.17 1.11h1.76c.61 0 1.07-.5 1.07-1.11v-2.44h17.97v2.44c0 .61.46 1.11 1.07 1.11h1.76c.61 0 1.17-.5 1.17-1.11 0-2.94-.04-5.88 0-8.85L28 14.01c2.87-.07 1.88-2.29 1.45-2.29zM7.12 20.14c-1 0-1.79-.82-1.79-1.79 0-1 .79-1.79 1.79-1.79.97 0 1.79.79 1.79 1.79 0 .96-.83 1.79-1.79 1.79zm13.51-.33h-.84c-.01 0-.02.01-.03.01H12.23c-.01 0-.02-.01-.03-.01h-.84v-1.67h.84c.01 0 .02-.01.02-.01H19.75c.01 0 .02 0 .02.01h.84v1.67zm1.56-7.7c-.5-.42-1.13-.68-1.83-.7-.7.02-1.33.28-1.83.7a2.7 2.7 0 0 0-.69.86h-3.58c-.19-.35-.42-.64-.69-.86-.5-.42-1.13-.68-1.83-.7-.7.02-1.33.28-1.83.7a2.7 2.7 0 0 0-.69.86H6.08C6.65 11.72 7.54 10.49 8.4 9c.39-.68.8-1.36 2.61-1.36H20.98c1.81 0 2.22.68 2.61 1.36.85 1.41 1.75 2.72 2.33 3.98h-3.04a2.61 2.61 0 0 0-.69-.87zm2.69 8.03c-.97 0-1.79-.82-1.79-1.79 0-1 .82-1.79 1.79-1.79 1 0 1.79.79 1.79 1.79.01.96-.78 1.79-1.79 1.79zM20.37 8.32c-.74 0-1.35.61-1.35 1.35a1.35 1.35 0 1 0 1.35-1.35zm-8.62 0a1.35 1.35 0 0 0 0 2.7c.74 0 1.35-.61 1.35-1.35s-.6-1.35-1.35-1.35z" style="fill: #000000;"/></svg>
