<svg xmlns="http://www.w3.org/2000/svg" viewBox="0 0 32 32"><path d="M30 24.89c-1.01.44-2.37 1.15-2.77 1.32C24.84 27.24 18.48 30 16.22 30 13 30 9.8 27.66 6.31 27.66c-2.18 0-4.3.53-4.3.53v-8.11h2.05c1.52 0 2.13-.82 3.34-1.9 1.32-1.17 3.67-1.11 5.79-.24 2.12.87 5.74 1.8 6.8 2.12.64.19 1.76.58 2.13.87l-.23 1.45c-.37.07-1.24.12-2.51.06-1.24-.06-3.3-.19-4.25-.25a.586.586 0 0 0-.25 1.13c.49.2 1.35.46 2.38.82 3.07 1.08 5.38.99 7.22.51 1.84-.48 3.77-1.38 5.11-.78l.41 1.02zm-.99-17.44c0 3.07-2.22 4.67-4.18 6.07-1.78 1.28-3.35 2.41-3.73 4.48h-2.2c-.39-2.05-1.95-3.18-3.72-4.46-1.96-1.41-4.19-3.02-4.19-6.09 0-3.26 2.07-5.45 5.15-5.45 1.69 0 3.02.73 3.86 2.04C20.84 2.73 22.17 2 23.86 2c3.08 0 5.15 2.19 5.15 5.45zm-2 0c0-2.16-1.18-3.45-3.15-3.45-1.3 0-2.86.69-2.86 4.01h-2C19 6.51 18.63 4 16.14 4c-1.97 0-3.15 1.29-3.15 3.45 0 1.96 1.28 2.97 3.36 4.47 1.31.94 2.73 1.96 3.65 3.44.92-1.5 2.35-2.52 3.67-3.47 2.07-1.48 3.34-2.49 3.34-4.44z" style="fill: #000000;"/></svg>
