<svg width="14" height="15" viewBox="0 0 14 15" fill="none" xmlns="http://www.w3.org/2000/svg">
<path d="M7.005 8.58997C6.5 8.58997 6.095 8.99997 6.095 9.49997C6.095 9.99997 6.505 10.41 7.005 10.41C7.505 10.41 7.915 9.99997 7.915 9.49997C7.915 8.99997 7.51 8.58997 7.005 8.58997ZM6.5 7.92997H7.5C7.5 5.89997 7.995 3.92997 7.995 3.92997H6.005C6.005 3.92997 6.5 5.89997 6.5 7.92997Z" fill="#564C47"/>
<path d="M7.00012 0.0717773C3.13512 0.0717773 0.00012207 3.20678 0.00012207 7.07178C0.00012207 10.9368 3.13512 14.0718 7.00012 14.0718C10.8651 14.0718 14.0001 10.9368 14.0001 7.07178C14.0001 3.20678 10.8651 0.0717773 7.00012 0.0717773ZM7.00012 13.0718C3.69012 13.0718 1.00012 10.3818 1.00012 7.07178C1.00012 3.76178 3.69012 1.07178 7.00012 1.07178C10.3101 1.07178 13.0001 3.76678 13.0001 7.07178C13.0001 10.3768 10.3101 13.0718 7.00012 13.0718Z" fill="#564C47"/>
</svg>
