<svg xmlns="http://www.w3.org/2000/svg" viewBox="0 0 32 32"><path stroke-width="0" d="M16.135 10.381c1.53 0 2.78-1.251 2.78-2.78 0-1.53-1.25-2.78-2.78-2.78s-2.78 1.25-2.78 2.78 1.25 2.78 2.78 2.78m0-4.17c.77 0 1.39.62 1.39 1.39s-.62 1.39-1.39 1.39-1.39-.621-1.39-1.39c0-.77.63-1.39 1.39-1.39M19.583 12.615a5.56 5.56 0 0 0-3.457-1.326 5.55 5.55 0 0 0-3.457 1.316c-.52.417-.955.964-1.316 1.622-1.112 2.095-1.372 4.125-1.492 5.71h1.835c.194-5.988 2.03-6.08 2.03-6.08l-.65 7.618.455 9.268h1.78l.36-9.268h.928l.361 9.268h1.78l.454-9.268-.65-7.618c-.018.009 1.817.139 2.012 6.089h1.835c-.12-1.585-.38-3.615-1.492-5.71a5.1 5.1 0 0 0-1.316-1.621M18.007 3.798l1.573.361c.1.023.179.101.202.201l.36 1.573c.064.278.46.278.523 0l.36-1.573a.27.27 0 0 1 .202-.2l1.573-.362c.278-.063.278-.459 0-.522l-1.573-.361a.27.27 0 0 1-.201-.201l-.361-1.573c-.064-.278-.459-.278-.523 0l-.36 1.573a.27.27 0 0 1-.202.201l-1.573.36c-.277.064-.277.46 0 .523M25.488 6.935l-1.178-.27a.2.2 0 0 1-.15-.151l-.27-1.178c-.048-.207-.344-.207-.392 0l-.27 1.178a.2.2 0 0 1-.15.15l-1.178.27c-.208.048-.208.344 0 .392l1.178.27a.2.2 0 0 1 .15.15l.27 1.178c.048.208.344.208.392 0l.27-1.177a.2.2 0 0 1 .15-.151l1.178-.27c.208-.048.208-.344 0-.391M22.727 9.71l-1.067-.245a.18.18 0 0 1-.137-.137l-.245-1.068c-.043-.188-.311-.188-.355 0l-.244 1.068a.18.18 0 0 1-.137.137l-1.068.245c-.188.043-.188.311 0 .354l1.068.245a.18.18 0 0 1 .137.137l.244 1.068c.044.188.312.188.355 0l.245-1.068a.18.18 0 0 1 .137-.137l1.067-.245c.189-.043.189-.311 0-.354M8.461 20.31l-1.573-.361a.27.27 0 0 1-.201-.201l-.361-1.573c-.064-.278-.459-.278-.523 0l-.36 1.573a.27.27 0 0 1-.202.2l-1.573.362c-.277.063-.277.459 0 .522l1.573.361c.1.023.179.101.202.201l.36 1.573c.064.278.46.278.523 0l.36-1.573a.27.27 0 0 1 .202-.201l1.573-.36c.278-.064.278-.46 0-.523" style="fill: #000000;"/><path stroke-width="0" d="m10.88 22.879-1.068-.245a.18.18 0 0 1-.136-.137L9.43 21.43c-.043-.189-.312-.189-.355 0l-.245 1.067a.18.18 0 0 1-.137.137l-1.067.245c-.189.043-.189.312 0 .355l1.067.245a.18.18 0 0 1 .137.136l.245 1.068c.043.188.312.188.355 0l.245-1.068a.18.18 0 0 1 .136-.136l1.068-.245c.188-.043.188-.312 0-.355M5.823 16.854l1.068.245a.18.18 0 0 1 .136.136l.245 1.068c.043.188.312.188.355 0l.245-1.068a.18.18 0 0 1 .137-.136l1.067-.245c.189-.043.189-.312 0-.355l-1.067-.245a.18.18 0 0 1-.137-.136l-.245-1.068c-.043-.189-.312-.189-.355 0l-.245 1.068a.18.18 0 0 1-.136.136l-1.068.245c-.188.043-.188.312 0 .355" style="fill: #000000;"/></svg>
