<svg xmlns="http://www.w3.org/2000/svg" viewBox="0 0 32 32"><path d="M26.09 15.18c.09-.44.14-.9.14-1.36 0-3.66-2.98-6.63-6.63-6.63a6.66 6.66 0 0 0-5.54 2.99c-.19-.08-.33-.13-.4-.15-.01 0-.01 0-.02-.01-.59-.2-1.21-.31-1.84-.31a5.61 5.61 0 0 0-5.6 5.43c-2.35.23-4.2 2.22-4.2 4.64 0 2.57 2.09 5.04 4.67 5.04h18.06c3.27 0 5.27-2.46 5.27-5.04 0-2.31-1.69-4.24-3.91-4.6zm-3.17 2.14l-.55.19c.05-.02.25-.1.55-.19zM4.01 19.78c0-1.54 1.11-2.6 2.66-2.6h1.87l-.31-1.28c-.03-.2-.05-.4-.05-.6 0-2.06 1.93-3.62 3.7-3.62.85 0 1.22.22 1.83.64l.08.05.02.02c.61.45 1.47 1.24 2.08 2.79l1.86-.74c-.61-1.54-1.31-2.46-2.05-3.13.87-1.33 2.27-2.13 3.88-2.13.99 0 1.82.28 2.58.8 1.38 1.06 1.56 2.55 1.29 3.9-.32 1.6-1.72 2.51-1.8 2.57l.69 1.07h.01c.21-.04 4.72-.95 4.72 2.4 0 2.54-3.69 2.89-5.74 2.89-.13 0-.23.01-.31.01H6.43c-1.09 0-2.42-1.49-2.42-3.04z" style="fill: #000000;"/></svg>
