<svg xmlns="http://www.w3.org/2000/svg" viewBox="0 0 32 32"><path stroke-width="0" d="M26.743 14.954c-.71-2.093.406-4.185-1.724-7.972C23.498 4.192 18.935 2 14.473 2 4.028 2.1.276 12.463 5.042 19.438c.507.698.863 1.726.913 2.591s.406 7.972.406 7.972h1.521s.326-5.809.406-7.274c.08-1.466-.406-3.089-1.318-4.285-3.651-5.281-1.115-14.249 7.504-14.249 6.997 0 10.141 4.484 9.938 8.868-.19 2.807 1.139 4.296 2.309 5.705a.3.3 0 0 1-.083.451c-.937.53-2.024 1.163-2.024 2.517l.005.267h-3.921c-.936 0-1.621-.645-1.834-1.79-.146-.783-.533-2.862-2.091-2.701-.728.075-.997.612-1.176.967-.143.284-.216.405-.365.459-.187.068-.485-.049-.801-.172-.506-.198-1.135-.444-1.742-.043-.336.222-.54.554-.591.961-.056.447.074.977.387 1.574.225.429.542.882.869 1.243l.132.146c.895.993 2.248 2.357 4.354 2.357h6.874l.002.217c0 .996-.169 1.752-1.42 1.594-.89-.112-6.084-1.295-6.084 3.189h1.521c0-2.192 3.955-.996 5.577-1.196 1.724-.199 2.535-1.525 2.535-2.989 0-1.594-.203-3.089-.101-4.085l1.318-.897c2.535-1.893-.811-4.584-1.318-5.879ZM17.839 24c-1.64 0-2.758-1.154-3.574-2.06l-.134-.148c-.682-.752-1.04-1.597-.992-1.98.015-.119.062-.172.128-.216.142-.094.39-.008.781.145.437.171.982.384 1.54.182.557-.202.782-.649.946-.975.174-.345.218-.381.346-.394.396-.039.715.581.951 1.848.308 1.657 1.407 2.598 2.867 2.598h3.956c.013.323.026.66.037 1H17.84Z" style="fill: #000000;"/><path stroke-width="0" d="M12.834 12.084q.082-.08.164-.16c.694.67 1.42 1.305 2.205 1.873l.594-.594c-.514-.734-1.105-1.388-1.713-2.037q-.08-.083-.161-.165.524-.54 1.011-1.113a1.5 1.5 0 1 0-.822-.822q-.148.125-.295.251-.412.375-.816.761a20 20 0 0 0-2.205-1.875l-.594.594c.342.491.724.943 1.114 1.386q.374.412.759.814c-.349.362-.69.731-1.014 1.114a1.5 1.5 0 1 0 .827.827q.48-.417.945-.854Z" style="fill: #000000;"/></svg>
