<svg xmlns="http://www.w3.org/2000/svg" viewBox="0 0 32 32"><path d="M16.75 14.28v-1.46c0-.36.37-.97.58-1.1 1.28-.84 1.89-2.23 1.55-3.55a2.97 2.97 0 0 0-2.1-2.1c-.92-.24-1.88-.05-2.61.52-.74.57-1.16 1.43-1.16 2.36h1.5c0-.46.21-.89.58-1.18.37-.29.84-.38 1.32-.26.49.13.9.54 1.02 1.03.22.83-.33 1.54-.92 1.92-.6.39-1.27 1.45-1.27 2.36v1.46h-.01L2.01 24.33l.62 1.7h26.75l.62-1.7-13.25-10.05zm7.66 8.56c-.07.23-.27.49-.77.49H8.35c-.5 0-.69-.27-.77-.49-.09-.28-.04-.66.23-.86L16 15.6l8.18 6.38c.27.2.32.58.23.86z" style="fill: #000000;"/></svg>
