<svg xmlns="http://www.w3.org/2000/svg" viewBox="0 0 32 32"><path d="M14.75 3.34c-.49-.4-1.47-.2-2.09-.08-5.04.97-8.69 6.34-8.69 12.77s3.66 11.8 8.69 12.78c.14.03 1.58.23 1.96-.08.48-.39.54-.63.54-1.25V4.42c0-.62.07-.69-.41-1.08zm-1.03 24.47s-2.94-.67-5.24-3.46c2.21.25 4.06.11 5.24-1.08v4.54zm0-7.89c-.37 2.55-2.74 3.5-6.07 3.24-.63-1.03-1.17-2.26-1.49-3.76 1.24.82 2.93.87 4.31.57v-1c-3.13.46-4.49-1.34-4.49-3.23 0-1.64 1.23-3.71 4.49-3.26v-.98c-1.24-.23-2.86-.07-4.11.67.42-1.45 1.05-2.67 1.79-3.67 4.04-.27 5.06 1.48 5.06 3.23 0 1.79-1.35 3.38-4.53 3.23v1.13c2.67.38 4.18-.2 5.03-1.06v4.89zm0-11.2c-.91-.97-2.4-1.54-4.5-1.48 2.14-2.19 4.5-2.95 4.5-2.95v4.43zm5.62-5.46c-.62-.12-1.6-.32-2.09.08-.48.4-.41.46-.41 1.08v23.06c0 .62.06.85.54 1.25.38.31 1.83.11 1.96.08 5.04-.97 8.69-6.35 8.69-12.78s-3.66-11.8-8.69-12.77zM18.28 4.3s2.36.76 4.5 2.95c-2.1-.07-3.59.5-4.5 1.48V4.3zm0 23.51v-4.55c1.18 1.19 3.03 1.33 5.23 1.09-2.29 2.79-5.23 3.46-5.23 3.46zm6.09-4.64c-3.34.26-5.72-.68-6.08-3.24v-4.89c.85.86 2.36 1.43 5.03 1.06v-1.13c-3.17.15-4.53-1.43-4.53-3.23 0-1.75 1.03-3.51 5.06-3.23.73 1 1.37 2.21 1.79 3.67-1.25-.74-2.87-.89-4.11-.67v.98c3.25-.46 4.49 1.62 4.49 3.26 0 1.89-1.35 3.69-4.49 3.23v1c1.38.3 3.07.24 4.31-.57-.32 1.49-.84 2.73-1.47 3.76z" style="fill: #000000;"/></svg>
