
<svg xmlns="http://www.w3.org/2000/svg" viewBox="0 0 32 32"><path d="M21.5 9c1.7 0 3.1-1.4 3.1-3.1 0-1.7-1.4-3.1-3.1-3.1s-3.1 1.4-3.1 3.1c0 1.7 1.4 3.1 3.1 3.1zm0-4.4c.8 0 1.4.6 1.4 1.4s-.6 1.4-1.4 1.4-1.4-.6-1.4-1.4.7-1.4 1.4-1.4zm7.9 19.3c-1.3-.6-3.2.3-5 .8-1.8.5-4.1.6-7.2-.5-1-.4-1.9-.6-2.4-.8-.6-.3-.4-1.1.2-1.1.9 0 5.5.5 6.7.2L22 21c-.5-.6-6.8-2.1-8.9-3-2.1-.9-4.4-.9-5.8.2-1.2 1.1-1.8 1.9-3.3 1.9H2v8.1s2.1-.5 4.3-.5c3.5 0 6.7 2.3 9.9 2.3 2.6 0 11.9-4.1 13.7-5.1l-.5-1zm-12.9-9.4c1.7 0 3.1-1.4 3.1-3.1s-1.4-3.1-3.1-3.1-3.1 1.4-3.1 3.1 1.4 3.1 3.1 3.1zm0-4.4c.8 0 1.4.6 1.4 1.4s-.6 1.4-1.4 1.4c-.8 0-1.4-.6-1.4-1.4s.6-1.4 1.4-1.4zm4 2.8c0 1.7 1.4 3.1 3.1 3.1s3.1-1.4 3.1-3.1-1.4-3.1-3.1-3.1c-1.7 0-3.1 1.4-3.1 3.1zm4.5 0c0 .8-.6 1.4-1.4 1.4-.8 0-1.4-.6-1.4-1.4s.6-1.4 1.4-1.4c.8 0 1.4.6 1.4 1.4z" style="fill: #000000;"/></svg>
