<svg xmlns="http://www.w3.org/2000/svg" viewBox="0 0 32 32"><path d="M7.93 7.58c1.55 0 2.81-1.26 2.81-2.81S9.48 1.96 7.93 1.96 5.12 3.22 5.12 4.77s1.26 2.81 2.81 2.81zm0-4.21c.78 0 1.4.63 1.4 1.4s-.63 1.4-1.4 1.4c-.78 0-1.4-.63-1.4-1.4s.62-1.4 1.4-1.4zm2.99 11.99l-.58-4.97c.98.85 1.59 3.17 1.71 4.97h1.85c-.52-3.16-1.72-6.59-5.04-6.97a6.31 6.31 0 0 0-1.79 0c-3.32.38-4.53 3.81-5.04 6.97h1.85c.12-1.8.73-4.12 1.71-4.97l-.58 4.97h5.91zm13.13-7.78c1.55 0 2.81-1.26 2.81-2.81s-1.26-2.81-2.81-2.81-2.81 1.26-2.81 2.81 1.26 2.81 2.81 2.81zm0-4.21c.78 0 1.4.63 1.4 1.4s-.63 1.4-1.4 1.4c-.78 0-1.4-.63-1.4-1.4s.62-1.4 1.4-1.4zm5.94 11.99c-.52-3.16-1.72-6.59-5.04-6.97a6.31 6.31 0 0 0-1.79 0c-3.32.38-4.53 3.81-5.04 6.97h1.85c.12-1.8.73-4.12 1.71-4.97l-.58 4.97h5.94l-.58-4.97c.98.85 1.59 3.17 1.71 4.97h1.82zm-13.14 7.7a6.31 6.31 0 0 0-1.79 0c-3.32.38-4.53 3.81-5.04 6.97h1.85c.12-1.8.73-4.12 1.71-4.97L13 30.03h5.94l-.58-4.97c.98.85 1.59 3.17 1.71 4.97h1.85c-.55-3.15-1.75-6.59-5.07-6.97zm-3.71-3.61c0 1.55 1.26 2.81 2.81 2.81s2.81-1.26 2.81-2.81-1.26-2.81-2.81-2.81-2.81 1.26-2.81 2.81zm2.81-1.41c.78 0 1.4.63 1.4 1.4 0 .78-.63 1.4-1.4 1.4-.78 0-1.4-.63-1.4-1.4-.01-.77.62-1.4 1.4-1.4zm-5.13 5.85c-2.58-1.39-4.31-4.32-4.26-7.25H5.09a12.5 12.5 0 0 0 4.94 8.48l.79-1.23zm8.82-16.55l.6-1.34c-2.81-.95-5.8-.95-8.6.01l.6 1.34c2.24-1.22 5.15-1.23 7.4-.01zm1.39 16.57l.79 1.24c2.75-2.05 4.55-5.11 4.98-8.51h-1.47c.04 2.94-1.7 5.89-4.3 7.27z" style="fill: #000000;"/></svg>
