
<svg xmlns="http://www.w3.org/2000/svg" viewBox="0 0 32 32"><path fill="#050505" d="M21.84 29c.1-3.6 1.5-2.61 2.5-4.51 3.8.5 5.8-3.6 4-6.2.9-1.3.9-3.2 0-4.5.9-1 .9-3.3 0-4.5.9-1.4 1.1-3.4-.5-5.1-1.5-1.6-4-1.4-5.1-.5-1.2-.9-3.3-.9-4.5 0-1.4-.9-3-.9-4.5 0-1.3-.9-3.1-.9-4.5 0-3.5-2.3-8 1.6-5.6 5.6-.9 1.2-.9 3.2 0 4.5-1.1 1.5-.9 4.5.9 5.8 1.5 1.1 1.4 3.4 1.4 3.4h2.2s-.1-2.3 1.4-3.5c2.4-1.8 1.5-5 .9-5.8.3-.5.8-1.4.6-2.7 1.2.1 2.2-.3 2.6-.6 1.3.9 3.2.9 4.5 0 .4.3 1.4.8 2.6.6-.2 1.2.3 2.2.6 2.7-.9 1.2-.9 3.1-.1 4.3-2-.5-5.1 1.1-4.7 4.8.4 3.3 3 2.59 2.94 6.21h2.36zm-14-15.21c2.4 1 1.6 4.5-.8 4.5-2.5 0-3.2-3.6-.8-4.5-2.3-1.1-1.7-3.9 0-4.5-.9-.3-1.5-1.3-1.5-2.2 0-1.3 1-2.3 2.3-2.3.9 0 1.9.6 2.2 1.5 1-2.2 3.8-1.7 4.5 0 1.3-2.4 3.9-1.6 4.5 0 .8-2 3.7-1.9 4.5 0 .2-.9 1.2-1.5 2.1-1.5 1.3 0 2.3 1 2.3 2.3 0 .9-.6 1.9-1.5 2.2 1.7.6 2.2 3.4 0 4.5 1.5.5 2.4 3.3 0 4.5.9.3 1.5 1.3 1.5 2.2 0 2.1-2.7 3.1-4.1 1.6 0 3-4.6 3.1-4.6 0 0-1.9 2.6-3 4.1-1.5 0-1 .7-1.9 1.6-2.3-2.3-1.1-1.6-3.9 0-4.5-1.9-.8-2-3.6 0-4.5-.6-.2-1.2-.8-1.4-1.4-1 2-3.4 1.8-4.5 0-1 1.9-3.5 2-4.5 0-.7 1.8-3.7 2-4.5 0-.2.6-.8 1.2-1.4 1.4 2.2 1 1.7 3.8 0 4.5z" style="fill: #000000;"/></svg>
