<svg xmlns="http://www.w3.org/2000/svg" viewBox="0 0 32 32"><path stroke-width="0" d="M4.949 10.457H7.362V12.870000000000001H4.949z" style="fill: #000000;"/><path stroke-width="0" d="M9.028 10.457H11.441V12.870000000000001H9.028z" style="fill: #000000;"/><path stroke-width="0" d="M9.028 13.994H11.441V16.407H9.028z" style="fill: #000000;"/><path stroke-width="0" d="M13.113 10.457H15.526V12.870000000000001H13.113z" style="fill: #000000;"/><path stroke-width="0" d="M10.877996 18.389787 2.978888 18.389787 2.978888 8.473893 17.522162 8.473893 17.522162 11.745622 18.844305 10.423478 18.844305 5.168595 15.545599 5.168595 15.545599 2.524369 13.562445 2.524369 13.562445 5.168595 6.938604 5.168595 6.938604 2.524369 4.962042 2.524369 4.962042 5.168595 1.656744 5.168595 1.656744 19.711869 9.555853 19.711869 10.877996 18.389787z" style="fill: #000000;"/><path stroke-width="0" d="M4.949 13.994H7.362V16.407H4.949z" style="fill: #000000;"/><path stroke-width="0" d="m25.693 12.355-.966.966c2.553 1.297 4.308 3.941 4.308 6.996 0 4.33-3.52 7.85-7.85 7.85-3.055 0-5.7-1.755-6.997-4.307l-.965.965c1.576 2.773 4.551 4.65 7.962 4.65 5.05 0 9.158-4.107 9.158-9.158 0-3.41-1.877-6.386-4.65-7.962" style="fill: #000000;"/><path stroke-width="0" d="M24.135321 16.693376 20.511236 19.623979 20.511236 21.004289 25.482855 25.282426 26.176275 24.589066 22.480291 20.291215 24.82868 17.386735 24.135321 16.693376z" style="fill: #000000;"/><path stroke-width="0" d="M27.072 19.663H28.38V20.971H27.072z" style="fill: #000000;"/><path stroke-width="0" d="M20.531 26.205H21.839V27.512999999999998H20.531z" style="fill: #000000;"/><path stroke-width="0" d="M3.418 16.148H29.733V17.648H3.418z" transform="rotate(-44.999 16.575 16.898)" style="fill: #000000;"/></svg>
