<svg xmlns="http://www.w3.org/2000/svg" viewBox="0 0 20.61 26"><g data-name="Camada 2"><path d="M16.46 20.87c-.16-.11-.11-.39.07-.54a1.16 1.16 0 0 0-.87-1.88h-2.87a1 1 0 0 1 0-.77 10.2 10.2 0 0 0 .75-1.76c.08-.55 0-1.94-.61-2.09s-.5.16-.65.64a4.86 4.86 0 0 1-1.46 2 7.4 7.4 0 0 0-2.08 2.09c-.25.66-.74 1.33-1.1 1.33h-.57v-.47H3.78V26h3.29v-.94h.52c.69 0 2.29.94 4.64.94a12.3 12.3 0 0 0 3.11-.25.88.88 0 0 0 .49-1.1c-.06-.28.11-.4.34-.54a.9.9 0 0 0 .09-1.4c-.11-.13-.08-.33.2-.46a.79.79 0 0 0 0-1.38M6.12 24.61a.45.45 0 0 1-.44.45h-1v-4.7h1a.45.45 0 0 1 .44.45ZM19.77 5.85l-5-5a2.9 2.9 0 0 0-2-.84H0V24h1.87V1.87h9.77a.9.9 0 0 1 .89.9v5.29h5.31a.9.9 0 0 1 .9.9V24h1.87V7.88a2.85 2.85 0 0 0-.84-2.03m-16 9.7h5.6v-1.87H3.75Zm0-9.37v1.88h5.6V6.18Zm0 5.62h9.37V9.93H3.75Z" data-name="Layer 1" style="fill: #000000;"/></g></svg>
