<svg xmlns="http://www.w3.org/2000/svg" viewBox="0 0 32 32"><path d="M15.99 13.02c3.04 0 5.5-2.47 5.5-5.51S19.02 2 15.99 2s-5.5 2.47-5.5 5.51 2.46 5.51 5.5 5.51zm0-9.02c1.93 0 3.51 1.57 3.51 3.51 0 1.93-1.57 3.51-3.51 3.51-1.93 0-3.5-1.57-3.5-3.51 0-1.94 1.57-3.51 3.5-3.51zM26.1 15.29c2.15 0 3.89-1.75 3.89-3.89s-1.74-3.9-3.89-3.9c-2.15 0-3.89 1.75-3.89 3.89s1.75 3.9 3.89 3.9zm0-5.81a1.92 1.92 0 0 1 0 3.84c-1.06 0-1.91-.86-1.91-1.92s.86-1.92 1.91-1.92zM29.99 30H2.01s-.05-2.74.15-7c.34-4.41 1.09-6.31 3.74-6.31 2.62 0 3.13 2.52 3.52 4.6l.44-2.08c.64-2.86 3.17-4.64 6.1-4.64h.02c2.93 0 5.46 1.78 6.1 4.64l.48 2.25c.4-2.11.86-4.77 3.56-4.77 2.65 0 3.4 1.9 3.74 6.31.19 4.26.13 7 .13 7zM9.79 11.4c0-2.15-1.74-3.89-3.89-3.89-2.15 0-3.89 1.75-3.89 3.89s1.74 3.89 3.89 3.89c2.14 0 3.89-1.74 3.89-3.89zm-1.98 0c0 1.06-.86 1.92-1.91 1.92a1.92 1.92 0 0 1 0-3.84c1.05 0 1.91.86 1.91 1.92z" style="fill: #000000;"/></svg>
