<svg xmlns="http://www.w3.org/2000/svg" viewBox="0 0 32 32"><path stroke-width="0" d="M22.994 24.754q-.644-.729-1.287-1.46.306-.462.512-.993c.782-1.908.4-4.233-1.002-5.774-.24-.284-.616-.718-.862-1.003q-.9-1.037-1.816-2.059c.595-1.012.949-2.169.788-3.371-.132-1.017-.629-1.932-1.307-2.669-1.326-1.436-3.475-1.768-5.274-1.196a5.5 5.5 0 0 0-1.026.435C9.963 5.096 8.183 3.552 6.412 1.999l-1.063 1.06c1.114 1.326 2.275 2.604 3.415 3.904l1.128 1.306c-.266.342-.5.71-.69 1.127-1.008 2.149-.038 4.416 1.462 6.047 2.114 2.452 4.311 4.862 6.646 7.103q.709.674 1.432 1.335a3.9 3.9 0 0 1-1.81.171 6.4 6.4 0 0 1-.934-.19c-.814-.271-1.576-.789-2.159-1.429-.791-.86-1.083-1.948-.727-3.035q-.5-.541-1.018-1.117c-1.237 1.346-1.379 3.327-.441 4.922.83 1.432 2.282 2.527 3.947 2.76a6.7 6.7 0 0 0 4.36-.976c1.176 1.059 2.359 2.11 3.521 3.184a66 66 0 0 0 2.102 1.828l1.066-1.057c-1.168-1.443-2.428-2.799-3.656-4.19ZM13.13 7.84c2.011-.236 4.399 1.384 4.012 3.577a4 4 0 0 1-.095.416 81 81 0 0 0-2.877-2.945q-.562-.519-1.128-1.033.043-.008.088-.015m-.873 6.072c-1.163-.963-2.184-2.378-1.588-3.896a3.5 3.5 0 0 1 .272-.554c.988 1.11 2.001 2.197 3.081 3.222q.844.826 1.716 1.641c-.24.334-.491.659-.737.971q.526.482 1.022.947.478-.38.92-.802a268 268 0 0 0 1.816 1.647c.236.212.706.642.939.856a3.47 3.47 0 0 1 1.103 1.718c.224.781.142 1.646-.186 2.402a76 76 0 0 0-1.327-1.447c-2.216-2.352-4.604-4.57-7.033-6.705Z" style="fill: #000000;"/></svg>
