<svg xmlns="http://www.w3.org/2000/svg" viewBox="0 0 32 32"><path d="M9.15 20.18h2.88v1.96H9.15zM9.12 24.1h2.91v1.96H9.12zM9.15 16.25h2.88v1.96H9.15zM26.69 21c-2.22.82-3.38 2.29-4.06 3.2-.55-.43-1-.68-2-.81l-.11.26c.72.52 1.47 1.43 1.89 2.58l.94-.01c.8-2.16 2.33-3.96 3.48-4.98l-.14-.24z" style="fill: #000000;"/><path d="M26.84 18.12V7.4h-4.06c-.15-.66-1-2.17-3.08-1.97C19.45 2.85 17.39 2 16.03 2c-1.44 0-3.47 1-3.68 3.44-1.8-.16-2.79.94-3.07 1.97H5.22V30h1.96V9.36h1.97v1.97H22.9V9.36h1.97v8.01c-.43-.09-1.18-.18-1.97-.08v-1.05h-8.6v1.96h6.01c-.81.5-1.49 1.17-2.01 1.97h-4v1.96h3.16c-.11.47-.24 1.34-.15 1.97H14.3v1.96h3.48a6.363 6.363 0 0 0 12.23-2.46 6.396 6.396 0 0 0-3.17-5.48zM16.01 7.4a1.72 1.72 0 1 1 0-3.44 1.72 1.72 0 0 1 0 3.44zm7.63 21.07c-2.68 0-4.86-2.18-4.86-4.86s2.18-4.86 4.86-4.86 4.86 2.18 4.86 4.86-2.18 4.86-4.86 4.86z" style="fill: #000000;"/></svg>
