<svg xmlns="http://www.w3.org/2000/svg" viewBox="0 0 32 32"><path stroke-width="0" d="M16 10c1.381 0 2.5-1.151 2.5-2.571 0-2.008-1.931-3.142-2.208-5.429h-.583c-.278 2.287-2.208 3.42-2.208 5.429 0 1.42 1.119 2.571 2.5 2.571ZM23.667 10c1.381 0 2.5-1.151 2.5-2.571 0-2.008-1.931-3.142-2.208-5.429h-.583c-.278 2.287-2.208 3.42-2.208 5.429 0 1.42 1.119 2.571 2.5 2.571ZM8.333 10c1.381 0 2.5-1.151 2.5-2.571 0-2.008-1.931-3.142-2.208-5.429h-.583c-.278 2.287-2.208 3.42-2.208 5.429 0 1.42 1.119 2.571 2.5 2.571ZM16 30c1.381 0 2.5-1.151 2.5-2.571 0-2.008-1.931-3.142-2.208-5.429h-.583c-.278 2.287-2.208 3.42-2.208 5.429 0 1.42 1.119 2.571 2.5 2.571ZM23.667 30c1.381 0 2.5-1.151 2.5-2.571 0-2.008-1.931-3.142-2.208-5.429h-.583c-.278 2.287-2.208 3.42-2.208 5.429 0 1.42 1.119 2.571 2.5 2.571ZM8.333 30c1.381 0 2.5-1.151 2.5-2.571 0-2.008-1.931-3.142-2.208-5.429h-.583c-.278 2.287-2.208 3.42-2.208 5.429 0 1.42 1.119 2.571 2.5 2.571ZM12.167 20c1.381 0 2.5-1.151 2.5-2.571 0-2.008-1.931-3.142-2.208-5.429h-.583c-.278 2.287-2.208 3.42-2.208 5.429 0 1.42 1.119 2.571 2.5 2.571ZM19.833 20c1.381 0 2.5-1.151 2.5-2.571 0-2.008-1.931-3.142-2.208-5.429h-.583c-.278 2.287-2.208 3.42-2.208 5.429 0 1.42 1.119 2.571 2.5 2.571ZM27.5 20c1.381 0 2.5-1.151 2.5-2.571 0-2.008-1.931-3.142-2.208-5.429h-.583c-.278 2.287-2.208 3.42-2.208 5.429 0 1.42 1.119 2.571 2.5 2.571ZM4.5 20C5.881 20 7 18.849 7 17.429 7 15.421 5.069 14.287 4.792 12h-.583c-.278 2.287-2.208 3.42-2.208 5.429 0 1.42 1.119 2.571 2.5 2.571Z" style="fill: #000000;"/></svg>
