<svg xmlns="http://www.w3.org/2000/svg" viewBox="0 0 32 32"><path d="M11.859 16.049c.017 1.147-.004 2.744.033 3.905.084 2.111 2.003 3.896 4.108 3.842 2.105.054 4.024-1.731 4.108-3.842.036-1.162.016-2.756.033-3.905-2.43.05-5.852.051-8.282 0zm6.43 3.805c-.022 1.197-1.093 2.219-2.289 2.217-1.196.002-2.267-1.02-2.29-2.217-.009-.291-.004-.86.002-1.432.727.312 1.484.441 2.288.473.81.002 1.568-.116 2.29-.44.006.563.01 1.117 0 1.399z" style="fill: #000000;"/><path d="M27.978 17.805c-.205-.423-.225-.975-.229-1.437-.007-1.01-.697-1.986-1.501-2.539a3.521 3.521 0 0 0-1.3-.554c-.588-.117-1.191-.081-1.781-.193a2.821 2.821 0 0 1-2.298-2.769V7.136h-1.152l-.474-5.098h-1.455l-.473 5.098h-2.63l-.473-5.098h-1.455l-.474 5.098h-1.152v3.177c0 1.018-.57 1.979-1.461 2.47-.397.218-.842.335-1.288.394-.452.059-.912.013-1.36.107-.518.11-1.011.34-1.433.66-.557.422-.994 1.01-1.19 1.683-.255.694-.046 1.504-.377 2.178-.195.542-.893 1.14-1.284 1.55l1.022 1.051c.635-.505 1.46-1.127 1.826-1.877.455-.674.416-1.55.692-2.279.358-.626.895-.79 1.569-.666l.253.023v12.196l.463.257a14.9 14.9 0 0 0 3.467 1.387 15.557 15.557 0 0 0 7.938 0 14.927 14.927 0 0 0 3.47-1.387l.462-.257v-12.2l.623-.062c.656-.057 1.284.522 1.357 1.203.066 1.56 1.14 2.81 2.36 3.662l1.022-1.05c-.386-.406-1.091-1.012-1.284-1.551zM22.1 25.732c-.815.41-1.684.737-2.59.975-2.288.603-4.73.604-7.022-.002a13.174 13.174 0 0 1-2.588-.973V14.65a4.623 4.623 0 0 0 3.03-4.337V8.937h6.14v1.376c0 1.96 1.236 3.68 3.03 4.337v11.082z" style="fill: #000000;"/></svg>
