<svg xmlns="http://www.w3.org/2000/svg" viewBox="0 0 32 32"><path d="M24.17 9.3c-2.55-.94-2.12-4.8-2.12-4.8H18.3s.85 3.43.11 5.31c-1.72 3.16-.21 6.54-1.35 7.6-.9.84-4.81 1.43-7.55 2.26-3.13.95-3.39 2.03-3.39 9.23h2.81s-.86-4.24.35-4.24c1.04 0 .09 2.68 5.72 4.17 4.13 1.09 8.51-.83 10.6-2.45 4.25-3.28 7.04-13.96-1.43-17.08zm-1.71 14.54c-5.89 2.91-11.09 1.27-11.09-.66 0-3.37 5.36-2.61 7.14-4.42 1.95-1.98.26-4.63 1.4-4.94.71-.15 1.17.57 1.82.54.62-.02 1.18-.85 1.68-.85.43 0 .79.67 1.35.67.69 0 1.15-.83 1.89-.66.81.2 2.66 6.93-4.19 10.32zM11.7 10.49c-1.07.2-1.77 1.24-1.57 2.31.2 1.07 1.24 1.77 2.31 1.57s1.77-1.24 1.57-2.31a1.975 1.975 0 0 0-2.31-1.57zm-4.03 8.14C-.14 12.08 8.44.74 16.84 6.58l.91-1c-3.47-4.01-10.49-3.5-13.57.84C.83 10.55 2.2 17.44 7 19.7l.67-1.07zM7.5 9.1c-1.45 2.06-1.34 5.18 1.08 6.69l.78-.9c-1.23-1.52-1.09-3.32-.19-4.56.92-1.24 2.59-1.91 4.41-1.19l.62-1.02c-2.17-1.86-5.17-1.02-6.7.98z" style="fill: #000000;"/></svg>
