<svg xmlns="http://www.w3.org/2000/svg" viewBox="0 0 32 32"><path stroke-width="0" d="M25.8 7.049c-1.343-1.433-3.581-1.254-4.566-.448-1.074-.806-2.955-.806-4.029 0-1.254-.806-2.686-.806-4.029 0-1.164-.806-2.775-.806-4.029 0-3.134-2.06-7.163 1.433-5.014 5.014-.806 1.074-.806 2.865 0 4.029-.985 1.343-.806 4.029.806 5.193 1.343.985 1.253 3.044 1.253 3.044h1.97s-.09-2.06 1.254-3.134c2.148-1.611 1.343-4.476.805-5.193.269-.447.717-1.253.538-2.417 1.074.09 1.97-.269 2.327-.537 1.164.806 2.865.806 4.03 0a3.2 3.2 0 0 0 2.327.537c-.179 1.074.269 1.97.537 2.417-.805 1.075-.805 2.776-.09 3.85-1.79-.447-4.565.985-4.207 4.298.358 2.954 2.686 2.319 2.632 5.56h2.113c.09-3.223 1.343-2.337 2.238-4.038 3.403.447 5.193-3.223 3.582-5.551.806-1.164.806-2.865 0-4.03.806-.895.806-2.954 0-4.028.806-1.254.985-3.044-.448-4.566m-1.97 8.595c1.343.448 2.15 2.954 0 4.029.806.268 1.343 1.164 1.343 1.97 0 1.88-2.417 2.775-3.67 1.432 0 2.686-4.119 2.776-4.119 0 0-1.701 2.328-2.686 3.67-1.343 0-.895.628-1.701 1.433-2.06-2.059-.984-1.432-3.49 0-4.028-1.7-.716-1.79-3.223 0-4.03-.537-.178-1.074-.715-1.253-1.253-.895 1.791-3.044 1.612-4.029 0-.895 1.702-3.134 1.791-4.029 0-.627 1.612-3.313 1.791-4.029 0-.179.538-.716 1.075-1.253 1.254 1.97.895 1.522 3.402 0 4.029 2.148.895 1.432 4.029-.717 4.029-2.238 0-2.865-3.223-.716-4.03-2.06-.984-1.522-3.49 0-4.028-.806-.269-1.343-1.164-1.343-1.97 0-1.164.895-2.06 2.06-2.06.805 0 1.7.538 1.969 1.344.895-1.97 3.402-1.522 4.029 0 1.164-2.149 3.492-1.433 4.029 0 .716-1.79 3.313-1.701 4.029 0 .179-.806 1.074-1.343 1.88-1.343 1.164 0 2.06.895 2.06 2.06 0 .805-.538 1.7-1.344 1.969 1.522.537 1.97 3.044 0 4.029" style="fill: #000000;"/><path stroke-width="0" d="M4.223 5.787a.611.611 0 1 0-1.201.23.611.611 0 0 0 1.2-.23" style="fill: #000000;"/><path stroke-width="0" d="m5.099 4.092.281-.31c-1.074-1.241-3.246-1.083-4.2.26-1.037 1.278-.612 3.41.873 4.11l.207-.331C-.157 5.794 2.5 2.284 5.1 4.09" style="fill: #000000;"/><path stroke-width="0" d="M2.725 5.252c.284-.384.801-.591 1.365-.368l.191-.316c-.671-.576-1.6-.316-2.073.303-.449.638-.415 1.604.334 2.07l.242-.278c-.381-.47-.338-1.027-.06-1.41M26.472 5.15a.612.612 0 1 0 .23 1.203.612.612 0 0 0-.23-1.202" style="fill: #000000;"/><path stroke-width="0" d="m28.397 7.228.31.281c1.24-1.074 1.082-3.246-.26-4.2-1.279-1.036-3.411-.612-4.11.873l.33.208c2.027-2.418 5.537.238 3.73 2.838" style="fill: #000000;"/><path stroke-width="0" d="M27.92 6.41c.576-.671.316-1.6-.303-2.073-.638-.449-1.603-.415-2.07.334l.278.242c.47-.381 1.027-.338 1.411-.06.384.286.591.802.368 1.366zM28.658 21.063a.612.612 0 1 0-.687 1.013.612.612 0 0 0 .687-1.013" style="fill: #000000;"/><path stroke-width="0" d="M31.357 21.157c-.171-1.637-1.979-2.845-3.524-2.29l.088.381c3.142-.275 3.746 4.084.63 4.644l.02.418c1.637.118 3.061-1.53 2.786-3.153" style="fill: #000000;"/><path stroke-width="0" d="m28.704 22.619.088.358c.882-.067 1.354-.908 1.251-1.68-.133-.768-.84-1.427-1.7-1.228l.026.368c.602.063.965.488 1.04.956.07.473-.149.985-.705 1.226" style="fill: #000000;"/></svg>
