<svg xmlns="http://www.w3.org/2000/svg" viewBox="0 0 32 32"><path d="M26.63 14.91c-.71-2.06.45-4.17-1.72-7.95C23.37 4.2 18.89 2 14.54 2 4.2 2 .47 12.39 5.2 19.41c.48.72.87 1.86.87 2.6L6.43 30h1.5l.41-7.3c.05-1.57-.42-3.05-1.26-4.29-3.57-5.29-1.32-11.97 4.33-13.78v6.57a5.015 5.015 0 0 0-2.43 4.3 5.04 5.04 0 0 0 4.44 5 3.335 3.335 0 0 0 3.32 3.12h3.34c.24.54.78.92 1.4.92.84 0 1.53-.69 1.53-1.53s-.69-1.53-1.53-1.53c-.63 0-1.17.38-1.4.93h-3.34c-1.1 0-1.99-.84-2.1-1.91a5.045 5.045 0 0 0 4.41-5c0-1.82-.98-3.42-2.43-4.3V4.3c5.04.77 7.87 4.3 7.65 8.72-.15 2.99 1.3 4.49 2.49 5.98-.99.6-2.23 1.14-2.32 2.63-.05.79.11 2.41.14 3.56.02 1.02-.12 1.7-1.4 1.57-.93-.1-6-1.26-6 3.24h1.5c0-2.18 3.87-.97 5.54-1.19 1.67-.23 2.43-1.43 2.47-3.01.04-1.58-.2-3.06-.12-4.12l1.33-.89c2.52-1.87-.83-4.63-1.27-5.88zm-9.54.59c0 1.69-1.38 3.07-3.07 3.07s-3.07-1.38-3.07-3.07 1.38-3.07 3.07-3.07 3.07 1.38 3.07 3.07zm-1.67-4.84a4.935 4.935 0 0 0-2.79 0V4.33c.6-.11 1.23-.19 1.89-.19.31 0 .6.02.9.03v6.49z" style="fill: #000000;"/></svg>
