<svg xmlns="http://www.w3.org/2000/svg" viewBox="0 0 32 32"><path d="M21.387 9.386l-3.985 3.187a3.69 3.69 0 0 0-4.1.885 3.698 3.698 0 0 0 5.4 5.055 3.691 3.691 0 0 0 .716-3.922l3.195-3.977-1.226-1.228z" style="fill: #000000;"/><path d="M3.319 10.167C.595 16.13 2.246 22.726 7.084 26.974l.915-1.08 2.695-3.174-1.222-1.268-2.567 1.673a11.107 11.107 0 0 1-2.03-5.66L8.018 17v-2l-2.993-.442A12.105 12.105 0 0 1 7.318 9.36l2.339 1.668 1.414-1.414L9.4 7.272a10.696 10.696 0 0 1 5.176-2.158L15 7.995h2l.428-2.897c9.945 1.153 13.52 14.188 5.658 20.427l1.25 1.561c2.2-1.532 3.906-3.809 4.844-6.396C34.47 3.771 11.441-5.745 3.32 10.167z" style="fill: #000000;"/></svg>
