<svg xmlns="http://www.w3.org/2000/svg" viewBox="0 0 32 32"><path stroke-width="0" d="M25.913 21.332H5.903v-14h6.55v-2h-8.55v18h6.68c.82 0 1.32.23 1.32.95v1.4c0 1.02-.11 1.66-1.97 1.66h-2.03v1.99h16v-2h-2.02c-1.86 0-1.97-.64-1.97-1.66v-1.39c0-.71.51-.95 1.33-.95h6.66v-5.02h-1.99z" style="fill: #000000;"/><path stroke-width="0" d="M26.956484 15.772522 26.956484 15.766846 26.956484 4.356689 24.103945 4.356689 24.103945 15.789673 22.962893 15.789673 22.962893 9.496948 20.110354 9.496948 20.110354 15.789673 18.969362 15.789673 18.969362 12.919983 16.116823 12.919983 16.116823 15.789673 14.975832 15.789673 14.975832 2.667969 13.83478 2.667969 13.83478 16.930664 28.097475 16.930664 28.097475 15.772522 26.956484 15.772522z" style="fill: #000000;"/></svg>
