<svg xmlns="http://www.w3.org/2000/svg" viewBox="0 0 32 32"><path fill-rule="evenodd" d="M2 2v6.51c0 1.09.89 1.98 1.98 1.98h24.03c1.1 0 1.98-.89 1.98-1.98V2H2zm3 4.99c-.55 0-1-.45-1-1s.45-1 1-1 1 .45 1 1-.45 1-1 1zm3 0c-.55 0-1-.45-1-1s.45-1 1-1 1 .45 1 1-.45 1-1 1zm3 0c-.55 0-1-.45-1-1s.45-1 1-1 1 .45 1 1-.45 1-1 1zm17 0H16v-2h12v2zM2 18.26c0 1.1.89 1.98 1.98 1.98h24.03c1.1 0 1.98-.89 1.98-1.98v-6.51H2v6.51zm14-3.52h12v2H16v-2zm-5 0c.55 0 1 .45 1 1s-.45 1-1 1-1-.45-1-1 .45-1 1-1zm-3 0c.55 0 1 .45 1 1s-.45 1-1 1-1-.45-1-1 .45-1 1-1zm-3 0c.55 0 1 .45 1 1s-.45 1-1 1-1-.45-1-1 .45-1 1-1zM2 28.02C2 29.11 2.89 30 3.98 30h24.03c1.1 0 1.98-.89 1.98-1.98v-6.51H2v6.51zm14-3.52h12v2H16v-2zm-5 0c.55 0 1 .45 1 1s-.45 1-1 1-1-.45-1-1 .45-1 1-1zm-3 0c.55 0 1 .45 1 1s-.45 1-1 1-1-.45-1-1 .45-1 1-1zm-3 0c.55 0 1 .45 1 1s-.45 1-1 1-1-.45-1-1 .45-1 1-1z" clip-rule="evenodd" style="fill: #000000;"/></svg>
