<svg xmlns="http://www.w3.org/2000/svg" viewBox="0 0 32 32"><path stroke-width="0" d="M26.626 14.91c-.71-2.06.45-4.17-1.72-7.95C23.366 4.2 18.886 2 14.536 2 4.196 2 .466 12.39 5.196 19.41c.48.72.87 1.86.87 2.6l.36 7.99h1.5l.41-7.3c.05-1.57-.42-3.05-1.26-4.29-3.57-5.29-1.05-14.27 7.44-14.27 6.89 0 9.98 4.46 9.76 8.88-.15 2.99 1.3 4.49 2.49 5.98-.99.6-2.23 1.14-2.32 2.63-.05.79.11 2.41.14 3.56.02 1.02-.12 1.7-1.4 1.57-.93-.1-6-1.26-6 3.24h1.5c0-2.18 3.87-.97 5.54-1.19 1.67-.23 2.43-1.43 2.47-3.01s-.2-3.06-.12-4.12l1.33-.89c2.51-1.87-.84-4.63-1.28-5.88" style="fill: #000000;"/><path stroke-width="0" d="M19.302 9.806c.161-2.506-3.62-3.966-5.524-1.488-.645-.457-2.936-.752-3.702 1.583-2.508 0-2.6 3.7-.083 3.8h9.212c2.185 0 2.697-3.705.097-3.895m-.503 3.182H9.993c-1.53-.348-.89-2.226 0-2.14.11.01.849.152.849.152.41-3.281 3.462-2.03 3.407-.314h.922a2.74 2.74 0 0 0-.669-1.783c1.107-1.598 4.505-.909 3.472 1.479l.618.708c1.872-.842 1.766 1.898.207 1.898" style="fill: #000000;"/></svg>
