<svg xmlns="http://www.w3.org/2000/svg" viewBox="0 0 32 32"><path stroke-width="0" d="M29.087 20.981c.59-1.548.913-3.227.913-4.981 0-7.732-6.268-14-14-14S2 8.268 2 16s6.268 14 14 14c5.255 0 9.832-2.895 12.227-7.177l-2.397.065a12 12 0 0 1-1.344 1.597A11.93 11.93 0 0 1 16.001 28a11.9 11.9 0 0 1-7.483-2.618l4.991-5.74a.947.947 0 0 0 .008-1.317 3.4 3.4 0 0 1-.976-2.065c-.225-2.09 1.555-3.931 3.651-3.816 1.668.039 3.171 1.39 3.405 3.046.365 2.278-1.459 4.115-3.632 4.437v.8c1.024.134 2.099-.167 2.948-.765l2.344 2.004a7.5 7.5 0 0 1-1.792 1.023 8 8 0 0 1-2.213.552c-1.462.165-3-.116-4.277-.837l-1.061 2.374a10.4 10.4 0 0 0 2.827.611 10.1 10.1 0 0 0 7.678-2.729c.518-.49 1.033-1.088 1.033-1.088l-3.223-3.343a4.97 4.97 0 0 0 .691-2.833l2.516-.788a7.5 7.5 0 0 1-.217 2.186l2.571.39c.142-1.838-.241-3.722-1.119-5.338a9.5 9.5 0 0 0-.989-1.488l-1.234.853a7.8 7.8 0 0 1 .717 1.736l-2.705.578a4.94 4.94 0 0 0-2.5-2.471 5.3 5.3 0 0 0-1.028-.332l-.153-2.602q.072.002.142.006a7.7 7.7 0 0 1 3.451 1.036l.84-1.243a9.5 9.5 0 0 0-1.903-1.122c-2.079-.922-4.477-1.061-6.663-.412l.838 2.355a7.3 7.3 0 0 1 1.656-.504l-.144 2.456c-2.43.44-4.395 2.639-4.236 5.403.045.87.326 1.727.791 2.47l-4.97 4.574a11.9 11.9 0 0 1-2.582-7.438c0-2.812.961-5.475 2.726-7.617l1.479 1.281a10 10 0 0 0-.623.977c-1.499 2.638-1.659 6.004-.377 8.744l1.399-.541a7.7 7.7 0 0 1 .094-4.748 7.3 7.3 0 0 1 2.726-3.603L8.368 6.739a11.9 11.9 0 0 1 7.63-2.737c3.205 0 6.219 1.248 8.485 3.515a11.92 11.92 0 0 1 3.515 8.485 12 12 0 0 1-.404 3.103l1.49 1.878Z" style="fill: #000000;"/></svg>
