<svg xmlns="http://www.w3.org/2000/svg" data-name="Layer 1" version="1.1" viewBox="0 0 32 32"><path stroke-width="0" d="M16 6.6c-1.1 0-2 .9-2 2s.9 2 2 2 2-.9 2-2-.9-2-2-2m0 3c-.5 0-1-.5-1-1s.5-1 1-1 1 .5 1 1-.5 1-1 1m6.9.9c-2.2.3-6.1 1-6.9 1s-4.6-.7-6.9-1v1.7c2.7 0 4.7.6 5.2.9 0 3.2-1.2 9.2-2.2 12.3H14c0-3.9 1.7-6.7 1.7-6.7h.5s1.7 2.8 1.7 6.7h1.9c-.9-3-2.2-9.1-2.2-12.3.5-.3 2.5-.8 5.2-.9v-1.7Zm0 0c-2.2.3-6.1 1-6.9 1s-4.6-.7-6.9-1v1.7c2.7 0 4.7.6 5.2.9 0 3.2-1.2 9.2-2.2 12.3H14c0-3.9 1.7-6.7 1.7-6.7h.5s1.7 2.8 1.7 6.7h1.9c-.9-3-2.2-9.1-2.2-12.3.5-.3 2.5-.8 5.2-.9v-1.7Zm-6.9.1c1.1 0 2-.9 2-2s-.9-2-2-2-2 .9-2 2 .9 2 2 2m0-3c.6 0 1 .5 1 1s-.5 1-1 1-1-.5-1-1 .5-1 1-1M16 2C8.3 2 2 8.3 2 16s6.3 14 14 14 14-6.3 14-14S23.7 2 16 2m0 26C9.4 28 4 22.6 4 16S9.4 4 16 4s12 5.4 12 12-5.4 12-12 12M9.1 10.6v1.7c2.7 0 4.7.6 5.2.9 0 3.2-1.2 9.2-2.2 12.3H14c0-3.9 1.7-6.7 1.7-6.7h.5s1.7 2.8 1.7 6.7h1.9c-.9-3-2.2-9.1-2.2-12.3.5-.3 2.5-.8 5.2-.9v-1.7c-2.2.3-6.1 1-6.9 1s-4.6-.7-6.9-1Zm6.9 0c1.1 0 2-.9 2-2s-.9-2-2-2-2 .9-2 2 .9 2 2 2m0-3c.6 0 1 .5 1 1s-.5 1-1 1-1-.5-1-1 .5-1 1-1" style="fill: #000000;"/></svg>
