<svg xmlns="http://www.w3.org/2000/svg" viewBox="0 0 32 32"><path d="M29.97 21.41h-2.56V11.7h-4.23V2.01h-9.52v9.69H9.89v9.71H7.66v-14c0-3.65-3.49-5.12-4.73-5.42l-.9 3.06c3.61.47 4.06 2.65 4.11 4.04v12.32H3.97v2.98h5.34a2.826 2.826 0 0 0-2.44 2.8c0 1.56 1.27 2.84 2.84 2.84 1.56 0 2.84-1.27 2.84-2.84 0-1.43-1.07-2.6-2.44-2.8h13.84a2.826 2.826 0 0 0-2.44 2.8c0 1.56 1.27 2.84 2.84 2.84 1.56 0 2.84-1.27 2.84-2.84 0-1.43-1.07-2.6-2.44-2.8H30v-2.98zm-18.93 5.77a1.34 1.34 0 1 1-1.34-1.34c.74.01 1.34.61 1.34 1.34zm14.62 0a1.34 1.34 0 1 1-1.34-1.34c.74.01 1.34.61 1.34 1.34zM15.17 3.53h6.49v6.84c0 .17-.22.37-.54.37h-5.41c-.32 0-.54-.19-.54-.37V3.53zm2.72 16.5c0 .17-.22.37-.54.37h-5.41c-.32 0-.54-.19-.54-.37v-6.82h6.49v6.82zm8.01 0c0 .17-.22.37-.54.37h-5.41c-.32 0-.54-.19-.54-.37v-6.82h6.49v6.82z" style="fill: #000000;"/></svg>
