<svg width="24" height="24" viewBox="0 0 24 24" fill="none" xmlns="http://www.w3.org/2000/svg">
<path fill-rule="evenodd" clip-rule="evenodd" d="M15.5474 2.17505L19.5752 6.18005C20.0098 6.61499 20.25 7.1925 20.25 7.8075V17.1992C19.8569 17.0699 19.4365 17 19 17C18.916 17 18.8325 17.0026 18.75 17.0077V8.67004C18.75 8.27246 18.4277 7.94995 18.0298 7.94995H13.7852V3.71997C13.7852 3.32251 13.4624 3 13.0649 3H5.25V21H15C15 21.5304 15.1035 22.0367 15.291 22.5H3.75V1.5H13.9277C14.5352 1.5 15.1123 1.73999 15.5474 2.17505ZM6.75 13.5H14.25V12H6.75V13.5ZM6.75 16.5H17.25V15H6.75V16.5ZM6.75 19.5H13.5V18H6.75V19.5Z" fill="#22539F"/>
<path d="M22 21C22 22.6569 20.6569 24 19 24C17.3431 24 16 22.6569 16 21C16 19.3431 17.3431 18 19 18C20.6569 18 22 19.3431 22 21Z" fill="#FDB022"/>
</svg>
