<svg xmlns="http://www.w3.org/2000/svg" viewBox="0 0 32 32"><path d="M26.5 12.5v16h-21v-16h21M28 11H4v19h24V11zM20.63 2.09L20.55 2l-4.08 4.09.62.63 2.84-1.93V10h1.25V4.79L24 6.72l.64-.64zM11.36 9.91l.09.09 4.07-4.09-.62-.63-2.84 1.93V2h-1.25v5.21L7.99 5.28l-.64.64z" style="fill: #000000;"/><path d="M20.57 17.14h-.03c-3.51.01-3.79 4.69-3.79 4.74v.17h1.23v-.17c.07-2.11.7-2.84 1.05-3.08-.21 1.13-.93 4.81-1.01 5.24l-.04.21h.84l.17 3.44v.05h1.19l.13-3.48h.48l.14 3.48h1.19l.17-3.48h.84l-.04-.21c-.28-1.44-.83-4.29-1.01-5.24.35.24.98.97 1.05 3.08v.17h1.23v-.17c0-.06-.28-4.73-3.79-4.75zM20.55 13.36c-.91 0-1.66.74-1.66 1.66 0 .91.74 1.66 1.66 1.66s1.66-.74 1.66-1.66c0-.92-.74-1.66-1.66-1.66zm0 2.4c-.41 0-.75-.33-.75-.75s.33-.75.75-.75.75.33.75.75-.33.75-.75.75z" style="fill: #000000;"/><g><path d="M15.08 21.87c-.06-.76-.27-1.92-.92-3.16-.2-.37-.45-.68-.75-.92-.49-.42-1.13-.63-1.97-.65-.83.02-1.47.23-1.96.65-.3.24-.55.56-.75.93a8.09 8.09 0 0 0-.92 3.16l-.01.19h1.24v-.17c.07-2.12.61-2.8.92-3.02l-.33 3.72.25 5.09v.05h1.19l.19-4.98h.36l.19 4.93v.05H13l.25-5.17-.33-3.69c.3.22.85.92.92 3.01v.17h1.24v-.19zM11.44 13.36c-.91 0-1.66.74-1.66 1.66 0 .91.74 1.66 1.66 1.66s1.66-.74 1.66-1.66c-.01-.92-.75-1.66-1.66-1.66zm0 2.4c-.41 0-.75-.33-.75-.75s.33-.75.75-.75.75.33.75.75-.34.75-.75.75z" style="fill: #000000;"/></g></svg>
