<svg xmlns="http://www.w3.org/2000/svg" viewBox="0 0 32 32"><path fill-rule="evenodd" d="M24.99 3.71c-2.35 0-4.3 1.62-4.84 3.8H5.67c-1.91 0-3.67 1.47-3.64 3.91v16.87h26.34v-15.9c3.34-2.95 1.14-8.74-3.38-8.68zm-1.72 2.96c.85.01 1.66.13 1.58-.98h.88v6.04h-1.12V7.1h-1.34v-.43zm-3.15 3.14c.19.84.6 1.59 1.15 2.22l-6.09 6.53-8.14-8.75h13.08zm-15.8 3.12c.05-1.04 1.19-1.36 1.79-.75l4.7 5.04-6.49 6.97V12.93zm1.47 13.05l6.59-7.07 2.81 3.01L18 18.91l6.59 7.07H5.79zm20.27-1.79l-6.5-6.96 3.61-3.87c.88.36 1.95.46 2.89.23v10.6z" clip-rule="evenodd" style="fill: #000000;"/></svg>
