<svg xmlns="http://www.w3.org/2000/svg" viewBox="0 0 32 32"><path fill-rule="evenodd" d="M30 11.11l-.62-1.37-4.1 1.87H13.01c-.69 0-1.11-.91-1.64-1.45-.44-.45-1.08-.86-1.76-.86H4.12C2.65 9.31 2 10.2 2 11.26v4.43h1c0 1.64-1 7-1 7l4.18-.02.92-6.21c.51 1.87 1.51 3.48 2.41 4.39l.98-.78c-.9-.9-1.52-2.48-1.8-4.38h.92c.71 0 1.32-.36 1.76-.81.51-.53.95-1.73 1.62-1.77h12.28l4.1 1.87.63-1.36-2.75-1.25L30 11.11zM10 14.3H3.33v-2.73c0-.48.39-.86.86-.86H10v3.59z" clip-rule="evenodd" style="fill: #000000;"/></svg>
