<svg xmlns="http://www.w3.org/2000/svg" viewBox="0 0 32 32"><path d="M23.51 13.48c-1.93 0-3.51 1.58-3.51 3.51s1.57 3.51 3.51 3.51c1.93 0 3.51-1.58 3.51-3.51s-1.58-3.51-3.51-3.51zm0 5.01c-.83 0-1.51-.68-1.51-1.51s.68-1.51 1.51-1.51 1.51.68 1.51 1.51-.68 1.51-1.51 1.51zM7.98 12.5c-1.65 0-3 1.35-3 3s1.35 3 3 3h3v-3c0-1.65-1.35-3-3-3zm1 4h-1c-.55 0-1-.45-1-1s.45-1 1-1 1 .45 1 1v1zM28 10.53V5.5h-8v4h-7.5v-4h-8v4.7c-1.49.86-2.5 2.46-2.5 4.3v12h28v-12c0-1.63-.79-3.06-2-3.97zM22 7.5h4v2h-4v-2zm-15.5 0h4v2h-4v-2zm21.5 13c0 1.1-.9 2-2 2H6c-1.1 0-2-.9-2-2v-6c0-1.66 1.35-3 3-3h18c1.66 0 3 1.35 3 3v6z" style="fill: #000000;"/></svg>
