<svg xmlns="http://www.w3.org/2000/svg" viewBox="0 0 32 32"><path d="M12.5 29.98c-.1-.93-.51-2.66-1.19-3.32-.24-.23-.93-.14-1.59-.06-1.08.14-2.42.32-3.51-.6-1.14-.96-.95-2.42-.73-4.12.08-.64.18-1.37.22-2.14l-1.2-.92c-.46-.33-.75-.84-.81-1.4-.06-.56.12-1.12.5-1.54.58-.64 1.38-1.6 1.92-2.51.27-.45.3-.99.34-1.74.09-1.34.19-3.17 1.81-5.63 1.63-2.49 5.95-4.19 10.05-3.96 4 .23 7.11 2.17 8.75 5.45 2.72 5.43.41 9.09-1.11 11.52-.43.69-.81 1.29-.98 1.78-.71 1.97 1.04 4.29 1.06 4.31l-1.58 1.22c-.1-.13-2.45-3.2-1.36-6.21.25-.69.7-1.41 1.17-2.16 1.44-2.29 3.23-5.14 1.02-9.56-1.77-3.54-5.2-4.25-7.08-4.35-3.74-.22-7.2 1.42-8.27 3.05-1.32 2.02-1.4 3.42-1.48 4.65-.05.91-.11 1.77-.62 2.64-.62 1.05-1.51 2.11-2.15 2.82l1.14.83c.57.42.9 1.09.86 1.8-.04.86-.14 1.63-.23 2.31-.14 1.07-.27 2.08.03 2.33.39.33 1.03.27 1.97.15 1.03-.13 2.31-.3 3.24.6 1.42 1.37 1.76 4.22 1.79 4.54l-1.98.22zm9.91-16.22c-.04-2.11-1.48-3.13-2.75-2.92-.85.14-1.41.58-1.77 1.04.21.32.2.3.41.61.2-.06.43-.1.69-.1 1.08 0 1.33.94 1.36 1.25.15 1.55-.79 2.81-2.02 2.99-.89.13-1.18-.16-1.18-.16s.02 1.33 1.64 1.33c1.89-.01 3.67-1.65 3.62-4.04zm-4.28 2.89zm-9.26 1.39c.38.76.31.96.31.96s.74-.5 2.01-.51c2.5-.02 3.07 2.89 3.07 2.89s-1.51-1.37-3.29-1.18c-1.54.16-1.79.78-1.79.78l-.11 2.22s.38-.49 2.3-.36c1.54.11 2.7.78 3.48 2.13 1.33 2.32 1.48 4.53 1.48 4.53s.92-.1 1.85-.38c1.24-.37 1.78-.59 1.78-.59s-1.58-1.38-2.26-4.58c-.68-3.21-1.19-5.29-2.8-6.95-1.14-1.18-2.83-1.29-4.76-.84-1.68.37-2.23.84-2.23.84s.61.33.96 1.04z" style="fill: #000000;"/></svg>
