<svg xmlns="http://www.w3.org/2000/svg" viewBox="0 0 32 32"><path d="M28.67 11.17l-1.38.48C31 25.26 14.78 32.37 6.94 23.7l2.93-.19v-.98l-5.67-.44-.54 5.85h.98l.59-2.5c10.76 11.36 28.67-.45 23.44-14.27zM15.91 8.08c-4.41 0-7.99 3.59-7.99 7.99 0 4.41 3.59 7.99 7.99 7.99s7.99-3.59 7.99-7.99c.01-4.4-3.58-7.99-7.99-7.99zm0 14.39c-1.07 0-2.08-.27-2.97-.74l.36-2.9c.03-.27.07-.39-.34-.65s-1.16-.4-1.25-.85c-.09-.45-.18-1.18-.66-1.45l-1.46-.67a6.417 6.417 0 0 1 3.19-4.71l-.28 1.25c-.21 1.16.98 1.7 2.23.71l2.55-2.64c1.18.26 2.24.84 3.08 1.65l-1.64.44c-.43.12-.65.66-.35.99.43.46-.46 1.39-.69 1.71-.24.32-1.33.41-1.33.41-.3.05-.53.32-.53.63v1.68c0 .64.89.74 1.52 1.12.62.38.25 1.12.18 1.86s.88 1 1.5.48 2-3.13 2.52-3.04l.57-.09c-.73 2.77-3.23 4.81-6.2 4.81zM25.06 8.3l-2.93.19v.98l5.67.45.54-5.85h-.98l-.59 2.5C16.01-4.8-1.9 7.01 3.33 20.83l1.38-.48C1 6.74 17.22-.37 25.06 8.3z" style="fill: #000000;"/></svg>
