<svg xmlns="http://www.w3.org/2000/svg" viewBox="0 0 32 32"><path d="M22.71 12.02l-.85-2H10.14l-.85 2H7v6h1.77l2.1 11.97h10.28l2.1-11.97H25v-6h-2.29zm-2.89 13.27c-.26 1.24-.4 2.18-1.65 2.18h-4.34c-1.25 0-1.41-.99-1.65-2.18l-1.4-7.27h10.45l-1.41 7.27zM23 16.02H9v-2h1.7l.85-2h8.88l.85 2H23v2zm-3.23-7.96c0-.3.08-.33.12-.35.83-.3 1.38-1.09 1.43-2.06.06-.99-.43-1.89-1.25-2.3l-.1-.04c-.05-.02-.13-.05-.13-.35v-.94h-2v.95c0 1.05.49 1.84 1.36 2.2.08.06.13.22.12.38-.01.17-.08.28-.11.29-.92.33-1.44 1.14-1.44 2.23v.95h2v-.96zm-5.55 0c0-.3.08-.33.12-.35.83-.3 1.37-1.09 1.43-2.06.06-.99-.43-1.89-1.25-2.3l-.1-.04c-.04-.01-.12-.04-.12-.34v-.95h-2v.95c0 1.05.49 1.84 1.36 2.2.08.06.13.22.12.38-.01.17-.08.28-.11.29-.92.33-1.44 1.14-1.44 2.23v.95h2v-.96z" style="fill: #000000;"/></svg>
