<svg xmlns="http://www.w3.org/2000/svg" viewBox="0 0 32 32"><path d="M16 2C8.27 2 2 8.27 2 16s6.27 14 14 14 14-6.27 14-14S23.73 2 16 2zm0 26C9.38 28 4 22.62 4 16S9.38 4 16 4s12 5.39 12 12-5.38 12-12 12zm.69-19.64c1.78 0 2.78 1.37 2.74 4.08l3.44-.31c-.02-2.86-2.72-4.92-5.98-4.92-3.58 0-6.27 2.5-6.92 6.74H7.64v1.1h2.2c-.02.34-.02 1.61 0 1.87h-2.2v1.1h2.3c.6 4.42 3.39 6.74 7.01 6.74 3.29 0 5.33-1.92 5.66-5.26l-1.39-.24c-.26 2.86-1.85 4.22-3.86 4.22-2.38 0-3.52-1.85-3.9-5.47h4.38l.24-1.1h-4.72c-.02-.43-.02-1.87-.02-1.87h5.15l.24-1.1h-5.34c.23-3.54 1.14-5.58 3.3-5.58z" style="fill: #000000;"/></svg>
