<svg xmlns="http://www.w3.org/2000/svg" viewBox="0 0 32 32"><path d="M20.18 12.921c1.53 0 5.922-.01 5.922-.01v-2.359l-4.97.02a.54.54 0 0 1-.462-.193c-.356-.376-.722-.732-1.088-1.098-.5-.5-1.06-.972-1.483-1.53-.837-1.118-2.398-1.282-3.293-.222a334.62 334.62 0 0 0-4.7 5.691c-.558.684-.52 1.714 0 2.436.241.308.579.491.867.722 1.185.963 2.35 1.946 3.534 2.909a.458.458 0 0 1 .184.394c-.01.723-.03 4.786-.03 4.786h2.735s.01-4.93 0-6.086a1.46 1.46 0 0 0-.568-1.194c-.298-.24-.597-.5-.886-.75-.202-.164-.404-.328-.597-.492-.356-.289-.693-.597-1.059-.857-.183-.135-.183-.212-.048-.375a423.254 423.254 0 0 0 3.197-3.862c.144-.183.221-.193.395-.02.616.646 1.261 1.262 1.878 1.898.144.144.279.192.471.192z" style="fill: #000000;"/><path d="M20.064 8.415c1.752.308 3.438-.857 3.746-2.61a3.233 3.233 0 0 0-2.6-3.756 3.247 3.247 0 0 0-3.756 2.61 3.233 3.233 0 0 0 2.61 3.756zm-1.06-3.477a1.65 1.65 0 0 1 1.917-1.329 1.657 1.657 0 0 1 1.329 1.917 1.65 1.65 0 0 1-1.917 1.329 1.657 1.657 0 0 1-1.328-1.917zM29.453 23.643a5.206 5.206 0 0 0-.183-.973c-.039-.135-.077-.27-.125-.385 0-.03-.01-.048-.03-.077-.009-.02-.009-.03-.019-.048a2.521 2.521 0 0 0-.144-.337c-.01-.02-.02-.049-.029-.077-.02-.03-.029-.049-.048-.077-.068-.116-.125-.241-.193-.357-.048-.077-.096-.163-.144-.24-.039-.049-.077-.106-.116-.155 0-.01 0-.01-.01-.019a.808.808 0 0 1-.057-.096c-.029-.039-.068-.077-.096-.125-.049-.058-.097-.116-.135-.164-.01-.01-.02-.029-.029-.039-.077-.096-.173-.192-.26-.289-.077-.077-.154-.154-.24-.23a.169.169 0 0 1-.049-.04c-.048-.038-.087-.076-.135-.115-.038-.038-.087-.067-.125-.096a2.315 2.315 0 0 0-.347-.26 4.614 4.614 0 0 0-.404-.25 4.998 4.998 0 0 0-.559-.28h-.019s-.01-.01-.019 0c-.164-.067-.328-.134-.5-.192a3.591 3.591 0 0 0-.434-.116 4.097 4.097 0 0 0-.366-.077c-.048-.01-.097-.01-.145-.02a3.976 3.976 0 0 0-.337-.038 7.74 7.74 0 0 0-.472-.019c-.202 0-.414.01-.616.039-.125.01-.25.028-.375.057-.077.01-.154.03-.232.049l-.012.002-1.42-4.141-2.283.978 1.994 3.836c-.09.056-.181.118-.272.181a3.05 3.05 0 0 0-.462.347 5.017 5.017 0 0 0-.645.636c-.096.106-.193.23-.29.356-.173.24-.336.51-.48.78-.068.125-.126.26-.184.395-.01.029-.029.058-.038.086l-.01.01c-.01.058-.038.116-.067.173-.039.106-.077.212-.116.328 0 0-.01.01-.01.02-.038.163-.086.327-.115.49-.01.02-.01.039-.01.068l-.028.144a.666.666 0 0 0-.03.193 5.105 5.105 0 0 0 .04 1.752c.028.154.067.308.105.463.039.163.087.308.145.471.048.126.086.241.135.357.019.058.038.106.067.154 0 .01.01.02.02.029.038.096.086.202.144.298l.029.058c.144.26.308.51.5.741.02.03.039.049.058.068.116.154.25.298.395.443.135.135.27.26.404.375a7.66 7.66 0 0 0 .934.626c.106.058.222.106.328.154.048.02.096.049.144.068.058.02.096.038.145.057.057.02.106.039.163.068.058.02.125.038.183.058.097.028.212.057.308.086l.01.01c.01.01.02.01.029.01l.01-.01c.125.029.23.058.356.077.058.02.125.029.183.038.096.02.183.039.27.039a5.98 5.98 0 0 0 2.262-.202c.164-.048.328-.106.482-.164.27-.106.53-.24.79-.385.105-.068.211-.125.317-.202.299-.203.578-.434.847-.703.068-.068.126-.135.193-.203.144-.154.28-.317.405-.49l.086-.145c.068-.096.125-.202.193-.308.019-.01.029-.02.029-.03v-.009c.048-.096.106-.192.154-.289.019-.019.029-.048.048-.067.01-.029.02-.067.038-.096a.842.842 0 0 0 .068-.164c.038-.067.067-.145.096-.221.039-.087.067-.174.096-.26.058-.145.097-.29.126-.434a3.32 3.32 0 0 0 .067-.327 2.77 2.77 0 0 0 .067-.482 5.78 5.78 0 0 0 0-1.146zm-2.649 3.62a4.183 4.183 0 0 1-1.04.761c-.115.067-.24.125-.356.173 0 .01-.01.01-.02.01-.124.067-.26.115-.394.144a4.095 4.095 0 0 1-1.329.222 4.35 4.35 0 0 1-3.081-1.271 4.338 4.338 0 0 1-1.281-3.062c0-.8.212-1.58.626-2.273.01 0 .01-.01.02-.02a1.27 1.27 0 0 1 .279-.317c.365-.299.876-.356 1.31-.193.365.125.673.405.827.81l1.079 2.773.298-.116.405-.164.318-.134-1.214-2.735a1.382 1.382 0 0 1 .01-1.156c.192-.424.597-.75 1.078-.78.135-.02.27 0 .405.029h.029a4.45 4.45 0 0 1 2.05 1.156 4.334 4.334 0 0 1 1.262 3.071 4.32 4.32 0 0 1-1.28 3.072zM13.987 23.279l-.029-.145c0-.029 0-.048-.01-.067-.028-.164-.076-.328-.115-.491 0-.01-.01-.02-.01-.02-.038-.115-.076-.221-.115-.327-.029-.058-.058-.116-.067-.173l-.01-.01c-.01-.029-.029-.058-.038-.087-.058-.135-.116-.27-.183-.395a7.073 7.073 0 0 0-.482-.78c-.096-.125-.192-.25-.289-.356a5.026 5.026 0 0 0-.645-.635 3.05 3.05 0 0 0-.462-.347c-.097-.068-.193-.135-.289-.193a8.31 8.31 0 0 0-.404-.212c-.077-.038-.164-.077-.241-.115-.125-.058-.26-.106-.385-.154-.02-.01-.03-.01-.049-.02a1.742 1.742 0 0 0-.298-.086c-.106-.029-.212-.058-.328-.077-.077-.02-.154-.039-.23-.048a2.53 2.53 0 0 0-.376-.058 4.412 4.412 0 0 0-.616-.039c-.155 0-.318.01-.472.02-.116.01-.222.019-.338.038-.048.01-.096.01-.144.02-.125.019-.25.048-.366.076a3.61 3.61 0 0 0-.433.116 7.677 7.677 0 0 0-.5.193c-.01-.01-.02 0-.02 0h-.02a5.006 5.006 0 0 0-.558.279c-.135.077-.27.154-.404.25-.125.077-.241.164-.347.26-.039.03-.087.058-.125.097-.048.038-.087.077-.135.115-.02.02-.029.029-.048.039a5.584 5.584 0 0 0-.24.23c-.087.097-.184.193-.26.29-.01.01-.02.029-.03.038a9.258 9.258 0 0 1-.134.164c-.03.048-.068.087-.097.125-.02.038-.038.067-.058.096-.01.01-.01.01-.01.02-.038.048-.076.106-.115.154-.048.077-.096.163-.144.24-.068.116-.125.241-.193.357-.02.029-.029.048-.048.077a.685.685 0 0 1-.029.077 2.49 2.49 0 0 0-.144.337c-.01.02-.01.029-.02.048-.019.029-.028.048-.028.077-.048.116-.087.25-.125.385s-.068.26-.097.395a5.841 5.841 0 0 0-.087 1.724c.01.163.03.317.068.481.02.116.038.222.067.327.03.145.068.29.126.434.029.087.057.173.096.26.029.077.058.154.096.221.02.058.039.116.068.164.019.029.028.067.038.096.02.02.029.048.048.068.048.096.106.192.154.289v.01c0 .009.01.018.03.028.067.106.124.212.192.308l.087.145c.125.173.26.337.404.49.067.068.125.136.193.203.27.27.548.5.847.703.106.077.212.135.318.202.26.145.52.28.79.385.153.058.317.116.48.164.733.212 1.503.28 2.264.202.086 0 .173-.019.27-.038.057-.01.125-.02.182-.039.125-.019.231-.048.356-.077l.01.01c.01 0 .02 0 .029-.01l.01-.01c.096-.028.212-.057.308-.086.058-.02.125-.038.183-.058a1.16 1.16 0 0 1 .164-.067c.048-.02.086-.039.144-.058.048-.02.096-.048.144-.067.106-.048.222-.096.328-.154a7.626 7.626 0 0 0 .934-.626c.135-.116.27-.241.404-.376a4.2 4.2 0 0 0 .395-.443 4.778 4.778 0 0 0 .559-.809l.029-.057c.058-.097.106-.203.144-.299.01-.01.02-.02.02-.029a.748.748 0 0 0 .067-.154c.048-.115.087-.231.135-.356.057-.164.105-.308.144-.472a7.85 7.85 0 0 0 .106-.462 5.105 5.105 0 0 0 .038-1.753.67.67 0 0 0-.029-.192zm-2.57 4.015a4.35 4.35 0 0 1-3.082 1.271c-.462 0-.905-.077-1.33-.221a1.504 1.504 0 0 1-.394-.145c-.01 0-.02 0-.02-.01a3.026 3.026 0 0 1-.356-.173 4.32 4.32 0 0 1-2.32-3.833 4.335 4.335 0 0 1 1.261-3.071 4.449 4.449 0 0 1 2.051-1.156h.03c.134-.028.269-.048.404-.028.481.028.886.356 1.078.78.164.346.183.76.01 1.155l-1.214 2.735.318.135.405.163.298.116 1.079-2.773a1.35 1.35 0 0 1 .828-.81c.433-.163.943-.105 1.31.193.105.087.202.193.279.318.01.01.01.02.019.02.414.693.626 1.473.626 2.272a4.336 4.336 0 0 1-1.28 3.062z" style="fill: #000000;"/></svg>
