<svg xmlns="http://www.w3.org/2000/svg" viewBox="0 0 32 32"><path d="M18.5 14.72l.91 4.7L30 30h-5s-2.28-7.05-9.03-7.05c0 0-5.43-.49-6.5 1.29C8.43 25.99 11 30 11 30H6s-1.53-5.01.47-7.63c1.16-1.52 3.51-2.46 6.04-2.91l.92-4.74c-7.97.13-11.43.85-11.43.85V12l28 .05v3.52s-3.53-.72-11.5-.85zm-2.53-4.54c-2.25 0-4.09-1.83-4.09-4.09S13.71 2 15.97 2c2.25 0 4.09 1.83 4.09 4.09s-1.84 4.09-4.09 4.09zm0-6.18c-1.15 0-2.09.94-2.09 2.09s.94 2.09 2.09 2.09 2.09-.94 2.09-2.09A2.102 2.102 0 0 0 15.97 4z" style="fill: #000000;"/></svg>
