<svg xmlns="http://www.w3.org/2000/svg" data-name="Layer 2" viewBox="0 0 105.54 125.03"><g data-name="Layer 1"><path d="M60.58 76.14c-3.25 0-5.85 2.64-5.85 5.85s2.64 5.85 5.85 5.85 5.85-2.64 5.85-5.85-2.6-5.85-5.85-5.85" style="fill: #000000;"/><path d="M105.54 96.13 63.79 17.27H57.3L35.91 57.68V11.96C35.91 5.36 30.55 0 23.95 0S11.99 5.37 11.99 11.96v65.37c0 2.53-1.27 3.34-2.01 4.01C2.84 87.88 0 92.7 0 101.08c0 13.2 10.74 23.95 23.95 23.95s23.95-10.74 23.95-23.95c0-.09-.01-.17-.01-.26h54.86l2.8-4.69Zm-81.59 16.23c-9.84 0-17.9-5.86-18.54-13.27v-.1c0-.07-.01-.14-.01-.21s0-.14-.01-.21v-.66c.03-1.41.32-2.76.85-4.04 1.71-4.43 5.42-7.61 5.58-7.76 0 0 .6-.67 1.29-1.29 2.34-2.01 3.68-4.73 3.68-7.5V11.96c0-3.96 3.23-7.19 7.19-7.19s7.19 3.22 7.19 7.19v5.86H25.6a2.39 2.39 0 1 0 0 4.78h5.57v12.29H25.6a2.39 2.39 0 1 0 0 4.78h5.57v12.29H25.6a2.39 2.39 0 1 0 0 4.78h5.57v12.29H25.6a2.39 2.39 0 1 0 0 4.78h5.57v3.54c0 2.77 1.34 5.49 3.68 7.5.72.6 1.29 1.29 1.29 1.29.15.15 3.87 3.33 5.58 7.76.22.54.39 1.09.53 1.65v.03c.03.11.06.23.08.34.17.68.27 1.39.27 2.13 0 .63-.07 1.23-.19 1.82-1.11 7.05-8.92 12.51-18.42 12.51Zm23.1-17.97c-1.28-4.7-4.14-8.48-9.14-13.06-.72-.67-2.01-1.48-2.01-4.01v-5.88l24.65-46.49 36.8 69.45h-50.3Z" style="fill: #000000;"/><path d="M57.33 71.9h6.43c0-13.05 3.18-25.71 3.18-25.71H54.15s3.18 12.66 3.18 25.71" style="fill: #000000;"/></g></svg>
