<svg xmlns="http://www.w3.org/2000/svg" viewBox="0 0 32 32"><path d="M28.4 17.8c0-3.3.7-15.8.7-15.8H21s.8 15.9-.6 17.3c-1.4 1.4-5.8 5.9-7.4 6.1-1.6.2-7 1.8-7 1.8v1.3c1 1 5.1 1.6 6.9 1.6 1.8 0 4.3-1.5 6.3-1.5 2.1 0 4.3 1.2 6.1 1.2s4.4-1 4.6-3.2c.3-2.4-1.5-5.5-1.5-8.8zM6.6 25.7l6.9-1.7v-3.4c1.8-1.9 2.8-3.9 2.8-6 0 0 .2-6.6-.3-8.6h-1.3c-.3 1.6-.3 4.5-.3 5h-.8c0-1.2.2-6.8-.3-8H12c-.4 1.4-.3 6.8-.3 8h-.8c0-1.6.2-7.2-.3-9H9.3C8.9 3.7 9 9.4 9 11h-.8c0-1.4.1-5.7-.3-7H6.6c-.5 2-.3 8.1-.3 9.6l-.3.1c-1.4-.5-1.4-4-3.1-4.7l-.9.3c.6 1.5.6 5.5 1.5 8.1.5 1.6 2.8 3.2 3.1 3.3v5z" style="fill: #000000;"/></svg>
