<svg xmlns="http://www.w3.org/2000/svg" viewBox="0 0 32 32"><path d="M28.33 14.33C26.05 11.84 22.5 7.18 16 7.18c-2 0-3.72.44-5.22 1.13L5.21 2H2l6.66 7.52c-2.25 1.56-3.86 3.56-5.1 4.89-.48.35-.94.57-1.56.57V17c.62 0 1.08.22 1.56.57 2.28 2.46 5.83 7.14 12.44 7.14 1.81 0 3.48-.49 5.01-1.23L26.78 30h3.21l-6.86-7.75c2.16-1.47 3.92-3.29 5.15-4.57.54-.43 1.03-.68 1.72-.68v-2.02c-.67 0-1.15-.24-1.67-.65zm-12.35 7.64c-6.02 0-9.37-3.68-11.65-5.98 1.42-1.43 3.2-3.45 5.84-4.76l1.71 1.93c-.55.8-.88 1.78-.88 2.83 0 2.76 2.24 5 5 5 .83 0 1.61-.21 2.3-.57l1 1.13c-1 .26-2.1.42-3.32.42zm-3.09-7.67l4.4 4.97c-.4.16-.83.25-1.29.25-1.95 0-3.54-1.59-3.54-3.53 0-.61.16-1.19.43-1.69zm6.21 3.39l-4.41-4.98c.41-.16.85-.26 1.31-.26 1.95 0 3.54 1.59 3.54 3.53 0 .62-.16 1.21-.44 1.71zm2.63 2.98l-1.63-1.84a5 5 0 0 0 .9-2.85c0-2.76-2.24-5-5-5-.84 0-1.63.21-2.33.58l-1.09-1.23c1.02-.27 2.15-.43 3.4-.43 6.18 0 9.37 3.78 11.65 6.08-1.42 1.44-3.26 3.41-5.9 4.69z" style="fill: #000000;"/></svg>
