<svg xmlns="http://www.w3.org/2000/svg" viewBox="0 0 32 32"><path d="M22 11.29c2.25 0 4.09-1.83 4.09-4.09S24.25 3.11 22 3.11s-4.09 1.83-4.09 4.09 1.84 4.09 4.09 4.09zm0-6.18c1.15 0 2.09.94 2.09 2.09S23.15 9.29 22 9.29s-2.09-.94-2.09-2.09.94-2.09 2.09-2.09zM9.88 11.29c2.25 0 4.09-1.83 4.09-4.09s-1.83-4.09-4.09-4.09C7.63 3.11 5.8 4.95 5.8 7.2s1.83 4.09 4.08 4.09zm0-6.18c1.15 0 2.09.94 2.09 2.09s-.94 2.09-2.09 2.09S7.8 8.35 7.8 7.2s.93-2.09 2.08-2.09zM30 28.89c0-4.72-.53-8.98-2.15-12.04-.43-.8-.96-1.46-1.59-1.96a6.704 6.704 0 0 0-4.18-1.59v-.01H21.91c-2.53 0-4.72 1.4-5.87 3.46-.02.03-.02.04-.04.07-.02-.03-.02-.05-.04-.07a6.727 6.727 0 0 0-5.87-3.46H9.92v.01c-1.59.04-3.05.63-4.18 1.59-.62.51-1.16 1.16-1.59 1.96C2.53 19.91 2 24.17 2 28.89h3c-.61-10.86 2.02-11.44 2.02-11.44l-.79 11.44h1.66c.43-3.12 1.84-4.52 1.84-4.52v.01a3 3 0 0 1 2.24-.99c.88 0 1.68.38 2.24.99v-.01s1.32 1.31 1.79 4.23c.47-2.92 1.79-4.23 1.79-4.23v.01a3 3 0 0 1 2.24-.99c.88 0 1.68.38 2.24.99v-.01s1.41 1.39 1.84 4.52h1.66l-.79-11.44s2.68.75 2.02 11.44h3zm-18.03-6.78c-1.39 0-2.52-1.13-2.52-2.52 0-1.39 1.13-2.52 2.52-2.52 1.39 0 2.52 1.13 2.52 2.52a2.529 2.529 0 0 1-2.52 2.52zm8.06 0c-1.39 0-2.52-1.13-2.52-2.52 0-1.39 1.13-2.52 2.52-2.52 1.39 0 2.52 1.13 2.52 2.52 0 1.39-1.13 2.52-2.52 2.52z" style="fill: #000000;"/></svg>
