
<svg xmlns="http://www.w3.org/2000/svg" viewBox="0 0 32 32"><path stroke-width="0" d="M10.049 13.388c.632 0 .931.372.931.89 0 1.149-1.482 1.224-1.336 2.721h.421C10.025 15.89 12 15.929 12 14.472c0-1.052-.988-1.473-1.919-1.473-1.134 0-2.073.615-2.081 1.853l1.045.097c-.041-1.012.235-1.562 1.004-1.562ZM9.854 17.697c-.389 0-.648.275-.648.656 0 .388.259.647.648.647.381 0 .656-.259.656-.647a.634.634 0 0 0-.656-.656M21.854 11.697c-.389 0-.648.275-.648.656 0 .388.259.647.648.647.381 0 .656-.259.656-.647a.634.634 0 0 0-.656-.656M24 8.473C24 7.421 23.012 7 22.081 7c-1.134 0-2.073.615-2.081 1.853l1.045.097c-.041-1.012.235-1.562 1.004-1.562.632 0 .931.372.931.89 0 1.149-1.482 1.224-1.336 2.721h.421C22.025 9.89 24 9.929 24 8.472Z" style="fill: #000000;"/><path stroke-width="0" d="M14 4v5h1.286V5.301h13.428v10.733c0 1.256-1.414 1.797-2.321.601l-1.479-1.952H19V16h5.277l4.437 6L30 21.59V4z" style="fill: #000000;"/><path stroke-width="0" d="m2 27.59 1.286.41 4.437-6H18V10H2zm1.286-16.289h13.428v9.382H7.086s-.571.756-1.479 1.952-2.321.655-2.321-.601z" style="fill: #000000;"/></svg>
