<svg xmlns="http://www.w3.org/2000/svg" viewBox="0 0 32 32"><path stroke-width="0" d="M29.4 21.238a.194.194 0 0 0-.195-.193l-.6.002a.194.194 0 0 0-.193.195v.091l-1.372.057q-.003-.075-.008-.15l.119-.024a.28.28 0 0 0 .217-.327l-.091-.447a.28.28 0 0 0-.327-.217l-.116.024q-.02-.054-.04-.108l1.291-.468.034.084c.04.099.154.147.253.107l.556-.226a.194.194 0 0 0 .106-.253l-.225-.555a.194.194 0 0 0-.253-.107l-.556.225a.195.195 0 0 0-.106.253l.034.084-1.25.564-.061-.125.1-.066a.28.28 0 0 0 .08-.384l-.249-.382a.28.28 0 0 0-.383-.08l-.099.064q-.06-.07-.124-.137l1.012-.93.064.065a.195.195 0 0 0 .274.001l.426-.422a.194.194 0 0 0 0-.275l-.422-.425a.194.194 0 0 0-.274-.002l-.426.423a.194.194 0 0 0 0 .274l.063.065-.938 1.003q-.067-.065-.138-.126l.065-.098a.28.28 0 0 0-.078-.384l-.38-.252a.28.28 0 0 0-.384.078l-.065.098-.118-.057.576-1.246.084.036a.194.194 0 0 0 .254-.105l.23-.553a.194.194 0 0 0-.104-.254l-.007-.003-.002-.001-.268-.112-.276-.115h-.002l-.007-.003a.194.194 0 0 0-.254.104l-.23.554a.194.194 0 0 0 .104.254l.084.034-.479 1.287q-.054-.021-.11-.04l.024-.115a.28.28 0 0 0-.214-.328l-.447-.094a.28.28 0 0 0-.328.215l-.024.114q-.1-.007-.2-.01l.052-1.373h.091a.194.194 0 0 0 .194-.194v-.6a.194.194 0 0 0-.194-.194h-.6a.194.194 0 0 0-.194.194v.6c0 .107.088.194.194.194h.091l.052 1.373q-.087.002-.171.009l-.024-.116a.28.28 0 0 0-.327-.216l-.447.09a.28.28 0 0 0-.216.327l.023.114q-.071.025-.143.052l-.48-1.286.083-.035a.194.194 0 0 0 .104-.253l-.23-.554a.194.194 0 0 0-.255-.104l-.553.231a.194.194 0 0 0-.104.254l.23.553a.195.195 0 0 0 .254.105l.084-.036.576 1.246-.092.045-.065-.1a.28.28 0 0 0-.384-.08l-.382.25a.28.28 0 0 0-.08.384l.064.098q-.072.061-.14.127l-.933-1.009.064-.064a.194.194 0 0 0 0-.274l-.423-.425a.194.194 0 0 0-.274 0l-.425.423a.194.194 0 0 0 0 .274l.423.425a.194.194 0 0 0 .275 0l.064-.063 1.005.935q-.061.066-.121.134l-.099-.065a.28.28 0 0 0-.384.078l-.252.38c-.084.127-.05.3.078.384l.1.067-.062.128-1.248-.571.035-.084a.194.194 0 0 0-.106-.254l-.554-.228a.194.194 0 0 0-.253.105l-.23.554a.195.195 0 0 0 .106.254l.555.228a.194.194 0 0 0 .253-.105l.034-.084 1.288.476-.038.105-.117-.025a.28.28 0 0 0-.328.215l-.094.446a.28.28 0 0 0 .215.329l.118.024q-.009.104-.01.212l-1.374-.046v-.091a.194.194 0 0 0-.195-.193l-.6.002a.194.194 0 0 0-.193.195l.002.6c0 .106.088.193.195.193l.6-.003a.195.195 0 0 0 .193-.194v-.091l1.373-.057q.003.078.008.157l-.12.024a.28.28 0 0 0-.216.327l.09.447c.03.15.178.247.327.217l.119-.024q.018.05.037.1l-1.29.469-.035-.084a.194.194 0 0 0-.253-.107l-.555.226a.195.195 0 0 0-.107.252l.226.556c.04.099.153.147.252.107l.556-.226a.194.194 0 0 0 .107-.253l-.034-.084 1.25-.563q.03.066.063.13l-.103.068a.28.28 0 0 0-.08.384l.25.382a.28.28 0 0 0 .383.08l.102-.067q.058.067.12.132l-1.011.93-.064-.064a.194.194 0 0 0-.274-.001l-.426.422a.195.195 0 0 0-.002.274l.423.426a.194.194 0 0 0 .274.001l.426-.422a.194.194 0 0 0 .001-.274l-.064-.065.938-1.003q.07.066.141.128l-.068.103c-.084.127-.05.3.078.384l.38.252c.127.085.3.05.384-.077l.07-.105q.056.029.113.055l-.576 1.246-.084-.035a.194.194 0 0 0-.253.104l-.231.554a.194.194 0 0 0 .104.254l.007.002.002.002.28.116.264.11.003.001.007.003a.194.194 0 0 0 .253-.105l.23-.553a.194.194 0 0 0-.104-.254l-.084-.035.48-1.286q.054.02.11.04l-.025.122a.28.28 0 0 0 .215.328l.446.094a.28.28 0 0 0 .329-.214l.025-.122q.098.007.198.01l-.052 1.373h-.09a.194.194 0 0 0-.195.194v.6c0 .106.088.193.194.193h.6a.194.194 0 0 0 .194-.194v-.6a.194.194 0 0 0-.194-.193h-.09l-.052-1.373.17-.009.024.123c.03.15.177.247.327.216l.447-.09a.28.28 0 0 0 .217-.327l-.025-.121q.073-.025.144-.053l.481 1.286-.084.035a.194.194 0 0 0-.104.254l.231.553a.194.194 0 0 0 .254.105l.553-.231a.195.195 0 0 0 .105-.254l-.231-.554a.194.194 0 0 0-.254-.104l-.084.035-.576-1.246.089-.043.068.105a.28.28 0 0 0 .384.08l.382-.249a.28.28 0 0 0 .08-.383l-.067-.103q.074-.064.144-.13l.932 1.008-.064.064a.194.194 0 0 0 0 .275l.423.425a.194.194 0 0 0 .274 0l.425-.423a.194.194 0 0 0 0-.275l-.423-.425a.194.194 0 0 0-.274 0l-.065.064-1.005-.936q.06-.063.117-.129l.103.068c.127.084.3.05.384-.078l.252-.38a.28.28 0 0 0-.077-.384l-.103-.068.064-.134 1.248.57-.034.085a.194.194 0 0 0 .105.253l.554.229a.194.194 0 0 0 .254-.105l.228-.555a.194.194 0 0 0-.105-.253l-.554-.229a.195.195 0 0 0-.253.105l-.035.084-1.288-.475q.019-.049.036-.098l.12.025a.28.28 0 0 0 .327-.214l.094-.447a.28.28 0 0 0-.214-.328l-.119-.025q.008-.109.011-.219l1.373.046v.09c.001.108.089.195.195.194l.6-.002a.195.195 0 0 0 .193-.195z" style="fill: #000000;"/><path stroke-width="0" d="M14.318269 3.941437 10.09182 7.371849 10.09069 7.371849 10.056001 15.841345 11.877945 15.848797 11.909087 8.243327 15.466433 5.356009 14.318269 3.941437z" style="fill: #000000;"/><path stroke-width="0" d="M12.351 7.007H16.958000000000002V8.829H12.351z" transform="rotate(-39.065 14.654 7.918)" style="fill: #000000;"/><path stroke-width="0" d="M5.322535 3.90459 4.162808 5.309758 7.696411 8.226111 7.66532 15.83153 9.487264 15.838982 9.521901 7.369485 9.52077 7.369485 5.322535 3.90459z" style="fill: #000000;"/><path stroke-width="0" d="M4.043 5.575H5.865V10.182H4.043z" transform="rotate(-50.467 4.954 7.879)" style="fill: #000000;"/><path stroke-width="0" d="M2.941 14.575H29.256V16.075H2.941z" transform="rotate(-44.999 16.098 15.325)" style="fill: #000000;"/></svg>
