<svg xmlns="http://www.w3.org/2000/svg" fill="none" viewBox="0 0 32 32"><path fill="#000" fill-rule="evenodd" d="M22.4 8.6a1.6 1.6 0 1 1-3.2 0 1.6 1.6 0 0 1 3.2 0zm1.499.8a3.201 3.201 0 0 1-6.198 0H4.8V7.8h12.9a3.201 3.201 0 0 1 6.199 0h3.3v1.6H23.9zM5.599 15h-.8v1.6h3.302a3.201 3.201 0 0 0 6.198 0h12.9V15H14.3a3.201 3.201 0 0 0-6.198 0H5.6zm0 7.2h-.8v1.6H17.702a3.201 3.201 0 0 0 6.198 0h3.3v-1.6H23.9a3.201 3.201 0 0 0-6.198 0H5.6zm15.2 2.4a1.6 1.6 0 1 0 0-3.2 1.6 1.6 0 0 0 0 3.2zm-8-8.8a1.6 1.6 0 1 1-3.2 0 1.6 1.6 0 0 1 3.2 0z" clip-rule="evenodd" style="fill: #000000;"/></svg>
