<svg xmlns="http://www.w3.org/2000/svg" viewBox="0 0 32 32"><path d="M10 25.5H4v-16h6v16zm18 3H4v-2h24v2zm-9-3h-6v-22h6v22zm9 0h-6v-9h6v9zM26.55 7.74l1.8-.17c.09-1.56-1.31-2.45-2.75-2.6V3.74h-1.22v1.24c-1.59.21-2.32 1.25-2.34 2.48-.02 1.05.61 2.12 2.34 2.49v3.01c-.69-.32-1.03-1.15-.92-2.05l-1.82.18c-.1 1.42 1 2.53 2.73 2.8v1.37h1.22v-1.33c3.2-.13 3.84-4.56.51-5.3l-.51-.14V5.85c.91.29 1.01 1.18.96 1.89zm-.94 5.37v-2.83c.43.15 1.31.37 1.28 1.42-.02.67-.37 1.28-1.28 1.41zm-1.22-7.29v2.3c-1.17-.38-1.16-2.03 0-2.3z" style="fill: #000000;"/></svg>
