<svg xmlns="http://www.w3.org/2000/svg" viewBox="0 0 32 32"><path d="M24.13 16.7h1v1.23H11.11V16.7h1.01v-3.68h2.99v3.68h1.49v-6.5h3.02v6.5h1.49V8.08h3v8.62zM18.33 2C11.88 2 6.65 7.23 6.65 13.67c0 2.57.84 4.95 2.25 6.87.31.51.3.95-.17 1.29-2.4 1.72-4.23.33-6.73 2.52V30h5.68c2.25-2.53.77-4.3 2.49-6.72.36-.46.79-.49 1.3-.16 1.93 1.4 4.29 2.23 6.85 2.23 6.45 0 11.67-5.23 11.67-11.67C30 7.23 24.77 2 18.33 2zm0 20.71c-4.99 0-9.04-4.05-9.04-9.04 0-4.99 4.05-9.04 9.04-9.04s9.04 4.05 9.04 9.04c-.01 4.99-4.05 9.04-9.04 9.04z" style="fill: #000000;"/></svg>
