<svg xmlns="http://www.w3.org/2000/svg" viewBox="0 0 32 32"><path stroke-width="0" d="M24.675 11.975s-2.31 1.78-2.31 3.24v2.01a.49.49 0 0 1-.57.4.514.514 0 0 1-.41-.51V8.942s-.118-4.549-.364-5.873c-1.265-.015-1-.015-2.265-.015-.266 1.343-.36 3.937-.36 5.984 0 1.963-.004 1.02.009 4.859a.48.48 0 0 1-.53.298.51.51 0 0 1-.372-.328c-.036-.102-.031-.214-.034-.32-.016-.565-.008-1.13-.026-1.694q-.023-.75-.084-1.5a18 18 0 0 0-.156-1.322c-.005-.032-.05-.361-.062-.361-1.266 0-1 0-2.266-.016-.266 1.344-.359 2.963-.349 5.01v.131a.49.49 0 0 1-.57.4.514.514 0 0 1-.406-.494s0-.038-.006-.038c-.008-.196-.097-2.253-.331-3.514-1.265-.015-1-.015-2.265-.015-.266 1.343-.36 2.86-.351 3.53l.005 1.06c-.001.017 0 .034-.006.051-.04.27-.29.45-.56.4a.5.5 0 0 1-.393-.399c-.001-.382.016-.765-.019-1.146-.027-.298-.078-.594-.116-.891-.03-.237-.052-.474-.092-.71q-.05-.29-.105-.58c-1.266-.014-1-.014-2.266-.014-.011 0-.16.7-.184.807-.082.381-.106.779-.148 1.165-.026.248-.026.49-.028.739v7.029c.003 4.298 3.518 7.771 7.816 7.771h2.71c4.344 0 8.066-3.422 8.104-7.767v-8.733zm-5.761-6.782c.04-.714.1-1.368.189-1.817.87 0 .688 0 1.559.01.067.363.12 1.078.16 1.807z" style="fill: #000000;"/></svg>
