<svg xmlns="http://www.w3.org/2000/svg" viewBox="0 0 32 32"><path d="M2 26.97h1.5V3.01H2v23.96zm8.97-22.24h-.26c-.76 0-1.37.91-1.37 1.67v16.85h3V6.39c0-.75-.61-1.66-1.37-1.66zm8.64 0h-.26c-.76 0-1.37.91-1.37 1.67v16.85h3V6.39c0-.75-.61-1.66-1.37-1.66zm-4.32 0h-.26c-.76 0-1.37.91-1.37 1.67v16.85h3V6.39c0-.75-.61-1.66-1.37-1.66zm12.11 7.68c-1.27 0-2.33.92-2.55 2.12H24V3.01h-1.5v23.98H24V15.53h.85a2.599 2.599 0 0 0 2.55 2.07c1.43 0 2.6-1.17 2.6-2.6a2.6 2.6 0 0 0-2.6-2.59zm-.49 4.11c-.47-.16-.84-.52-1.01-.99h1.01v.99zm0-1.99h-1.02c.15-.49.54-.88 1.02-1.04v1.04zm1 1.99v-.98h1c-.17.46-.54.82-1 .98zm0-1.99V13.5c.48.16.86.55 1.01 1.03h-1.01zM8.02 6.28c0-.7-.67-1.55-1.5-1.55s-1.5.85-1.5 1.55V22h-.35v1h.65v1l.7 5h1l.7-5v-1h.65v-1h-.35V6.28z" style="fill: #000000;"/></svg>
