<svg xmlns="http://www.w3.org/2000/svg" viewBox="0 0 32 32"><path d="M7.94 6.86c1.28.3 2.56-.5 2.86-1.77.3-1.28-.5-2.56-1.77-2.86-1.28-.3-2.56.5-2.86 1.77s.49 2.56 1.77 2.86zM7.3 4.27c.15-.65.81-1.06 1.46-.91.65.15 1.06.81.91 1.46s-.81 1.06-1.46.91c-.65-.15-1.06-.81-.91-1.46zm8.55 13.32L12.2 9.72h.35c1.84.07 3.78 2.92 3.78 2.92l1.43-.81s-1.89-4.1-5.38-4.11H9.59c-1.66 0-2.35 2.11-2.35 2.11l-.87 1.89H3.08v2h3.3c.73 0 1.39-.4 1.77-1.11l.27-.63.71 3.42c-.03.99-4.05 10.32-4.05 10.32h2.61s2.02-5.52 4.68-7.86l.77.98c.62.79 1.54 1.28 2.53 1.37l3.41.28.01-1.77-3.24-1.13zm-2.52 12.24H2v-2h9.33v-4h9.34v-4H30v2h-7.33v4h-9.34v4zM30 15.1c0 1.48-.74 2.8-1.82 3.47l-.13-.23c.36-.45.6-1.05.6-1.79 0-1.09-.57-1.72-1.41-2.7-.48-.56-.74-1.49-.74-1.49s-1.97 1.51-1.97 3.92c0 .89.23 1.58.6 2.07l-.12.2c-1.07-.64-1.85-1.91-1.85-3.56 0-2.57 2.58-4.94 3.75-5.9l.59.17c.03.65.14 1.65.51 2.24.62.98 1.99 1.73 1.99 3.6z" style="fill: #000000;"/></svg>
