<svg xmlns="http://www.w3.org/2000/svg" viewBox="0 0 32 32"><path d="M26 9.02v-5.9l-9 .91v.99h-2v-1h-1.69A2.333 2.333 0 0 0 11 1.98c-1.29 0-2.34 1.05-2.34 2.34 0 .48.15.92.39 1.29C6.93 6.68 6 8.94 6 10.32h2c0-.85.89-3.31 3.63-3.31H13v1.11a5 5 0 0 0-4 4.9v17h10v-17a5 5 0 0 0-4-4.9V7.01h2v1.01l9 1zM11 5.16c-.46 0-.84-.38-.84-.84 0-.46.38-.84.84-.84s.84.38.84.84c0 .46-.38.84-.84.84zm6 7.86v12.26c0 .96-.78 1.74-1.74 1.74h-2.52c-.96 0-1.74-.78-1.74-1.74V13.05v-.03c0-1.66 1.34-3 3-3s3 1.35 3 3z" style="fill: #000000;"/></svg>
