<svg xmlns="http://www.w3.org/2000/svg" viewBox="0 0 32 32"><path d="M16.91 6.07h1.8v2.99h1.76V2.12h-1.76v2.92h-1.8V2.12h-1.76v6.94h1.76V6.07zm7.56 3.13c1.74 0 2.87-1.45 2.87-3.69 0-2.6-1.5-3.52-2.78-3.52-1.74 0-2.86 1.45-2.86 3.68.01 2.61 1.5 3.53 2.77 3.53zm.05-6.2c.33 0 1.03 0 1.03 2.6 0 2.59-.67 2.59-1.03 2.59s-1.02 0-1.02-2.6C23.5 3 24.16 3 24.52 3zm2.72 15.65c-1.74 0-2.86 1.45-2.86 3.69 0 2.61 1.49 3.53 2.77 3.53 1.74 0 2.87-1.45 2.87-3.69 0-2.61-1.5-3.53-2.78-3.53zm-.05 6.21c-.36 0-1.02 0-1.02-2.6 0-2.59.66-2.59 1.02-2.59.33 0 1.03 0 1.03 2.6 0 2.59-.67 2.59-1.03 2.59zM7.74 18.23l-2.62 4.53 2.62 4.53h5.23l2.62-4.53-2.62-4.53H7.74zm7.2-2.03l2.64-4.57-1.31-.76-2.68 4.64H7.07l-3.05-5.28-1.31.76 3.04 5.26-3.76 6.51 4.19 7.25h8.37l3.75-6.49h4.67V22H18.3l-3.36-5.8zm-1.39 12.09H7.16l-3.19-5.53 3.19-5.53h6.38l3.19 5.53-3.18 5.53z" style="fill: #000000;"/></svg>
