<svg xmlns="http://www.w3.org/2000/svg" viewBox="0 0 32 32"><path d="M16 2C8.27 2 2 8.27 2 16s6.27 14 14 14 14-6.27 14-14S23.73 2 16 2zm0 26C9.38 28 4 22.62 4 16S9.38 4 16 4s12 5.39 12 12-5.38 12-12 12zm4.24-5.5c-1.52 0-2.92-.65-4.42-1.4.63-1.79.02-4.3-.05-4.56h4.57l.23-1.08h-5.02c-.16-.85-.65-2.6-.65-4.23 0-2.47 1.05-3.42 2.6-3.42 1.82 0 2.7 1.3 2.67 3.9l3.15-.33c.05-3.02-2.7-4.65-5.72-4.65-3.3 0-5.82 1.85-5.82 5.02 0 1.57.66 3.19.87 3.71H9.39v1.08h3.64c.23.66.83 2.16.9 3.79-1.99-.9-4.75-.44-4.75 2.25 0 3.11 4.55 3.42 6.07-.1 1.4 1.17 2.82 2.5 4.57 2.5 2.17 0 3.4-1.92 3.77-5l-1.05-.25c-.25 2.22-.85 2.77-2.3 2.77zm-9.8 0c0-2.19 2.93-1.45 3.61-1-.13 2.97-3.61 3.03-3.61 1z" style="fill: #000000;"/></svg>
