<svg xmlns="http://www.w3.org/2000/svg" viewBox="0 0 32 32"><path d="M30 18.34v-4.68l-3.11-1.12-.68-1.66 1.35-3.13-3.31-3.31-3.01 1.41-1.65-.69L18.34 2h-4.68l-1.14 3.13-1.65.67-3.11-1.35-3.31 3.3 1.4 3.02-.69 1.65L2 13.66v4.68l3.11 1.15.68 1.66-1.35 3.1 3.31 3.31 3.01-1.38 1.65.69L13.66 30h4.68l1.14-3.1 1.66-.68 3.11 1.33 3.31-3.31-1.4-2.99.69-1.65L30 18.34zM25.34 18l-1.39 3.31 1.23 2.47-1.41 1.41-2.56-1.16-3.32 1.36-.89 2.59h-2l-.98-2.63-3.31-1.39-2.48 1.21-1.41-1.41 1.17-2.55-1.35-3.31-2.62-.9v-2l2.64-.97 1.39-3.31-1.23-2.49 1.41-1.41 2.56 1.19 3.32-1.36.89-2.63 2 .01.98 2.64 3.31 1.39 2.48-1.24 1.41 1.41-1.17 2.58 1.36 3.32 2.61.87v2l-2.64 1zM22 16.01c0 3.31-2.69 6-6 6s-6-2.69-6-6 2.69-6 6-6 6 2.69 6 6z" style="fill: #000000;"/></svg>
