<svg xmlns="http://www.w3.org/2000/svg" viewBox="0 0 32 32"><path d="M28.3 29.99c-.05-5.23-2.68-11.23-9.45-14 6.54-3.36 8.45-8.13 8.3-13.99h-2.27v.97H8.14c.03-.32.05-.64.11-.96H3.7c.05 5.23 3.03 11.56 9.43 14-4.64 2.37-8.6 6.45-8.29 13.98h2.27v-.98h16.74c-.03.33-.05.66-.12.98h4.57zM11.15 20h9.32c.66.6 1.22 1.28 1.69 2.01H9.26c.53-.72 1.17-1.39 1.89-2.01zm1.59-7.01h6.79c-1.06.7-2.27 1.31-3.63 1.83-1.11-.53-2.21-1.09-3.16-1.83zm11.52-6c-.23.7-.53 1.37-.89 2H9.25c-.32-.64-.59-1.31-.78-2h15.79zM8.25 5.98c-.12-.66-.18-1.33-.17-2h16.76c-.05.7-.15 1.36-.3 2H8.25zm14.48 4.01c-.53.72-1.15 1.38-1.87 1.99H11.5c-.65-.6-1.2-1.27-1.67-1.99h12.9zm-6.63 7.2c1.09.52 2.18 1.07 3.13 1.81H12.5c1.04-.69 2.25-1.29 3.6-1.81zm6.64 5.83c.32.64.58 1.3.77 1.98H7.74c.23-.7.52-1.36.88-1.98h14.12zm1 2.99c.12.66.18 1.33.17 2H7.16c.05-.69.15-1.36.3-2h16.28z" style="fill: #000000;"/></svg>
