<svg xmlns="http://www.w3.org/2000/svg" viewBox="0 0 32 32"><path d="M22.5 9c2.8-2 1.3-7-2.5-7-2.4 0-3.7 1.8-4 3.3-.4-1.5-1.7-3.3-4-3.3-3.8 0-5.4 5-2.5 7H3v8h1.6v13h22.8V17H29V9h-6.5zM12 4c2.3 0 2.5 2.9 2.6 4.4-4.1 0-4.5-1.7-4.5-2.2-.2-.8.4-2.2 1.9-2.2zm3 23H8.6c-1.1 0-2-.9-2-2v-8H15v10zm0-13H6.5C5.6 14 5 13 5 12.1V11h10v3zm5-10c1.5 0 2.1 1.4 2 2.2-.1.5-.4 2.2-4.5 2.2 0-1.5.3-4.4 2.5-4.4zm5.4 21c0 1.1-.9 2-2 2H17V17h8.4v8zM27 12.1c0 .9-.6 1.9-1.5 1.9H17v-3h10v1.1z" style="fill: #000000;"/></svg>
