
<svg xmlns="http://www.w3.org/2000/svg" viewBox="0 0 32 32"><path d="M16 2C8.28 2 2 8.28 2 16s6.28 14 14 14 14-6.28 14-14S23.72 2 16 2zm0 26c-2.84 0-5.45-.99-7.5-2.64 1.9-.46-1.61-3.05.36-3.05 1.15 0 1.79-1.41 2.05-2.19l-.34-.51c-.97-.05-3.01-.37-3.01-2.18 0-2.2-2.21-2.24-3.46-2.93.55-4.43 3.53-8.12 7.55-9.69.45.05 1 .22 1 .79 0 .51-.34 1.04-.64 1.42l.27.63c1.3.07 3.71.06 3.71-.97 0-1.34 2.39-.6 2.64-2.39 2.13.48 4.05 1.52 5.59 2.97-.28.24-.75.41-1.51.41-1.12 0-.43 1.34-2.66 1.29a.715.715 0 0 0-.74.65c-.04.39.23.75.62.81 1.28.2 3.85.77 3.77 2.18-.11 1.87-1.88 1.68-3.57 0-1.84-1.85-2.83-.4-2.83 1.44 0 1.25-2.91-.78-2.91 2.15 0 3.14 3.02 2.9 3.36 4.93.32 1.98.27 3.37.16 4.18l.75.62c1.39-.46 3.97-1.59 5.07-3.93 1.56-3.28 3.55-3.08 3.91-3.01C26.3 24.17 21.59 28 16 28z" style="fill: #000000;"/></svg>
