<svg xmlns="http://www.w3.org/2000/svg" viewBox="0 0 32 32"><path d="M15.13 24.54h1.7c.47 0 .86-.38.86-.86v-.5h-3.42v.5c0 .48.39.86.86.86zm3.7-3.04v-.63h-5.69v.5c0 .47.38.86.86.86h3.98c.46 0 .85-.25.85-.73zm1.06-2.85a5.764 5.764 0 0 0 1.94-4.34c0-3.31-2.65-5.83-5.83-5.84h-.02c-3.17.01-5.83 2.52-5.83 5.84 0 1.68.71 3.26 1.94 4.34 0 0 .93.61.93 1.28h1.36c0-1.39-1.4-2.31-1.4-2.31-.94-.82-1.47-2.03-1.47-3.32 0-2.47 2.01-4.47 4.47-4.47 2.47 0 4.47 2.01 4.47 4.47 0 1.29-.54 2.5-1.47 3.32 0 0-1.4.91-1.4 2.31h1.36c.01-.67.95-1.28.95-1.28zm-3.25 1.29l-.2-3.87c3.23-.29 2.55-3.37 2.55-3.37s-2.85-.7-3.31 2.1c-.88-1.39-2.7-.91-2.7-.91s-.66 3.08 2.71 3.12l-.15 2.92h1.1zM25.06 8.3l-2.93.19v.97l5.67.45.54-5.85h-.98l-.59 2.5C16.01-4.8-1.9 7.01 3.33 20.83l1.38-.48C1 6.74 17.22-.37 25.06 8.3zm3.61 2.87l-1.38.48C31 25.26 14.78 32.37 6.94 23.7l2.93-.19v-.98l-5.67-.44-.54 5.85h.98l.59-2.5c10.76 11.36 28.67-.45 23.44-14.27z" style="fill: #000000;"/></svg>
