<svg xmlns="http://www.w3.org/2000/svg" viewBox="0 0 21.313 25.099"><g data-name="Camada 2"><path d="M10.579 13.948a.9.9 0 1 0 .9.9.9.9 0 0 0-.9-.9m.487-.65a18.4 18.4 0 0 1 .488-3.938h-1.96a18.4 18.4 0 0 1 .488 3.938Zm9.078-3.373a1.169 1.169 0 1 0 0-2.337h-.7V2.337h.7a1.169 1.169 0 1 0 0-2.337H1.168a1.169 1.169 0 0 0 0 2.337h.7v5.251h-.7a1.169 1.169 0 0 0 0 2.337h.7v5.25h-.7a1.169 1.169 0 0 0 0 2.337h.7v5.251h-.7a1.168 1.168 0 1 0 0 2.336h18.976a1.168 1.168 0 1 0 0-2.336h-.7v-5.251h.7a1.169 1.169 0 1 0 0-2.337h-.7v-5.25Zm-15.937 0h2.079l-2.079 2.08Zm6.322-2.851a.17.17 0 0 1 .237 0l5.356 5.357a.167.167 0 0 1 0 .237l-5.356 5.357a.17.17 0 0 1-.237 0l-5.357-5.357a.17.17 0 0 1 0-.237ZM4.207 13.1l2.08 2.08h-2.08Zm12.9 9.668h-12.9v-5.256h4.417l1.531 1.531h.985l1.531-1.531h4.435Zm0-7.588h-2.1l2.1-2.1Zm0-3.152-2.1-2.1h2.1Zm0-4.435h-4.436L11.14 6.056h-.985L8.624 7.588H4.207V2.337h12.9Z" data-name="Layer 1" style="fill: #000000;"/></g></svg>
