<svg xmlns="http://www.w3.org/2000/svg" viewBox="0 0 32 32"><path d="M25.04 9.27c-2.01 0-3.65 1.64-3.65 3.65 0 1.67 1.12 3.07 2.65 3.51v4.82c0 3.17-2.58 5.75-5.75 5.75-2.94 0-5.36-2.21-5.71-5.06 1.66-.41 4.68-1.84 5.41-6.88v.01l.01-.02 1.6-8.55c.07-.39.31-2.79-2.66-3.12-1.71-.19-3.49-.38-3.49-.38l.01 2.55 3.51-.36c.27 0 .51.1.67.29s.23.44.19.69l-1.61 8.52c-.55 2.17-2.5 3.32-4.74 3.32s-4.19-1.15-4.74-3.32L5.13 6.17c-.05-.25.02-.5.19-.69.16-.19.4-.29.67-.29l3.51.36V3s-1.78.19-3.49.38c-2.97.33-2.73 2.73-2.66 3.12l1.61 8.55.01.02v-.01c.76 5.25 4.01 6.59 5.61 6.92.37 3.93 3.69 7.01 7.71 7.01 4.27 0 7.75-3.48 7.75-7.75v-4.82a3.654 3.654 0 0 0 2.65-3.51c0-2-1.64-3.64-3.65-3.64zm0 5.3c-.91 0-1.65-.74-1.65-1.65 0-.91.74-1.65 1.65-1.65s1.65.74 1.65 1.65c0 .91-.74 1.65-1.65 1.65z" style="fill: #000000;"/></svg>
