<svg xmlns="http://www.w3.org/2000/svg" viewBox="0 0 32 32"><path d="M15.18 11.14c-1.63 0-2.96 1.33-2.96 2.96s1.33 2.96 2.96 2.96 2.96-1.33 2.96-2.96-1.33-2.96-2.96-2.96zm4.03 8.89l1.9-1.9-.71-1.51.23-.55 1.59-.64v-2.68l-1.57-.57-.22-.55.68-1.58-1.9-1.9-1.52.71-.54-.23-.63-1.6h-2.68l-.57 1.58-.55.22-1.57-.69-1.9 1.9.71 1.52-.23.54-1.59.62v2.68l1.57.58.22.55-.68 1.56 1.9 1.9 1.52-.7.55.23.63 1.58h2.68l.57-1.57.55-.22 1.56.72zm-3.13-1.42l-.42 1.25h-.96l-.47-1.26-1.59-.67-1.19.58-.68-.68.56-1.23-.65-1.6-1.26-.43v-.96l1.27-.47.67-1.59-.59-1.2.68-.68 1.23.57 1.6-.65.42-1.27h.96l.47 1.27 1.59.67 1.19-.6.68.68-.56 1.24.65 1.6 1.26.42v.96l-1.27.48-.67 1.61.59 1.19-.68.68-1.23-.56-1.6.65zm10.55-3.7c-.71-2.06.45-4.17-1.72-7.95C23.37 4.2 18.89 2 14.54 2 4.2 2 .47 12.39 5.2 19.41c.48.72.87 1.86.87 2.6L6.43 30h1.5l.41-7.3c.05-1.57-.42-3.05-1.26-4.29-3.57-5.29-1.05-14.27 7.44-14.27 6.89 0 9.98 4.46 9.76 8.88-.15 2.99 1.3 4.49 2.49 5.98-.99.6-2.23 1.14-2.32 2.63-.05.79.11 2.41.14 3.56.02 1.02-.12 1.7-1.4 1.57-.93-.1-6-1.26-6 3.24h1.5c0-2.18 3.87-.97 5.54-1.19 1.67-.23 2.43-1.43 2.47-3.01.04-1.58-.2-3.06-.12-4.12l1.33-.89c2.51-1.87-.84-4.63-1.28-5.88z" style="fill: #000000;"/></svg>
