<svg xmlns="http://www.w3.org/2000/svg" viewBox="0 0 32 32"><path d="M9.29 13.34h2.39v2.39H9.29zM9.29 9.85h2.39v2.38H9.29zM5.26 9.85h2.38v2.38H5.26zM5.26 13.34h2.38v2.39H5.26zM13.33 9.85h2.39v2.38h-2.39z" style="fill: #000000;"/><path d="M25.27 14.46c-1.6-.11-2.89 1.06-2.89 1.06v-2.56h-1.22v2.56s-.77-.71-1.87-.97c-.1-.02-.19-.04-.29-.05V4.62h-3.26V2h-1.96v2.62H7.22V2H5.27v2.62H2V19h11.69c-.14.72-.18 1.51-.13 2.34.11 1.88.78 3.94 1.89 5.79.57.97 1.94 2.83 3.89 2.83 1.56 0 1.93-1.21 2.43-1.21s.87 1.21 2.43 1.21c1.95 0 3.32-1.86 3.9-2.83 1.1-1.85 1.77-3.91 1.88-5.79.22-3.86-1.48-6.66-4.71-6.88zM3.31 17.69V7.88h14.38v6.65c-1.14.21-2.06.75-2.74 1.57-.38.45-.68.98-.91 1.57 0 .01 0 .01-.01.02H3.31zm25.46 3.58c-.14 1.7-.71 3.56-1.72 5.25-.48.8-1.62 2.23-2.79 2.23-1.29 0-1.85-1.4-1.89-2.43h-1.2c-.04 1.03-.6 2.43-1.89 2.43-1.16 0-2.3-1.43-2.78-2.23-1.01-1.69-1.58-3.55-1.72-5.25a7.28 7.28 0 0 1 .15-2.27c.11-.48.28-.92.49-1.31 0-.01.01-.01.01-.02.2-.36.44-.67.71-.92.44-.42.96-.69 1.55-.79h.02c.06-.02.12-.02.18-.03.34-.03.72.03 1.11.22.09.04.19.1.29.16.8.51 1.56 1.57 1.88 3.33h1.2c.51-2.81 2.12-3.83 3.29-3.71 2.03.21 3.34 2.43 3.11 5.34z" style="fill: #000000;"/><path d="M23.15 21.33c-.41 0-.74.25-.74.96s.33 1.6.74 1.6.74-.89.74-1.6c0-.7-.33-.96-.74-.96zM20.39 21.33c-.4 0-.74.26-.74.96 0 .71.34 1.6.74 1.6.41 0 .74-.89.74-1.6 0-.71-.33-.96-.74-.96z" style="fill: #000000;"/></svg>
