<svg xmlns="http://www.w3.org/2000/svg" viewBox="0 0 32 32"><path stroke-width="0" d="M16 13.015c3.04 0 5.51-2.47 5.51-5.51s-2.47-5.51-5.51-5.51-5.51 2.47-5.51 5.51 2.47 5.51 5.51 5.51m0-9.02c1.93 0 3.51 1.57 3.51 3.51 0 1.93-1.57 3.51-3.51 3.51-1.93 0-3.51-1.57-3.51-3.51.01-1.94 1.58-3.51 3.51-3.51M29.235 30.005s-.45-2.67-1.36-5.28c-1.609-4.6-4.132-8.163-8.53-9.34v2.417c.025.007.045.022.068.03.474.12 1.306.532 1.51 1.942v-.003l.003.006.457 2.424c.02.11.088.791-.755.885-.484.054-.99.107-.99.107v-.723l.996.102a.24.24 0 0 0 .19-.082.23.23 0 0 0 .054-.195l-.457-2.416c-.156-.616-.709-.942-1.344-.942s-1.188.326-1.344.942l-.456 2.416c-.012.07.008.141.054.195s.113.082.19.082l.995-.102.003.723s-.505-.053-.99-.107c-.842-.094-.774-.774-.754-.885l.454-2.424.002-.006v.003c.197-1.355.973-1.786 1.454-1.927.027-.01.05-.027.078-.036v-.001h.004l.011-.006v-2.546c-.112-.024-.22-.054-.334-.075L16 17.628l-2.447-2.447c-.136.025-.264.06-.397.089v4.666a1.036 1.036 0 0 1-.283 2.03c-.57 0-1.035-.465-1.035-1.032 0-.462.307-.868.751-.995v-4.537c-4.362 1.188-6.872 4.734-8.474 9.313-.91 2.61-1.35 5.28-1.35 5.28h3.99s.19-7.15 3.64-10.61l-1.25 10.61h13.69l-1.25-10.61c3.46 3.46 3.65 10.61 3.65 10.61v.01z" style="fill: #000000;"/><path stroke-width="0" d="M12.442 20.931a.468.468 0 1 0 .937 0 .468.468 0 0 0-.937 0" style="fill: #000000;"/></svg>
