<svg xmlns="http://www.w3.org/2000/svg" viewBox="0 0 32 32"><path d="M23.482 4.447a2.805 2.805 0 0 0-3.365-2.082 2.805 2.805 0 0 0-2.082 3.365 2.805 2.805 0 0 0 3.364 2.082 2.802 2.802 0 0 0 2.082-3.365zm-2.4 2.036a1.438 1.438 0 0 1-1.718-1.07 1.438 1.438 0 0 1 1.07-1.718 1.438 1.438 0 0 1 1.718 1.07 1.438 1.438 0 0 1-1.07 1.718zM4.883 21.765l.012 2.082 7.41-.33a4.275 4.275 0 0 0 2.977-1.61l1.37-1.682c1.202 1.057 2.936 3.155 3.823 4.735C21.9 27.497 21.693 30 21.693 30h3.07s-.176-3.02-1.41-6.04c-1.136-2.775-3.337-5.543-3.354-6.101l.835-4.024.318.742c.447.835 1.224 1.306 2.082 1.306h3.883V13.53h-3.87l-1.024-2.224s-.812-2.482-2.765-2.482h-3.282c-4.106.012-6.33 4.835-6.33 4.835l1.683.953s2.282-3.353 4.447-3.435h.411l-4.294 9.258-7.21 1.33z" style="fill: #000000;"/></svg>
