<svg xmlns="http://www.w3.org/2000/svg" viewBox="0 0 32 32"><path d="M25.06 11.95c-.2.91-.57 1.78-1.11 2.52l-1-.62c1.52-2.72.87-6.3-1.52-8.3l.72-.94c2.35 1.54 3.53 4.6 2.91 7.34zm.36-9.94l-.71.96c3.44 3.11 4.35 8.1 2.23 12.23l1.01.65c3.43-4.17 2.15-11.14-2.53-13.84zM2.11 8.9l1.3.35c.95-2.82 3.51-4.94 6.37-5.22 4.36-.63 8.48 3.24 8.12 7.62-.08 1.4-.6 2.79-1.31 4.16-.01 0-4.52 8.57-4.53 8.57l-.14.26.01.24c-.01 4.49-6.55 4.42-6.76 0H3.84c-.17 4.44 5.44 6.79 8.59 3.68.91-.86 1.47-2.07 1.58-3.33 1.51-2.81 3.04-5.58 4.53-8.42.77-1.5 1.43-3.19 1.54-5.04C20.46.72 4.89-1.91 2.11 8.9zm9.94-.27c1 .52 1.72 1.58 1.83 2.8H15c.12-1.58-.69-3.28-2.12-4.17-5.48-3.43-10.9 4.93-5.14 8.07l.72-1.06c-.38-.45-.66-.91-.86-1.4a2.69 2.69 0 0 1 1.82-.52c2.87.19 3.5 4.24.84 5.31l-.36.18-.13.27-2.03 4.15 1.46.79 2.16-3.68c2.52-1.22 3.46-4.7 1.79-6.99-1.23-1.88-3.76-2.49-5.76-1.7.42-1.93 2.86-3.09 4.66-2.05z" style="fill: #000000;"/></svg>
