<svg xmlns="http://www.w3.org/2000/svg" viewBox="0 0 32 32"><path d="M19.59 5.35c-.52-.08-.91-.55-.91-1.09V2h-1.5v2.26c0 1.29.92 2.37 2.18 2.57 4.47.7 7.85 4.64 7.85 9.17s-3.37 8.47-7.85 9.17c-1.27.2-2.18 1.28-2.18 2.57V30h1.5v-2.26c0-.54.39-1.01.91-1.09 5.2-.81 9.12-5.39 9.12-10.65s-3.93-9.84-9.12-10.65zm-5.23 13.83c-1.81-1.44-6.38-2.69-12.09 1.69l.91 1.19c2.53-1.94 4.66-2.6 6.31-2.7-2.31 1.05-2.52 4.4-2.63 6.64h2.27c-.04-.77-.06-1.53-.01-2.25.09-2.28.91-3.62 3.29-2.98V30h2.4v-7.63c.88.45 1.8.71 2.91.71 3.79 0 6.88-3.09 6.88-6.88 0-3.8-3.09-6.89-6.88-6.89-1.01 0-2.01.23-2.91.65V2h-2.4v10.27l2.07.83c.84-.88 2.02-1.39 3.24-1.39a4.485 4.485 0 0 1 0 8.97c-1.25 0-2.14-.53-3.36-1.5zm-2.63-3.04c.15.06 6.04 2.74 6.04 2.74l.63-1.36-2.12-.97a6.99 6.99 0 0 0 3.4-1.75l-1.03-1.09c-1.63 1.53-4.07 1.93-6.38 1.04-3.05-1.17-5.05-4.1-5.36-7.82l-1.5.12c.36 4.24 2.78 7.72 6.32 9.09z" style="fill: #000000;"/></svg>
