<svg xmlns="http://www.w3.org/2000/svg" viewBox="0 0 32 32"><path stroke-width="0" d="M24.603 13.047c-.24.153-.392.296-.561.463A10.9 10.9 0 0 1 25 17.999c0 6.065-4.935 11-11 11S3 24.065 3 18 7.935 7 14 7c1.6 0 3.121.344 4.493.96.177-.196.329-.382.493-.649.037-.061.084-.156.094-.181A11.9 11.9 0 0 0 14 6C7.383 6 2 11.383 2 18s5.383 12 12 12 12-5.383 12-12a11.9 11.9 0 0 0-1.134-5.088 1.6 1.6 0 0 0-.264.136Z" style="fill: #000000;"/><path stroke-width="0" d="M22.763 9.244c.295-.741.45-1.538.446-2.356.021-1.863-.882-3.803-2.365-4.889l-.992.99c.3.454.538.907.697 1.408.369 1.104.468 2.48-.284 3.693-1.015 1.637-2.263 2.391-4.403 2.047-.614-.099-1.712-.176-2.364-.136-4.104.247-7.364 3.623-7.496 7.733-.146 4.557 3.539 8.306 8.073 8.266 4.237-.038 7.743-3.443 7.923-7.677.026-.607.007-1.431-.128-2.284-.294-1.851.366-3.18 1.906-4.248 1.497-1.038 3.769-.653 5.233.359l.989-.992c-1.624-2.195-4.728-2.923-7.237-1.912Zm-3.773 9.083a5.015 5.015 0 0 1-4.663 4.663 5.004 5.004 0 0 1-5.316-5.316 5.015 5.015 0 0 1 4.663-4.663 5.004 5.004 0 0 1 5.316 5.316" style="fill: #000000;"/><path stroke-width="0" d="M24.34 6.917 26.929 3.832 28.168 5.071 25.083 7.66 24.34 6.917 24.34 6.917z" style="fill: #000000;"/></svg>
