
<svg xmlns="http://www.w3.org/2000/svg" viewBox="0 0 32 32"><path d="M22.3 16.84c-.43.37.1 2.54.94 2.54s1.96-.32 1.99-1.12c.05-.85-2.35-1.91-2.93-1.42zm-6.93-.85c-1.08.03-1.7.83-2.16 1.42-.23.3-.47.6-.67.7-.21.09-.33.07-.75-.08-.41-.14-.97-.34-1.7-.19-.83.17-1.47.74-1.8 1.59-.46 1.19-.24 2.76.52 3.81.42.57.88.96 1.25 1.28.6.51.84.74.84 1.28 0 1.56.02 4.2.02 4.2h1.6s-.02-2.65-.02-4.2c0-1.29-.75-1.93-1.41-2.49-.34-.29-.69-.59-1-1.01-.42-.62-.57-1.63-.3-2.3.2-.51.52-.58.63-.6.28-.06.49.01.84.13.48.17 1.13.4 1.95.02.56-.26.94-.74 1.27-1.17.38-.49.63-.79.94-.8.13 0 .34.02.56.27.41.47.59 1.4.44 2.27-.06.35-.35.9-.8 1.5a4.53 4.53 0 0 0-.89 2.67V30h1.6v-5.7c0-.62.2-1.21.57-1.72.62-.83.99-1.57 1.1-2.19.23-1.35-.09-2.75-.81-3.59-.48-.54-1.12-.83-1.82-.81zm-8.68 3.99c.45-3.25 1.36-5.07 2.25-6.83.46-.92.89-1.78 1.23-2.78.97-2.92.98-8.14.98-8.36h-2c0 .05-.01 5.12-.88 7.73-.29.87-.69 1.67-1.12 2.52-.91 1.81-1.94 3.87-2.44 7.45-.59 4.24.38 8.76.75 10.29H7.5l.02-.01c-.01-.06-1.48-5.34-.83-10.01zm15.14-8.56c-.75.96.11 2.39 1.07 3.32 1.06 1.02 3.46 1.7 4.58 1.7v-1.65c-.9 0-2.8-.62-3.44-1.24-.37-.36-.65-.77-.78-1.04.48-.02 1.34.05 1.95.11.76.07 1.54.14 2.26.14v-1.65c-.64 0-1.39-.07-2.11-.13-1.8-.16-2.99-.26-3.53.44zm3.12-5.77c-.26-.99-.61-2.35-2.28-2.79-3.16-.84-6.01 0-8.03 2.36-2.04 2.39-2.68 5.67-1.99 7.23.67 1.52 1.95 1.81 3.08 2.07.8.19 1.56.36 2.24.92 1.03.85 1.19 1.98 1.36 3.17.17 1.2.35 2.43 1.4 3.36.97.86 1.63 1 2.33 1 1.51 0 3.16-1.88 4.42-1.92v-1.72c-1.83.04-4.09 2.96-5.72 1.3-.57-.58-.69-1.22-.84-2.25-.19-1.31-.42-2.93-1.93-4.18-.97-.81-2.04-1.05-2.9-1.25-1.1-.25-1.65-.41-1.98-1.16-.41-.92.08-3.61 1.74-5.55 1.13-1.32 3.16-2.71 6.4-1.85.74.2.89.67 1.15 1.65.3 1.16 1.38 2.91 4.08 2.91v-1.6c-1.47 0-2.24-.57-2.53-1.7z" style="fill: #000000;"/></svg>
