
<svg xmlns="http://www.w3.org/2000/svg" viewBox="0 0 32 32"><path stroke-width="0" d="M28.211 6.044c-2.101-1.19-5.033-1.261-7.342-.72-.74.184-1.419.367-2.166.36-.932.007-1.866-.232-2.777-.434-3.843-.731-8.151.308-10.884 3.218-3.704 3.942-3.403 10.241-2.328 14.777.244 1.029.834 2.367 1.496 2.936 1.285 1.129 3.237 1.055 4.533-.003 2.182-1.782 4.717-5.135 6.488-6.515q.273-.215.557-.416a11.3 11.3 0 0 1 2.076 3.674 3 3 0 0 1-.438.337c-.772.485-1.703.892-2.608 1.012l.028.903c1.004-.004 2.392-.383 3.384-.938.124.568.211 1.181.253 1.766h.905a11.9 11.9 0 0 0-.508-4.21c.276-.065.544-.16.795-.294.437-.215.794-.55 1.097-.932.939.465 2.415.652 3.295.526l-.085-.768c-.513.013-1.076-.108-1.577-.259-.357-.115-.707-.238-1.021-.427q.158-.282.299-.551c.197-.349.407-.717.722-.925l-.438-.791c-.52.275-.851.735-1.153 1.185-.272.412-.511.802-.782 1.122-.428.534-.977.816-1.604.866-.325-.801-.684-1.523-1.153-2.2a10 10 0 0 1 1.751-.695c1.532-.471 3.036-1.17 4.219-2.282.36-.363.698-.809 1.002-1.168.346-.406.664-.764 1.078-1.047.453-.289.924-.473 1.434-.699.988-.433 2.137-.918 2.771-1.887 1.031-1.642.266-3.603-1.319-4.521m-7.717 9.008c-1.097.59-2.937.821-4.888 1.513a15.7 15.7 0 0 0-2.731-1.65 10 10 0 0 1-.811-.422c.067-.414.243-.8.472-1.163.826-1.252.871-2.255.551-3.677l-.889.17c.1.763.135 1.563-.246 2.227-.21.38-.664.896-.906 1.392q-.063.126-.115.261c-.811-.677-1.457-1.491-2.142-2.525l-.769.477c.369.68.748 1.403 1.25 2.078a9 9 0 0 0 1.783 1.79c.205.159.429.313.658.462-.766.395-1.687.206-2.576.059-.537-.08-1.1-.146-1.654.053l.291.856c.366-.093.781 0 1.171.089.446.104.926.242 1.456.305a3.46 3.46 0 0 0 2.502-.599c.287.206.563.427.844.638a9 9 0 0 0-.315.178c-2.489 1.466-3.963 4.07-6.07 4.408-2.614.419-3.379-1.545-3.593-3.366-.421-3.591.634-8.221 4.029-10.518 2.26-1.533 5.21-2.074 7.908-1.634.993.191 1.948.416 3.003.408q.208.002.417-.013c.606 1.795 1.346 3.614 2.717 4.976.378.372.806.697 1.268.958-.359.385-.687.789-1.025 1.166-.452.463-1.012.795-1.589 1.105Zm7.899-5.685c-.3.821-1.384 1.149-2.283 1.521-.778.31-1.663.647-2.304 1.22l-.121.107a5.2 5.2 0 0 1-1.189-1.015c-1.1-1.283-1.633-2.932-2.053-4.559q.36-.082.705-.171a9.2 9.2 0 0 1 3.29-.208c1.05.136 2.131.375 3.031.944.779.519 1.216 1.322.923 2.16Z" style="fill: #000000;"/></svg>
