
<svg xmlns="http://www.w3.org/2000/svg" viewBox="0 0 32 32"><path fill-rule="evenodd" d="M26.45 3.5H6v4H2v21h24v-4h4v-21h-3.55zm-2.42 19.94l-5.51-6.1-2.01 2.22L11.49 14l-7.51 8.32V11.01c0-.85.69-1.53 1.53-1.53H22.5c.85 0 1.53.69 1.53 1.53v12.43zm4-2.49c0 .87-.71 1.58-1.58 1.58H26V7.5H7.97v-.45c0-.87.71-1.58 1.58-1.58h16.89c.87 0 1.58.71 1.58 1.58v13.9zm-9.52-9.63c-1.22 0-2.22.99-2.22 2.22s.99 2.22 2.22 2.22c1.22 0 2.22-.99 2.22-2.22s-.99-2.22-2.22-2.22z" clip-rule="evenodd" style="fill: #000000;"/></svg>
