
<svg xmlns="http://www.w3.org/2000/svg" viewBox="0 0 32 32"><path d="M16 13.59c-1.35 0-2.45 1.11-2.45 2.48 0 1.37 1.1 2.48 2.45 2.48s2.45-1.11 2.45-2.48c-.01-1.37-1.1-2.48-2.45-2.48zm13.82 1.74l-1.22-1.28a.431.431 0 0 1-.09-.48l.72-1.64c.13-.29.03-.62-.22-.79l-.32-.23a.63.63 0 0 0-.88.16l-1.48 2.13-2.85.51a8.12 8.12 0 0 0-1.74-3.05l1.88-2.27 2.55-.22c.19.02.63-.21.58-.7l-.05-.4a.632.632 0 0 0-.57-.59l-1.75-.18c-.18 0-.32-.13-.37-.3l-.48-1.73c-.08-.3-.37-.5-.67-.47l-.39.03c-.35.03-.61.34-.58.7l.22 2.59-1.87 2.25a7.655 7.655 0 0 0-3.28-1.21V5.22l1.81-1.83c.15-.14.36-.56 0-.91l-.28-.29a.612.612 0 0 0-.8-.08l-1.46 1c-.15.1-.33.1-.48 0l-1.46-1a.624.624 0 0 0-.8.08l-.27.28c-.36.4-.12.79 0 .91l1.81 1.85v2.93c-1.2.15-2.31.57-3.28 1.2L9.89 7.12l.23-2.58c.03-.2-.08-.64-.58-.7l-.4-.04c-.3-.03-.59.17-.67.47l-.48 1.72c-.05.18-.2.3-.37.32l-1.76.19a.65.65 0 0 0-.57.59l-.03.4c-.03.35.23.67.58.7l2.55.21 1.85 2.24c-.79.86-1.4 1.89-1.75 3.05l-2.82-.5-1.46-2.13c-.26-.4-.74-.29-.89-.16l-.33.24a.66.66 0 0 0-.22.79l.72 1.63c.08.16.05.35-.08.48l-1.23 1.29c-.22.22-.24.57-.07.81l.23.33c.23.38.72.31.89.16l2.11-1.49 2.82.5c-.08 1.35.2 2.56.6 3.51l-2.5 1.46-2.47-.68c-.16-.05-.57-.11-.77.46l-.11.4c-.08.3.07.61.34.75l1.59.78c.17.07.25.24.24.42l-.13 1.79c-.02.31.18.59.47.67l.53.14c.28.04.54-.2.62-.48l.67-2.51 2.51-1.47c.71.95 1.62 1.73 2.67 2.27l-.98 2.72-2.32 1.09a.64.64 0 0 0-.31.86l.17.37c.13.29.44.44.73.36l1.7-.44c.18-.04.34.02.45.17l1.04 1.45c.13.17.4.38.8.19l.35-.17c.3-.15.45-.54.3-.85l-1.08-2.37.98-2.71c1 .28 2.5.27 3.48-.01l.99 2.75-1.09 2.35c-.07.16-.15.65.31.86l.36.17c.34.16.67-.04.78-.21l1.03-1.45c.11-.15.28-.21.45-.17l1.71.44c.3.07.61-.08.73-.36l.17-.36c.15-.32.01-.71-.3-.85l-2.32-1.1-.99-2.75a7.892 7.892 0 0 0 2.66-2.28l2.5 1.47.66 2.5c.04.17.24.58.79.46l.39-.11c.29-.08.49-.37.47-.68l-.13-1.78c-.02-.17.08-.34.24-.42l1.59-.79c.27-.13.41-.45.33-.75l-.1-.39c-.05-.17-.28-.59-.78-.46l-2.48.67-2.5-1.46c.39-.91.67-2.21.59-3.46l2.86-.51 2.09 1.49c.2.14.6.26.89-.15l.24-.34c.19-.24.16-.59-.05-.81zM16 22.43c-2.82 0-5.11-2.84-5.11-6.35S13.18 9.73 16 9.73s5.11 2.84 5.11 6.35c0 3.5-2.29 6.35-5.11 6.35z" style="fill: #000000;"/></svg>
