
<svg xmlns="http://www.w3.org/2000/svg" viewBox="0 0 32 32"><path d="M23.34 30h3.92c-.84-5.97-3.44-11.1-6.98-13.36-1.68-1.08-4-1.62-5.87-1.62-1.73 0-3.44.49-4.86 1.6-3.11 2.41-5.12 7.27-4.76 9.6.43 2.71 3.23 3.77 6.55 3.77h9.62L19.7 19.43s3.09 2.53 3.64 10.57zm-13.21-2.11c-2.18-.14-3.91-1.48-3.28-3.35l6.83-7.45c.53-.02 1.16-.03 1.82.03l-5.37 10.77zm2.06.34l2.29-4.55h1.61c1.29 0 2.33 1.04 2.33 2.33a2.311 2.311 0 0 1-2.29 2.33l-3.94-.11zm2.25-15.22c3.04 0 5.51-2.47 5.51-5.51S17.47 2 14.44 2c-3.04 0-5.5 2.47-5.5 5.51s2.46 5.5 5.5 5.5zm0-9.01c1.93 0 3.51 1.57 3.51 3.51 0 1.93-1.57 3.51-3.51 3.51-1.93 0-3.51-1.57-3.51-3.51C10.93 5.57 12.5 4 14.44 4z" style="fill: #000000;"/></svg>
