
<svg xmlns="http://www.w3.org/2000/svg" viewBox="0 0 32 32"><path d="M13.5 21.3c0 .4.3.7.7.7h1.4c.4 0 .7-.3.7-.7v-.6h-2.9v.6zm-.9-5.6c-1-.9-1.3-1.8-1.3-2.9 0-2.1 1.7-3.7 3.7-3.7s3.7 1.7 3.7 3.7c0 1.1-.3 2-1.3 2.9-.3.3-1.1 1-1.1 2h1.4c0-.4.3-.7.7-.9 1.2-1 1.8-2.4 1.8-3.9 0-2.8-2.3-5.1-5.1-5.1S9.9 10 9.9 12.9c0 1.5.6 2.9 1.8 3.9.3.3.7.6.7.9h1.4c-.1-1-.9-1.7-1.2-2zm4.8 3.4v-.6h-4.9v.6c0 .4.3.7.7.7h3.4c.5 0 .8-.3.8-.7zm9.2-4.2c-.7-2.1.4-4.2-1.7-8-1.5-2.8-6-5-10.4-5C4.2 2 .5 12.4 5.2 19.4c.5.7.9 1.9.9 2.6l.4 8H8l.4-7.3c0-1.6-.4-3.1-1.3-4.3C3.5 13.1 6 4.1 14.5 4.1c6.9 0 10 4.5 9.8 8.9-.2 3 1.3 4.5 2.5 6-1 .6-2.2 1.1-2.3 2.6 0 .8.1 2.4.1 3.6 0 1-.1 1.7-1.4 1.6-.9-.1-6-1.3-6 3.2h1.5c0-2.2 3.9-1 5.5-1.2 1.7-.2 2.4-1.4 2.5-3 0-1.6-.2-3.1-.1-4.1l1.3-.9c2.5-1.9-.8-4.6-1.3-5.9z" style="fill: #000000;"/></svg>
