
<svg xmlns="http://www.w3.org/2000/svg" viewBox="0 0 32 32"><path d="M23.59 11.9c-.48-.97-.84-1.92-.54-2.62.45-1.04 2.49-.82 3.46-.79V7c-.96-.03-2.73-.08-3.81.49-1.5.8-1.63 3.47-.72 5.94.23.05.45.12.64.22 1.67.92 2.41 3.38 2.04 6.75-.57 5.16-3.88 7.6-4.63 7.6-.87 0-2.16-.24-3.54-.67 1.06-.92 2.47-2.52 2.81-4.75.02-.1.02-.2.03-.29.16-.32.82-1.35 2.48-1.35v-2c-1.23 0-2.15.37-2.82.83a6.697 6.697 0 0 0-2.04-2.73l-1.19 1.61c.02.01 1.9 1.43 1.56 3.63-.04.27-.11.54-.2.79-.79-1.56-2.41-3.15-5.3-3.15v2c3.38 0 3.88 2.99 3.93 3.34-.7.74-1.38 1.17-1.48 1.23-1.25-.57-2.44-1.27-3.32-2.09-.93-.86-1.62-1.75-2.14-2.64.08-2.59 1.46-3.39 3.92-4.78l.76-.44c2.11-1.22 2.85-3.22 2.98-4.96 1.07.76 1.71 1.54 1.77 1.62l.41.51.63-.17c.13-.03.33-.08.57-.12-1.48-5.47.56-8.37 6.64-7.57V4.36c-.33-.14-1.76-.68-3.94-.58-2.5.12-3.54 2.26-4.73 3.67-.82 1-2.34.98-3.03.88-1.29-.3-1.94-1.86-2.14-2.55S12.24 2 12.24 2h-1.75l.47 7.87.02.32c.13-.03.17-.03.3-.05.27-.04.63-.07.89-.07.84 0 1.62.17 2.32.43.09 1.17-.06 3.19-1.98 4.3l-.75.43c-1.66.94-3.25 1.85-4.16 3.46-.45-1.98-.24-3.64-.1-4.35.28-1.4.87-2.61 1.57-3.3L8.99 2H7.15s.19 2.99-1.02 7.7c-1.02 2.96-.95 5.84-.8 7.4.01.14.03.28.05.42.02.17.04.3.06.42.39 2.95 1.82 5.75 4.17 7.94C12.16 28.23 17.22 30 20.04 30c2.22 0 5.99-3.74 6.62-9.38.46-4.21-.66-7.39-3.07-8.72z" style="fill: #000000;"/></svg>
