
<svg xmlns="http://www.w3.org/2000/svg" viewBox="0 0 32 32"><path d="M23.19 18.31c-.78-.93-2.1-.99-3.06-1.03-.29-.01-.66.21-1.34-.57-.51-.59-1.24-1.26-2.78-1.27-1.54 0-2.27.67-2.78 1.27-.68.79-1.06.56-1.34.57-.96.04-2.28.09-3.06 1.03-.69.83-.98 1.83-.85 2.91.22 1.8 1.61 3.42 2.42 4.01.53.38.6.77.6 1.16V30h2l-.02-3.66c0-1.01-.12-1.78-1.43-2.73-.28-.21-2.23-1.84-.9-2.79 1-.71 1.55-.12 2.44-.12 1.49 0 1.19-1.62 2.9-1.63 1.71.01 1.41 1.63 2.9 1.63.89 0 1.44-.59 2.44.12 1.33.95-.62 2.58-.9 2.79-1.31.95-1.43 1.72-1.43 2.73V30h2l.02-3.61c0-.39.07-.78.6-1.16.82-.59 2.2-2.21 2.42-4.01.13-1.08-.16-2.08-.85-2.91zm-12.32-3.07c1.69 0 1.92-.72 2.71-1.16.81-.45 1.67-.73 2.42-.73s1.61.28 2.42.73c.79.44 1.02 1.16 2.71 1.16.61 0 1.22-.21 1.78-.8.77-.8 1.15-1.79 1.09-2.87-.08-1.6-1.08-2.98-1.91-3.67C20.95 6.94 21 5.52 21 5.5V2h-2v3.45c0 .04-.1 2.88 1.73 3.75 1.21.57 1.7 2.97.14 2.97-2.95 0-2.88-2.55-4.88-2.55s-1.93 2.55-4.88 2.55c-1.56 0-1.06-2.4.14-2.97C13.1 8.33 13 5.48 13 5.44V2h-2v3.51c0 .01.05 1.44-1.1 2.4-.83.69-1.82 2.07-1.91 3.67-.06 1.08.32 2.08 1.09 2.87.57.58 1.18.79 1.79.79z" style="fill: #000000;"/></svg>
