
<svg xmlns="http://www.w3.org/2000/svg" viewBox="0 0 32 32"><path d="M8.35 9.6s-.45 1.25-.15 2.93c.3 1.65 1.64 2.79 1.64 2.79s-.76.15-1.49 1.28c-.45.7-.48 1.66-.48 1.66s-1.84-.49-1.67-4.29c.16-3.32 2.14-4.37 2.15-4.37zm1.76 12.53c.5.5.9.89 1.05 2.13.04.31.04.92.04.92v4.08h1.47v-4.08c0-.07-.01-.73-.05-1.1-.22-1.74-.92-2.43-1.47-2.99-.28-.27-.51-.51-.69-.87-.28-.57-.19-1.16 0-1.53.13-.25.31-.43.48-.46.1-.02.16.01.49.26.46.35 1.16.88 2.44.88s1.98-.53 2.44-.88c.34-.26.4-.28.49-.26.17.03.35.21.48.46.18.37.28.96 0 1.52-.18.35-.41.59-.69.87-.56.56-1.25 1.25-1.47 2.99-.05.37-.05 1.03-.05 1.11v4.08h1.47v-4.07s0-.62.04-.93c.16-1.24.55-1.63 1.05-2.13.32-.32.68-.68.97-1.25.44-.88.44-1.97 0-2.84-.34-.68-.89-1.13-1.53-1.25-.76-.14-1.26.24-1.66.54-.39.3-.76.58-1.55.58s-1.16-.28-1.55-.58c-.4-.3-.89-.68-1.66-.54-.63.12-1.19.57-1.53 1.25a3.22 3.22 0 0 0 0 2.84c.3.56.67.93.99 1.25zM29 10.84c-4.02.31-9.22.75-10.65.99-2.31.39-2.75.82-3.49 2.02l-.16.26c-.05.08-.2.32-.72.33-.94.01-2.2-.73-2.83-1.67-.41-.6-.5-1.37-.25-2.1.21-.63.65-1.15 1.1-1.3.25-.08.92.08 1.36.19.43.1.83.2 1.2.22.82.04 3.53-.33 3.82-.37L29 8.19V6.71L18.2 7.95c-1.11.15-3.05.38-3.57.36-.22-.01-.57-.1-.91-.18-.75-.18-1.53-.37-2.18-.15-.89.3-1.66 1.15-2.03 2.23-.4 1.17-.24 2.41.42 3.4.91 1.35 2.6 2.32 4.03 2.32h.05c.85-.01 1.53-.37 1.94-1.02l.17-.28c.52-.85.63-1.03 2.48-1.34 1.36-.23 6.43-.65 10.4-.96v-1.49zm0 6.74c-.48.02-.93.03-1.31 0-3-.19-6.5-.47-6.5-.47l-.95-.07V18c0 .03 0 3.28-.15 6.94-.06 1.56-.29 3.08-.52 4.32h1.8c.23-1.24.43-2.72.49-4.25.1-2.5.14-4.82.15-6.06 1.25.09 3.53.26 5.58.39.42.03.9.02 1.42 0v-1.76zM11.12 6.52C15.63 5.27 27.87 4.55 29 4.49V2.74c-.96.05-13.55.75-18.35 2.07-4.25 1.18-6.3 2.78-7.08 5.53-1.12 3.95-.33 6.35.31 8.28.23.69.44 1.33.54 1.97.72 4.58 1.16 7.56 1.32 8.67h1.79c-.12-.84-.58-3.94-1.36-8.94-.12-.78-.36-1.5-.61-2.26-.62-1.87-1.26-3.81-.29-7.23.5-1.76 1.68-3.16 5.85-4.31z" style="fill: #000000;"/></svg>
