
<svg xmlns="http://www.w3.org/2000/svg" viewBox="0 0 32 32"><path stroke-width="0" d="M18.88648 11.227051 18.884222 11.216003 18.886419 11.227112 18.88648 11.227051z" style="fill: #000000;"/><path stroke-width="0" d="M13.848 8.826c0 .25-.047.488-.113.718.308-.43.582-.455.582-.455v.013c-.005.058-.205 1.104-.452 2.386a2.6 2.6 0 0 1 2.141-1.131c.874 0 1.645.437 2.116 1.1a165 165 0 0 1-.446-2.349v-.013h.009000000000000001l.012.002.02.005.025.006.032.011.035.015q.02.008.042.021l.044.024.05.035q.024.017.05.037.028.023.056.05l.057.053q.03.032.06.07.03.032.06.07l.063.092a2.6 2.6 0 0 1-.126-.76c0-.25.047-.489.114-.718a3.85 3.85 0 0 0-2.245-.816q-.014.002-.028.003-.016-.002-.034-.003a3.9 3.9 0 0 0-2.24.809c.068.231.116.472.116.725M10.67 25.05l.107-2.73H9.762l.44 2.26a.64.64 0 0 1-.102.47zM11.718 22.254l.11 2.797h1.247l.141-2.888a.64.64 0 0 1-.322.091zM9.09 13.016c0 .2-.028.394-.071.582.29-.372.54-.386.54-.386l-.24 2.816c.44.354.806.803 1.086 1.335.214.402.384.8.523 1.19h.608a9 9 0 0 1 .548-1.264 5 5 0 0 1 .32-.505 4.2 4.2 0 0 1 .556-.639c.065-.06.13-.122.196-.176l.016-.011-.053-.626-.18-2.12.01.003q.007.001.02.005l.024.007.029.012.034.014.04.022q.02.01.043.024l.048.034q.025.016.05.037.027.023.056.05.027.024.055.052.03.032.06.07.025.025.048.055l.012.014c.02.027.04.06.061.09-.018-.062-.043-.121-.057-.185a2.6 2.6 0 0 1-.065-.56c0-.251.047-.489.114-.718a3.891 3.891 0 0 0-1.65-.755 4 4 0 0 0-.565-.064c-.02 0-.037.006-.057.006q-.014-.002-.029-.003l-.036-.003a3.9 3.9 0 0 0-2.226.817c.078.248.132.506.132.78M18.606 12.956c0 .207-.031.406-.077.599-.007.031-.02.06-.028.09l.036-.05c.29-.37.538-.383.538-.383l-.187 2.19-.049.571c.073.059.13.135.2.198q.3.28.545.622c.118.165.239.326.336.51.225.423.4.84.543 1.25h.61c.14-.392.31-.792.526-1.198.3-.545.665-.993 1.072-1.32q.011-.008.022-.015l-.24-2.808.012.003q.006.001.019.005l.024.007.029.012.035.014.039.022q.02.01.043.024l.048.034q.025.016.05.037.027.023.056.05.027.024.055.052c.02.02.04.046.06.07.02.023.04.043.06.07l.027.038a2.6 2.6 0 0 1-.087-.634c0-.27.052-.524.128-.768a3.9 3.9 0 0 0-2.23-.829q-.02.002-.041.004l-.016.002c-.022 0-.043-.006-.065-.006a4 4 0 0 0-.57.062 3.877 3.877 0 0 0-1.641.744c.069.233.118.475.118.73M21.236 22.32l.106 2.73h.551a.64.64 0 0 1-.102-.47l.44-2.26zM18.797 22.178l.141 2.873h1.248l.109-2.79h-1.19a.64.64 0 0 1-.308-.083" style="fill: #000000;"/><path stroke-width="0" d="M3.139 17.668c-.585 1.101-.834 2.177-.957 3.115-.041.312-.068.61-.09.887H3.38c.137-4.171 1.423-4.262 1.423-4.262v.013c-.003.039-.093.514-.225 1.204l-.106.554q-.029.148-.058.301l-.252 1.304-.196 1.008-.349 1.796-.158.81-.055.286-.004.02h1.04l.22 4.549h1.248l.175-4.548h.8l.175 4.548h1.312l.176-4.548h1.02l-.212-1.088a2489 2489 0 0 1-1.067-5.515 27 27 0 0 1-.125-.675v-.013h.009000000000000001l.012.002.02.005.025.006.031.012.036.014.042.022q.021.01.043.024.025.015.051.035.025.016.05.036l.057.05.055.054q.03.032.061.069.03.033.06.07c.021.028.043.062.064.094.02.029.04.056.06.09q.034.056.067.12c.02.036.04.07.06.11.022.046.044.1.066.15.019.045.039.087.057.136l.018.046c.016.043.03.092.046.138.019.053.037.102.055.16.02.07.04.15.06.226.017.061.033.118.049.184.02.083.036.178.054.27.014.07.03.136.042.211.018.102.032.216.048.327.01.077.023.148.033.23.015.131.027.278.04.422.007.074.015.14.02.217q.025.34.039.726h1.286a19 19 0 0 0-.052-.566c-.109-1.01-.34-2.206-.994-3.436a3.7 3.7 0 0 0-.583-.8c-.11-.117-.217-.239-.34-.337a4 4 0 0 0-.67-.45 3.9 3.9 0 0 0-1.094-.402c-.015-.003-.03-.002-.045-.005a4 4 0 0 0-.58-.062q-.014.002-.028.003c-.011 0-.022-.004-.034-.004H6.45q-.315.011-.623.07a3.9 3.9 0 0 0-1.765.85 3.8 3.8 0 0 0-.922 1.137M22.764 16.86c-.22.236-.424.497-.595.808-.635 1.196-.872 2.36-.984 3.351q-.038.34-.062.651h1.286c.05-1.535.257-2.514.497-3.143.413-1.08.926-1.12.926-1.12v.014c-.002.028-.05.286-.126.687l-.169.882a2212 2212 0 0 1-1.108 5.715h1.04l.22 4.548h1.248l.175-4.548h.8l.175 4.548h1.312l.176-4.548h1.02s-1.39-7.128-1.404-7.278v-.013h.009000000000000001l.012.002.02.005.025.006.032.012.035.014.043.022q.02.01.042.024.026.015.051.035.025.016.05.036.029.024.057.05.027.026.056.054.03.032.06.069.03.033.06.07c.021.028.043.062.065.094.02.029.04.056.06.09q.033.056.066.12c.02.036.04.07.06.11.022.046.044.1.066.15.02.045.039.087.058.136.022.056.042.121.064.184.018.053.036.102.054.16.021.07.04.15.06.226.017.061.034.118.049.184.02.083.037.178.055.27.014.07.029.136.042.211.017.102.032.216.047.327.01.077.023.148.033.23.016.131.028.278.04.422.007.074.015.14.02.217q.026.34.039.726h1.286c-.084-1.11-.266-2.534-1.046-4.002a3.6 3.6 0 0 0-.922-1.137 3.85 3.85 0 0 0-2.39-.92c-.009 0-.018.004-.027.004q-.018-.002-.035-.004a3.883 3.883 0 0 0-1.727.473c-.235.128-.462.271-.669.447-.118.095-.22.215-.327.329M16.006 6.646q.018-.002.035-.004a1.95 1.95 0 0 0 1.915-1.946c0-1.072-.877-1.949-1.95-1.949s-1.949.877-1.949 1.95c0 1.057.85 1.922 1.908 1.944.014 0 .027.005.041.005m-.974-1.95a.974.974 0 1 1 .975.975.973.973 0 0 1-.975-.975M11.249 10.775c.022 0 .043-.006.065-.006q.037-.003.072-.008a1.947 1.947 0 0 0 1.812-1.935c0-.073-.013-.142-.021-.213a1.9 1.9 0 0 0-.225-.713 1.95 1.95 0 0 0-1.703-1.023c-1.072 0-1.95.877-1.95 1.949 0 1.048.84 1.903 1.878 1.942.024.001.047.007.072.007m-.975-1.949c0-.54.442-.975.975-.975s.963.427.973.958l.002.017a.973.973 0 0 1-.975.975.973.973 0 0 1-.975-.975M19.86 10.542c.23.121.483.197.754.218q.039.005.078.008c.024.001.047.007.072.007.022 0 .043-.006.065-.006a1.95 1.95 0 0 0 1.884-1.943c0-1.072-.877-1.95-1.949-1.95a1.947 1.947 0 0 0-1.928 1.745c-.008.069-.021.135-.021.205 0 .745.428 1.388 1.045 1.716m.904-2.69a.974.974 0 1 1-.972.997q-.002-.011-.003-.023c0-.54.442-.975.975-.975M6.45 14.96c.014 0 .027.005.041.005.012 0 .023-.004.035-.004.029 0 .056-.007.084-.008q.402-.027.743-.197a1.95 1.95 0 0 0 1.088-1.74c0-.094-.015-.183-.028-.273a1.9 1.9 0 0 0-.243-.698 1.95 1.95 0 0 0-1.679-.979c-1.072 0-1.949.877-1.949 1.95 0 1.057.85 1.922 1.908 1.945m.041-2.92a.97.97 0 0 1 .968.901c.002.025.007.05.007.075a.97.97 0 0 1-.463.826.973.973 0 0 1-1.487-.826c0-.54.436-.975.975-.975M24.642 14.746q.342.176.746.205c.031.002.06.009.092.01q.02.002.042.004.016-.002.034-.004a1.95 1.95 0 0 0 1.915-1.945c0-1.073-.877-1.95-1.95-1.95-.728 0-1.36.41-1.694 1.007a1.9 1.9 0 0 0-.228.684c-.012.085-.027.17-.027.259 0 .755.437 1.406 1.07 1.73m-.092-1.766a.973.973 0 0 1 1.946.035.973.973 0 0 1-1.506.817.97.97 0 0 1-.443-.816q.001-.019.003-.036M16.006 11.007a1.947 1.947 0 0 0-1.928 1.744c-.007.068-.02.135-.02.205 0 .745.427 1.388 1.045 1.715.229.122.483.198.754.219q.038.005.078.008c.016 0 .033-.005.05-.006h.032c.019 0 .036.006.055.007q.034-.003.07-.008.405-.03.75-.21a1.95 1.95 0 0 0 1.064-1.725c0-.075-.014-.146-.022-.219a1.9 1.9 0 0 0-.227-.712 1.95 1.95 0 0 0-1.7-1.018m.543 2.759a.97.97 0 0 1-1.107-.017.97.97 0 0 1-.408-.77l-.002-.023c0-.54.442-.975.974-.975s.96.424.973.952l.002.023a.97.97 0 0 1-.432.81M13.576 16.465c-.12.096-.224.218-.332.334-.072.077-.147.15-.214.236a4.3 4.3 0 0 0-.376.567c-.64 1.203-.875 2.372-.986 3.368-.025.22-.045.434-.06.634h1.286c.05-1.533.254-2.51.492-3.14l.015-.045c.204-.52.43-.788.606-.927.18-.143.31-.15.31-.15l-.066.775-.136 1.598-.156 1.827-.097 1.14.319 6.498h1.247l.254-6.497h.65l.253 6.497h1.247l.319-6.497-.097-1.133-.133-1.566-.16-1.876-.065-.766.011.003q.007.001.02.005l.023.007.03.012.034.014.04.021.043.025q.023.015.048.034.024.016.05.037l.021.018.034.032q.028.024.056.052.03.032.06.07.03.031.06.07c.02.027.042.061.064.093.02.029.04.055.06.088.022.036.044.08.067.122.02.036.04.069.059.109.022.045.044.1.066.15.02.045.039.086.058.135l.024.067.004.012.036.107c.018.053.037.101.054.158.021.07.04.15.06.225.017.062.034.12.05.186.02.084.037.179.055.27.014.071.029.136.042.213.018.1.032.215.047.325.012.079.024.15.034.235.015.123.026.262.038.397.008.083.017.158.024.246q.025.342.038.73h1.286q-.02-.264-.05-.55c-.108-1.013-.34-2.215-.996-3.452a4 4 0 0 0-.377-.573c-.063-.08-.133-.148-.201-.221-.111-.12-.22-.243-.344-.343-.038-.032-.082-.055-.12-.086a4 4 0 0 0-.543-.359 3.9 3.9 0 0 0-1.135-.414 4 4 0 0 0-.562-.063q-.022-.002-.043-.005L16 15.542l-.022.002q-.018.002-.036.004a4 4 0 0 0-.57.063c-.399.075-.78.218-1.135.412a4 4 0 0 0-.55.362c-.035.029-.076.05-.11.08" style="fill: #000000;"/></svg>
