
<svg xmlns="http://www.w3.org/2000/svg" viewBox="0 0 32 32"><path d="M7.14 13.55a2.279 2.279 0 1 0 0-4.56 2.279 2.279 0 1 0 0 4.56zm0-3.42a1.14 1.14 0 1 1 .001 2.279 1.14 1.14 0 0 1-.001-2.279zm17.73 3.42a2.279 2.279 0 1 0 0-4.56c-1.26 0-2.28 1.02-2.28 2.28a2.292 2.292 0 0 0 2.28 2.28zm0-3.42a1.14 1.14 0 1 1 .001 2.279 1.14 1.14 0 0 1-.001-2.279zm3.5 11.25H30c-.29-4.21-2.03-7.15-5.13-7.09-1.6-.03-2.85.74-3.71 2.08-1.35-1.27-3.04-2.08-5.15-2.08-2.11 0-3.81.82-5.16 2.1-.86-1.35-2.11-2.12-3.72-2.09-3.1-.06-4.84 2.88-5.13 7.09h1.63c.16-4.91 1.53-4.78 1.53-4.78l-.54 6.04h2.65c-.84 2.69-1.18 5.46-1.2 7.35h2.91c.31-9.52 3.23-11.62 3.23-11.62l-1 11.62h9.62l-1-11.62s2.92 2.1 3.23 11.62h2.91c-.02-1.89-.37-4.66-1.22-7.35h2.62l-.54-6.04c.01-.01 1.38-.13 1.54 4.77zm-12.35-8.54c2.44 0 4.42-1.98 4.42-4.42S18.46 4 16.02 4 11.6 5.98 11.6 8.42s1.98 4.42 4.42 4.42zm0-6.64a2.21 2.21 0 1 1-.001 4.421A2.21 2.21 0 0 1 16.02 6.2z" style="fill: #000000;"/></svg>
