
<svg xmlns="http://www.w3.org/2000/svg" viewBox="0 0 32 32"><path d="M16 2C8.27 2 2 8.27 2 16s6.27 14 14 14 14-6.27 14-14S23.73 2 16 2zm4.37 2.83c1.97.77 3.69 2.05 5 3.68l-.83 3.86-.005.023-.946.743a3.49 3.49 0 0 1-1.257.542l-.821.123-.225-.166-4.465-3.252-.31-1.168a3.49 3.49 0 0 1 0-1.37l.292-1.1.067-.035 3.5-1.88zm-8.72-.01l3.5 1.88.04.022.298 1.124c.09.452.09.917 0 1.37l-.31 1.17-4.464 3.249-.23.17-.846-.127a3.49 3.49 0 0 1-1.257-.542l-.883-.693-.018-.083-.84-3.87c1.31-1.63 3.03-2.9 5.01-3.67zm-7.6 12.31l2.88-3.12.072-.08.973.146c.451.096.878.28 1.258.542l.998.785c.015.011.033.012.048.022l1.706 4.834v.01l.056.162-.393.927a3.49 3.49 0 0 1-.84 1.082l-.756.577-.152-.007-3.78-.21a11.9 11.9 0 0 1-2.07-5.67zM19.08 27.6c-.99.26-2.02.4-3.08.4-1.29 0-2.53-.2-3.69-.58l-1.07-3.33-.024-.075.402-.948c.205-.412.49-.78.839-1.082l1.01-.77c.004-.004.005-.009.009-.012h5.018c.004.003.005.008.01.011l1.009.771c.348.302.634.67.84 1.082l.39.923-.013.03-1.65 3.58zm7.23-5.48l-4.23.83-.198.04-.72-.55a3.49 3.49 0 0 1-.84-1.082l-.389-.917.064-.173v-.009l1.728-4.85c.004-.003.01-.003.014-.006l.998-.785a3.49 3.49 0 0 1 1.258-.542l1.008-.15.077.084 2.87 3.12v.01c-.17 1.81-.75 3.49-1.64 4.98z" style="fill: #000000;"/></svg>
