
<svg xmlns="http://www.w3.org/2000/svg" viewBox="0 0 32 32"><path d="M28.99 6.91s-2.84-.5-5.17-1.84c-2.31-1.33-5.66-1.7-7.82.47-2.16-2.17-5.51-1.8-7.82-.47-2.34 1.35-5.17 1.84-5.17 1.84L2.97 28s3.15-.47 6.21-2.2c3.87-2.19 5.82 1.22 5.82 1.22h2s1.96-3.41 5.82-1.22c3.05 1.73 6.21 2.2 6.21 2.2l-.04-21.09zM15 21.78c-2.21-1.2-5.21-.87-7.38.37-.86.49-1.75.86-2.64 1.12L5 8.41c.91-.22 2.5-.53 4.17-1.59 3.34-2.14 5.83.6 5.83.6v14.36zm9.38.37c-2.16-1.24-5.16-1.58-7.38-.37V7.42s2.49-2.73 5.82-.6C24.5 7.88 26.09 8.18 27 8.41l.02 14.87c-.89-.26-1.78-.64-2.64-1.13z" style="fill: #000000;"/></svg>
