
<svg xmlns="http://www.w3.org/2000/svg" viewBox="0 0 32 32"><path d="M8.42 22.45l-1.61 1.18c.48.58 1 1.12 1.58 1.61l1.17-1.62c-.42-.35-.79-.74-1.14-1.17zm-2.34-5.71H4.1c.05.76.16 1.51.35 2.24l1.9-.62a8.84 8.84 0 0 1-.27-1.62zm6.14 8.49c-.51-.21-.99-.46-1.45-.75L9.6 26.1c.63.4 1.29.75 2 1.03l.62-1.9zm-5.41-5.45l-1.89.62c.28.7.62 1.38 1.01 2.02l1.61-1.18c-.28-.46-.52-.95-.73-1.46zm7.7-10.79V7.56c-2.16-.13-4.29.44-5.82 1.98-1.42 1.4-2.26 3.48-2.55 5.7l-.01-.01h-2.1c-.2-6.2 4.06-11.53 10.48-11.8V2l3.46 3.5-3.46 3.49zm9.07.56l1.61-1.18c-.48-.58-1-1.12-1.58-1.61l-1.17 1.62c.42.35.79.74 1.14 1.17zm2.34 5.71h1.99c-.05-.76-.16-1.51-.35-2.24l-1.9.62c.13.53.22 1.07.26 1.62zm-6.13-8.49c.51.21.99.46 1.45.75l1.17-1.62c-.63-.4-1.29-.75-2-1.03l-.62 1.9zm5.41 5.45l1.89-.62a13.6 13.6 0 0 0-1.01-2.02l-1.61 1.18c.28.46.52.95.73 1.46zm-7.7 16.35V30l-3.47-3.5L17.5 23v1.43c2.15.13 4.28-.44 5.81-1.98 1.42-1.4 2.26-3.48 2.55-5.7l.01.01h2.1c.2 6.21-4.06 11.53-10.47 11.81z" style="fill: #000000;"/></svg>
