
<svg xmlns="http://www.w3.org/2000/svg" viewBox="0 0 29.69 28.99"><g data-name="Camada 2"><path d="M28.06 16.38h-6.28l-4.31-3a3 3 0 0 0 .48-1.6v-.88h-1.52v.21l-1.18-1.72a3 3 0 0 0 .47-1.47v-1h.85V2h-.85V0h-1.51v2h-.84v4.9h.84v1a1.8 1.8 0 0 1-.58 1.1 3.29 3.29 0 0 0-1.55 3.55 2.7 2.7 0 0 0 .37.82l-4.3 3H1.63A1.63 1.63 0 0 0 0 18v9.35A1.63 1.63 0 0 0 1.63 29h26.43a1.63 1.63 0 0 0 1.63-1.63V18a1.63 1.63 0 0 0-1.63-1.62M8.1 27.49H1.63a.13.13 0 0 1-.13-.13v-3.93h6.6Zm0-5.56H1.5V18a.13.13 0 0 1 .13-.13H8.1ZM14.21 3h1.51v3h-1.51Zm0 7.49.93 1.37h-.43l-1 .7a1.1 1.1 0 0 1-.14-.35 1.7 1.7 0 0 1 .61-1.73Zm1.26 2.72a1.6 1.6 0 0 1-.89 0h-.07l.49-.34Zm-2.3.93a2.6 2.6 0 0 0 1 .54 3 3 0 0 0 2.61-.52L20 16.38H9.9Zm7.25 13.36H9.6v-4.07h10.79Zm0-5.56H9.6v-4.06h10.79Zm7.8 5.43a.13.13 0 0 1-.13.13h-6.2v-4.07h6.3Zm0-5.43h-6.3v-4.06h6.17a.13.13 0 0 1 .13.13Z" data-name="Layer 1" style="fill: #000000;"/></g></svg>
