
<svg xmlns="http://www.w3.org/2000/svg" viewBox="0 0 32 32"><path stroke-width="0" d="M28.606 5.397c-1.885-1.869-4.349-1.863-6.814.021-1.847 1.411-2.83 2.338-3.917 3.428s-2.012 2.076-3.419 3.927c-1.722 2.265-1.852 4.523-.429 6.34l.746-.748a3.086 3.086 0 0 1 .401-3.858h.001l8.344-8.367a3.07 3.07 0 0 1 4.346-.001h.001a3.09 3.09 0 0 1 .001 4.358h-.001l-8.344 8.367c-.352.353-.772.59-1.215.736-.033.047-.056.09-.093.138-.346.455-.663.858-.963 1.226 1.268.11 2.63-.336 3.998-1.38 1.847-1.411 2.83-2.338 3.917-3.428s2.011-2.076 3.419-3.927c1.879-2.472 1.886-4.941.02-6.831Z" style="fill: #000000;"/><path stroke-width="0" d="M18.216 18.158c.051-.093.092-.186.138-.279.061-.131.125-.262.176-.393.677-1.657.5-3.25-.556-4.599l-.746.748a3.09 3.09 0 0 1 .193 3.013 3 3 0 0 1-.206.359q-.03.047-.061.095a3 3 0 0 1-.327.391h-.001l-.899.903-4.261 4.272-3.184 3.192a3.07 3.07 0 0 1-4.346.001l-.001-.001a3.087 3.087 0 0 1-.001-4.357h.001l8.344-8.367a3.04 3.04 0 0 1 1.217-.737c.033-.045.056-.092.091-.137.346-.455.663-.858.962-1.227-1.268-.11-2.63.336-3.997 1.38-1.847 1.411-2.83 2.338-3.917 3.428s-2.012 2.076-3.419 3.927c-1.879 2.472-1.886 4.941-.02 6.831 1.885 1.869 4.349 1.862 6.814-.021 1.847-1.411 2.83-2.338 3.917-3.428.162-.162.317-.324.474-.485h.004l.272-.283.073-.076q.366-.385.747-.814l.035-.038a39 39 0 0 0 1.816-2.231c.272-.358.485-.714.672-1.07Z" style="fill: #000000;"/></svg>
