
<svg xmlns="http://www.w3.org/2000/svg" viewBox="0 0 32 32"><path d="M25.8 20.7c-.5 0-.9.4-.9.9s.4.9.9.9.9-.4.9-.9-.4-.9-.9-.9zm3.2-1.6c-.4-5.6-3-9.4-8.7-11.7l-1.3.9v4.9l-1.7-1.7V2h-2.6v9.5L13 13.2V8.3l-1.3-.9C5.8 9.8 3.2 13.8 3 19.6c-.1 3.6 2 7.5 4.1 9.3 2.8 2.4 5.9.3 5.9-2.3v-9.8l1.9-1.9c.6-.6 1.6-.6 2.2 0l1.7 1.7c-2 1.3-3.3 3.5-3.3 6.1 0 4 3.2 7.2 7.2 7.2s7.2-3.3 7.2-7.2c.1-1.3-.3-2.5-.9-3.6zm-18 2.1c0 1.8-.9 3.8-2.8 3.8C5.4 25 5 20 5 19.6c0-4.6 2.9-8.3 6-9.8v11.4zM21 9.8c2.4 1.2 4.7 3.6 5.6 6.8-1.1-.7-2.4-1.1-3.8-1.1-.6 0-1.2.1-1.7.2V9.8zM22.8 28c-2.9 0-5.2-2.4-5.2-5.2s2.4-5.2 5.2-5.2S28 20 28 22.8 25.6 28 22.8 28zm-3.5-3.1h2.9V22h-2.9v2.9zm4.5-5.3c0-.5-.4-.9-.9-.9s-.9.4-.9.9.4.9.9.9.9-.4.9-.9zm.4 4.9c-.5 0-.9.4-.9.9s.4.9.9.9.9-.4.9-.9-.4-.9-.9-.9z" style="fill: #000000;"/></svg>
