
<svg xmlns="http://www.w3.org/2000/svg" viewBox="0 0 32 32"><path d="M11 15.22l.01-.01-.01.01zm9.99-.01l.01.01-.01-.01zm-.73-7.81l-1.27.9v4.89l-1.7-1.72L17.26 2h-2.61l.03 9.48L13 13.2V8.3l-1.27-.9c-5.91 2.4-8.52 6.35-8.75 12.24-.14 3.63 1.98 7.51 4.14 9.34 2.78 2.35 5.88.26 5.88-2.31v-9.78s1.9-1.93 1.91-1.95c.62-.58 1.58-.57 2.19.04l1.89 1.91v9.78c0 2.56 3.1 4.66 5.88 2.31 2.16-1.83 4.28-5.71 4.14-9.34-.23-5.89-2.84-9.84-8.75-12.24zm-9.25 7.81v6.02c0 1.74-.88 3.77-2.86 3.77-2.8 0-3.16-5-3.16-5.36 0-4.58 2.88-8.33 6.01-9.84v5.41zm12.84 9.78c-1.98 0-2.86-2.03-2.86-3.77V9.8c3.14 1.5 6.01 5.25 6.01 9.83 0 .37-.35 5.36-3.15 5.36z" style="fill: #000000;"/></svg>
