
<svg xmlns="http://www.w3.org/2000/svg" viewBox="0 0 32 32"><path stroke-width="0" d="m17.489 4.254-.184 3.04 4.291.228-3.785 3.786a9.15 9.15 0 0 0-4.888-1.416c-5.082 0-9.21 4.128-9.21 9.21 0 5.081 4.128 9.21 9.21 9.21 5.081 0 9.21-4.129 9.21-9.21a9.15 9.15 0 0 0-1.454-4.949l3.749-3.748.313 4.028 3.038-.067.509-10.678zm-4.29 20.689a5.875 5.875 0 0 1-5.868-5.867 5.89 5.89 0 0 1 5.153-5.82c.146-.01.29-.021.439-.021a5.875 5.875 0 0 1 5.867 5.867c0 2.984-2.247 5.463-5.15 5.818-.147.011-.293.023-.441.023" style="fill: #000000;"/></svg>
