
<svg xmlns="http://www.w3.org/2000/svg" viewBox="0 0 32 32"><path d="M28.6 18.16c-.67-1.28-1.59-2.22-2.05-3.27-.69-2.61.44-4.17-1.72-7.96-1.55-2.75-6-4.87-10.35-4.93-4.25-.05-7.68 1.77-9.67 5.12-3.28 5.54-1.11 9.6.32 12.28.41.76.87 1.62.87 3.18L6.34 30h1.5s.34-6.3.34-7.46c0-1.16-.2-2.7-1.17-4.14-4.16-6.18-.43-14.28 7.45-14.28 7.68 0 10.17 5.69 9.73 8.88-.12.87.01 1.31.19 2.02h-8.82v.83h-1.8c-.28-1.39-1.55-2.2-2.79-2.2-.9 0-2.9.54-2.9 3.19 0 3.33 1.63 4.57 3.39 4.94l4.13 4.64v1.38l1.97.25c-.32.53-.49 1.17-.49 1.95h1.52c0-1.28 1.37-1.42 2.85-1.27 1.84.19 3.9.54 5.28-1.63.64-1.01 1.01-1.9 1.59-3.77.26-.83 1.02-3.77.29-5.17zM12.84 21.5v-1.55c-2.01 0-2.79-.87-2.79-3.1 0-.43.13-1.21.93-1.21 1.02 0 .88.98.88 1.44h3.72l.03 7.52-2.77-3.1zm13.89-.88c-.07.63-.49 2.22-.51 2.29h-6.14v1.21h5.73c-.31.85-.56 1.34-.89 1.86-.28.45-.84.85-2.09.75-.51-.04-5.27-.67-5.27-.67L17.54 17h7.76c.47 1.14 1.45 1.6 1.45 2.41h-6.66v1.21h6.64z" style="fill: #000000;"/></svg>
