
<svg xmlns="http://www.w3.org/2000/svg" viewBox="0 0 32 32"><path d="M28.74 10.203c-1.32.163-2.57.45-3.74.844-.394-1.542-1-2.972-1.715-4.352-1.497.513-2.945 1.132-4.32 1.982a15.23 15.23 0 0 0-2.98-3.402 15.634 15.634 0 0 0-3.055 3.372c-1.392-.838-2.855-1.443-4.37-1.936-.434 1.473-1 2.913-1.29 4.426a19.082 19.082 0 0 0-4.01-.933l-1.123-.141v1.278c0 5.163 2.375 9.465 6.869 12.441 3.334 2.209 6.634 2.9 6.772 2.928l.215.044.213-.05c.139-.032 3.438-.82 6.774-3.072 4.503-3.04 6.883-7.29 6.883-12.291v-1.277l-1.123.14zM22.483 8.81c.188 1.083.267 2.158.23 3.206a14.17 14.17 0 0 0-1.883 1.167c-.149-.692-.352-1.37-.61-2.028a15.772 15.772 0 0 1 2.263-2.345zm-6.48-1.207c3.503 5.241 3.666 11.47-.002 16.685-.792-1.188-1.454-2.381-1.881-3.656-1.645-4.459-.542-9.095 1.883-13.03zm-4.343 3.436a12.364 12.364 0 0 0-.655 2.026 14.71 14.71 0 0 0-2.131-1.25c.06-1.055.23-2.103.504-3.13a15.983 15.983 0 0 1 2.282 2.354zm-7.487 1.33c1.22.23 2.357.575 3.394 1.03a12.497 12.497 0 0 1 3.148 1.973c-.058 3.068 1.15 5.963 3.044 8.615a19.337 19.337 0 0 1-3.7-1.906c-3.626-2.42-5.603-5.684-5.886-9.712zm17.737 9.572a20.63 20.63 0 0 1-3.767 2.003c1.675-2.39 3.02-5.035 2.98-8.063.002-.117-.016-.232-.019-.35a12.15 12.15 0 0 1 3.295-2.114 15.568 15.568 0 0 1 3.426-1.048c-.295 3.885-2.28 7.102-5.915 9.572z" style="fill: #000000;"/></svg>
