
<svg xmlns="http://www.w3.org/2000/svg" viewBox="0 0 27.99 16.68"><g data-name="Camada 2"><path d="m27.5 5.56-1.31-3-.05-.1a2.15 2.15 0 0 0-1.8-1h-4.46v12h-1.34V0H17v9.08h-1.9V1.49H7.53v7.59-5.16H2.36v5.16h-.73A1.63 1.63 0 0 0 0 10.71v3.7a.6.6 0 0 0 .6.6h1.89a2.4 2.4 0 0 0 4.57 0h2.31a2.4 2.4 0 0 0 4.57 0h7.69a2.4 2.4 0 0 0 4.58 0A2.15 2.15 0 0 0 28 12.87v-5a6 6 0 0 0-.5-2.31m-13.56 8a2.4 2.4 0 0 0-4.57 0H7.06a2.4 2.4 0 0 0-4.57 0H2.1a.6.6 0 0 1-.6-.61v-2.2a.13.13 0 0 1 .13-.13H17v2.94Zm12.55-.65a.64.64 0 0 1-.32.55 2.4 2.4 0 0 0-4.54.1h-.25V3h3a.63.63 0 0 1 .51.25l1.28 2.92a4.3 4.3 0 0 1 .36 1.73Z" data-name="Layer 1" style="fill: #000000;"/></g></svg>
