
<svg xmlns="http://www.w3.org/2000/svg" viewBox="0 0 32 32"><path d="M29.7 12.96C27.62 5.1 21.16 2 16.05 2c-2.67 0-5.63.92-7.7 2.78-1.5 1.23-3.65 3.63-1.08 6.7C1.43 14.1-.95 24.89 7.57 30h16.26c-.77-6.91-1.18-18.51-1.24-20.22 2.94 1.61 5.72 6.05 1.74 11.91l2.9 1.16c1.55-2.31 3.52-5.9 2.47-9.89zM17.24 25.89c-2.74 2.53-8.23 2.63-11.05-.54-2.63-2.96-2.88-8.04.16-10.83 3.04-2.78 8.09-1.95 11.04 1.25 2.94 3.2 2.78 7.41-.15 10.12zM8.52 15.56c-1.52 0-2.76 1.23-2.76 2.75S7 21.06 8.52 21.06s2.76-1.23 2.76-2.75-1.23-2.75-2.76-2.75zm0 3.78a1.03 1.03 0 1 1 0-2.06c.57 0 1.03.46 1.03 1.03s-.45 1.03-1.03 1.03zM16.66 22l-2.68-1.7s.82 2.94 1.09 3.87c.24.77-.2 1.61-.98 1.83-2.29.63-4.69-.22-5.74-2.24-.53-1.03-.42-1.65.18-1.96.56-.29 1.18-.04 1.44.29.58.72 1.4.69 1.8.69.04-.58.1-1.68.14-2.62.03-.71.62-1.23 1.33-1.22.42.01 3.79 1.08 3.79 1.08L16.66 22z" style="fill: #000000;"/></svg>
