
<svg xmlns="http://www.w3.org/2000/svg" viewBox="0 0 32 32"><path d="M16.01 8.01c1.65 0 3-1.35 3-3s-1.35-3-3-3-3 1.35-3 3 1.35 3 3 3zm0-4.5c.83 0 1.5.67 1.5 1.5s-.67 1.5-1.5 1.5-1.5-.67-1.5-1.5.68-1.5 1.5-1.5zm4.77 14.82h1.98c-.13-1.71-.41-3.9-1.61-6.16-.38-.72-.86-1.3-1.42-1.75A6 6 0 0 0 16 8.99a5.99 5.99 0 0 0-3.73 1.42c-.56.45-1.03 1.04-1.42 1.75-1.2 2.26-1.48 4.45-1.61 6.16h1.98c.21-6.46 2.19-6.56 2.19-6.56l-.7 8.22.49 10h1.92l.39-10h1l.39 10h1.92l.49-10-.7-8.22c-.02.01 1.96.15 2.17 6.57z" style="fill: #000000;"/></svg>
