
<svg xmlns="http://www.w3.org/2000/svg" viewBox="0 0 32 32"><path d="M26.5 14.9c-.7-2.1.4-4.2-1.7-8-1.5-2.8-6-5-10.4-5C4.1 2 .4 12.4 5.1 19.4c.5.7.9 1.9.9 2.6l.4 8h1.5l.4-7.3c0-1.6-.4-3.1-1.3-4.3-3.6-5.3-1-14.3 7.4-14.3 6.9 0 10 4.5 9.8 8.9-.2 3 1.3 4.5 2.5 6-1 .6-2.2 1.1-2.3 2.6 0 .8.1 2.4.1 3.6 0 1-.1 1.7-1.4 1.6-.9-.1-6-1.3-6 3.2h1.5c0-2.2 3.9-1 5.5-1.2 1.7-.2 2.4-1.4 2.5-3 0-1.6-.2-3.1-.1-4.1l1.3-.9c2.5-1.9-.8-4.6-1.3-5.9zm-4.3.2c0-2.6-2.1-4.2-4-4.2-1.3 0-2.5.5-3.2 1.4-.7-.9-1.8-1.4-3.2-1.4-1.9 0-4 1.6-4 4.2 0 2.5 1.9 3.6 3.5 4.4 1.6.9 3 1.8 3 3.6h1.3c0-1.9 1.4-2.8 3-3.6 1.7-.9 3.6-1.9 3.6-4.4zM16.8 19c-.8.5-1.4 1-1.7 1.6-.4-.6-.9-1.1-1.7-1.6-1.9-1.3-2.6-2.3-2.6-3.8 0-2.2 1.8-3.2 2.8-2.5.5.3.9.9.9 1.9h1.3c0-1 .3-1.6.9-1.9 1.1-.7 2.8.4 2.8 2.5-.1 1.5-.8 2.5-2.7 3.8z" style="fill: #000000;"/></svg>
