
<svg xmlns="http://www.w3.org/2000/svg" viewBox="0 0 32 32"><path stroke-width="0" d="M16 8.013c1.65 0 3-1.35 3-3s-1.35-3-3-3-3 1.35-3 3 1.35 3 3 3m0-4.5c.83 0 1.5.67 1.5 1.5s-.67 1.5-1.5 1.5-1.5-.67-1.5-1.5.68-1.5 1.5-1.5M22.763 18.327h1.98c-.13-1.71-.41-3.9-1.61-6.16-.39-.71-.86-1.3-1.42-1.75-.427-.344-.955-.542-1.474-.706a13.9 13.9 0 0 0-6.917-.387c-1.014.198-2.209.428-3.035 1.093-.56.45-1.03 1.04-1.42 1.75-1.2 2.26-1.48 4.45-1.61 6.16h1.98c0-4.85 2.19-5.56 2.19-5.56l-.86 3.16c-.55 2.65-.37 5.41.52 7.97l2.13 6.09h1.92l.39-10h.946l.39 10h1.92l2.13-6.09c.89-2.56 1.07-5.32.52-7.97l-.86-3.16s2.19.71 2.19 5.56" style="fill: #000000;"/></svg>
