
<svg xmlns="http://www.w3.org/2000/svg" viewBox="0 0 32 32"><path stroke-width="0" d="M28.142 9.051v-.026h-5.303v.023c-.88.175-1.623 1.915-1.94 4.332.05-.003.099-.014.149-.014q.176 0 .352.026c.209.032.402.098.587.18.243-2.094.79-3.556 1.427-3.556.862 0 1.56 2.674 1.56 5.972s-.698 5.971-1.56 5.971c-.476 0-.902-.817-1.188-2.102h-1.108c.106.489.23.935.372 1.325.266.732.588 1.269.944 1.546q.196.155.405.199v.022h5.133l.003.001h.167v-.026c1.164-.265 2.082-3.265 2.082-6.936 0-3.672-.918-6.672-2.082-6.937" style="fill: #000000;"/><path stroke-width="0" d="M20.802 17.39a1.684 1.684 0 0 0 .497-3.327 1.684 1.684 0 0 0-1.913 1.414 1.684 1.684 0 0 0 1.416 1.912m.373-2.509a.86.86 0 0 1-.253 1.697.863.863 0 0 1-.722-.975.86.86 0 0 1 .975-.722M8.303 16.936l3.563-.044 5.382.087a1.43 1.43 0 0 0 1.486-1.358 1.43 1.43 0 0 0-1.359-1.486l-4.448-.058a4.2 4.2 0 0 0-2.002.476l-6.646 1.108.402 1.158zM17.78 20.147v-.2c0-.544.39-.728 1.019-.728H23.9v-1.532H1.517v1.532h5.117c.628 0 1.01.176 1.01.727v.208c0 .782-.084 1.272-1.508 1.272H4.58v1.524h16.255v-1.532H19.29c-1.425 0-1.509-.49-1.509-1.271" style="fill: #000000;"/></svg>
