
<svg xmlns="http://www.w3.org/2000/svg" viewBox="0 0 32 32"><path stroke-width="0" d="M17 2h-2c-1 8.003-8 11.972-8 19 0 4.971 4.029 9 9 9s9-4.029 9-9c0-7.028-7-10.997-8-19m3.912 21.053c-.274.648.198 1.295-.673 2.172-.831.837-1.58.455-2.195.687s-.952 1.087-2.044 1.087-1.428-.855-2.044-1.087c-.615-.233-1.363.15-2.195-.687-.871-.877-.399-1.524-.673-2.172S10 22.18 10 21.002c0-1.1.756-1.453 1.047-1.961.291-.507-.132-1.504.725-2.295.901-.831 1.707-.415 2.268-.694.447-.222.885-1.053 1.961-1.053s1.513.831 1.961 1.053c.561.279 1.368-.137 2.268.694.857.791.434 1.788.725 2.295s1.047.86 1.047 1.961c0 1.178-.814 1.402-1.088 2.051Z" style="fill: #000000;"/><path stroke-width="0" d="M19.64 17.339c-.709-.681-1.139-.387-1.976-.766-.56-.254-.808-.737-1.664-.737s-1.104.484-1.664.737c-.837.379-1.267.085-1.976.766-.701.673-.399 1.26-.777 1.981-.359.685-.74.848-.742 1.681-.002.948.547 1.122.827 1.858.263.689.056 1.158.684 1.777.635.627 1.162.461 1.719.669.905.338.932.858 1.929.858s1.024-.521 1.929-.858c.557-.208 1.084-.043 1.719-.669.628-.619.421-1.088.684-1.777.281-.736.83-.91.827-1.858-.002-.833-.383-.996-.742-1.681-.378-.721-.076-1.308-.777-1.981m-7.069 1.947h1.714V21h-1.714zm1.967 5.143a.605.605 0 1 1 0-1.21.605.605 0 0 1 0 1.21m.605-6a.857.857 0 1 1 1.713 0 .857.857 0 0 1-1.713 0m1.107 3.428a.605.605 0 1 1 0-1.21.605.605 0 0 1 0 1.21m1.463 2.572a.858.858 0 1 1 0-1.715.858.858 0 0 1 0 1.715m1.463-3.076a.605.605 0 1 1 0-1.21.605.605 0 0 1 0 1.21" style="fill: #000000;"/></svg>
