
<svg xmlns="http://www.w3.org/2000/svg" viewBox="0 0 32 32"><path d="M28 14c-.92 0-1.69.62-1.92 1.47h-1.62c-.12-1.94-.9-3.7-2.11-5.07l1.15-1.15c.58.37 1.62.46 2.4-.32.78-.78.81-2.08 0-2.83-.87-.81-2.05-.78-2.83 0-.65.65-.75 1.63-.32 2.4L21.6 9.65a8.482 8.482 0 0 0-5.07-2.1V5.92C17.38 5.69 18 4.92 18 4c0-1.1-.9-2-2-2s-2 .9-2 2c0 .92.62 1.69 1.47 1.92v1.62c-1.93.13-3.71.9-5.07 2.1L9.25 8.5c.43-.76.33-1.74-.32-2.4-.78-.78-1.96-.81-2.83 0-.81.75-.78 2.05 0 2.83.78.77 1.81.68 2.4.32l1.15 1.15a8.432 8.432 0 0 0-2.11 5.07H5.92C5.69 14.62 4.92 14 4 14c-1.1 0-2 .9-2 2s.9 2 2 2c.92 0 1.69-.62 1.92-1.47h1.62c.12 1.94.9 3.7 2.11 5.07L8.5 22.75c-.5-.33-1.62-.48-2.4.32-.77.79-.79 2.06 0 2.83.78.76 2 .8 2.83 0 .66-.64.75-1.63.32-2.4l1.15-1.15c.95.97 3.24 2.1 5.08 2.1v1.62C14.62 26.31 14 27.08 14 28c0 1.1.9 2 2 2s2-.9 2-2c0-.92-.62-1.69-1.47-1.92v-1.62c1.84 0 4.12-1.13 5.08-2.1l1.15 1.15c-.43.76-.34 1.76.32 2.4.83.8 2.05.76 2.83 0 .79-.77.77-2.04 0-2.83-.78-.8-1.9-.64-2.4-.32l-1.15-1.15a8.432 8.432 0 0 0 2.11-5.07h1.62c.23.85 1 1.47 1.92 1.47 1.1 0 2-.9 2-2S29.1 14 28 14zm-3.96-6.94c.22-.23.64-.26.9 0 .28.28.22.69 0 .9-.22.21-.63.25-.9 0-.27-.24-.22-.68 0-.9zm-16.08.9c-.27.25-.68.21-.9 0a.632.632 0 0 1 0-.9c.26-.26.68-.23.9 0 .22.22.27.66 0 .9zM4 16.64c-.35 0-.64-.29-.64-.64s.29-.64.64-.64.64.29.64.64-.29.64-.64.64zm3.96 8.3c-.23.24-.65.25-.9 0a.624.624 0 0 1 0-.9c.21-.22.59-.28.9 0 .17.15.32.56 0 .9zm2.85-13.47c.3.24.64.46 1 .65-.29 1.01-.46 2.15-.51 3.35H9.46c.09-1.5.58-2.87 1.35-4zm-1.35 5.06h1.85c.04 1.24.23 2.42.54 3.46-.34.2-.66.42-.95.66a7.97 7.97 0 0 1-1.44-4.12zm2.11 4.93c.19-.16.4-.31.63-.46.25.61.54 1.16.87 1.64-.55-.31-1.05-.71-1.5-1.18zm.59-10.36a4.87 4.87 0 0 1-.69-.46 6.4 6.4 0 0 1 1.61-1.28c-.36.5-.67 1.08-.92 1.74zm3.28 12.15c-.08-.03-.15-.06-.23-.1-.51-.52-1.03-1.51-1.4-2.86.51-.15 1.05-.26 1.63-.3v3.26zm0-4.33c-.65.04-1.28.15-1.86.33-.15-.81-.25-1.72-.28-2.71h2.14v2.38zm0-3.45H13.3c.03-.98.12-1.87.27-2.67.59.15 1.22.25 1.87.29v2.38zm0-3.45c-.57-.04-1.12-.13-1.64-.26.37-1.37.89-2.37 1.41-2.9.08-.04.15-.07.23-.1v3.26zM15.36 4c0-.35.29-.64.64-.64.35 0 .64.29.64.64s-.29.64-.64.64c-.35 0-.64-.29-.64-.64zm1.28 24c0 .35-.29.64-.64.64-.35 0-.64-.29-.64-.64s.29-.64.64-.64c.35 0 .64.29.64.64zm7.4-3.96c.31-.28.69-.22.9 0 .29.29.22.68 0 .9-.25.25-.67.24-.9 0a.633.633 0 0 1 0-.9zm-3.51-13.4c-.21.16-.44.32-.69.46-.26-.66-.57-1.24-.92-1.74.6.33 1.14.77 1.61 1.28zm-3.97-1.89c.08.03.15.06.23.1.52.53 1.04 1.53 1.41 2.9-.51.14-1.06.23-1.64.26V8.75zm.23 14.39c-.08.04-.15.07-.23.1v-3.27c.57.04 1.12.14 1.63.3-.37 1.36-.89 2.35-1.4 2.87zm1.64-3.9c-.59-.17-1.21-.28-1.86-.33v-2.39h2.14c-.03 1-.13 1.91-.28 2.72zm-1.87-3.77v-2.39c.65-.04 1.28-.13 1.87-.29.15.8.24 1.7.27 2.67h-2.14zm2.37 7.17c.33-.47.62-1.02.87-1.64.23.14.44.3.63.46-.45.47-.95.87-1.5 1.18zm2.18-1.99c-.29-.24-.61-.46-.95-.66.31-1.04.49-2.21.54-3.46h1.85a8.153 8.153 0 0 1-1.44 4.12zm-.41-5.18c-.04-1.2-.22-2.33-.51-3.35.37-.19.7-.41 1-.65.77 1.12 1.25 2.5 1.35 4H20.7zm7.3 1.17c-.35 0-.64-.29-.64-.64s.29-.64.64-.64.64.29.64.64-.29.64-.64.64z" style="fill: #000000;"/></svg>
