
<svg xmlns="http://www.w3.org/2000/svg" viewBox="0 0 32 32"><path d="M15.2 11.9c-.6 0-1.1.5-1.1 1.1 0 .6.5 1.1 1.1 1.1.6 0 1.1-.5 1.1-1.1 0-.6-.5-1.1-1.1-1.1zm5.6 7c1-1 .6-3.2-1-5.6.5-.7 2.6-3.9 1-5.5s-4.9.6-5.6 1c-.7-.5-3.8-2.7-5.6-1-1.6 1.4.4 4.8 1 5.5-1.7 2.4-2.1 4.5-1 5.6 1.5 1.5 4.5-.3 5.6-1 1.8 1.2 4.3 2.3 5.6 1zm-.9-10.3c.5.5-.1 1.8-1.2 3.3-.3-.4-1.9-2.1-2.5-2.4 1.2-.7 3-1.5 3.7-.9zm-9.4 0c.6-.6 2.5.2 3.7 1-.6.4-2.2 2-2.5 2.4-1.1-1.5-1.7-2.9-1.2-3.4zm0 9.4c-.4-.4-.3-1.7.9-3.7.4.6 1.9 2 2.4 2.5-1.5 1.1-2.8 1.7-3.3 1.2zm4.7-2.3c-.6-.4-2.3-2.2-2.7-2.8.3-.5 2.1-2.2 2.7-2.7.6.4 2.4 2.2 2.7 2.7-.4.6-2.1 2.4-2.7 2.8zm3.8-1.3c1.2 1.9 1.4 3.2.9 3.7-.5.5-1.8-.1-3.3-1.2.5-.5 2-2 2.4-2.5zm7.6.5c-.7-2.1.4-4.2-1.7-8-1.5-2.8-6-5-10.4-5C4.2 2 .5 12.4 5.2 19.4c.5.7.9 1.9.9 2.6l.4 8H8l.4-7.3c0-1.6-.4-3.1-1.3-4.3C3.5 13.1 6 4.1 14.5 4.1c6.9 0 10 4.5 9.8 8.9-.2 3 1.3 4.5 2.5 6-1 .6-2.2 1.1-2.3 2.6 0 .8.1 2.4.1 3.6 0 1-.1 1.7-1.4 1.6-.9-.1-6-1.3-6 3.2h1.5c0-2.2 3.9-1 5.5-1.2 1.7-.2 2.4-1.4 2.5-3 0-1.6-.2-3.1-.1-4.1l1.3-.9c2.5-1.9-.8-4.6-1.3-5.9z" style="fill: #000000;"/></svg>
