
<svg xmlns="http://www.w3.org/2000/svg" viewBox="0 0 32 32"><path d="M20.25 10.91a1.25 1.25 0 1 1-2.5 0 1.25 1.25 0 0 1 2.5 0zM15 13.25a1.25 1.25 0 1 0 0 2.5 1.25 1.25 0 0 0 0-2.5zm-2.12-4.84a1.25 1.25 0 1 0 0 2.5 1.25 1.25 0 0 0 0-2.5zm6.34 17.72l.13 2.37h1.98l-.12-4.93c.01-.97-.83-1.3-1.25-1.46s-1.68-.05-2.03-.93c-.35-.87.27-1.62 1.02-1.63l-.11-1.75c-1.31.08-1.93.84-2.13 1.09-.6.73-.77 1.66-.53 2.54-2.42.29-4.11-.63-5.12-2.81-.51-1.19-1.49-2.54-3.35-3.82l-1.07 1.56c2.41 1.66 2.96 3.34 3.02 4.37-1.81-.13-5.21-.79-5.66-4-.5-3.59 2.66-5.56 3.6-6.03.27-1.89 1.42-4.58 4.26-5.18 2.48-.52 4.53.62 5.63 1.43l1.49 1.17c1.27-.54 3.42-1.32 5.23.02.86.63 2.02 1.9 1.24 4.58 0 0 2.2.33 2.57 1.43.12.35.13.6.01.91-.14.38-.48.63-.97.79-1.34.43-2.93-.07-3.37-.56-.42-.47-.66-1.06-.8-1.7l-1.9.59c.41 1.81 1.86 5.04 5.44 5.75-.14.74-.58 1.32-1.41 1.5-1.05.24-1.61 1.22-1.61 2.03l.05 5.02h2.17s.11-3.42.18-4.66c.04-.77.45-.86 1.16-1.21 2.12-1.02 1.72-3.74 1.72-4.82 0-.93 1.82-2.27 1.1-4.29-.42-1.18-1.46-1.82-2.2-2.15.05-1.18-.2-3.33-2.31-4.79-2.27-1.57-4.85-1.02-6.02-.63-1.1-.97-3.99-3.08-7.79-2.29C7.5 4.5 6.23 8.17 5.9 9.48c-1.85 1.15-4.56 3.97-3.72 7.96.84 3.97 4.99 5.13 7.78 5.23.45.95 1.63 1.94 2.96 2.23 2.41.53 4.41-.41 4.41-.41 1.82.31 1.85.76 1.89 1.64z" style="fill: #000000;"/></svg>
