
<svg xmlns="http://www.w3.org/2000/svg" viewBox="0 0 32 32"><path d="M16 2C8.27 2 2 8.27 2 16s6.27 14 14 14 14-6.27 14-14S23.73 2 16 2zm0 26C9.38 28 4 22.62 4 16c0-2.93 1.06-5.62 2.81-7.7l3.86 3.86c.07.47.27.89.56 1.2l.81.81-.73 11.86H14l-.56-11.1 4.74 4.74c-.09 2.48-.18 5.45-.18 6.35h2.63v-3.9l3.07 3.07A11.931 11.931 0 0 1 16 28zm9.12-4.22l-4.49-4.49V6.02c-1.94 0-3.5 1.57-3.5 3.5v5.37c.48 0 1.2.3 1.17 1.04 0 0-.01.39-.03.99l-3.81-3.81c.25-.36.39-.84.4-1.35l-.08-5.74h-.76s-.11 4.02-.13 5.02h-.61l-.08-5.02h-.8l-.13 4.91-.63-.63-.07-4.28h-.79l-.09 3.33-2.47-2.47A11.95 11.95 0 0 1 16 4c6.62 0 12 5.39 12 12 0 2.97-1.09 5.68-2.88 7.78z" style="fill: #000000;"/></svg>
