
<svg xmlns="http://www.w3.org/2000/svg" viewBox="0 0 32 32"><path d="M16 2C8.27 2 2 8.27 2 16s6.27 14 14 14 14-6.27 14-14S23.73 2 16 2zm12 14c0 2.97-1.09 5.68-2.88 7.78l-6.52-6.52h1.41c.16-.03.25-.18.19-.33-.13-.3-.22-.59-.22-.77v-.79c0-.53.43-.96.96-.96h4.55c.14 0 .25-.11.25-.25v-1.25h.18c.03 0 .05-.02.05-.05v-1.15c0-.03-.02-.05-.05-.05h-.18v-.12c0-.09-.08-.17-.17-.17h-.16l-.24-.32c0-.04-.02-.05-.04-.05h-.45c-.02 0-.04.01-.05.04l-.1.29c0 .01-.02.02-.03.02H12.69L8.22 6.88C10.39 5.02 13.15 4 16 4c6.62 0 12 5.39 12 12zm-11.2-1.38h1.39c.43-.03.79.11.79.48v.55c0 .56-.24.62-1.4.62l-.78-.81v-.84zM4 16c0-2.93 1.06-5.62 2.81-7.7l3.05 3.05h-.28c-.09 0-.17.08-.17.17v1.67s-.22.36-.22.55c0 .17.14.29.29.29.78 0 1.23.49 1.23 1.09 0 .31-.44 1.84-1.2 3.04-.58.91-1.63 2.52-1.63 3.27v.67c0 .08.04.15.11.19l.31.18c.13.08.29.12.44.12h4.03c.19 0 .34-.15.34-.34v-.55c0-.18.04-.36.1-.52l1.57-3.75c.12-.29.43-.44.73-.39l8.16 8.16C21.62 26.94 18.93 28 16 28 9.38 28 4 22.62 4 16z" style="fill: #000000;"/></svg>
