
<svg xmlns="http://www.w3.org/2000/svg" viewBox="0 0 32 32"><path d="M16 2C8.27 2 2 8.27 2 16s6.27 14 14 14 14-6.27 14-14S23.73 2 16 2zm0 26C9.38 28 4 22.62 4 16c0-2.93 1.06-5.62 2.81-7.7l3.25 3.25v12.87h3.38v-5.26h3.43c.26 0 .5-.04.74-.06l6.08 6.08A11.839 11.839 0 0 1 16 28zm1.65-11.69l-4.21-4.21v-1.82h2.86c2.33 0 3.31 1.27 3.31 3.12 0 1.42-.6 2.5-1.96 2.91zm-2.64.19h-1.57v-1.57l1.57 1.57zm10.11 7.28l-5.24-5.24c2.01-.91 3.19-2.79 3.19-5.25 0-3.55-2.38-5.66-6.19-5.66h-6.82v1.1L8.22 6.88A11.95 11.95 0 0 1 16 4c6.62 0 12 5.39 12 12 0 2.97-1.09 5.68-2.88 7.78z" style="fill: #000000;"/></svg>
