
<svg xmlns="http://www.w3.org/2000/svg" viewBox="0 0 32 32"><path d="M16 2C8.27 2 2 8.27 2 16s6.27 14 14 14 14-6.27 14-14S23.73 2 16 2zm0 26C9.38 28 4 22.62 4 16c0-2.93 1.06-5.62 2.81-7.7l8.8 8.8H6v2.88h12.48l5.22 5.22C21.62 26.94 18.93 28 16 28zm9.12-4.22l-3.81-3.81h.74v-2.88h-3.62L8.22 6.88A11.95 11.95 0 0 1 16 4c6.62 0 12 5.39 12 12 0 2.97-1.09 5.68-2.88 7.78zm-1.11-7.69c.01-.35.05-.77-.07-1.1-.23-.83-1.14-1.45-1.96-1.42-.43-.02-1.2-.04-1.63-.06-.35-.01-.67-.31-.68-.66l.03-.84.02-.81c-.74.01-1.8.04-2.39-.28-.8-.34-.95-1.7-.48-2.32.32-.46.8-.54 1.33-.77l-.54-1.4c-2.33.54-3.32 2.98-2.07 4.98.56.86 1.6 1.23 2.56 1.35.06.56.21 1.13.64 1.51.6.63 1.46.66 2.26.59.35.01 1.19-.13 1.48.07.42.21.44.74.44 1.15h1.06zm.92 3.88H26v-2.88h-1.07v2.88zm-1.54-8.81c.8-2.02-1.36-4.39-3.89-3.19l.63 1.36c.49-.21 1.4-.2 1.67.32.33.59.24 1.17-.34 1.57l.42 1.38c.43 0 1.15-.08 1.58-.03.86.16 1.45.87 1.42 1.81l.08 1.71h1.02l.08-1.71c.2-1.52-1.1-3.11-2.67-3.22zm-.43 8.81h1.07v-2.88h-1.07v2.88z" style="fill: #000000;"/></svg>
