
<svg xmlns="http://www.w3.org/2000/svg" viewBox="0 0 26.82 26.55"><g data-name="Camada 2"><g data-name="Layer 1"><path d="M13.307 18.7A12.09 12.09 0 0 0 2 26.55h22.618a12.08 12.08 0 0 0-11.311-7.85m-7.754-6.033v.452a1.394 1.394 0 0 0 1.386 1.387H7.8v-.175a6.342 6.342 0 0 0 11.224-.441v.616h.858a1.4 1.4 0 0 0 1.387-1.387v-.452a1.394 1.394 0 0 0 1.386-1.387V8.913a9.25 9.25 0 0 0-18.487 0v2.367a1.4 1.4 0 0 0 1.385 1.387m7.741 3.187a4.7 4.7 0 1 1 4.7-4.7 4.7 4.7 0 0 1-4.7 4.7M5.619 8.913C5.553 4.82 9.184 2.179 13.41 2.179s7.857 2.707 7.857 6.734V9.1a1.4 1.4 0 0 0-1.387-1.385h-.858v.708A6.342 6.342 0 0 0 7.8 7.982v-.267h-.795A1.394 1.394 0 0 0 5.619 9.1ZM3.166 12.747a2.84 2.84 0 0 1 0-3.178l-.492-.4a3.01 3.01 0 0 0 0 3.968Z" style="fill: #000000;"/><path d="m1.348 14.2.476-.382a4.285 4.285 0 0 1 0-5.317l-.468-.388a4.106 4.106 0 0 0-.008 6.087M23.653 12.747a2.84 2.84 0 0 0 0-3.178l.493-.4a3.01 3.01 0 0 1 0 3.968Z" style="fill: #000000;"/><path d="M25.471 14.2 25 13.818A4.286 4.286 0 0 0 25 8.5l.469-.388a4.106 4.106 0 0 1 .002 6.088" style="fill: #000000;"/></g></g></svg>
