
<svg xmlns="http://www.w3.org/2000/svg" viewBox="0 0 32 32"><path d="M13.73 15.79c-.67 0-1.22.42-1.22 1.58 0 1.16.55 2.63 1.22 2.63.67 0 1.22-1.47 1.22-2.63 0-1.17-.55-1.58-1.22-1.58zm4.54 0c-.67 0-1.22.41-1.22 1.58 0 1.16.55 2.63 1.22 2.63.67 0 1.22-1.47 1.22-2.63s-.55-1.58-1.22-1.58zm3.49-11.32C19.12 4.29 17 6.21 17 6.21V2h-2v4.21s-2.12-1.92-4.76-1.74c-5.33.36-8.13 4.98-7.76 11.33.18 3.1 1.28 6.49 3.1 9.54C6.53 26.93 8.79 30 12 30c2.57 0 3.18-2 4-2 .82 0 1.43 2 4 2 3.21 0 5.47-3.07 6.42-4.66 1.82-3.05 2.92-6.44 3.1-9.54.37-6.35-2.43-10.97-7.76-11.33zm5.76 11.22c-.23 2.79-1.17 5.86-2.83 8.64C23.9 25.65 22.02 28 20.1 28c-2.12 0-3.05-2.3-3.11-4h-1.98c-.06 1.7-.99 4-3.11 4-1.92 0-3.8-2.35-4.59-3.67-1.66-2.78-2.6-5.85-2.83-8.64-.39-4.8 1.78-8.46 5.12-8.8 1.92-.19 4.57 1.49 5.41 6.11h1.98c.84-4.62 3.49-6.3 5.41-6.11 3.34.34 5.51 4 5.12 8.8z" style="fill: #000000;"/></svg>
