
<svg xmlns="http://www.w3.org/2000/svg" viewBox="0 0 32 32"><path d="M19.883 20.934c-.42 0-.775.272-.775 1.005 0 .744.356 1.677.775 1.677.43 0 .775-.933.775-1.677s-.346-1.005-.775-1.005zM22.774 20.934c-.43 0-.775.261-.775 1.005 0 .744.346 1.677.775 1.677s.776-.933.776-1.677c0-.733-.346-1.005-.776-1.005z" style="fill: #000000;"/><path d="M24.995 13.736c-1.477-.104-2.703.838-2.975 1.058-.012.012-.013.017-.015.023l.328-2.652h-1.886l.242 2.682s-.23-.21-.618-.45a4.573 4.573 0 0 0-1.34-.566 3.568 3.568 0 0 0-1.07-.095c-.198.01-.397.042-.586.074-1.184.21-2.137.764-2.839 1.592a.126.126 0 0 0-.053.052c-.199.23-.377.482-.523.755a6.35 6.35 0 0 0-.43.89c-.126.325-.23.681-.304 1.048a8.887 8.887 0 0 0-.21 1.949c-.01.272-.01.555.011.848.021.356.063.723.136 1.1.084.587.22 1.173.41 1.77.334 1.09.816 2.17 1.434 3.196.597 1.016 2.033 2.965 4.076 2.965 1.634 0 2.022-1.268 2.546-1.268s.91 1.268 2.545 1.268c2.043 0 3.478-1.949 4.086-2.965 1.152-1.938 1.854-4.096 1.97-6.066.23-4.044-1.55-6.977-4.935-7.208zm3.667 7.135c-.147 1.78-.744 3.73-1.802 5.5-.503.838-1.697 2.336-2.923 2.336-1.351 0-1.938-1.467-1.98-2.546H20.7c-.042 1.08-.628 2.546-1.98 2.546-1.215 0-2.41-1.498-2.912-2.336-1.059-1.77-1.656-3.72-1.802-5.5a9.763 9.763 0 0 1-.032-.775c0-.713.105-1.362.283-1.95.115-.387.252-.733.43-1.047.21-.377.46-.702.744-.964a3.015 3.015 0 0 1 1.644-.827c.063-.021.126-.021.189-.032.45-.042.964.074 1.467.398.492.315.963.828 1.34 1.561l.011.021a4.8 4.8 0 0 1 .262.618l.031.063c.137.367.241.775.325 1.226h1.257c.535-2.944 2.221-4.013 3.447-3.887 2.127.22 3.499 2.546 3.258 5.595z" style="fill: #000000;"/><path d="M18.997 10.879V8.992h1.45v2.16h1.886V7.097l-3.336.01c-.315-1.065-1.511-1.846-2.688-1.846h-.405c-.122-1.805-1.653-3.235-3.5-3.235-1.835 0-3.366 1.43-3.488 3.235h-.405c-1.177 0-2.384.781-2.698 1.846H2.05v18.398h1.887V8.992h1.876v1.887h13.184zm-6.592-6.957c.892-.01 1.602.7 1.623 1.602a1.62 1.62 0 0 1-1.623 1.623c-.882 0-1.602-.73-1.602-1.623 0-.882.72-1.602 1.602-1.602z" style="fill: #000000;"/><path d="M5.925 16.525h5.186v1.473H5.925zM5.925 19.482h4.111v1.474H5.925zM5.925 13.579h6.267v1.473H5.925z" style="fill: #000000;"/></svg>
