
<svg xmlns="http://www.w3.org/2000/svg" viewBox="0 0 32 32"><path d="M29.87 9.48c-.59-2.51-3.17-3.25-5.77-3.5-1.4-.13-2.44-.47-3.12-.75-.42-.44-.91-.8-1.45-1.02l-.2-.08c-.85-.33-1.58-.63-3.33-.63s-2.48.3-3.33.64l-.2.08c-.54.22-1.03.58-1.45 1.02-.68.28-1.72.61-3.12.75-2.6.25-5.18.99-5.77 3.5-.4 1.67.2 2.99.64 4.37 0 .01.01.01.01.02.01.05 0 .09.01.14.15.91.63 1.81 1.36 2.54.93.93 2.08 1.42 3.12 1.42.75 0 1.45-.25 1.98-.78 1.25-1.25.97-3.49-.64-5.09-.83-.83-1.83-1.3-2.77-1.39-.87-.08-1.31-.43-1.01-1.4.44-1.4 4.5-1.82 4.81.32l.03.15c.23 1.41.87 2.82 1.27 3.51l.27.47c.7 1.2.73 1.25.73 2.35 0 .42-.04.79-.08 1.15-.1.91-.2 1.84.35 3.1.6 1.38.7 1.94.7 3.06v5.11h1.75v-5.11c0-1.29-.12-2.09-.85-3.76-.36-.83-.3-1.41-.21-2.21.04-.39.09-.83.09-1.33 0-1.53-.17-1.87-.96-3.23l-.27-.46c-.51-.88-1.07-2.35-1.12-3.48-.06-1.3.73-2.65 1.79-3.08l.21-.08c.76-.31 1.26-.51 2.67-.51s1.91.2 2.67.51l.21.08c1.06.42 1.85 1.77 1.79 3.08-.05 1.13-.62 2.6-1.12 3.48l-.27.46c-.79 1.37-.96 1.71-.96 3.23 0 .5.05.94.09 1.33.09.8.15 1.38-.21 2.21-.73 1.67-.85 2.47-.85 3.76v5.11h1.75v-5.11c0-1.11.1-1.68.7-3.06.55-1.25.45-2.19.35-3.1a9.73 9.73 0 0 1-.08-1.15c0-1.11.03-1.15.72-2.35l.27-.47c.4-.69 1.04-2.1 1.27-3.51 0-.05.02-.1.03-.15.3-2.14 4.37-1.72 4.81-.32.31.98-.14 1.32-1 1.4-.94.09-1.94.56-2.77 1.39-.73.73-1.21 1.63-1.36 2.54-.17 1 .1 1.93.72 2.56.5.5 1.2.77 1.98.77.19 0 .38-.02.58-.05.91-.15 1.81-.63 2.54-1.36.82-.82 1.29-1.8 1.39-2.73.42-1.39 1-2.71.61-4.36zM5.03 12.97c.59-.57 1.3-.35 1.77-.1.19.13.39.27.57.45.96.96 1.11 2.15.64 2.62-.47.47-1.66.32-2.62-.64-.28-.28-.49-.59-.65-.92-.17-.42-.19-.94.29-1.41zm22.21 1.46c-.15.3-.35.6-.63.89-.47.47-1.04.78-1.58.87-.26.04-.73.07-1.04-.24-.3-.3-.28-.78-.24-1.04.09-.54.41-1.12.87-1.58.18-.18.38-.33.57-.45.47-.25 1.18-.47 1.77.1.51.48.47 1.01.28 1.45zm-9.34-2.24c.66-.95.87-2.17.92-3.03.07-1.08-.72-2.02-1.81-2.13l-.19-.02c-.24-.02-.41-.04-.82-.04s-.58.02-.83.05l-.19.02a2 2 0 0 0-1.81 2.13c.06.86.26 2.08.92 3.03 1.05 1.51 1.14 3.72 1.15 5.49v.79h1.51v-.25-.54c.01-1.78.1-3.99 1.15-5.5z" style="fill: #000000;"/></svg>
