
<svg xmlns="http://www.w3.org/2000/svg" viewBox="0 0 26.79 27.79"><g data-name="Camada 2"><path d="M9 6.86A2.15 2.15 0 1 0 11.15 9 2.15 2.15 0 0 0 9 6.86m0 2.88c-.07.13-.15.34-.24.56h-.47A3.5 3.5 0 0 0 8 9.79a2.8 2.8 0 0 0-.66-.72l.1-.07a3.1 3.1 0 0 1 1 .32 4.3 4.3 0 0 1 1.94-1.46l.07.11A7 7 0 0 0 9 9.74m6.57 2.64.43-1.06 2-.81v-3l-2-.72-.44-1.07.87-2-2.12-2.15-1.93.91L11.32 2l-.81-2h-3l-.74 2-1.06.43-2-.86L1.58 3.7l.9 1.94L2 6.7l-2 .8v3l2 .74.44 1.07-.87 2 2.13 2.13 1.94-.88L6.7 16l.8 2h3l.74-2 1.06-.44 2 .86 2.13-2.13ZM14.91 14l-.91.91-1.64-.75-2.14.88-.57 1.66H8.36L7.73 15l-2.13-.87-1.6.78-.9-.91.75-1.64L3 10.23l-1.7-.58V8.36L3 7.74l.89-2.13L3.1 4l.9-.9 1.64.77L7.79 3l.57-1.7h1.29l.63 1.7 2.13.9L14 3.1l.91.91-.75 1.66L15 7.8l1.68.56v1.29l-1.7.64-.89 2.13ZM9 5.15A3.86 3.86 0 1 0 12.87 9 3.86 3.86 0 0 0 9 5.15m0 6.66A2.81 2.81 0 1 1 11.81 9 2.8 2.8 0 0 1 9 11.81m17.51 2.87h-1a28 28 0 0 0-.24 4h-.67c0-1 .16-5.43-.24-6.39h-1a43.5 43.5 0 0 0-.24 6.39h-.64c0-1.28.16-5.75-.24-7.19h-1a54.5 54.5 0 0 0-.24 7.19h-.64a32.4 32.4 0 0 0-.24-5.59H19c-.4 1.6-.24 6.46-.24 7.66l-.24.08c-1.12-.4-1.12-3.19-2.48-3.75l-.71.24c.48 1.2.48 4.39 1.19 6.46A6.1 6.1 0 0 0 19 26.41v1.38h5.5v-1.46a7 7 0 0 0 2.24-4.79 44 44 0 0 0-.22-6.86Z" data-name="Layer 1" style="fill: #000000;"/></g></svg>
