
<svg xmlns="http://www.w3.org/2000/svg" viewBox="0 0 32 32"><path d="M10 3v8.51H3V29l9-.01V5h15v23.99h2V3H10zM8 25.99H6.01v-2.74H8v2.74zm0-4.75H6.01V18.5H8v2.74zm0-4.75H6.01v-2.74H8v2.74zm10.5 0h1.99v-2.74H18.5v2.74zm0-4.76h1.99V9H18.5v2.73zm3.5 4.76h2v-2.74h-2v2.74zm0-4.76h2V9h-2v2.73zm-7 4.76h2v-2.74h-2v2.74zm0-4.76h2V9h-2v2.73zm3.5 9.51h1.99V18.5H18.5v2.74zm3.5 0h2V18.5h-2v2.74zm-7 0h2V18.5h-2v2.74zm3.5 4.75h1.99v-2.74H18.5v2.74zm3.5 0h2v-2.74h-2v2.74zm-7 0h2v-2.74h-2v2.74z" style="fill: #000000;"/></svg>
