
<svg xmlns="http://www.w3.org/2000/svg" viewBox="0 0 32 32"><path d="M16 2C8.27 2 2 8.27 2 16s6.27 14 14 14 14-6.27 14-14S23.73 2 16 2zm0 26C9.38 28 4 22.62 4 16S9.38 4 16 4s12 5.39 12 12-5.38 12-12 12zm1.25-18.75a1.25 1.25 0 1 1-2.5 0 1.25 1.25 0 0 1 2.5 0zm6.75 5.5a1.25 1.25 0 1 1-2.5 0 1.25 1.25 0 0 1 2.5 0zm-9.75 5a1.25 1.25 0 1 1-2.5 0 1.25 1.25 0 0 1 2.5 0zM18.5 16a1.25 1.25 0 1 1-2.5 0 1.25 1.25 0 0 1 2.5 0zm1.75 4.75a1.25 1.25 0 1 1-2.5 0 1.25 1.25 0 0 1 2.5 0zm-6.77-5.27H9.52v-3.96h3.96v3.96zM16 26.5c-5.79 0-10.5-4.71-10.5-10.5S10.21 5.5 16 5.5 26.5 10.21 26.5 16 21.79 26.5 16 26.5zm0-20c-5.24 0-9.5 4.26-9.5 9.5s4.26 9.5 9.5 9.5 9.5-4.26 9.5-9.5-4.26-9.5-9.5-9.5z" style="fill: #000000;"/></svg>
