
<svg xmlns="http://www.w3.org/2000/svg" viewBox="0 0 32 32"><path d="M15.25 13.51c-.56 0-1.02.46-1.02 1.02s.46 1.02 1.02 1.02 1.02-.46 1.02-1.02-.45-1.02-1.02-1.02zm10.42 4.05s-2 .11-2.56-.08c.56-2.95-.57-4.86-1.21-5.8-.79-1.15-3.44-3.66-7.37-2.8-.14-.64-.08-2.55-.08-2.55 0-2.28-1.7-4.21-3.87-4.26-3.52-.09-4.38 2.91-4.3 4.14-1.39-.08-4.2.85-4.14 4.31.04 2.17 1.98 3.87 4.26 3.87.38.01 2.27-.06 2.58.09-.13.65-.18 1.31-.13 1.98.1 1.32.56 2.6 1.34 3.68.23.34.23.63-.08.85-1.57 1.12-2.71.1-4.39 1.78l-3.64 3.65 3.51 3.51 3.67-3.68c1.69-1.68.62-2.81 1.74-4.37.23-.3.51-.31.85-.07.93.66 1.99 1.1 3.12 1.27.85.13 1.71.1 2.54-.07.22.34.1 2.61.1 2.61 0 2.28 1.7 4.15 3.87 4.26 3.21.17 4.39-2.75 4.3-4.14 1.03.08 4.24-.81 4.14-4.31-.05-2.17-1.98-3.87-4.25-3.87zm-7.48-6.8c1.02.42 1.89 1.15 2.51 2.06 1.3 1.9.9 3.82.84 4.16L15 10.44c1.07-.21 2.18-.1 3.19.32zm-8.63 2c-.62-.3-3.17-.19-3.17-.19-1.29 0-2.41-.96-2.45-2.15-.05-1.91 1.64-2.39 2.24-2.4 1.81 0 1.92-1.07 1.91-1.87 0-.63.39-2.27 2.39-2.27 1.19 0 2.15 1.16 2.15 2.45 0 0-.1 2.53.18 3.15-.53.21-2.36 1.32-3.25 3.28zm3.38 7.81a5.557 5.557 0 0 1-2.06-2.51c-.4-.97-.51-2.04-.34-3.08l6.43 6.43c-1.85.28-3.11-.22-4.03-.84zm5.05.58l-7.18-7.18c.28-.75.71-1.43 1.28-2 .54-.54 1.2-.96 1.91-1.24l7.24 7.24c-.28.71-.69 1.36-1.24 1.9-.57.58-1.26 1-2.01 1.28zm7.89 2.77c-.37-.01-1.06.02-1.47.44-.46.46-.46 1.2-.44 1.43-.12 2.03-1.77 2.3-2.39 2.27-1.19-.06-2.15-1.16-2.15-2.45 0 0 .16-2.22-.21-3.19.73-.35 1.4-.83 1.97-1.4.53-.54.97-1.16 1.31-1.83.67.31 3.17.19 3.17.19 1.29 0 2.39.96 2.45 2.15.03.63-.28 2.31-2.24 2.39zm-6.41-6.42c-.36 0-.65.29-.65.65 0 .36.29.66.65.66s.65-.29.65-.66c0-.36-.29-.65-.65-.65zm-2.5-.2a.65.65 0 0 0-.65.66c0 .36.29.65.65.65s.65-.29.65-.65c0-.36-.29-.66-.65-.66zm-4.38-4.45c-.36 0-.65.29-.65.65 0 .36.29.66.65.66.36 0 .65-.29.65-.66 0-.36-.29-.65-.65-.65z" style="fill: #000000;"/></svg>
