
<svg xmlns="http://www.w3.org/2000/svg" viewBox="0 0 32 32"><path d="M8.47 16.39a4.068 4.068 0 0 0 3.2 1.57c.73 0 2.87-.2 3.83-2.78.51-2.28-.17-2.18-.17-3.81 0-1.53.68-1.52.17-3.81-.29-.87-1.36-2.78-3.83-2.78-1.22 0-2.41.55-3.2 1.57-.61.73-1.4.97-2.48.97H1.97v8.1h4.01c1.08 0 1.88.24 2.49.97zm-1.12 1.76H1.97v1.5h5.37c2.78 0 5.04 2.26 5.04 5.04V30h1.5v-5.31c.01-3.61-2.93-6.54-6.53-6.54zm7.72-16.14H1.97v1.5h13.1c7.42 0 13.46 6.04 13.46 13.46V30h1.5V16.96c0-8.24-6.71-14.95-14.96-14.95zm7.99 14.61c-.93 0-1.2.36-2.38.36-1.11 0-1.41-.36-2.36-.36-2.96 0-4.23 2.21-4.23 4.02 0 1.22.55 2.41 1.57 3.2.73.61.97 1.4.97 2.48v3.67h8.1v-3.67c0-1.08.24-1.88.97-2.48a4.068 4.068 0 0 0 1.57-3.2c0-.72-.59-4.02-4.21-4.02zm-2.39-.99c2.23 0 4.04-1.81 4.04-4.04s-1.81-4.04-4.04-4.04-4.04 1.81-4.04 4.04 1.81 4.04 4.04 4.04z" style="fill: #000000;"/></svg>
