
<svg xmlns="http://www.w3.org/2000/svg" viewBox="0 0 32 32"><path d="M11 17h11v2H11v-2zm0-6h11V9H11v2zM2 8.96C1.99 7 2 3 5.51 3L21 3.01c3.04 0 5 2.35 5 6V21h4v2c0 3.64-1.96 5.99-5 5.99l-6.45.01h-8.06c-2.76.01-3.5-3.43-3.5-6L7 13H2V8.96zM6.98 11c-.08-2.21-.49-3-1.47-3s-1.39.79-1.48 3h2.95zm17.03 10V9.01c0-3.71-2.3-4-3-4H7.91C8.62 6.03 9 7.4 9 9.01v11.88c.07 2.29.48 3.11 1.48 3.11 1.06 0 1.5-1 1.5-3h12.03zm4 2H13.99v.03c.02 1.02.02 2.66-.53 3.96h11.55c.7.01 3-.28 3-3.99zM11 15h11v-2H11v2z" style="fill: #000000;"/></svg>
