
<svg xmlns="http://www.w3.org/2000/svg" viewBox="0 0 32 32"><path stroke-width="0" d="M20.097 1.69c-5.651 0-10.233 4.581-10.233 10.232 0 2.473.878 4.741 2.338 6.51l-1.37 1.175a2.57 2.57 0 0 0-2.519.466L1.67 25.746l4.565 4.564 5.706-6.582a2.57 2.57 0 0 0 .48-2.533l1.175-1.371a10.2 10.2 0 0 0 6.501 2.33c5.651 0 10.233-4.58 10.233-10.232S25.748 1.69 20.097 1.69m0 18.174a7.942 7.942 0 1 1 0-15.883 7.942 7.942 0 0 1 0 15.883" style="fill: #000000;"/><path stroke-width="0" d="m20.22 8.078.365.849.848-2.128-2.123-.844.364.849c-1.958.724-3.029 2.651-3.482 3.682l.236.15c.68-.79 1.963-2.087 3.793-2.558" style="fill: #000000;"/><path stroke-width="0" d="M24.742904 15.012024 24.742904 8.301452 22.407454 8.301452 22.407454 15.012024 21.247481 15.012024 21.247481 9.951843 18.896468 9.951843 18.896468 15.012024 17.736495 15.012024 17.736495 12.147156 15.408858 12.147156 15.408858 15.012024 14.622603 15.012024 14.622603 15.969543 25.536971 15.969543 25.536971 15.012024 24.758468 15.012024 24.742904 15.012024z" style="fill: #000000;"/></svg>
