
<svg xmlns="http://www.w3.org/2000/svg" viewBox="0 0 32 32"><path d="M17.14 8.92h-2.19a.28.28 0 0 0-.28.28v.99c0 .21-.1.4-.28.52-.66.44-1.72 1.46-1.5 3.29h6.31c.22-1.83-.84-2.85-1.5-3.29a.616.616 0 0 1-.28-.52V9.2a.28.28 0 0 0-.28-.28zm1.95 11.26h-6.1l-.01.37c-.28.61-.51 1.82.49 2.34.04.02.08.03.13.03h4.89c.05 0 .09-.01.13-.03.99-.52.76-1.72.49-2.34l-.02-.37zm.16-2.47l-.05-.1h-6.33l-.05.1c-.16.31-.18.68-.05 1.01l.16.42h6.21l.16-.42c.13-.33.11-.7-.05-1.01zm-6.35-1.15h6.28c.18-.35.2-.76.02-1.12l-.13-.27c-.02-.04-.03-.09-.04-.13h-5.98c-.01.04-.02.09-.04.13l-.13.27c-.18.36-.16.77.02 1.12zM25.06 8.3l-2.93.19v.97l5.67.45.54-5.85h-.98l-.59 2.5C16.01-4.8-1.9 7.01 3.33 20.83l1.38-.48C1 6.74 17.22-.37 25.06 8.3zm3.61 2.87l-1.38.48C31 25.26 14.78 32.37 6.94 23.7l2.93-.19v-.98l-5.67-.44-.54 5.85h.98l.59-2.5c10.76 11.36 28.67-.45 23.44-14.27z" style="fill: #000000;"/></svg>
