
<svg xmlns="http://www.w3.org/2000/svg" viewBox="0 0 32 32"><path stroke-width="0" d="m19.923 8.231.002-.003c-.513-.413-1.046-.766-1.613-.995q-.017-.006-.035-.012a7.2 7.2 0 0 0-2.132-.541c.431-.812.557-1.786.272-2.73a3.615 3.615 0 0 0-4.493-2.408 3.615 3.615 0 0 0-2.409 4.493 3.6 3.6 0 0 0 1.723 2.113A7.2 7.2 0 0 0 9.816 9.7c-.01.008-.025.02-.028.025-.014.019-.031.048-.046.07l-.014.017v.003c-.617.947-2.2 4.577-.64 6.093.725.704 1.893.715 3.031.478q.111-.024.223-.052l-.193 2.261.589 12.016h2.307l.469-12.016h1.201l.469 12.016h2.307l.589-12.016-.323-3.784-.015.02-.254-.639q.22-.075.44-.164c1.078-.433 2.046-1.089 2.26-2.077.3-1.39-1.023-2.791-2.265-3.72m-7.478-4.964a1.8 1.8 0 0 1 2.247 1.205 1.8 1.8 0 0 1-1.205 2.246 1.8 1.8 0 0 1-2.246-1.204 1.81 1.81 0 0 1 1.204-2.247m-1.456 10.72c-.044-.026-.094-.046-.127-.082-.228-.246-.267-.597-.198-.993.107-.602.47-1.308.85-1.914l.645 3.052c-.49.092-.912.09-1.17-.063m8.612-2.722c-.008.05-.037.095-.06.141-.127.26-.457.486-.892.676l-1.13-2.846c.631.29 1.29.667 1.697 1.095.276.29.44.604.385.934M22.975 12.652a.341.341 0 1 0-.13-.67.341.341 0 0 0 .13.67" style="fill: #000000;"/><path stroke-width="0" d="M23.67 11.247c1.348 1.13-.133 3.088-1.582 2.08l-.157.172c.598.692 1.81.604 2.341-.145.578-.712.342-1.901-.486-2.291z" style="fill: #000000;"/><path stroke-width="0" d="M23.7 12.892c.25-.356.23-.894-.187-1.154l-.135.155a.63.63 0 0 1 .033.787.63.63 0 0 1-.76.205l-.108.176c.375.321.892.176 1.156-.17M8.728 17.044a.341.341 0 1 0 .67-.129.341.341 0 0 0-.67.129" style="fill: #000000;"/><path stroke-width="0" d="M10.133 17.74c-1.13 1.347-3.087-.134-2.08-1.583L7.881 16c-.692.599-.604 1.81.145 2.342.712.578 1.901.341 2.291-.487z" style="fill: #000000;"/><path stroke-width="0" d="M8.488 17.769c.356.25.894.23 1.154-.187l-.155-.134a.63.63 0 0 1-.787.033.63.63 0 0 1-.205-.761l-.176-.107c-.321.374-.176.892.17 1.156M11.111 23.596a.341.341 0 1 0 .565.383.341.341 0 0 0-.565-.383" style="fill: #000000;"/><path stroke-width="0" d="M11.612 25.081c-1.752.154-2.088-2.276-.351-2.589l-.01-.233c-.914-.066-1.708.853-1.554 1.758.095.913 1.103 1.587 1.964 1.277z" style="fill: #000000;"/><path stroke-width="0" d="M10.429 23.94c.074.428.468.795.948.684l-.015-.205a.63.63 0 0 1-.58-.533.63.63 0 0 1 .394-.684l-.05-.2c-.49.038-.754.507-.697.937M20.845 24.04a.341.341 0 1 0-.565-.383.341.341 0 0 0 .565.383" style="fill: #000000;"/><path stroke-width="0" d="M20.343 22.555c1.752-.154 2.09 2.276.352 2.589l.01.233c.913.066 1.708-.853 1.554-1.758-.095-.913-1.103-1.587-1.965-1.277z" style="fill: #000000;"/><path stroke-width="0" d="M21.527 23.697c-.075-.429-.469-.796-.948-.685l.014.205a.63.63 0 0 1 .58.533.63.63 0 0 1-.393.684l.049.2c.492-.038.755-.507.698-.937" style="fill: #000000;"/></svg>
