
<svg xmlns="http://www.w3.org/2000/svg" viewBox="0 0 32 32"><path d="M27.07 7.19c0-2.25-1.83-4.09-4.09-4.09-2.25 0-4.09 1.83-4.09 4.09s1.83 4.09 4.09 4.09 4.09-1.84 4.09-4.09zm-2 0c0 1.15-.94 2.09-2.09 2.09s-2.09-.94-2.09-2.09.94-2.09 2.09-2.09 2.09.94 2.09 2.09zm-12.1 0c0-2.25-1.83-4.09-4.09-4.09-2.25 0-4.09 1.83-4.09 4.09s1.83 4.09 4.09 4.09c2.25 0 4.09-1.84 4.09-4.09zm-2 0c0 1.15-.94 2.09-2.09 2.09s-2.09-.94-2.09-2.09.94-2.09 2.09-2.09 2.09.94 2.09 2.09zM22.92 28.9s.72-3 .72-5.95c0-2.52-.43-4.32-.43-4.32s-.5 2.65-.8 3.79c-.8 3.09-4.99 2.35-5.43 2.27v-3.03c.3 0 2.33-.04 2.94-1.01.61-.98 1.04-3.28 1.59-5.68.31-1.37 1.01-2.36 2.42-2.36h.03c4.98 0 6.04 10.65 6.04 16.3h-7.08zm-7.93-4.22c-.33.07-4.59.87-5.41-2.26-.29-1.13-.8-3.79-.8-3.79s-.43 1.8-.43 4.32c0 2.95.72 5.95.72 5.95H1.99c0-5.65 1.06-16.3 6.04-16.3h.03c1.41 0 2.11 1 2.42 2.36.55 2.4.98 4.71 1.59 5.68.62.99 2.68 1.01 2.92 1.01v3.03z" style="fill: #000000;"/></svg>
