
<svg xmlns="http://www.w3.org/2000/svg" viewBox="0 0 32 32"><path d="M28 15.3V8.97l.59-4.29-18.34-2.62-.55 3.91H4.64C3.19 5.97 2 7.33 2 8.94v18.73c0 1.25 1.02 2.28 2.28 2.28h21.45c1.25 0 2.28-1.02 2.28-2.28v-4.05c1.26 0 2.01-.84 2.01-1.87v-4.59C30 16.13 29.16 15.3 28 15.3zM11.62 3.88l1.23.18c-.09.31-.25.58-.51.78-.26.2-.58.29-.9.29l.18-1.25zM26 15.3h-6.78v8.32H26v4.05c0 .15-.12.28-.28.28H4.27a.284.284 0 0 1-.27-.28v-16.7h22v4.33zm-1.35 4.05a1.15 1.15 0 1 1-2.3 0 1.15 1.15 0 0 1 2.3 0zM17.04 8.58c0-.91.74-1.64 1.64-1.64s1.64.74 1.64 1.64c0 .14-.02.27-.05.39h-3.18c-.03-.13-.05-.26-.05-.39zm9.31.39h-4.48c.11-.84-.11-1.67-.61-2.35a3.202 3.202 0 0 0-2.12-1.26c-1.76-.25-3.4.98-3.65 2.74-.04.3-.03.59.01.87h-3.04c-.41-.38-.91-.63-1.46-.75l.21-1.49c.9.01 1.55-.2 2.1-.61.6-.45 1-1.1 1.16-1.84l9.47 1.36c-.06.75.14 1.48.6 2.09.45.6 1.1 1 1.83 1.16l-.02.08zm.24-1.7c-.3-.09-.57-.25-.77-.51-.2-.26-.29-.57-.29-.89l1.23.18-.17 1.22z" style="fill: #000000;"/></svg>
