
<svg xmlns="http://www.w3.org/2000/svg" viewBox="0 0 32 32"><path stroke-width="0" d="M16.01 7.657c1.724 0 3.135-1.41 3.135-3.134s-1.41-3.134-3.135-3.134c-1.723 0-3.134 1.41-3.134 3.134s1.41 3.134 3.134 3.134m0-4.701c.868 0 1.568.7 1.568 1.567s-.7 1.567-1.568 1.567-1.567-.7-1.567-1.567.71-1.567 1.567-1.567M20.994 18.44h2.069c-.136-1.787-.429-4.075-1.682-6.436a5.8 5.8 0 0 0-1.484-1.829A6.27 6.27 0 0 0 16 8.681a6.26 6.26 0 0 0-3.897 1.484c-.585.47-1.076 1.086-1.484 1.828-1.253 2.361-1.546 4.65-1.682 6.436h2.069c.22-6.75 2.288-6.854 2.288-6.854l-.731 8.588.512 10.448h2.006l.407-10.448h1.045l.407 10.448h2.006l.512-10.448-.731-8.588c-.021.01 2.048.157 2.267 6.865m-.44-5.348c.048-.088.105-.175.193-.202.017-.005.038.001.057 0a.22.22 0 0 1-.024-.138.3.3 0 0 1 .082-.142l.02-.023a1 1 0 0 1 .092-.089c.081-.066.221-.089.304-.012.07.065.075.183.14.255.021.023.048.04.071.063.048.045.051.102.038.166a.3.3 0 0 1-.058.139c-.015.017-.04.02-.06.03a.75.75 0 0 1 .29.334c.07.162.108.332.171.496.046.117.104.233.134.351a.54.54 0 0 1-.027.373c-.054.1-.146.147-.245.172l-.055.015c-.076.02-.156.041-.235.046-.203.014-.503-.154-.632-.441-.11-.244-.059-.499-.153-.747-.032-.082-.078-.16-.114-.241a.42.42 0 0 1 .01-.405m-9.352.68c-.02.186-.06.382-.185.522-.053.06-.119.107-.158.175-.083.143-.03.315-.076.467-.047.158-.159.292-.257.42-.114.147-.184.27-.223.454-.025.116-.064.242-.165.306-.092.06-.21.092-.28-.011-.19-.283.21-.705.226-1.002v-.07c-.004-.092-.021-.185-.022-.278 0-.205.132-.296.24-.45a.9.9 0 0 0 .145-.465c.013-.172-.049-.34-.03-.516a.55.55 0 0 1 .212-.403c.08-.055.18-.08.277-.08.089 0 .184.024.24.093.047.058.057.138.064.213q.024.312-.008.624m3.424 11.365c-.107.13-.196.22-.217.395-.018.144-.018.277-.121.391-.055.06-.135.09-.213.117-.007.089-.05.176-.043.266.003.036.015.07.02.107.012.074-.025.125-.081.169a.3.3 0 0 1-.15.075.3.3 0 0 1-.163-.041c-.108-.058-.257-.111-.278-.25-.01-.072 0-.145-.007-.217-.004-.05-.016-.102-.011-.153a.23.23 0 0 1 .085-.155c.022-.017.05-.017.076-.026l-.015-.02c-.097-.131-.213-.248-.303-.384-.226-.341-.066-.62.01-.976.04-.19.036-.403.162-.55q.005-.004.01-.007-.034-.026-.065-.053c-.116-.095-.153-.227-.172-.353a1.7 1.7 0 0 1-.007-.42c.006-.052.015-.105.06-.144.05-.047.139-.063.22-.063.091 0 .183.017.258.054.12.06.182.167.197.272.017.118-.04.232-.029.347.01.104.044.205.12.293.036.012.07.025.108.028.09.008.178-.027.26-.058a.54.54 0 0 1 .277-.05c.181.03.305.208.335.38.059.344-.106.764-.323 1.026m.768-6.988c-.028.132-.065.27-.153.368a.62.62 0 0 1-.344.174c-.272.058-.61.188-.845-.039-.121-.116-.208-.268-.322-.392-.081-.09-.176-.165-.24-.268a.58.58 0 0 1-.074-.418.8.8 0 0 1 .217-.378l.055-.06c.077-.082.158-.168.241-.235.216-.176.587-.236.805-.032.186.173.2.484.371.673.057.063.128.109.19.167.126.12.135.272.099.44m3.47 5.96.023.075c.034.103.068.21.086.313.046.265-.073.617-.34.722-.227.09-.492-.03-.726.04-.077.022-.147.066-.223.094-.157.06-.286.004-.41-.1-.096-.08-.192-.172-.234-.291a.63.63 0 0 1 .013-.377c.076-.265.122-.617.417-.728.15-.057.316-.069.47-.116.11-.033.217-.085.331-.098a.5.5 0 0 1 .379.114c.109.09.171.22.214.352" style="fill: #000000;"/></svg>
