
<svg xmlns="http://www.w3.org/2000/svg" viewBox="0 0 32 32"><path d="M18.16 5h-4v2h4V5zm7.68 3.49l-.88-.89s-.97.27-1.8 1.08V2h-14v8.46c-.62-.75-1.38-1.38-1.83-1.63l-1.17.82c2.4 5.82.4 7.36.3 10.53-.14 4.14 2.31 4.65.92 9.82h8.4c.59-1.79 1.94-2.26 4.04-4h3.34v-4.54l.96-.55c.73-.44.78-1.61-.06-2.05-.33-.17-.47-.65-.15-.87.8-.55 1.12-1.68.17-2.23-.35-.2-.36-.66-.08-.87.64-.41 1.32-1.52-.37-2.5-.25-.15-.35-.5-.17-.73.32-.43 1.83-1.58 2.38-3.17zm-4.68 5.29c-.5.29-1.72 1.05-2.25 1.92l.62 1.08s.38-.05.6-.07c.25-.03.4.26.21.43-.38.34-1.07 1.02-1.44 1.57l.63 1.09s.51-.06.64-.08c.25-.04.4.25.23.42-.42.42-1.1 1.11-1.5 1.68l.63 1.09c.6-.03 1.27-.25 1.61-.4V24h-10V4h10v9.78h.02z" style="fill: #000000;"/></svg>
