
<svg xmlns="http://www.w3.org/2000/svg" viewBox="0 0 32 32"><path d="M26.79 5.21A7.441 7.441 0 0 0 21.47 3c-2.01 0-3.9.78-5.32 2.2L5.2 16.16A7.47 7.47 0 0 0 3 21.48c0 1.93.73 3.85 2.2 5.32 1.47 1.46 3.4 2.2 5.32 2.2 1.93 0 3.85-.73 5.32-2.2l10.95-10.95a7.473 7.473 0 0 0 2.2-5.32 7.39 7.39 0 0 0-2.2-5.32zm-16 9.73c1.06.05 1.87.95 1.82 2.01a1.914 1.914 0 0 1-2.01 1.82 1.914 1.914 0 0 1-1.82-2.01c.05-1.05.95-1.87 2.01-1.82zm-.22 11.42a2.683 2.683 0 1 1 .26-5.36 2.683 2.683 0 0 1-.26 5.36zM25.35 14.4l-5.46 5.46-7.76-7.75 5.46-5.46c1.05-1.12 2.38-1.6 3.9-1.6 1.51 0 2.79.52 3.87 1.6 1.07 1.07 1.59 2.36 1.59 3.88-.01 1.51-.52 2.76-1.6 3.87z" style="fill: #000000;"/></svg>
