
<svg xmlns="http://www.w3.org/2000/svg" viewBox="0 0 32 32"><path d="M20 12c0 2.21-1.79 4-4 4s-4-1.79-4-4 1.79-4 4-4 4 1.79 4 4zm5.99.67a9.98 9.98 0 0 1-1.31 4.32L17 30h-2L7.32 16.99c-.75-1.31-1.21-2.81-1.31-4.32-.1-1.51.15-3.05.72-4.46.57-1.4 1.47-2.68 2.61-3.68 1.13-1.01 2.5-1.76 3.96-2.17.88-.24 1.79-.36 2.7-.36.91 0 1.82.12 2.7.37 1.46.41 2.83 1.16 3.96 2.17a10.19 10.19 0 0 1 2.61 3.68c.57 1.4.82 2.94.72 4.45zm-2.58-3.7a8.076 8.076 0 0 0-2.09-2.95c-.9-.81-2-1.41-3.17-1.73a8.138 8.138 0 0 0-4.31 0c-1.17.33-2.26.93-3.17 1.73a8.05 8.05 0 0 0-2.66 6.52c.08 1.2.44 2.39 1.04 3.44l.98 1.57c.28.48 2.68 4.46 5.98 4.46 3.3 0 5.7-3.98 5.98-4.46l.98-1.57c.6-1.05.96-2.24 1.04-3.44.06-1.21-.14-2.44-.6-3.57z" style="fill: #000000;"/></svg>
