
<svg xmlns="http://www.w3.org/2000/svg" viewBox="0 0 32 32"><path stroke-width="0" d="M25.886 4c.221 1.699.092 3.387.33 5.045.46 2.244 1.912 4.119 2.772 6.301.881 2.07 1.221 4.401.884 6.634-.32 2.165-1.09 4.313-2.465 6.021l-1.562-.829c.132-.48.294-.953.45-1.423 1.218-3.49 1.825-5.944.515-9.556-.795-2.243-2.219-4.379-2.535-6.857-.13-1.289.03-2.558.157-3.818q.082-.762.178-1.516h1.278ZM7.392 4c.127 1.018.243 2.027.326 3.058.052.725.094 1.521.009 2.276-.436 3.203-2.572 5.765-3.095 8.881-.582 3.042.375 5.411 1.306 8.236.077.238.154.477.219.72L4.595 28c-1.715-2.158-2.539-4.97-2.593-7.714-.019-1.691.362-3.391 1.012-4.941.764-1.903 1.955-3.621 2.568-5.489a6.3 6.3 0 0 0 .271-1.299c.127-1.495.076-3.026.263-4.558h1.278Z" style="fill: #000000;"/><ellipse cx="16" cy="15.793" stroke-width="0" rx=".983" ry=".737" style="fill: #000000;"/><path stroke-width="0" d="M6.947 20.244a16 16 0 0 0 2.629 1.313l-.597 1.287a13 13 0 0 1-1.369-.853 10.4 10.4 0 0 1-1.228-1.036zM10.633 21.927q.696.217 1.408.374c.473.107.952.19 1.432.258l-.28 1.733a16 16 0 0 1-1.572-.371 14 14 0 0 1-1.522-.542zM14.584 22.679a19 19 0 0 0 2.182.045c.242-.008.484-.025.726-.041l.155 1.794a15 15 0 0 1-.806.057q-.403.02-.808.018a16 16 0 0 1-1.613-.086zM18.603 22.565a18 18 0 0 0 2.137-.425q.351-.093.698-.201l.541 1.46q-.373.158-.755.293a15 15 0 0 1-2.347.616zM22.492 21.569a13.78 13.78 0 0 0 2.549-1.317l.588.692A9 9 0 0 1 24.442 22c-.427.315-.874.606-1.341.859z" style="fill: #000000;"/></svg>
