
<svg xmlns="http://www.w3.org/2000/svg" viewBox="0 0 32 32"><path stroke-width="0" d="M16.65 1.661v-.033h-1.299v.033C9.705 2 5.211 6.687 5.211 12.417c0 .887.115 1.76.326 2.608.095.379.203.754.338 1.12.056.153.14.29.202.44.244-.447.558-.844.938-1.178-.042-.125-.06-.255-.097-.382-.247-.845-.407-1.714-.407-2.608q.001-.922.17-1.795h4.053c-.006.064-.004.125-.008.189-.04.542-.068 1.08-.068 1.606q.002.651.039 1.28.012.194.028.385.014.172.031.34c.084.018.17.03.252.052a5.3 5.3 0 0 1 .959-1.628c-.003-.143-.01-.283-.01-.43 0-.357.029-.728.05-1.096q.024-.348.055-.698h3.29v.393c.21-.026.423-.052.641-.052.224 0 .44.026.657.053v-.394h3.288q.03.35.056.696c.02.368.05.74.05 1.099 0 .15-.008.296-.011.444.4.476.73 1.014.944 1.61.087-.024.178-.036.267-.055q.017-.163.03-.327.017-.195.03-.392.036-.63.038-1.28c0-.525-.027-1.064-.068-1.606-.004-.064-.002-.125-.008-.189h4.053q.169.873.17 1.795c0 .907-.15 1.777-.389 2.608-.037.13-.055.266-.097.393.38.34.694.742.935 1.195.216-.509.382-1.042.518-1.588.21-.837.332-1.707.332-2.608C26.788 6.687 22.295 2 16.65 1.66m-5.418 5.871c-.023.094-.05.183-.072.279-.11.487-.207.988-.282 1.512h-3.85A9.5 9.5 0 0 1 8.462 6.66h2.996c-.085.28-.154.578-.226.873m.79-2.373c-.032.07-.068.13-.098.201H9.662a9.5 9.5 0 0 1 3.35-1.95c-.04.053-.076.122-.116.178a8 8 0 0 0-.387.6q-.09.16-.177.33-.162.306-.31.64m3.33 4.164h-3.154q.008-.058.017-.117c.067-.421.145-.834.238-1.23q.024-.093.048-.184.123-.498.272-.959.028-.088.058-.174h2.52zm0-3.963h-1.998q.037-.072.073-.142a8 8 0 0 1 .445-.767q.167-.25.342-.46c.037-.045.072-.095.11-.136q.228-.259.467-.447c.035-.028.071-.047.107-.072q.188-.136.38-.227.036-.017.073-.03zm1.298-2.28q.036.013.07.028.196.091.387.23c.034.025.068.043.102.07q.239.189.469.448c.036.04.07.088.105.131a5.6 5.6 0 0 1 .48.674q.16.261.31.557.037.07.073.142H16.65zm0 6.243V6.66h2.52q.03.086.057.174.149.46.272.959c.015.062.033.12.048.184.093.396.17.809.238 1.23q.008.06.017.117zm3.426-3.963c-.03-.072-.066-.131-.097-.201q-.15-.335-.311-.642c-.059-.11-.116-.223-.177-.328a8 8 0 0 0-.388-.602c-.04-.056-.075-.124-.115-.178a9.5 9.5 0 0 1 3.35 1.951zm1.053 3.963h-.007a19 19 0 0 0-.282-1.512c-.022-.096-.049-.185-.072-.279-.072-.295-.141-.593-.226-.873h2.996a9.5 9.5 0 0 1 1.434 2.664zM22.46 21.873c-1.723 0-2.017 1.698-2.272 3.046l-.307-1.437c-.408-1.826-2.024-2.963-3.895-2.963h-.012c-1.871 0-3.487 1.137-3.895 2.963l-.281 1.328c-.25-1.328-.575-2.937-2.248-2.937-1.692 0-2.17 1.213-2.388 4.029-.128 2.72-.096 4.47-.096 4.47h17.866s.038-1.75-.083-4.47c-.217-2.816-.696-4.03-2.388-4.03" style="fill: #000000;"/><path stroke-width="0" d="M9.55 20.979c1.367 0 2.484-1.111 2.484-2.484s-1.111-2.484-2.484-2.484-2.484 1.118-2.484 2.484S8.177 20.98 9.55 20.98m0-3.71c.67 0 1.22.55 1.22 1.226 0 .677-.55 1.226-1.22 1.226a1.226 1.226 0 0 1 0-2.452M22.448 20.979a2.487 2.487 0 0 0 0-4.974c-1.373 0-2.484 1.117-2.484 2.484s1.118 2.49 2.484 2.49m0-3.71a1.226 1.226 0 1 1 0 2.452 1.22 1.22 0 0 1-1.22-1.226c0-.677.55-1.226 1.22-1.226M15.993 19.53a3.515 3.515 0 0 0 3.512-3.519c0-.344-.066-.67-.158-.986-.429-1.458-1.763-2.532-3.354-2.532s-2.926 1.074-3.354 2.532a3.5 3.5 0 0 0-.158.986 3.515 3.515 0 0 0 3.512 3.519m-1.998-4.505a2.23 2.23 0 0 1 1.998-1.255c.878 0 1.636.514 2.002 1.255.148.3.239.63.239.986a2.244 2.244 0 0 1-2.241 2.242 2.24 2.24 0 0 1-2.235-2.242c0-.355.09-.687.237-.986" style="fill: #000000;"/></svg>
