
<svg xmlns="http://www.w3.org/2000/svg" viewBox="0 0 32 32"><path stroke-width="0" d="m28.674 11.167-1.38.48C31.005 25.261 14.78 32.374 6.938 23.701l3.063-.19v-.98l-5.804-.44-.54 5.91h.98l.59-2.559c10.763 11.364 28.679-.45 23.447-14.275m-3.611-2.871L22 8.486v.98l5.804.45.54-5.916h-.98l-.59 2.565C16.01-4.808-1.906 7.005 3.326 20.83l1.38-.48C.995 6.735 17.22-.377 25.063 8.296" style="fill: #000000;"/><path stroke-width="0" d="M16 23a4.5 4.5 0 0 0 4.5-4.5c0-3.514-3.5-5.498-4-9.5h-1c-.5 4.002-4 5.986-4 9.5A4.5 4.5 0 0 0 16 23" style="fill: #000000;"/></svg>
