
<svg xmlns="http://www.w3.org/2000/svg" viewBox="0 0 32 32"><path stroke-width="0" d="M24 18.5a1.5 1.5 0 0 0-1.111.5h-2.121l-1.922-6.544C19.847 11.63 20.5 10.396 20.5 9c0-2.135-1.498-3.919-3.496-4.378L16.698 2h-1.4l-.306 2.624c-1.996.46-3.492 2.243-3.492 4.377 0 1.396.653 2.63 1.654 3.456l-1.922 6.544H9.111a1.5 1.5 0 0 0-1.111-.5 1.5 1.5 0 0 0 0 3 1.5 1.5 0 0 0 1.111-.5h1.533l-2.644 9 2.732-1.99 2.629-7.01h1.764l.175 1h1.4l.175-1h1.764l2.629 7.01L24 30.001l-2.644-9h1.533c.275.305.668.5 1.111.5a1.5 1.5 0 0 0 0-3ZM16 6c1.654 0 3 1.346 3 3s-1.346 3-3 3-3-1.346-3-3 1.346-3 3-3m.875 13-.175-1h-1.4l-.175 1h-1.014L16 13.962 17.889 19z" style="fill: #000000;"/></svg>
