
<svg xmlns="http://www.w3.org/2000/svg" viewBox="0 0 32 32"><path d="M16.79 15.241c1.688 0 1.918-.719 2.707-1.159.809-.45 1.668-.729 2.418-.729.749 0 1.608.28 2.418.729.789.44 1.019 1.159 2.707 1.159.609 0 1.219-.21 1.778-.799.769-.799 1.149-1.788 1.089-2.867-.08-1.598-1.079-2.977-1.908-3.667C26.86 6.949 26.91 5.53 26.91 5.51V2.013h-1.998V5.46c0 .04-.1 2.877 1.728 3.746 1.209.569 1.698 2.967.14 2.967-2.947 0-2.877-2.548-4.875-2.548s-1.928 2.548-4.875 2.548c-1.558 0-1.059-2.398.14-2.967 1.848-.869 1.748-3.716 1.748-3.756V2.013H16.92V5.52c0 .01.05 1.439-1.099 2.398-.829.689-1.818 2.068-1.908 3.667-.06 1.079.32 2.078 1.089 2.867.569.579 1.178.789 1.788.789zM29.098 18.308c-.779-.929-2.098-.989-3.057-1.029-.29-.01-.659.21-1.339-.569-.51-.589-1.239-1.259-2.777-1.269-1.539 0-2.268.669-2.777 1.269-.679.789-1.059.559-1.339.569-.959.04-2.278.09-3.057 1.029-.689.829-.979 1.828-.849 2.907.22 1.798 1.608 3.417 2.418 4.006.529.38.599.769.599 1.159v3.607h1.998l-.02-3.657c0-1.009-.12-1.778-1.429-2.727-.28-.21-2.228-1.838-.899-2.787.999-.709 1.549-.12 2.438-.12 1.489 0 1.189-1.618 2.897-1.628 1.708.01 1.409 1.628 2.897 1.628.889 0 1.439-.589 2.438.12 1.329.949-.619 2.578-.899 2.787-1.309.949-1.429 1.718-1.429 2.727v3.657h1.998l.02-3.607c0-.39.07-.779.599-1.159.819-.589 2.198-2.208 2.418-4.006.13-1.079-.159-2.078-.849-2.907zM13.297 14.547a1.972 1.972 0 1 0-2.695 2.88 1.972 1.972 0 0 0 2.695-2.88z" style="fill: #000000;"/><path d="M12.36 8.458l.149-1.342C7.339 5.918 1.968 10.463 2.032 15.79c-.27 5.303 4.896 10.071 10.101 9.067l-.087-1.259c-10.17-.692-9.919-14.908.314-15.14z" style="fill: #000000;"/><path d="M11.231 12.334l-.085-1.082c-1.188-.12-2.487.339-3.403 1.24-3.114 2.86-.917 8.6 3.38 8.281l.099-1.197c-3.82-1.005-3.786-6.21.009-7.242z" style="fill: #000000;"/></svg>
