
<svg xmlns="http://www.w3.org/2000/svg" viewBox="0 0 32 32"><path d="M8.15 24.39c0-.46.38-.84.84-.84h5.53c1.26 0 2.28-1.02 2.28-2.28v-4.29h-1.52v3.67c0 .76-.62 1.38-1.38 1.38H8.02a4.01 4.01 0 0 0-4.01 4.01c0 2.19 1.77 3.96 3.96 3.96H26v-4.77H9c-.47 0-.85-.38-.85-.84zM27.21 5.34H30V3.83h-2.79c-.25 0-.45-.2-.45-.45V2h-1.52v1.38c0 .25-.2.45-.45.45h-5.68c-.63-1.08-1.78-1.81-3.12-1.81-1.33 0-2.49.73-3.12 1.81H7.21c-.25 0-.45-.2-.45-.45V2H5.24v1.38c0 .25-.2.45-.45.45H2v1.52h2.79c.25 0 .45.2.45.45v1.67c0 .25-.2.45-.45.45H2v1.52h10.37V12c2.03 0 2.29 3 2.29 3h2.66s.24-3 2.27-3l.02-2.57H30V7.92h-2.79c-.25 0-.45-.2-.45-.45V5.79c0-.25.2-.45.45-.45zm-14.84.29v2.28H7.21c-.25 0-.45-.2-.45-.45V5.79c0-.25.2-.45.45-.45h5.19c0 .1-.03.19-.03.29zm5.27 4.38h-3.3V5.63c0-.91.74-1.65 1.65-1.65s1.65.74 1.65 1.65v4.38zm7.6-2.54c0 .25-.2.45-.45.45h-5.18V5.63c0-.1-.02-.19-.03-.29h5.21c.25 0 .45.2.45.45v1.68z" style="fill: #000000;"/></svg>
