
<svg xmlns="http://www.w3.org/2000/svg" viewBox="0 0 32 32"><path stroke-width="0" d="M15.475 6.008 15.125 2 16.875 2 16.525 6.008 15.475 6.008 15.475 6.008z" style="fill: #000000;"/><path stroke-width="0" d="M6.004 16.53 2.005 16.88 2.005 15.13 6.004 15.48 6.004 16.53 6.004 16.53z" style="fill: #000000;"/><path stroke-width="0" d="M25.996 15.48 29.995 15.13 29.995 16.88 25.996 16.53 25.996 15.48 25.996 15.48z" style="fill: #000000;"/><path stroke-width="0" d="M8.56 9.307 5.485 6.727 6.722 5.49 9.303 8.565 8.56 9.307 8.56 9.307z" style="fill: #000000;"/><path stroke-width="0" d="M22.697 8.565 25.278 5.49 26.515 6.727 23.44 9.307 22.697 8.565 22.697 8.565z" style="fill: #000000;"/><path fill-rule="evenodd" stroke-width="0" d="M22.648 21.732v-4.523c0-2.977-1.976-5.49-4.696-6.325v-.438c0-1.075-.868-1.943-1.951-1.943s-1.951.868-1.951 1.943v.438c-2.72.827-4.696 3.349-4.696 6.325v4.523S6.46 23.386 6.08 26.676l.843.843h6.582c0 1.373 1.116 2.48 2.497 2.48s2.497-1.108 2.497-2.48h6.582l.843-.843c-.38-3.291-3.274-4.944-3.274-4.944Zm.43 4.159H8.931c-.67 0-.777-.43-.521-.976.43-.918 2.58-2.365 2.58-2.365v-5.341c0-2.753 2.249-4.986 5.011-4.986s5.011 2.241 5.011 4.986v5.341s2.15 1.455 2.58 2.365c.265.537.149.976-.513.976Z" style="fill: #000000;"/></svg>
