
<svg xmlns="http://www.w3.org/2000/svg" viewBox="0 0 32 32"><path d="M10.01 10.01h-8v-8h8v8zM3.99 8h4V4h-4v4zm12.06 11.99c-2.21 0-4-1.79-4-4s1.79-4 4-4 4 1.79 4 4-1.8 4-4 4zm0-6c-1.1 0-2 .9-2 2s.9 2 2 2 2-.9 2-2-.9-2-2-2zm11.63 8h-4.62l-2.31 4 2.31 4h4.62l2.31-4-2.31-4zm-8.66 4L16 22.97V24H5.97a.97.97 0 0 1-.97-.97v-5.07c0-.54.43-.96.97-.96H10v-2H4.99c-1.64 0-2.97 1.32-2.97 2.96v7.07A2.97 2.97 0 0 0 4.99 28H16v1.01l3.02-3.02zm8-21H11.99v2h14.05c.54 0 .97.44.97.97v5.07c0 .54-.44.97-.97.97h-2.02v-1.03L21 15.99l3.02 3.02v-1.02h3.01A2.97 2.97 0 0 0 30 15.02V7.96a2.985 2.985 0 0 0-2.98-2.97z" style="fill: #000000;"/></svg>
