
<svg xmlns="http://www.w3.org/2000/svg" viewBox="0 0 32 32"><path stroke-width="0" d="m11.433 15.557-.75-.979h-.946a9.2 9.2 0 0 0 1.295 7.439c.379.568.686 1.467.686 2.051l.284 6.304h1.184l.323-5.76a5.7 5.7 0 0 0-.994-3.384c-1.11-1.644-1.461-3.736-1.082-5.67M27.938 18.467c-.56-1.625.355-3.29-1.356-6.272-1.215-2.177-4.75-3.913-8.182-3.913q-.057.002-.114.005v1.689c.034 0 .064-.006.099-.006 5.435 0 7.873 3.519 7.7 7.006-.119 2.359 1.025 3.542 1.964 4.717-.781.474-1.76.9-1.83 2.075-.04.624.086 1.902.11 2.809.016.805-.095 1.341-1.104 1.239-.734-.08-4.734-.994-4.734 2.556h1.183c0-1.72 3.054-.766 4.371-.94 1.318-.18 1.917-1.127 1.949-2.374.031-1.246-.158-2.414-.095-3.25l1.05-.702c1.98-1.476-.663-3.653-1.01-4.64" style="fill: #000000;"/><path stroke-width="0" d="M10.41 7.36a.97.97 0 1 0-1.94 0 .97.97 0 0 0 1.94 0m-3.387 0a.97.97 0 1 0-1.94 0 .97.97 0 0 0 1.94 0m5.797.97a.97.97 0 1 0 0-1.94.97.97 0 0 0 0 1.94M2.323 1.628v11.45h9.1l4.157 5.424 1.206-.38V1.628zm1.205 1.206H15.58v10.142c0 1.163-1.476 1.518-2.175.705l-1.386-1.808H3.528z" style="fill: #000000;"/></svg>
