
<svg xmlns="http://www.w3.org/2000/svg" viewBox="0 0 32 32"><path d="M15.2 12.19s-.01-2.09-.01-4.43c0-1.32-.05-2.96-.21-3.82-.81-.01-.64-.01-1.45-.01-.17.86-.23 2.52-.23 3.83 0 2.44.01 4.43.01 4.43h1.89zm5.84 0s-.01-3.04-.01-5.39c0-1.32-.05-2.96-.21-3.82-.81-.01-.64-.01-1.45-.01-.17.86-.23 2.52-.23 3.83 0 2.44.01 5.39.01 5.39h1.89zm2.9 0s-.01-.19-.01-2.54c0-1.32-.05-2.96-.21-3.82-.81-.01-.64-.01-1.45-.01-.17.86-.23 2.52-.23 3.83 0 2.44.01 2.54.01 2.54h1.89zm-5.79 0s-.01-4.01-.01-6.36c0-1.32-.05-2.96-.21-3.82-.81 0-.64 0-1.45-.01-.17.86-.23 2.52-.23 3.83 0 2.44.01 6.36.01 6.36h1.89zm-8.83 6.25l.35 1.12c.64 2.02 1.82 3.79 3.3 5.16V30h8v-5.36l.49-.64c1.52-1.84 2.4-4.19 2.43-6.57l.01-3.82H12.71l-3.39 4.83zm9.76 9.67h-4.21v-2.95h4.21v2.95zm-2.81-9.02c0-.41.33-.74.74-.74s.74.33.74.74-.33.74-.74.74-.74-.33-.74-.74zm3.7 3.68l-.42.51h-1.63v-1.75c.73-.27 1.27-.81 1.54-1.5h2.02a8.348 8.348 0 0 1-1.51 2.74zm2.02-7.27l-.02 1.93c0 .23-.01.47-.03.72h-2.48a2.62 2.62 0 0 0-2.44-1.68c-1.45 0-2.63 1.18-2.63 2.63 0 1.11.69 2.06 1.65 2.44v1.75h-1.65l-.02-.02c-2.18-1.53-2.94-4.53-2.94-4.53l2.28-3.24h8.28zm-11.23-5.27c-.8-1.85-1.47-1.92-1.47-1.92l-1.23.48s.57 2.36.76 5.23c.04.62.12 1.77.17 2.49l2.73-3.87c-.29-.74-.83-2.11-.96-2.41z" style="fill: #000000;"/></svg>
