
<svg xmlns="http://www.w3.org/2000/svg" viewBox="0 0 32 32"><path d="M8.26 7.86C5.93 6.48 3.74 5.18 3.74 2.01H2c0 3.08 1.64 4.84 3.45 6.13-.91.39-4.36 2.43-2.99 8.5.51 2.6 2.18 4.83 4.55 6.14 1.15.65 3.04 1.47 5.61.54l-.02 6.67h1.75V19.45c0-7.68-3.79-10.48-6.09-11.59zm21.28 8.78c1.37-6.08-2.09-8.12-2.99-8.5C28.36 6.85 30 5.09 30 2.01h-1.74c0 3.17-2.2 4.47-4.52 5.85-2.09 1.01-5.41 3.44-5.99 9.65a7.208 7.208 0 0 0-2.24 5.23c0 2.01.82 3.82 2.14 5.14V30h1.75v-.84c1 .53 2.15.83 3.36.83 4 0 7.25-3.25 7.25-7.25 0-1.46-.44-2.83-1.19-3.97.32-.68.57-1.38.72-2.13zm-6.79 11.34A5.25 5.25 0 1 1 28 22.73c0 2.9-2.35 5.25-5.25 5.25zM20.3 8.17c.55-.4 3.23-2.08 3.23-2.08 1.38-.85 2.8-1.72 2.8-4.08h-1.92c0 1.24-.55 1.62-1.89 2.45 0 0-2.99 1.87-3.83 2.55H13.3c-.84-.68-3.83-2.55-3.83-2.55-1.34-.84-1.89-1.21-1.89-2.45H5.66c0 2.37 1.43 3.23 2.8 4.08 0 0 2.68 1.69 3.23 2.08 1.76 1.26 3.04 3.01 3.71 6.67h1.17c.69-3.65 1.97-5.41 3.73-6.67zm5.2 12.61c-.5 0-.9.4-.9.9s.4.9.9.9.9-.4.9-.9-.4-.9-.9-.9zm-4.68 1.55c-.5 0-.9.4-.9.9s.4.9.9.9.9-.4.9-.9-.4-.9-.9-.9zm1.51-3.16c-.5 0-.9.4-.9.9s.4.9.9.9.9-.4.9-.9-.4-.9-.9-.9zm1.87 5.25c-.5 0-.9.4-.9.9s.4.9.9.9.9-.4.9-.9-.4-.9-.9-.9z" style="fill: #000000;"/></svg>
