
<svg xmlns="http://www.w3.org/2000/svg" viewBox="0 0 32 32"><path stroke-width="0" d="M24.675 13.02s-2.31 1.78-2.31 3.24v2.01a.49.49 0 0 1-.57.4.514.514 0 0 1-.41-.51V9.987s-.118-4.549-.364-5.873c-1.265-.015-1-.015-2.265-.015-.266 1.343-.36 3.937-.36 5.984 0 1.963-.004 1.02.009 4.86a.48.48 0 0 1-.53.297.51.51 0 0 1-.396-.424c-.004-1.727-.01-4.5-.01-6.824 0-2.061-.078-4.625-.328-5.968-1.266 0-1 0-2.266-.015-.266 1.343-.359 3.937-.359 5.983 0 2.254.005 4.797.01 6.507v.341a.49.49 0 0 1-.57.4.514.514 0 0 1-.406-.494l-.004-1.019v-3.74h-.006c-.002-2.045-.081-4.549-.327-5.873-1.265-.015-1-.015-2.265-.015-.266 1.343-.36 3.937-.36 5.984 0 3.091.01 5.047.014 5.686-.001.017 0 .034-.006.051-.04.27-.29.45-.56.4a.5.5 0 0 1-.393-.399 736 736 0 0 1-.004-2.582c0-2.062-.078-4.625-.328-5.969-1.266-.015-1-.015-2.266-.015-.267 1.344-.36 3.937-.36 5.984 0 .806 0 1.44.002 1.952h-.002v7.03c.003 4.297 3.518 7.77 7.816 7.77h2.71c4.344 0 8.066-3.422 8.104-7.767v-8.733zM8.403 22.354c-.252-.255-.588-.463-.688-.807a.79.79 0 0 1 .206-.758c.132-.135.314-.221.431-.371.103-.131.138-.303.174-.462.04-.172.08-.344.202-.478.229-.25.63-.262.925-.135.592.257 1.075.937 1.261 1.537.092.297.143.526.392.736.204.172.411.307.483.582a.98.98 0 0 1-.044.592.74.74 0 0 1-.257.35c-.195.133-.45.122-.685.135-.3.017-.599.08-.9.08-.756.004-1.025-.523-1.5-1.001m3.668 3.999c-.031.137-.072.28-.169.382-.098.103-.24.152-.38.18-.302.06-.674.195-.935-.04-.134-.121-.23-.278-.356-.407-.09-.093-.195-.171-.266-.278a.57.57 0 0 1-.081-.434.8.8 0 0 1 .24-.392l.061-.062c.085-.085.174-.174.266-.245.24-.181.65-.244.89-.032.206.179.222.502.41.698.064.066.142.113.21.173.14.125.15.282.11.457m.546-7.329c-.11.033-.21.094-.318.135-.224.086-.408.006-.582-.141-.138-.116-.275-.246-.334-.416-.06-.171-.032-.361.018-.536.108-.378.174-.878.593-1.036.215-.081.45-.098.67-.165.157-.048.308-.12.47-.14a.73.73 0 0 1 .54.162c.154.13.244.314.304.502q.016.052.034.106c.047.146.095.3.121.445.066.377-.103.878-.484 1.028-.323.127-.7-.043-1.032.056m5.961 5.375c-.04.298-.286.632-.606.653-.272.018-.512-.199-.784-.204q-.016.002-.028.003.062.103.122.207c.175.31.333.609.297.979-.024.25-.132.482-.202.723-.091.311-.026.543.028.846a1 1 0 0 1 .017.307c-.034.238-.227.433-.451.519-.225.085-.476.075-.71.023a1.66 1.66 0 0 1-.76-.38c-.215-.196-.312-.456-.577-.604-.261-.147-.526-.263-.668-.544a.9.9 0 0 1-.031-.753c.057-.13.146-.245.196-.378a.9.9 0 0 0 .05-.348c-.007-.17-.044-.341-.044-.515 0-.373.094-.757.337-1.047.15-.178.356-.312.584-.354.285-.052.582.043.826.199.1.064.19.14.277.218.019-.036.035-.073.057-.106.17-.256.338-.614.69-.633.18-.009.358.034.539.037.128.001.259-.017.385.008a.57.57 0 0 1 .364.249.8.8 0 0 1 .107.447v.087c.001.12 0 .246-.015.361m1.784-3.736c-.03.137-.072.28-.168.382-.098.104-.24.152-.38.18-.302.061-.675.195-.936-.04-.1-.09-.18-.198-.266-.302a.88.88 0 0 1-.434.457c-.222.1-.47.1-.707.067l-.134-.02a4 4 0 0 1-.55-.102c-.065-.019-.128-.058-.193-.09-.036.132-.15.232-.275.29-.135.061-.284.093-.414.166-.34.191-.477.6-.808.803a1.28 1.28 0 0 1-1.107.107c-.177-.068-.4-.24-.35-.46.042-.19.287-.33.403-.475.145-.179.212-.407.273-.63s.123-.45.26-.635c.332-.447.911-.318 1.362-.05-.002-.032-.018-.063-.016-.097.033-.42.417-.74.485-1.155.022-.138.008-.279.02-.418.025-.29.21-.447.462-.56.2-.088.413-.17.63-.145s.41.157.575.303c.32.287.746.597.794 1.05.238-.111.546-.128.745.046.205.18.221.503.41.699.063.065.141.113.209.173.14.125.15.282.11.456" style="fill: #000000;"/></svg>
