
<svg xmlns="http://www.w3.org/2000/svg" viewBox="0 0 32 32"><path stroke-width="0" d="M4.99555 4.963095 3.784735 6.718649 8.636297 9.267172 9.10047 8.594015 4.99555 4.963095z" style="fill: #000000;"/><path stroke-width="0" d="M1.809271 14.179586 1.939154 16.308004 7.329718 15.319113 7.280096 14.503622 1.809271 14.179586z" style="fill: #000000;"/><path stroke-width="0" d="M2.10346 11.641073 7.558294 12.172018 7.734198 11.374105 2.56336 9.558859 2.10346 11.641073z" style="fill: #000000;"/><path stroke-width="0" d="M30.183 5.355c-.785.04-11.079.613-15.003 1.692-3.475.965-5.15 2.273-5.789 4.521-.915 3.23-.27 5.192.254 6.77.188.564.36 1.087.441 1.61.59 3.745.949 6.181 1.08 7.089h12.778a25 25 0 0 0 .401-3.475c.082-2.044.114-3.94.123-4.954 1.022.073 2.886.212 4.562.318.343.025.736.017 1.16 0zM13.65 19c-.048.135-.158.237-.274.32-.252.177-.537.45-.871.341-.172-.056-.323-.16-.49-.228-.12-.047-.248-.077-.357-.146a.57.57 0 0 1-.25-.363.8.8 0 0 1 .06-.456l.031-.081a3 3 0 0 1 .145-.332c.029-.052.07-.1.114-.148l-.012-.001c-.162-.052-.278-.165-.454-.18-.175-.013-.344-.009-.488-.123a.52.52 0 0 1-.202-.391c-.001-.083.017-.166.011-.25a.5.5 0 0 0-.06-.195c-.045-.089-.106-.17-.149-.263a.94.94 0 0 1-.078-.637.6.6 0 0 1 .222-.331.69.69 0 0 1 .486-.098c.346.047.637.231.914.43.169.122.326.241.398.446.049.139.049.288.07.433.029.188.12.294.223.442q.028.043.05.092c.231-.104.57-.032.772.077.084.045.188.122.205.223.013.08-.036.159-.095.214-.06.056-.131.099-.186.16-.059.065-.087.147-.117.228q.049.012.096.027c.178.058.251.197.286.373.027.138.047.284 0 .417m-.31-5.275c-.065.259-.095.504-.31.69a.98.98 0 0 1-.55.22.74.74 0 0 1-.429-.076c-.205-.116-.307-.349-.423-.554-.147-.263-.335-.503-.47-.773-.336-.677.019-1.151.24-1.788.116-.339.156-.732.42-.973a.79.79 0 0 1 .77-.15c.18.06.338.185.524.224.163.034.333-.01.492-.047.171-.041.343-.08.517-.03.326.095.514.45.53.77.03.645-.368 1.379-.824 1.81-.226.214-.41.36-.488.677m.832 2.26c-.077-.057-.17-.147-.172-.25-.002-.08.057-.152.124-.199.066-.047.143-.079.205-.131.164-.137.196-.371.354-.514a.7.7 0 0 1 .585-.17c.102.019.24.088.235.212-.004.107-.121.207-.17.296-.059.112-.072.241-.082.367s-.02.255-.076.368c-.185.38-.741.215-1.003.021m3.224 2.701c-.03.138-.072.28-.168.382-.099.104-.24.153-.38.18-.302.062-.675.196-.936-.04-.134-.12-.23-.277-.356-.407-.09-.092-.194-.17-.266-.278a.57.57 0 0 1-.081-.433.8.8 0 0 1 .24-.392l.061-.062c.085-.086.174-.174.267-.245.238-.182.648-.244.89-.033.205.18.221.503.41.7.063.064.141.112.209.172.14.125.15.282.11.456m1.411-6.523c.012.06.02.12.013.18-.018.14-.128.255-.258.307s-.277.049-.415.02a1 1 0 0 1-.368-.162c.032.144.04.29-.028.437-.096.208-.252.385-.362.587-.079.143-.136.301-.24.429a.73.73 0 0 1-.497.262c-.2.016-.394-.053-.568-.146l-.099-.052a3.5 3.5 0 0 1-.398-.233c-.311-.222-.541-.699-.374-1.072.141-.317.53-.459.698-.763.055-.1.084-.214.132-.32.1-.217.287-.288.515-.305q.192-.016.38.024c.031-.076.08-.143.108-.22a.5.5 0 0 0 .026-.204c-.006-.1-.03-.199-.03-.3a1 1 0 0 1 .133-.511c-.054-.02-.11-.04-.166-.05-.384-.073-.751.152-1.135.096a1.28 1.28 0 0 1-.918-.63c-.092-.166-.153-.44.027-.577.155-.119.432-.069.614-.105.226-.044.424-.176.613-.307.19-.131.384-.267.608-.32.753-.18 1.163.797 1.193 1.392.004.082 0 .177-.019.268.019.01.04.013.058.024.297.183.488.47.66.764.105.18.2.353.183.57-.011.145-.072.283-.11.424-.05.182-.01.317.024.493" style="fill: #000000;"/></svg>
