
<svg xmlns="http://www.w3.org/2000/svg" viewBox="0 0 32 32"><path d="M17 12.62v7.35c0 1.02-.01 2.15.99 2.15H20v1.5h-8v-1.5h2.03c.97 0 .97-1.13.97-2.15v-7.35H7v-1.75h18v1.75h-8zm-6.44 4.25v-2H5.24l-.95-6.5H2s1.04 4.33 1.04 6.16c0 1.08.03 2.09.03 2.09l.01.24h2.98v4.8c0 .71-.26.95-1.07.95h-.68v1h5.01v-1h-.67c-.82 0-1.07-.24-1.07-.95v-4.8h2.98zm17.15-8.49l-.95 6.5h-5.33v2h2.99v4.8c0 .71-.26.95-1.07.95h-.67v1h5.01v-1h-.67c-.82 0-1.07-.24-1.07-.95v-4.8h2.98l.01-.24s.03-1.01.03-2.09c0-1.83 1.04-6.16 1.04-6.16h-2.3z" style="fill: #000000;"/></svg>
