
<svg xmlns="http://www.w3.org/2000/svg" viewBox="0 0 32 32"><path d="M20.3 7.4l-1.3.9v4.9l-1.7-1.7V2h-2.6v9.4L13 13.2V8.3l-1.3-.9C5.8 9.8 3.2 13.7 3 19.6c-.1 3.6 2 7.5 4.1 9.3 2.6 2.2 5.4.5 5.8-1.7-.4-.4-.9-.7-1.5-1.2-1.6-1.2-3.8-2.8-3.8-5.8 0-3.2 2.2-5.5 5.3-5.5.7 0 1.3.1 1.9.4 0 0 .5-.6 1.3-.6.7 0 1.2.6 1.2.6.6-.2 1.2-.4 1.9-.4 3.1 0 5.3 2.3 5.3 5.5 0 3.1-2.2 4.6-3.8 5.8-.6.4-1.1.8-1.5 1.2.4 2.3 3.3 3.9 5.8 1.7 2.2-1.8 4.3-5.7 4.1-9.3-.3-5.9-2.9-9.8-8.8-12.2zm-1.2 8.4c-1.4 0-2.5.6-3.1 1.7-.7-1.1-1.7-2.2-3.1-2.2-2.5 0-4.2 2.4-4.2 5 0 2.5 1.8 3.8 3.4 4.9 1.4 1 2.7 2 3 3.6h1.8c.3-1.7 1.6-2.6 3-3.6 1.6-1.1 3.4-2.4 3.4-4.9 0-2.7-1.7-4.5-4.2-4.5zm-8.8 4.5c0-1.8 1.2-2.9 2.8-2.8l-2.8 2.8zm.2 1l3.5-3.5c.3.2.4.4.6.6L11 22.1c-.2-.3-.4-.5-.5-.8zm4.4 4c-.2-.2-.4-.4-.6-.5l.6-.6v1.1zm0-2.3l-1.3 1.3c-.2-.1-.7-.5-.7-.5l2-2V23zm0-2.4l-2.7 2.7c-.2-.2-.5-.4-.7-.6l3.3-3.3v1.2zm2.2 4.7v-6.5c.4-1.1 1.3-1.4 2-1.4 1.6 0 2.5 1 2.5 2.8 0 1.6-1 2.4-2.7 3.6-.6.5-1.2.9-1.8 1.5z" style="fill: #000000;"/></svg>
