<svg width="16" height="16" viewBox="0 0 16 16" fill="none" xmlns="http://www.w3.org/2000/svg">
<path d="M7.58198 9.62996C7.57186 9.53557 7.5668 9.40447 7.5668 9.23666C7.5668 8.82763 7.62753 8.47105 7.74899 8.16689C7.87045 7.86275 8.01721 7.60579 8.18927 7.39603C8.37146 7.17579 8.60931 6.92408 8.90283 6.6409C9.30769 6.25285 9.60628 5.91199 9.79858 5.61833C9.99089 5.31418 10.087 4.93662 10.087 4.48564C10.087 3.96124 9.94028 3.54172 9.64676 3.22709C9.35324 2.91245 8.91802 2.75513 8.34109 2.75513C7.64271 2.75513 7.1417 3.00684 6.83806 3.51026C6.54453 4.01368 6.41802 4.77405 6.4585 5.79138L4.5 5.6026C4.5 4.82649 4.67206 4.171 5.01619 3.63612C5.37045 3.09074 5.84109 2.68171 6.42814 2.40903C7.01518 2.13634 7.67308 2 8.40182 2C9.01923 2 9.60121 2.09964 10.1478 2.29891C10.6943 2.49818 11.1397 2.81281 11.4838 3.24282C11.8279 3.67282 12 4.21295 12 4.8632C12 5.33516 11.9038 5.73894 11.7115 6.07456C11.5294 6.39968 11.3016 6.67237 11.0283 6.89261C10.7652 7.10237 10.416 7.33835 9.98077 7.60055C9.60628 7.84177 9.31275 8.04628 9.1002 8.21409C8.88765 8.37141 8.71053 8.57068 8.56883 8.8119C8.42713 9.04264 8.36134 9.31532 8.37146 9.62996H7.58198ZM7.97672 13.5C7.61235 13.5 7.31883 13.3846 7.09615 13.1539C6.87348 12.9232 6.76215 12.619 6.76215 12.2415C6.76215 11.8639 6.87348 11.5597 7.09615 11.329C7.31883 11.0878 7.61235 10.9672 7.97672 10.9672C8.33097 10.9672 8.62449 11.0878 8.85729 11.329C9.09008 11.5702 9.20648 11.8744 9.20648 12.2415C9.20648 12.619 9.09008 12.9232 8.85729 13.1539C8.63462 13.3846 8.34109 13.5 7.97672 13.5Z" fill="#B54708"/>
</svg>
