
<svg xmlns="http://www.w3.org/2000/svg" fill="none" viewBox="0 0 32 32"><path fill="#000" d="M13.887 6l.705 1.943c-3.365 1.215-5.32 3.806-5.79 7.855.313-.081.626-.081.939-.081 2.816 0 4.694 2.267 4.694 5.1 0 2.673-1.721 5.183-5.007 5.183-3.208 0-5.007-2.348-5.007-6.802C4.42 11.83 8.88 7.215 13.887 6zm8.841 9.717c2.817 0 4.694 2.267 4.694 5.1 0 2.673-1.72 5.183-5.007 5.183-3.207 0-5.007-2.348-5.007-6.802 0-7.368 4.46-11.983 9.467-13.198l.704 1.943c-3.364 1.215-5.32 3.806-5.79 7.855.313-.081.626-.081.94-.081z" style="fill: #000000;"/></svg>
