
<svg xmlns="http://www.w3.org/2000/svg" viewBox="0 0 32 32"><path d="M19.353 8.537l-1.129-1.129-3.422 2.783 1.768 1.768zM28.041 12.347l-2.799-3.405-.45-7.02h-1.54l-.48 7.495-.036.554c.021.014 4.041 3.326 4.215 3.465l1.09-1.089z" style="fill: #000000;"/><path d="M30.165 10.133l-3.421-2.782-1.129 1.129 2.783 3.421zM21.705 1.909h-1.54l-.449 7.019-2.799 3.405 1.089 1.089c.121-.119 4.266-3.48 4.215-3.465l-.035-.554-.481-7.494zM18.224 24.063l-3.422 2.783 1.768 1.768 2.783-3.422zM24.793 18.578h-1.54l-.48 7.495-.036.554c.021.014 4.041 3.326 4.215 3.465l1.089-1.089-2.799-3.405-.449-7.02z" style="fill: #000000;"/><path d="M25.615 25.135l2.783 3.421 1.767-1.768-3.421-2.782zM21.705 18.564h-1.54l-.449 7.019-2.799 3.405 1.089 1.089c.121-.119 4.266-3.48 4.215-3.465l-.035-.554-.481-7.494zM5.256 15.917l-3.421 2.782 1.768 1.768 2.782-3.421zM12.275 17.451l-.45-7.019h-1.54l-.48 7.495-.035.553c.02.014 4.041 3.326 4.215 3.465l1.089-1.089-2.799-3.405z" style="fill: #000000;"/><path d="M17.198 18.642l-3.422-2.783-1.128 1.129 2.782 3.422zM8.738 10.417h-1.54l-.45 7.019-2.799 3.405 1.089 1.089c.121-.119 4.266-3.48 4.215-3.465l-.035-.554-.48-7.494z" style="fill: #000000;"/></svg>
