
<svg xmlns="http://www.w3.org/2000/svg" viewBox="0 0 32 32"><path d="M16 2C8.28 2 2 8.28 2 16s6.28 14 14 14 14-6.28 14-14S23.72 2 16 2zm0 26C9.38 28 4 22.62 4 16S9.38 4 16 4s12 5.38 12 12-5.38 12-12 12zm-4-11.94c.07-.02 1.26-.38 1.26-1.63 0-1.38-1.18-1.83-2.47-1.83H8.2v6.67h1.48v-2.95h.78c.34 0 .58.12.77.3.57.52.6 2.66.6 2.66h1.55c-.03-.54-.06-2.65-1.38-3.22zm-.48-.76c-.17.18-.5.29-.91.29h-.93v-2.27h.92c.42 0 .74.09.92.28.29.3.47 1.18 0 1.7zm4.15.96h2.56v-.74h-2.56v-2.19h2.83v-.73h-4.31v6.67h4.41v-.74h-2.93v-2.27zm8.23.42c-.08.73-.2.91-.32 1.2-.22.51-1.38 1.18-2.33.42-.27-.22-.8-.78-.8-2.48 0-1.57.46-2.08.69-2.3.57-.56 1.46-.27 1.73.1.24.33.36.8.34 1.47l1.52-.15c.03-.72-.23-1.65-1.33-2.19-.77-.38-2-.46-2.98.15-.47.29-1.49 1.1-1.49 3.11 0 1.95 1.06 2.73 1.52 3.01.92.55 2.3.51 2.95.11.36-.22 1.19-.67 1.34-2.31l-.84-.14z" style="fill: #000000;"/></svg>
