
<svg xmlns="http://www.w3.org/2000/svg" viewBox="0 0 32 32"><path d="M27.01 27.47h-7.13l.89 1.29-.69.7-3.39-3.4 3.4-3.39.68.68-.89 1.31h5.66l-5.12-8.86 3.78-2.18 5.4 9.36c1.16 1.99-.28 4.49-2.59 4.49zM15.8 24.01H5.56l2.83-4.9.69 1.42.93-.25-1.23-4.64-4.64 1.23.26.95 1.56-.12-3.56 6.17c-1.15 2 .29 4.5 2.6 4.5h10.81l-.01-4.36zM22.18 8.8l-.68 1.41-3.56-6.17c-1.15-2-4.04-2-5.2 0l-5.4 9.36 3.78 2.18 5.12-8.86 2.83 4.9-1.57-.12-.25.93 4.63 1.25 1.25-4.63-.95-.25zm-8.67 7.72c-.14-1.18.54-1.83.96-2.12.11-.08.18-.2.18-.33v-.63c0-.1.08-.18.18-.18h1.41c.1 0 .18.08.18.18v.63c0 .13.07.26.18.33.42.28 1.1.94.96 2.12h-4.05zm.01 1.65a.765.765 0 0 1-.01-.72l.09-.17c.01-.03.02-.06.02-.09h3.84c.01.03.01.06.02.09l.09.17c.12.23.1.49-.01.72h-4.04zm-.08 1.39a.817.817 0 0 1 .03-.65l.03-.06h4.07l.03.06c.1.2.12.44.03.65l-.1.27h-3.99l-.1-.27zm4.06 1.18c.18.39.33 1.17-.31 1.5-.02.01-.05.02-.08.02h-3.14c-.03 0-.06-.01-.08-.02-.64-.33-.49-1.11-.31-1.5l.01-.24h3.92l-.01.24z" style="fill: #000000;"/></svg>
