
<svg xmlns="http://www.w3.org/2000/svg" viewBox="0 0 32 32"><path d="M27.01 27.47h-7.13l.89 1.29-.69.7-3.39-3.4 3.4-3.39.68.68-.89 1.31h5.66l-5.12-8.86 3.78-2.18 5.4 9.36c1.16 1.99-.28 4.49-2.59 4.49zM15.8 24.01H5.56l2.83-4.9.69 1.42.93-.25-1.23-4.64-4.64 1.23.26.95 1.56-.12-3.56 6.17c-1.15 2 .29 4.5 2.6 4.5h10.81l-.01-4.36zM22.18 8.8l-.68 1.41-3.56-6.17c-1.15-2-4.04-2-5.2 0l-5.4 9.36 3.78 2.18 5.12-8.86 2.83 4.9-1.57-.12-.25.93 4.63 1.25 1.25-4.63-.95-.25zm-2.79 7.89v5.32h-5.94v-7.59h3.66c.23 0 .45.09.62.26l1.4 1.39c.17.17.26.39.26.62zm-4.62 1.08h2.7v-.7h-2.7v.7zm2.31 2.35h-2.31v.7h2.31v-.7zm.99-1.52h-3.3v.7h3.3v-.7z" style="fill: #000000;"/></svg>
