
<svg xmlns="http://www.w3.org/2000/svg" viewBox="0 0 32 32"><path d="M29.61 22.97l-5.4-9.36-3.78 2.18 5.12 8.86h-5.66l.89-1.31-.68-.68-3.4 3.39 3.39 3.4.69-.7-.89-1.29h7.13c2.3.01 3.74-2.49 2.59-4.49zM15.8 24.01H5.56l2.83-4.9.69 1.42.93-.25-1.23-4.64-4.64 1.23.26.95 1.56-.12-3.56 6.17c-1.15 2 .29 4.5 2.6 4.5h10.81l-.01-4.36zM22.18 8.8l-.68 1.41-3.56-6.17c-1.15-2-4.04-2-5.2 0l-5.4 9.36 3.78 2.18 5.12-8.86 2.83 4.9-1.57-.12-.25.93 4.63 1.25 1.25-4.63-.95-.25z" style="fill: #000000;"/><g><path d="M15.64 22.53c.85 0 1.52-.1 1.52-.1.25-.07.25-.36.25-.36v-3.12c0-1.21-.39-1.91-.39-1.91-.51-.95-.59-2.01-.59-2.01l-.05-1.36c0-.09.06-.12.06-.12v-.31l-.06-.04v-.1c-.09-.12-1.41-.12-1.49 0v.1l-.06.04v.31s.06.03.06.12l-.05 1.36s-.08 1.06-.59 2.01c0 0-.39.7-.39 1.91v3.12s0 .29.25.36c.01 0 .68.1 1.53.1z" style="fill: #000000;"/></g></svg>
