
<svg xmlns="http://www.w3.org/2000/svg" viewBox="0 0 32 32"><path d="M27 27.5h-7.1l.9 1.3-.7.7-3.4-3.4 3.4-3.4.7.7-.9 1.3h5.7l-5.1-8.9 3.8-2.2 5.4 9.4c1.1 2-.4 4.5-2.7 4.5zM15.8 24H5.6l2.8-4.9.7 1.4.9-.2-1.2-4.6-4.6 1.2.3 1 1.5-.2-3.6 6.2c-1.2 2 .3 4.5 2.6 4.5h10.8V24zm6.4-15.2l-.7 1.4L17.9 4c-1.2-2-4-2-5.2 0l-5.4 9.4 3.8 2.2 5.1-8.9 2.8 4.9-1.6-.1-.2.9 4.6 1.2L23 9l-.8-.2zm-3.1 7.3c-.5-.9-1.7-1.6-2.8-1.1l.1-1.9h-.8l.1 1.9c-1.1-.4-2.3.2-2.8 1.1 2.8.6 2.1 4.2.1 4.6 1.5 1.9 4.4 1.9 6 0-2-.5-2.7-4 .1-4.6z" style="fill: #000000;"/></svg>
