
<svg xmlns="http://www.w3.org/2000/svg" viewBox="0 0 32 32"><path d="M27.01 27.47h-7.13l.89 1.29-.69.7-3.39-3.4 3.4-3.39.68.68-.89 1.31h5.66l-5.12-8.86 3.78-2.18 5.4 9.36c1.16 1.99-.28 4.49-2.59 4.49zM15.8 24.01H5.56l2.83-4.9.69 1.42.93-.25-1.23-4.64-4.64 1.23.26.95 1.56-.12-3.56 6.17c-1.16 2 .29 4.5 2.6 4.5h10.8v-4.36zM22.18 8.8l-.68 1.41-3.56-6.17c-1.16-2-4.04-2-5.2 0l-5.4 9.36 3.78 2.18 5.12-8.86 2.83 4.9-1.57-.12-.25.93 4.63 1.25 1.25-4.63-.95-.25zm-4.43 6.54h-4.31c.01-.02.47-.69.47-.69 0-.08-.02-.29.14-.29h3.08c.16 0 .14.21.14.29 0 0 .47.67.48.69zm.02.65v5.36c0 .04-.01.09-.03.12l-.18.31c0 .2-.16.37-.37.37h-3.2a.37.37 0 0 1-.37-.37l-.18-.31a.266.266 0 0 1-.03-.12v-5.36h4.36z" style="fill: #000000;"/></svg>
