
<svg xmlns="http://www.w3.org/2000/svg" viewBox="0 0 32 32"><path d="M4.71 20.34l-1.38.48C-1.9 7.01 16.01-4.8 26.76 6.56l.59-2.5h.98l-.53 5.85-5.67-.45v-.97l2.93-.19C17.22-.37 1 6.74 4.71 20.34zm23.96-9.17l-1.38.48C31 25.26 14.78 32.37 6.94 23.7l2.93-.19v-.98l-5.67-.44-.54 5.85h.98l.59-2.5c10.76 11.36 28.67-.45 23.44-14.27zm-10.6 6.72l-1.19-1.44.7 6.87c.05.46.43.81.88.81h.95v.74h-6.24v-.74h.94c.45 0 .83-.35.88-.81l.73-7.16-5.95 3.48-.45-.8 3.75-3.68 2.05-.37a.72.72 0 0 0 .59-.71l-.01-7.13h.9l1.26 5.16-.7 2c-.12.33.02.69.31.87l6.04 3.58-.45.8-4.99-1.47zm-1.29-2.54c0-.27-.22-.5-.5-.5-.27 0-.5.22-.5.5s.22.5.5.5.5-.22.5-.5z" style="fill: #000000;"/></svg>
