
<svg xmlns="http://www.w3.org/2000/svg" viewBox="0 0 32 32"><path stroke-width="0" d="m21.088 26.757-7.131.006v1.32h15.868s1.38-4.743-.458-8.259c-.71-1.36-2.05-2.474-3.53-3.47l2.044-2.042.803-2.587-2.216-2.216-2.587.803-8.723 8.73.935.935.007-.007 2.129 2.13-.007.006.936.936 5.22-5.221c.903.484 1.626 1.114 2.137 1.838.146.245.822 1.094.822 2.52 0 .292-.239 3.125-2.8 4.226-.563.239-1.996.352-3.449.352M17.97 18.1l3.662-3.662 2.083-2.083 2.13 2.13-5.029 5.028-.71.71zM6.988 15.445a1.096 1.096 0 1 0 1.102-1.094c-.604 0-1.102.49-1.102 1.094" style="fill: #000000;"/><path stroke-width="0" d="m13.523 19.185 1.337-1.338h-8.9c-.935 0-1.452-.603-.948-1.386a30 30 0 0 0 2.003-3.556C7.964 10.908 8.674 8.772 8.9 6.57h3.98c.35 3.386 1.883 6.687 3.69 9.57l.99-.991c-1.685-2.625-3.018-5.601-3.353-8.579h1.99V3.916H5.582V6.57h1.99c-.41 3.662-2.315 7.317-4.55 10.316l-1.108 1.572c-.836 1.147.1 2.746 1.492 2.706h12.096z" style="fill: #000000;"/><path stroke-width="0" d="M10.252 16.318c0 .365.299.664.664.664s.663-.299.663-.664-.298-.663-.663-.663-.664.298-.664.663M9.908 10.338c-.923 0-1.672.75-1.672 1.672s.75 1.671 1.672 1.671 1.671-.75 1.671-1.671c0-.922-.75-1.672-1.671-1.672m0 2.348a.68.68 0 0 1-.677-.676.68.68 0 0 1 .677-.677.68.68 0 0 1 .676.677.675.675 0 0 1-.676.676" style="fill: #000000;"/></svg>
