
<svg xmlns="http://www.w3.org/2000/svg" viewBox="0 0 32 32"><path d="M25.1 8.3l-2.9.2v1l5.7.4.5-5.8h-1l-.6 2.5C16-4.8-1.9 7 3.3 20.8l1.4-.5C1 6.7 17.2-.4 25.1 8.3zm3.6 2.9l-1.4.5c3.7 13.6-12.5 20.7-20.4 12l2.9-.2v-1l-5.7-.4-.5 5.8h1l.6-2.5C16 36.8 33.9 25 28.7 11.2zM9.4 20.9c.6.3 6 3 8.1 3 1.9 0 3.8-1.5 6.5-1.4 1.7-1.9 2.2-4.6 2.2-4.6-1.8-.1-2.2.4-3.6-.9-.7-.7-2.2-.7-3.4-.1-1.2.5-4.9 1.4-5.2 1.8l.1.9c.4.1 3.4-.1 4-.1.4 0 .5.5.2.7-2.3.9-3.5 1.1-4.7.9l-.3-4c4.9-.1 3.9-4.6 3.9-4.6s-3.1-.8-4.2 1.7c-1.3-5-5.9-3.6-5.9-3.6s-2 6.1 5.5 6.5l-.3 3.7c-1-.3-1.9-.7-2.6-.4l-.3.5zm3-4.7l-3.7-3.9.3-.3 4 3.7 2.4-2.1.3.3-2.5 2.3h-.8z" style="fill: #000000;"/></svg>
