
<svg xmlns="http://www.w3.org/2000/svg" viewBox="0 0 32 32"><path stroke-width="0" d="M14.833 10.192a4.32 4.32 0 0 0 4.316-4.315c0-2.381-1.935-4.316-4.316-4.316s-4.315 1.935-4.315 4.316a4.32 4.32 0 0 0 4.315 4.315m0-7.065c1.512 0 2.75 1.23 2.75 2.75a2.753 2.753 0 0 1-2.75 2.749 2.753 2.753 0 0 1-2.749-2.75 2.76 2.76 0 0 1 2.75-2.749M17.082 18.499v-2.44h2.229l-.103-.878c.265.265.5.565.718.877h2.657c-1.213-1.95-2.843-3.398-5.13-4.01 0 0-.616-.141-.705-.158l-1.915 1.915-1.916-1.917c-.107.02-.755.173-.755.173-3.417.931-5.382 3.708-6.637 7.294-.713 2.045-1.057 4.136-1.057 4.136h3.125s.148-5.6 2.85-8.31l-.979 8.31h8.613v-3.583a1.5 1.5 0 0 1-.995-1.41" style="fill: #000000;"/><path stroke-width="0" d="M17.582 16.559v1.94c0 .547.448.995.995.995v10.945h7.96V19.544a1 1 0 0 0 .995-.995v-1.99zm5.224.995h1.642v.995h-1.642zm-2.14 0h1.643v.995h-1.642zm-2.089 0h1.642v.995l-1.642-.05zm6.965 11.193a.765.765 0 0 1-.746.747H20.32a.765.765 0 0 1-.747-.747v-.746h5.97zm0-1.243h-5.97v-5.97h5.97zm0-6.468h-5.97v-1.492h5.97zm.995-2.537-1.592.05v-.995h1.592z" style="fill: #000000;"/><path stroke-width="0" d="m21.718 26.253.624-.006c.53-1.433 1.545-2.627 2.308-3.304l-.093-.16c-1.472.545-2.242 1.52-2.693 2.124-.365-.286-.663-.451-1.327-.538l-.073.173c.478.345.976.948 1.254 1.711" style="fill: #000000;"/></svg>
