
<svg xmlns="http://www.w3.org/2000/svg" viewBox="0 0 32 32"><path d="M11.8 15.8c0 .8-.7 1.5-1.5 1.5s-1.5-.7-1.5-1.5.7-1.5 1.5-1.5 1.5.7 1.5 1.5zm8.1-3.3c-.7-.4-1.8-.8-3.9-.8-2 0-3.1.4-3.8.8l.7 1.3c.6-.3 1.4-.6 3.1-.6 1.7 0 2.6.4 3.2.7l.7-1.4zM30 14h-2c0 1.2-.6 2-1.1 2.5-.6-3.6-3.1-6.4-6.9-7.9.3-.6.5-1.4.5-2.1C20.5 4 18.5 2 16 2s-4.5 2-4.5 4.5c0 .7.2 1.4.5 2.1-.2.1-.5.2-.8.3C9.6 7.8 7 8 7 8v4.1c-.6.8-1.1 1.7-1.4 2.6H4c-1.1 0-2 .9-2 2.1v3.8c0 1.1.9 2.1 2 2.1h1.8c.5 1.1 1.2 2 2.2 2.7l.2 4.6h6.7l.1-2.5c0-.3.2-.5.5-.5h.8c.3 0 .5.2.5.5L17 30h6.7l.2-4.6c1.9-1.4 2.8-3.5 3-6.6 1.5-.6 3.1-2.4 3.1-4.8zM16 4c1.4 0 2.5 1.1 2.5 2.5S17.4 9 16 9s-2.5-1.1-2.5-2.5S14.6 4 16 4zm5.5 19.3V27h-2.4l-.4-2.1c-.1-.5-.5-.9-1.1-.9h-3.4c-.5 0-1 .4-1.1.9l-.2 2.1h-2.4v-3.7c-.8-.3-2.7-1.3-3.2-2.5H4v-4h3.1c.1-1.5 1.3-3.2 1.9-3.9v-2.7c1.3.2 2.1 1.1 2.1 1.1s1.2-.9 2.4-1.1c1.6 1.1 3.5 1.1 5 0 4 1.2 6.5 4.1 6.5 7.8 0 3.9-3.5 5.3-3.5 5.3z" style="fill: #000000;"/></svg>
