
<svg xmlns="http://www.w3.org/2000/svg" viewBox="0 0 32 32"><path d="M19.9 16c0 2-2.6 2.3-3.9 2.4v1.1c2.1 0 4-.8 5.4-2.3.4-.4 1-.7 1.6-.7h1c-.1 2.3-1.2 4.3-2.9 5.7-.5.4-1.2.4-1.6 0-1-.8-2.2-1.3-3.4-1.3V22c.6.1 2.4.2 2.3 1.2-.3.9-1.7.8-2.4.8v1.1c4.4 0 8-3.1 8.9-7.3.2-.8.9-1.3 1.7-1.3H30v-1h-3.5c-.8 0-1.5-.6-1.7-1.3C24 10 20.4 6.9 16 6.9V8c.7.1 2.1 0 2.3.8.2 1-1.6 1.2-2.3 1.2v1.1c1.3 0 2.5-.5 3.4-1.3.5-.4 1.2-.4 1.6 0 1.7 1.4 2.8 3.4 2.9 5.7H23c-.6 0-1.2-.3-1.6-.7-1.4-1.5-3.4-2.3-5.4-2.3v1.1c1.3.1 3.9.4 3.9 2.4zM2 16c0 3.5 1.8 5.9 5 8.5 2.3 1.9 5.3 4 9 4 5.9 0 10.8-3.5 12.1-9H30v-2h-2.5c-.6 0-1.1.4-1.2 1-1 5.1-5.6 8.4-11.1 8-3.3-.2-5.4-1.5-7.2-4.3v-2.5c2.1-.1 3.1-1.9 3.1-3.8 0-1.8-1.1-3.7-3.1-3.8V9.8c1.8-2.7 3.8-4 7.2-4.2 5.4-.4 10.1 2.9 11.1 8 .1.6.6 1 1.2 1H30v-2h-1.9c-1.3-5.4-6.3-9-12.1-9-3.7 0-6.7 2.1-9 4-3.2 2.5-5 4.9-5 8.4zm7 0c0 1.7-1 1.8-2.2 1.8v4C6.2 21 4 19 4 16s2.2-5 2.8-5.8v4C8 14.2 9 14.3 9 16z" style="fill: #000000;"/></svg>
