
<svg xmlns="http://www.w3.org/2000/svg" viewBox="0 0 32 32"><path d="M25.49 27.15l-6.52-9.02c1.46-2.08 2.75-3.98 3.53-5.24 1.99-3.21-.94-7.87-2.98-9.66-.16-.15-.33-.28-.51-.4-.01 0-.01-.01-.02-.01C18.17 2.29 17.16 2 16 2c-1.17 0-2.19.29-3 .83v-.01C11 4.17 7.32 9.4 9.49 12.9c.78 1.25 2.07 3.16 3.53 5.25l-6.51 9.01.93.67L10.43 30s2.66-3.62 5.56-7.67c2.9 4.05 5.56 7.67 5.56 7.67l2.06-1.49 1.88-1.36zM13.64 5.47C14.06 4.71 14.86 4 16 4c1.15 0 1.94.71 2.36 1.47.89 1.64.19 4.69-1.79 7.77l-.57.79-.57-.79c-1.98-3.08-2.68-6.13-1.79-7.77z" style="fill: #000000;"/></svg>
