
<svg xmlns="http://www.w3.org/2000/svg" viewBox="0 0 32 32"><path d="M29.5 9.59a3.372 3.372 0 0 0-1.93-1.72L13.14 2.93c-.56-.38-1.23-.61-1.96-.61-1.13 0-2.12.55-2.76 1.38l-1.2-1.72H2.17v2h4.01l1.28 1.83-1.29 1.84H2.16v2h5.05l1.2-1.72a3.52 3.52 0 0 0 2.4 1.34l8.73 2.99-2.42 1.85c-.31-.06-.63-.1-.96-.1-2.76 0-5.01 2.25-5.01 5.01 0 1.35.54 2.57 1.41 3.47h-.01s.34.35.34 1.24c0 .92-.56 1.81-1.27 2.47h.01a6.013 6.013 0 0 0-1.47 3.82h12a6.013 6.013 0 0 0-1.47-3.82h.01c-.71-.66-1.27-1.55-1.27-2.47 0-.89.34-1.24.34-1.24h-.01a5 5 0 0 0 1.36-2.95l7.28-5.58c.39-.3.69-.68.91-1.1.13-.21.25-.44.34-.69.3-.85.24-1.77-.15-2.58zM11.18 7.31c-.82 0-1.49-.67-1.49-1.49s.67-1.49 1.49-1.49 1.49.67 1.49 1.49-.67 1.49-1.49 1.49zm2.57.84c.56-.62.92-1.44.92-2.34 0-.09-.02-.17-.03-.25l9.42 3.23-2.61 2-7.7-2.64zm11.74 2.06c.6-.46 1.46-.36 1.92.24.22.29.32.65.28 1.01s-.23.69-.51.91l-6.34 4.86a4.99 4.99 0 0 0-1.65-2.19l6.3-4.83zm-9.32 6.03c1.53 0 2.78 1.25 2.78 2.78 0 1.53-1.25 2.78-2.78 2.78-1.53 0-2.78-1.25-2.78-2.78a2.78 2.78 0 0 1 2.78-2.78z" style="fill: #000000;"/></svg>
