
<svg xmlns="http://www.w3.org/2000/svg" viewBox="0 0 32 32"><path stroke-width="0" d="M23.097 2.694 2.694 23.097l6.208 6.21L29.306 8.902zm1.925 8.372-2.044-2.044-1.06 1.061 2.043 2.043-2.163 2.163-2.043-2.043-1.061 1.06 2.043 2.044-2.163 2.163-2.043-2.043-1.06 1.06 2.042 2.044-2.163 2.163-2.043-2.043-1.061 1.06 2.043 2.044-2.163 2.163-2.043-2.043-1.06 1.06 2.043 2.044L9.5 26.588a.845.845 0 0 1-1.195 0l-2.893-2.893a.845.845 0 0 1 0-1.195L22.5 5.412a.845.845 0 0 1 1.195 0l2.893 2.893c.33.33.33.865 0 1.195z" style="fill: #000000;"/></svg>
