
<svg xmlns="http://www.w3.org/2000/svg" viewBox="0 0 32 32"><path stroke-width="0" d="M6.35 17.481c-.748.02-1.178.576-1.498.985-.16.208-.326.416-.464.486-.146.062-.23.048-.52-.056-.285-.097-.673-.236-1.18-.132-.576.118-1.02.514-1.249 1.103-.319.826-.166 1.915.361 2.643.292.396.61.666.867.888.417.354.583.514.583.888 0 1.082.014 2.914.014 2.914h1.11s-.014-1.839-.014-2.914c0-.895-.52-1.339-.978-1.727-.236-.201-.479-.41-.694-.7-.291-.43-.395-1.131-.208-1.596.139-.354.36-.403.437-.417.194-.041.34.007.583.09.333.119.784.278 1.352.015.389-.18.653-.514.881-.812.264-.34.437-.548.652-.555.09 0 .236.014.389.187.284.326.41.971.305 1.575-.041.243-.243.624-.555 1.04a3.2 3.2 0 0 0-.617 1.853v3.96h1.11v-3.953c0-.43.138-.84.395-1.194.43-.575.687-1.089.763-1.519.16-.936-.062-1.907-.562-2.49a1.6 1.6 0 0 0-1.262-.562M30.56 19.95c-.228-.589-.672-.984-1.248-1.102-.507-.104-.895.034-1.18.131-.29.104-.374.118-.52.056-.138-.07-.305-.278-.464-.486-.32-.409-.75-.964-1.499-.985a1.6 1.6 0 0 0-1.262.562c-.5.583-.722 1.554-.562 2.49.076.43.333.944.763 1.52.257.353.395.763.395 1.193v3.954h1.11v-3.961c0-.666-.222-1.318-.617-1.852-.312-.416-.514-.798-.555-1.04-.104-.604.02-1.25.305-1.575a.48.48 0 0 1 .389-.188c.215.007.388.215.652.555.229.299.492.631.88.812.57.263 1.02.104 1.353-.014.243-.083.389-.132.583-.09.076.014.298.062.437.416.187.465.083 1.165-.208 1.595-.215.292-.458.5-.694.701-.458.389-.978.833-.978 1.727 0 1.076-.014 2.914-.014 2.914h1.11s.014-1.831.014-2.914c0-.374.166-.534.583-.887.256-.222.575-.493.867-.888.527-.729.68-1.818.36-2.643M12.837 6.616q.105.38.077.773c-.004.07-.022.142-.037.215-.047.217-.104.486-.023.781.047.166.17.406.493.605.535.329 1.167.349 1.702.34.343-.005.685-.001 1.029.002.24.003.474.004.763.005.659 0 1.945-.02 2.202-.953.081-.294.024-.563-.022-.78-.016-.073-.033-.145-.038-.216a2.3 2.3 0 0 1 .078-.772l.03-.106c.046-.151.098-.323.108-.521a1.1 1.1 0 0 0-.082-.481c-.237-.563-.912-.793-1.449-.79l-1.706.042-1.735-.043c-.522-.004-1.21.228-1.447.793q-.094.226-.082.478c.01.199.062.37.107.522zm1.367-.858 1.758.042 1.73-.042c.267-.013.442.096.468.178-.004.072-.033.17-.065.274l-.037.128c-.101.367-.14.745-.113 1.123.008.117.032.239.058.36.021.1.051.237.04.28-.041.058-.246.195-1.275.195-.227.022-.452-.002-.678-.004q-.342-.005-.683-.005-.186 0-.373.002c-.41.007-.845-.002-1.142-.185q-.027-.019-.039-.024c-.001-.061.023-.173.041-.258.026-.122.05-.244.058-.36a3.3 3.3 0 0 0-.113-1.124l-.037-.128c-.031-.104-.061-.202-.062-.299.024-.057.223-.166.464-.153" style="fill: #000000;"/><path stroke-width="0" d="M25.301 16.59c.724-.214 1.545-.454 2.058-1.241.381-.572.494-1.33.328-2.186-.385-2.103-2.031-3.94-4.193-4.679-1.354-.463-3.007-.358-3.89.8-3.792 1.85-6.516.412-7.086.059q-.1-.151-.222-.29c-.987-1.107-2.654-1.039-3.782-.645-2.158.734-3.807 2.567-4.202 4.673-.155.866-.042 1.622.328 2.19.527.797 1.357 1.035 2.089 1.245q.185.053.366.108c.76.243 1.342.672 1.636 1.209.22.405.296.892.378 1.408.034.213.067.426.11.633.204 1.002.769 1.806 1.511 2.151.61.285 1.305.248 1.996-.129.58-.313 1.131-.611 1.604-.838.017-.007 1.737-.8 3.322.064.228.124.48.254.745.39.294.152.605.312.92.484.363.199.741.298 1.11.298.293 0 .58-.062.85-.188.754-.35 1.304-1.133 1.51-2.148q.064-.318.11-.64c.08-.514.155-.999.379-1.4.403-.737 1.196-1.074 1.64-1.212q.19-.06.385-.117m-12.893-4.064c.168-.28.354-.617.465-1.01.073-.264.097-.535.086-.804.277.109.611.211.975.301a8 8 0 0 0 1.93.24c.657 0 1.381-.082 2.16-.278q.501-.126 1.034-.321c-.037.386.007.778.144 1.155.088.244.21.492.38.776q-.276.102-.528.256c-.526.32-.963.794-1.228 1.399h-.005c-.269.507-.748.891-1.345 1.028l-.223.05-.25.437-.251-.437-.222-.05a2.03 2.03 0 0 1-1.346-1.028h-.01l.006.01a3.07 3.07 0 0 0-1.23-1.407 3 3 0 0 0-.472-.243c-.031-.012-.065-.016-.096-.027q.014-.024.026-.047m.817 2.137.005-.003a3.06 3.06 0 0 0 1.84 1.56l.282.489c.13.233.37.375.637.38h.012c.263 0 .51-.14.652-.376l.282-.492a3.06 3.06 0 0 0 1.84-1.56l.001.002c.25-.575.734-.97 1.291-1.14.143.354.229.716.2 1.114-.04.582-.331 1.124-.767 1.416-.23.157-.52.264-.826.377-.484.178-1.032.38-1.437.842q-.045.052-.09.109a1.4 1.4 0 0 1-1.114.558c-.459 0-.877-.211-1.12-.565a2 2 0 0 0-.146-.19c-.404-.454-.954-.657-1.44-.836-.305-.112-.593-.218-.821-.372-.433-.295-.727-.838-.767-1.42-.029-.371.04-.711.165-1.043.57.164 1.067.564 1.32 1.15m9.14 2.752c-.313.56-.406 1.162-.496 1.744-.03.197-.06.395-.101.59-.138.68-.485 1.208-.929 1.413-.315.147-.66.12-1.024-.08-.321-.175-.64-.34-.942-.495a34 34 0 0 1-.723-.379 4.44 4.44 0 0 0-2.144-.533 5.3 5.3 0 0 0-2.125.445c-.487.233-1.054.54-1.695.886-.362.197-.704.221-1.016.076-.445-.207-.793-.736-.931-1.417q-.058-.29-.102-.586c-.092-.58-.187-1.18-.493-1.744-.424-.774-1.217-1.378-2.236-1.703q-.194-.06-.392-.116c-.64-.183-1.192-.342-1.506-.817-.28-.428-.248-1.016-.174-1.43.326-1.739 1.705-3.26 3.517-3.878.893-.31 2.063-.322 2.667.356.354.395.491.98.351 1.488-.077.273-.216.524-.355.757q-.117.195-.224.39c-.197.358-.37.724-.478 1.118-.096.35-.145.722-.113 1.131.063.903.518 1.727 1.221 2.206.334.225.696.359 1.046.488.406.15.79.29 1.017.546q.04.045.07.092a2.38 2.38 0 0 0 1.978 1.016c.762 0 1.468-.351 1.938-.962l.05-.061c.228-.26.592-.394 1.013-.55.353-.13.717-.264 1.05-.492.704-.472 1.16-1.297 1.221-2.205a3.3 3.3 0 0 0-.144-1.217 5.5 5.5 0 0 0-.493-1.107q-.09-.16-.185-.319a3.5 3.5 0 0 1-.303-.612 1.63 1.63 0 0 1 .106-1.34c.581-1.087 2.078-.917 2.871-.645 1.812.619 3.188 2.142 3.507 3.887.08.409.115.987-.174 1.42-.306.47-.85.63-1.482.815-.139.04-.278.082-.407.124-1.014.314-1.809.919-2.236 1.7" style="fill: #000000;"/><path stroke-width="0" d="M14.629 13.809c-.136.151.152.9.451.86.3-.038.683-.203.657-.49-.021-.304-.924-.571-1.108-.37M14.15 12.65c-.137.15.152.899.45.86.3-.039.683-.204.657-.49-.02-.305-.924-.572-1.108-.37M14.121 12.35c.3-.038.683-.204.657-.49-.021-.305-.924-.571-1.108-.37-.136.151.152.899.451.86M16.925 14.67c.3.038.588-.71.452-.861-.184-.201-1.087.066-1.108.37-.026.287.358.452.656.49M17.405 13.51c.299.039.587-.71.451-.86-.184-.202-1.086.065-1.108.37-.026.286.358.451.657.49M17.884 12.35c.3.039.588-.709.452-.86-.184-.201-1.087.065-1.108.37-.026.286.357.452.656.49" style="fill: #000000;"/></svg>
