
<svg xmlns="http://www.w3.org/2000/svg" viewBox="0 0 32 32"><path stroke-width="0" d="M16.416 1.908h-.832c-.926 1.839-4.2 3.355-7.24 3.355v6.085c0 2.167.947 3.979 2.785 5.482l4.455 3.864h.832l4.455-3.864c1.838-1.503 2.784-3.315 2.784-5.482V5.263c-3.04 0-6.313-1.516-7.239-3.355m5.917 9.44c0 1.738-.751 3.194-2.294 4.455L16 19.305l-4.039-3.502c-1.543-1.261-2.294-2.717-2.294-4.455V7.886c0-.771.53-1.449 1.321-1.623 2.697-.584 4.428-1.98 5.012-2.67.577.69 2.315 2.086 5.012 2.67a1.65 1.65 0 0 1 1.321 1.623z" style="fill: #000000;"/><path stroke-width="0" d="m14.89 13.757 1.108-.012c.944-2.549 2.75-4.672 4.106-5.876l-.165-.283c-2.62.968-3.988 2.702-4.79 3.776-.649-.508-1.18-.803-2.36-.956l-.13.307c.85.613 1.735 1.687 2.23 3.044M9.245 30h5.904l-.039-.139-.727-1.167c-.54-.866-.289-1.504-.103-2.576.198-1.167-.67-2.484-1.917-3.383-1.248-.898-3.062-2.63-3.62-3.12-.335-.297-.954-.796-1.25-.904l-.745.645c.091.236.372.749.856 1.45.474.686 1.28 1.813 1.65 2.332a.393.393 0 0 1-.555.544c-.287-.209-.74-.606-1.31-1.065-1.705-1.365-2.473-2.712-2.852-3.93-.38-1.219-.552-2.637-1.369-3.187l-.726.128c.107.731.186 1.758.23 2.046.262 1.726.946 6.327 1.748 7.614 1.119 1.796 3.502 2.79 4.763 4.697zM22.755 30H16.85l.039-.139.727-1.167c.54-.866.289-1.504.103-2.576-.198-1.167.67-2.484 1.917-3.383 1.248-.898 3.062-2.63 3.62-3.12.335-.297.954-.796 1.25-.904l.745.645c-.091.236-.372.749-.856 1.45-.474.686-1.28 1.813-1.65 2.332a.393.393 0 0 0 .555.544c.287-.209.74-.606 1.31-1.065 1.705-1.365 2.473-2.712 2.852-3.93.38-1.219.552-2.637 1.369-3.187l.726.128c-.107.731-.186 1.758-.23 2.046-.262 1.726-.946 6.327-1.748 7.614-1.119 1.796-3.502 2.79-4.763 4.697z" style="fill: #000000;"/></svg>
