
<svg xmlns="http://www.w3.org/2000/svg" viewBox="0 0 32 32"><path d="M29.97 5.87v20.26c0 1.25-1.04 2.25-2.29 2.2l-6.71-.23v-.95h6.1v-1.17l-6.1-.08v-1l6.1-.08v-1.19l-6.1-.08v-1l6.1-.08v-1.19l-6.1-.08v-1l6.1-.08v-1.19l-6.1-.08v-1l6.1-.08v-1.19l-6.1-.08v-1l6.1-.08v-1.19l-6.1-.08v-1l6.1-.08v-1.19l-6.1-.08v-1l6.1-.08V9.53l-6.1-.08v-1l6.1-.08v-1.2l-6.1-.08v-1l6.1-.08V4.84h-6.1v-.95l6.71-.22c1.25-.05 2.29.95 2.29 2.2zM17.08 28.95c-1.54.52-3.26-.12-4.05-2.44l-2.44-7.22-2.44 7.22c-.79 2.32-2.5 2.96-4.05 2.44-1.67-.57-2.57-2.29-1.78-4.59.78-2.31 2.51-2.95 4.04-2.43.54.18.98.5 1.33.9l1.54-4.55L5.18 6.39c-.49-1.45.2-3.08 1.58-3.5l3.83 11.36 3.84-11.36c1.37.41 2.06 2.05 1.57 3.5l-4.05 11.89 1.54 4.55c.35-.4.79-.71 1.33-.9 1.53-.52 3.26.12 4.04 2.43.79 2.3-.11 4.02-1.78 4.59zM6.05 23.01c-.74-.25-1.58.13-2.2 1.97-.62 1.83-.19 2.64.55 2.89s1.58-.13 2.21-1.96c.62-1.83.19-2.64-.56-2.9zm11.28 1.97c-.62-1.83-1.46-2.22-2.2-1.97-.75.25-1.18 1.07-.56 2.89.62 1.83 1.46 2.22 2.21 1.96.74-.24 1.17-1.06.55-2.88z" style="fill: #000000;"/></svg>
