
<svg xmlns="http://www.w3.org/2000/svg" viewBox="0 0 32 32"><path stroke-width="0" d="M29.897 17.198c-.212-4.16-8.445-6.232-8.445-6.232l-.669.972C19.691 10.47 17.96 9.503 16 9.503s-3.691.967-4.783 2.435l-.67-.972s-8.232 2.073-8.444 6.232c-.168 3.353 6.265 5.634 8.673 6.285l-.727 6.885h11.902l-.727-6.885c2.408-.651 8.84-2.932 8.673-6.285m-18.351 2.239-.252 1.195c-1.989-.455-4.843-1.386-4.843-3.004 0-1.015 1.94-2.064 3.637-2.787-.024.213-.065.42-.065.64 0 1.518.592 2.894 1.534 3.951zM16 18.469c-1.654 0-2.989-1.335-2.989-2.989s1.355-2.989 2.989-2.989c1.654 0 2.989 1.335 2.989 2.99S17.654 18.468 16 18.468m4.689 2.167-.249-1.18-.012-.005c.952-1.06 1.55-2.443 1.55-3.97 0-.22-.042-.427-.066-.64 1.697.723 3.637 1.772 3.637 2.787 0 1.623-2.87 2.554-4.86 3.008" style="fill: #000000;"/><path stroke-width="0" d="M19.327254 9.100846 23.276961 4.279069 21.229537 2.978654 18.54222 8.602372 19.327254 9.100846z" style="fill: #000000;"/><path stroke-width="0" d="M13.780379 8.27913 11.100387 2.651689 9.051497 3.949296 12.995284 8.7762 13.780379 8.27913z" style="fill: #000000;"/><path stroke-width="0" d="M16.726546 7.843827 17.566573 1.667863 15.141646 1.631608 15.797347 7.830277 16.726546 7.843827z" style="fill: #000000;"/><path stroke-width="0" d="M18.952 4.73a.912.912 0 0 0 .005-1.823c-.503 0-.917.409-.917.912s.409.911.912.911M7.259 8.313c.362 0 .659-.297.659-.66a.66.66 0 0 0-1.318 0c0 .363.296.66.659.66M23.784 8.313c.363 0 .66-.297.66-.66a.66.66 0 0 0-1.318 0c-.001.363.295.66.658.66M9.953 8.697a.433.433 0 0 0 .862 0c.001-.237-.193-.431-.43-.431s-.432.194-.432.431M20.835 9.206c0 .237.194.43.431.43s.431-.193.431-.43-.194-.432-.43-.432a.43.43 0 0 0-.432.432" style="fill: #000000;"/><circle cx="14.097" cy="5.443" r=".431" stroke-width="0" style="fill: #000000;"/></svg>
