
<svg xmlns="http://www.w3.org/2000/svg" viewBox="0 0 32 32"><path stroke-width="0" d="M26.626 14.91c-.71-2.06.45-4.17-1.72-7.95C23.366 4.2 18.886 2 14.536 2 4.196 2 .466 12.39 5.196 19.41c.48.72.87 1.86.87 2.6l.36 7.99h1.5l.41-7.3c.05-1.57-.42-3.05-1.26-4.29C3.88 13.675 5.579 6.005 12.055 4.442c-.06.143-.119.286-.188.424-.105.211-.24.427-.22.662a.74.74 0 0 0 .177.396.98.98 0 0 0 .493.331c.274.074.494-.039.744-.131.306-.113.53-.044.834.023.612.135 1.443.051 1.959-.336.256-.193.444-.549.34-.871-.057-.172-.185-.292-.316-.412a1.3 1.3 0 0 1-.291-.344c6.135.44 8.897 4.653 8.689 8.836-.15 2.99 1.3 4.49 2.49 5.98-.99.6-2.23 1.14-2.32 2.63-.05.79.11 2.41.14 3.56.02 1.02-.12 1.7-1.4 1.57-.93-.1-6-1.26-6 3.24h1.5c0-2.18 3.87-.97 5.54-1.19 1.67-.23 2.43-1.43 2.47-3.01s-.2-3.06-.12-4.12l1.33-.89c2.51-1.87-.84-4.63-1.28-5.88" style="fill: #000000;"/><path stroke-width="0" d="M11.457 6.537c-.21-.173-.265-.492-.49-.646-.265-.181-.664-.07-.88.138-.083.08-.161.18-.236.275l-.053.068a.8.8 0 0 0-.192.418.57.57 0 0 0 .132.42c.083.099.197.164.297.245.14.114.254.259.402.363.287.202.64.025.933-.07.135-.045.271-.11.356-.225.084-.113.108-.26.123-.4.018-.177-.01-.332-.164-.44-.074-.051-.158-.09-.228-.146M18.262 8.1c.143-.039.291-.1.433-.16l.103-.043c.182-.075.358-.18.473-.345a.73.73 0 0 0 .115-.55c-.032-.162-.117-.306-.178-.458-.085-.214-.122-.446-.222-.653-.193-.405-.697-.428-1.082-.503-.179-.035-.37-.047-.536.028-.164.073-.282.22-.385.368-.132.186-.197.376-.092.591.05.104.12.199.162.306.127.323-.011.712.143 1.024.182.366.695.492 1.066.394M15.555 6.982c-.228-.031-.458.024-.683.077-.224.053-.456.104-.683.063-.182-.033-.422-.18-.61-.126-.217.062-.26.34-.235.528q.005.042.014.084c.073.348.303.66.611.836.337.193.761.117 1.092.324.126.078.226.194.345.283.12.089.276.152.416.102.177-.061.281-.273.336-.44.189-.564.163-1.624-.603-1.73" style="fill: #000000;"/></svg>
