
<svg xmlns="http://www.w3.org/2000/svg" viewBox="0 0 32 32"><path stroke-width="0" d="m17.535 7.602 1.429-1.778-.549-.55L16.634 6.7a1.65 1.65 0 0 0-1.756 2.733 1.65 1.65 0 0 0 2.657-1.83" style="fill: #000000;"/><path stroke-width="0" d="m12.43 12.655 1.204-1.419-.546-.567-1.148.748a4.97 4.97 0 0 1-.907-2.53l1.405-.208v-.894L11.1 7.587a5.4 5.4 0 0 1 1.025-2.324l1.046.746.632-.633-.747-1.047a4.8 4.8 0 0 1 2.314-.965l.19 1.288h.894l.191-1.295c4.447.516 6.045 6.344 2.53 9.133l.559.698c.984-.685 1.746-1.703 2.166-2.86 2.365-7.564-7.932-11.819-11.563-4.704-1.218 2.666-.48 5.615 1.683 7.514z" style="fill: #000000;"/><path stroke-width="0" d="M6.973 6.287a9.261 9.261 0 0 0 6.716 11.056v11.173h-5.55a3.36 3.36 0 0 1-3.358-3.357V9.435c0-1.442.913-2.674 2.192-3.148m1.165-1.71a4.857 4.857 0 0 0-4.857 4.858v15.724a4.857 4.857 0 0 0 4.857 4.857h6.356a.695.695 0 0 0 .695-.695V16.688a.7.7 0 0 0-.592-.681c-3.614-.662-6.362-3.835-6.362-7.637 0-1.002.193-1.958.54-2.837a.69.69 0 0 0-.637-.955M25.027 6.286a3.36 3.36 0 0 1 2.192 3.149v15.724a3.36 3.36 0 0 1-3.357 3.357H18.31V17.342a9.26 9.26 0 0 0 6.716-11.056m-1.165-1.708a.69.69 0 0 0-.637.955c.347.879.54 1.835.54 2.837 0 3.803-2.748 6.975-6.363 7.637a.7.7 0 0 0-.591.682V29.32c0 .384.31.695.694.695h6.357a4.857 4.857 0 0 0 4.857-4.857V9.435a4.857 4.857 0 0 0-4.857-4.857" style="fill: #000000;"/></svg>
