
<svg xmlns="http://www.w3.org/2000/svg" viewBox="0 0 32 32"><path stroke-width="0" d="M27.3 16.775c-.652-1.89.412-3.827-1.58-7.295-.926-1.66-3.018-3.088-5.47-3.883.356.742.63 1.53.795 2.358 2.91 1.474 4.237 4.282 4.098 7.086-.138 2.743 1.193 4.12 2.285 5.487-.909.55-2.047 1.046-2.13 2.414-.045.724.102 2.211.13 3.266.018.936-.11 1.56-1.285 1.441-.854-.092-5.506-1.156-5.506 2.973h1.376c0-2 3.551-.89 5.084-1.092 1.532-.21 2.23-1.312 2.266-2.762s-.183-2.808-.11-3.78l1.22-.817c2.304-1.716-.77-4.249-1.174-5.396M9.216 19.74a10 10 0 0 1-2.685-.964c.283.733.645 1.449 1.103 2.128.44.661.798 1.707.798 2.386l.33 7.332h1.377l.376-6.699a6.62 6.62 0 0 0-1.156-3.936c-.053-.08-.092-.166-.143-.247" style="fill: #000000;"/><path stroke-width="0" d="M11.209 1.378a8.53 8.53 0 1 0 0 17.06 8.53 8.53 0 0 0 0-17.06M17.67 11.45h-5.113c0 1.306-.765 1.785-1.511 1.785-.838 0-1.515-.586-1.515-1.785H4.759c-.032-.13-.073-.256-.097-.388h4.87v-.754a.58.58 0 0 0-.579-.579h-.951c-.126-.495-.229-2.23.769-3.365l-.202-.247c-.727.696-1.523 2.322-1.679 3.609H4.563c.098-3.584 3.037-6.472 6.644-6.472 1.705 0 3.258.65 4.436 1.71a6.61 6.61 0 0 1 2.205 4.765h-2.614c-.125-.495-.224-2.23.77-3.365l-.202-.243c-.728.696-1.523 2.322-1.68 3.608h-.981a.58.58 0 0 0-.579.579v.754h5.19q-.034.196-.081.388" style="fill: #000000;"/><path stroke-width="0" d="M12.25 6.117C11.08 7.232 9.897 9.44 9.897 11.435c0 .791.495 1.435 1.158 1.435.73.004 1.56-1.112.89-2.383-.388-.72-.967-2.174.62-3.99z" style="fill: #000000;"/></svg>
