
<svg xmlns="http://www.w3.org/2000/svg" viewBox="0 0 32 32"><path d="M29.81 17.73L26.4 8.01H18V3h-4v5.01H5.61L2.2 17.75c-.18.5-.25 1.04-.15 1.56a4.52 4.52 0 0 0 4.44 3.63c2.09 0 3.85-1.41 4.37-3.34a3.1 3.1 0 0 0-.09-1.88L8.05 10h2.94c1.66 0 3 1.34 3 3v14H9v2h14v-1.99h-5v-14c0-1.66 1.35-3 3-3h2.95l-2.72 7.76c-.17.5-.25 1.04-.15 1.56a4.52 4.52 0 0 0 4.44 3.63c2.09 0 3.85-1.41 4.37-3.34.17-.63.13-1.29-.08-1.89zm-20.74.69H3.9a.49.49 0 0 1-.46-.65L6.48 9.1l3.04 8.67a.48.48 0 0 1-.45.65zm19.04 0h-5.17a.49.49 0 0 1-.46-.65l3.04-8.68 3.04 8.68c.12.32-.11.65-.45.65z" style="fill: #000000;"/></svg>
