
<svg xmlns="http://www.w3.org/2000/svg" viewBox="0 0 32 32"><path d="M27.93 20.38c-.59-1.4-1.41-2.88-2.48-4.4 1.02-1.47 5.64-8.42 2.38-11.83-.69-.72-1.69-1.07-2.88-1.12a2.565 2.565 0 0 0-2.06-1.05c-1.24 0-2.28.89-2.52 2.07-.02.01-.03.01-.04.02-1.4.61-2.87 1.44-4.35 2.47C14.51 5.52 7.56.89 4.14 4.15c-.73.7-1.08 1.7-1.12 2.9A2.57 2.57 0 0 0 1.99 9.1c0 1.24.89 2.28 2.06 2.52.43 1.06 1.43 2.93 2.47 4.36C3 21.01 1.93 25.66 4.13 27.86c.72.72 1.72 1.09 2.93 1.12.47.62 1.21 1.03 2.04 1.03 1.25 0 2.29-.89 2.52-2.08 1.41-.61 2.88-1.45 4.37-2.48 1.48 1.03 8.53 5.7 11.86 2.4.73-.72 1.09-1.72 1.13-2.91a2.57 2.57 0 0 0 1.03-2.05c0-1.24-.9-2.28-2.08-2.51zM22.9 3.2c.75 0 1.36.61 1.36 1.35S23.65 5.9 22.9 5.9a1.35 1.35 0 0 1 0-2.7zm-2.09 2.84a2.59 2.59 0 0 0 2.09 1.09c1.24 0 2.28-.89 2.52-2.07.42.08.76.25 1.01.5 1.32 1.26-.44 4.79-2.82 8.02-.86-1.23-4.45-4.72-5.93-5.78 1.1-.74 2.15-1.32 3.13-1.76zM4.56 10.46c-.75 0-1.35-.61-1.35-1.35s.61-1.35 1.35-1.35 1.35.59 1.35 1.34-.61 1.36-1.35 1.36zm1.95.29c.38-.45.61-1.02.61-1.65 0-1.22-.86-2.25-2.01-2.5.02-.28.21-.85.43-1.05 1.74-1.55 5.95.38 8.76 2.24-1.17.93-2.34 1.96-3.46 3.08-.89.9-1.72 1.8-2.47 2.7a27.8 27.8 0 0 1-1.86-2.82zM9.1 28.8a1.35 1.35 0 1 1 1.35-1.35c.01.74-.6 1.35-1.35 1.35zm1.63-3.32c-.45-.37-1.01-.6-1.63-.6-1.23 0-2.25.86-2.5 2.01-.38 0-.78-.15-1.07-.44-1.25-1.23-.46-4.7 2.25-8.78.85 1.33 4.76 5.22 5.79 5.93-.98.73-1.93 1.36-2.84 1.88zm-1.11-10.3c.78-.96 1.66-1.93 2.63-2.9 1.26-1.26 2.51-2.35 3.74-3.28 2 1.44 5.25 4.72 6.37 6.19-1.8 2.3-4.87 5.3-6.37 6.5-1.44-1.13-4.85-4.58-6.37-6.51zm16.63 11.44c-1.38.95-4.53-.55-7.85-3.01 1.19-.89 4.85-4.44 5.79-5.93.73 1.1 1.31 2.16 1.76 3.14a2.566 2.566 0 0 0 .99 4.61c-.13.62-.4.99-.69 1.19zm1.19-2.37a1.35 1.35 0 0 1 0-2.7c.75 0 1.36.61 1.36 1.35 0 .75-.61 1.35-1.36 1.35zM16.02 13.9c-1.17 0-2.11.95-2.11 2.11s.95 2.11 2.11 2.11 2.11-.95 2.11-2.11-.95-2.11-2.11-2.11z" style="fill: #000000;"/></svg>
