
<svg xmlns="http://www.w3.org/2000/svg" viewBox="0 0 32 32"><path d="M20.08 3.17c-1.61 0-3.18.44-4.55 1.28a8.784 8.784 0 0 0-3.22 3.46 8.746 8.746 0 0 0-.94 4.63c.12 1.6.68 3.14 1.61 4.44.28.41.28.76-.09 1.03-1.89 1.35-3.28.12-5.31 2.15l-4.4 4.42 4.24 4.24 4.44-4.45c2.04-2.04.76-3.39 2.1-5.29.28-.36.62-.38 1.03-.09 1.12.8 2.41 1.32 3.77 1.53 1.36.21 2.75.09 4.05-.34a8.766 8.766 0 0 0 3.46-2.14c.97-.98 1.69-2.17 2.11-3.48.42-1.31.53-2.7.31-4.06a8.792 8.792 0 0 0-1.56-3.76 8.684 8.684 0 0 0-3.1-2.64 8.786 8.786 0 0 0-3.96-.95l.01.02zm0 15.49a6.764 6.764 0 0 1-6.25-4.17 6.675 6.675 0 0 1-.38-3.9c.26-1.31.9-2.51 1.85-3.46.95-.94 2.15-1.59 3.46-1.85a6.72 6.72 0 0 1 3.91.39 6.764 6.764 0 0 1 4.17 6.24c0 1.79-.71 3.51-1.98 4.77a6.802 6.802 0 0 1-4.78 1.98z" style="fill: #000000;"/></svg>
