
<svg xmlns="http://www.w3.org/2000/svg" viewBox="0 0 32 32"><path d="M13.89 16.92c-1.02-.57-2.35-1.09-4.05-1.37-.12.28-.1.24-.22.52 1.73 1.36 2.98 2.99 3.83 5.21h1.9c1.78-4.91 4.87-7.93 7.05-10.08l-.3-.49c-4.5 1.67-6.72 4.37-8.21 6.21zM16.62 2h-1.24C14 4.74 9.12 7 4.59 7v9.07C4.59 19.3 6 22 8.74 24.24L15.38 30h1.24l6.64-5.76C26 22 27.41 19.3 27.41 16.07V7C22.88 7 18 4.74 16.62 2zm8.82 14.07c0 2.59-1.12 4.76-3.42 6.64L16 27.93l-6.02-5.22c-2.3-1.88-3.42-4.05-3.42-6.64v-5.16c0-1.15.79-2.16 1.97-2.42 4.02-.87 6.6-2.95 7.47-3.98.86 1.03 3.45 3.11 7.47 3.98 1.18.25 1.97 1.26 1.97 2.42v5.16z" style="fill: #000000;"/></svg>
