
<svg xmlns="http://www.w3.org/2000/svg" viewBox="0 0 32 32"><path d="M25 24.49c-1.1 0-2 .9-2 2s.9 2 2 2 2-.9 2-2-.9-2-2-2zm-14 0c-1.1 0-2 .9-2 2s.9 2 2 2 2-.9 2-2-.9-2-2-2zm19-17H9.32l-.13-1.16a3.154 3.154 0 0 0-3.14-2.82H2v1.97h4.05c.61 0 1.12.46 1.19 1.07l1.57 14.12a3.163 3.163 0 0 0 3.15 2.82H27v-1.97H11.95a1.2 1.2 0 0 1-1.19-1.07l-.11-.95H28l2-12.01zM13.39 17.52h-2.05c-.5 0-.93-.38-.98-.88l-.68-6.08c-.07-.59.39-1.1.98-1.1h2.73v8.06zm4.68 0H14.6V9.46h3.47v8.06zm4.32 0h-3.11V9.46h3.11v8.06zm4.08-.82a.99.99 0 0 1-.98.83H23.6V9.46h4.07l-1.2 7.24z" style="fill: #000000;"/></svg>
