
<svg xmlns="http://www.w3.org/2000/svg" viewBox="0 0 32 32"><path d="M25.14 13.75l-10.36-.41c-2.85-.09-3.57 3.88-3.57 3.88s2.45.72 3 .95c.82.34 1.18.91 1.07 1.63l-.81 3.44 15.52 4.25v-8.22c0-2.75-1.57-5.37-4.85-5.52zm3.35 11.77l-12.23-3.35.49-2.09c.33-1.41-.43-2.73-1.96-3.29-.43-.16-1.13-.4-1.66-.56.18-.45.52-1.02 1.13-1.31.24-.11.51-.15.77-.14l10.08.47c2.33 0 3.39 2.08 3.39 4.01v6.26zM7.98 12.14l-1.42 1.9c-.25.33-.58 1.45.32 2.17l.44.33c.95.55 1.87.09 2.17-.32l1.42-1.9c.25-.33.62-1.35-.32-2.17l-.44-.33a1.56 1.56 0 0 0-2.17.32zM2.01 30.01h1.9c.03-2.11.2-12.99.2-12.99 0-4.53 1.38-6.43 4.55-7.52l7.07-2.16c2.12-.69 3.66-2.95 3.62-5.34h-2.4c0 1.31-.86 2.7-1.94 3.05L7.92 7.22c-4.25 1.46-5.91 4.21-5.91 9.8v12.99zm20-20.79l-10.21.88.08 1.52 9.95-.4 8.18 1.75v-2.05l-8-1.7zm-11.87 9.8c-.36.14-.63.14-1.07-.3-.47-.47-2.44-.91-3.3.59-.83 1.42-.52 2.69.53 3.95.27.32.27 1.15.25 1.57-.01.15-.16 5.19-.16 5.19h1.5s.15-5.02.16-5.13c.03-.69.08-1.98-.74-2.74-1.43-1.74.01-3.02.79-2.29.85.79 1.62.94 2.6.55 1.35-.55 1.88 1.33.13 2.63-.72.54-.65 1.61-.66 2.38 0 .13-.08 4.59-.08 4.59h1.5s.05-4.38.05-4.6c0-.39-.02-1.12.23-1.31 1.82-1.52 1.51-3.33 1.11-4-.43-.75-1.5-1.6-2.84-1.08zm5.24 5.96l-1.05-.17-.52 5.2h4.51v-.39c-.07-1.04-.32-4.22-2.94-4.64z" style="fill: #000000;"/></svg>
