
<svg xmlns="http://www.w3.org/2000/svg" viewBox="0 0 32 32"><path stroke-width="0" d="M27.795 10.993s-1.88 1.448-1.88 2.635v1.635a.4.4 0 0 1-.463.326.42.42 0 0 1-.334-.415V8.526s-.096-3.7-.296-4.778c-1.029-.012-.813-.012-1.842-.012-.217 1.092-.293 3.203-.293 4.868 0 1.596-.003.83.007 3.952a.39.39 0 0 1-.43.243.42.42 0 0 1-.323-.345c-.003-1.405-.008-3.662-.008-5.551 0-1.678-.064-3.762-.267-4.855-1.03 0-.813 0-1.843-.013-.217 1.093-.292 3.203-.292 4.868 0 1.832.004 3.902.008 5.293v.277a.4.4 0 0 1-.464.326.42.42 0 0 1-.33-.402l-.003-.83V8.527h-.005c-.002-1.664-.066-3.7-.266-4.778-1.03-.012-.814-.012-1.843-.012-.216 1.092-.292 3.203-.292 4.868 0 2.514.008 4.105.011 4.625q.001.021-.005.041a.386.386 0 0 1-.455.326.4.4 0 0 1-.253-.196c-.011-.374-.035-1.062-.07-1.809v-.42c0-1.677-.064-3.762-.267-4.856-1.03-.012-.814-.012-1.843-.012-.218 1.093-.293 3.203-.293 4.868l.001 1.588h-.001v5.03c-.032.044-.06.093-.104.12-.022.014-.05.015-.073.023a.4.4 0 0 1-.197.034.42.42 0 0 1-.322-.345l-.003-1.195c-.002-1.315-.005-2.94-.005-4.356 0-.63-.009-1.316-.03-1.985a33 33 0 0 0-.11-1.886c-.034-.376-.076-.71-.127-.984h-.55l-.333-.001-.196-.002-.764-.01c-.216 1.093-.292 3.203-.292 4.868 0 1.832.004 3.902.008 5.293v.277a.4.4 0 0 1-.127.22q-.01.013-.021.023a.4.4 0 0 1-.22.08c-.031.003-.062.009-.096.003a.42.42 0 0 1-.33-.402l-.003-.83v-3.041H9.26c-.002-1.664-.066-3.7-.266-4.778-1.03-.012-.814-.012-1.843-.012-.135.683-.215 1.763-.257 2.884-.025.672-.035 1.36-.035 1.984a1026 1026 0 0 0 .011 4.625q.001.021-.005.041a.38.38 0 0 1-.12.221q-.01.012-.021.023a.4.4 0 0 1-.218.08c-.032.002-.063.008-.096.002a.41.41 0 0 1-.32-.325 533 533 0 0 1-.003-2.1c0-1.677-.064-3.762-.267-4.856-1.03-.012-.814-.012-1.843-.012-.218 1.093-.293 3.203-.293 4.868l.001 1.588h-.001v5.718c0 .655.101 1.287.288 1.881a6.37 6.37 0 0 0 6.07 4.44h2.204c3.158 0 5.906-2.226 6.477-5.222.261.032.525.055.795.055h2.204c3.534 0 6.561-2.784 6.592-6.318v-7.104zM12.247 29.127h-2.204c-3.042 0-5.519-2.46-5.52-5.483v-4.88h.004l-.003-.842c-.002-.415-.002-.93-.002-1.584 0-1.302.048-2.919.176-4.03.143 0 .25.002.393.003.101.953.16 2.387.16 4.027 0 .955 0 1.627.002 2.103v.076l.015.074a1.24 1.24 0 0 0 1.216 1.016c.59 0 1.084-.41 1.2-.983l.025-.086v-.147c-.004-.52-.012-2.109-.012-4.62 0-1.301.048-2.917.176-4.03.142 0 .249.001.392.003.1.938.157 2.344.158 3.95l.005.716v2.328l.004.84c.01.587.417 1.083 1.015 1.211q.114.02.226.02c.594 0 1.104-.427 1.213-1.016l.015-.076v-.357c-.005-1.39-.009-3.458-.009-5.29 0-1.298.048-2.91.175-4.021.143.002.25.003.394.003.1.953.158 2.383.158 4.018 0 1.89.005 4.147.009 5.553v.062l.01.061c.076.509.465.926 1.002 1.044q.108.02.216.02c.11 0 .216-.022.32-.05.127 2.81 2.097 5.134 4.727 5.823-.49 2.577-2.844 4.544-5.656 4.544" style="fill: #000000;"/></svg>
