
<svg xmlns="http://www.w3.org/2000/svg" viewBox="0 0 32 32"><path d="M2 28.01v2h28v-2H2zm16.34-14.54c-1.02-1.89-2.54-5.71 1.63-10.48l-.83-1c-3.07 2.93-6.18 8.73-6.18 13.97 0 2.08 1.3 3.77 3.04 3.77 1.92.01 4.1-2.92 2.34-6.26zm1.61 1.51H30v-3.5h-3.02c-.33-1.3-.59-5.86 2.02-8.84L28.47 2c-1.91 1.83-4 6.1-4.41 9.48h-2.58c-.84 0-1.52.68-1.52 1.52v1.98zm-8.91 3.3c.67 2.1 2.63 3.62 4.94 3.62 2.31 0 4.27-1.52 4.94-3.62.2-.64.81-1.07 1.49-1.07H30V16H19.95c0 3.43-2.01 4.69-3.97 4.69-2.2 0-3.98-1.54-3.98-4.69H2v1.21h7.55c.67 0 1.28.42 1.49 1.07zM2 14.98h10V13c0-.84-.68-1.52-1.52-1.52h-2.5c-.33-1.3-.6-5.86 2.02-8.84l-.53-.65c-1.91 1.83-4 6.1-4.41 9.48H2v3.51z" style="fill: #000000;"/></svg>
