
<svg xmlns="http://www.w3.org/2000/svg" viewBox="0 0 32 32"><path stroke-width="0" d="M29.241 19.557H27.92a.91.91 0 0 0-.912.912v1.707h-6.25l.078-1.586a1.17 1.17 0 0 0-.224-.741c1.014-.497 2.183-1.311 2.236-2.446.075-1.668-3.178-2.903-4.174-3.188.421-.468.686-1.08.686-1.755a2.643 2.643 0 0 0-2.636-2.635 2.643 2.643 0 0 0-2.635 2.635c0 .672.262 1.28.68 1.747l.025.031-.034.017.008-.048c-.996.285-4.25 1.528-4.175 3.196.056 1.215 1.39 2.06 2.447 2.544-.11.188-.17.408-.159.643l.078 1.586H4.993v-7.545a.91.91 0 0 0-.912-.911H2.76a.91.91 0 0 0-.911.911v12.507h3.145v-1.467h8.136l.12 2.463h1.687l.096-2.463h3.65l.096 2.463h1.687l.12-2.463h6.422v1.467h3.145v-6.67a.91.91 0 0 0-.91-.91m-10.227-3.763c.853.238 1.915.679 1.915 1.4 0 .5-.876 1.015-1.631 1.366l-.29-2.751.01.002zm-3.608-3.334q.002-.274.104-.513a1.316 1.316 0 0 1 2.53.513 1.317 1.317 0 1 1-2.634 0m-2.897 4.734c0-.721 1.063-1.162 1.916-1.4l-.004.016.018-.001-.29 2.755c-.757-.352-1.64-.87-1.64-1.37m2.68 4.44h3.336l.02.542H15.17zM4.994 24.64H3.962v1.468H2.879V14.75h1.083v8.456h9.046l.07 1.433zm10.08 0 .056-1.433h3.457l.056 1.433zm14.049 1.468h-1.084V24.64h-7.402l.07-1.433h7.332v-2.619h1.084z" style="fill: #000000;"/><path stroke-width="0" d="M22.028 4.669H22.564V5.205H22.028z" style="fill: #000000;"/><path stroke-width="0" d="M22.028 10.027H22.564V10.562999999999999H22.028z" style="fill: #000000;"/><path stroke-width="0" d="M24.707 7.348H25.243000000000002V7.884H24.707z" style="fill: #000000;"/><path stroke-width="0" d="M24.340106 9.364972 22.826679 7.605084 23.788349 6.415753 23.504352 6.131818 22.020404 7.33183 22.020404 7.897077 24.056171 9.648908 24.340106 9.364972z" style="fill: #000000;"/><path stroke-width="0" d="M22.296 11.366a3.754 3.754 0 0 0 3.75-3.75c0-2.068-1.682-3.75-3.75-3.75s-3.75 1.682-3.75 3.75a3.754 3.754 0 0 0 3.75 3.75m0-6.965a3.217 3.217 0 0 1 3.215 3.215 3.217 3.217 0 0 1-3.215 3.214 3.217 3.217 0 0 1-3.214-3.214A3.217 3.217 0 0 1 22.296 4.4" style="fill: #000000;"/><path stroke-width="0" d="M19.35 7.348H19.886000000000003V7.884H19.35z" style="fill: #000000;"/></svg>
