
<svg xmlns="http://www.w3.org/2000/svg" viewBox="0 0 32 32"><path d="M7.43 30h11.56v-1.3l-11.56-.56V30zm.72-19c2.15 0 3.9-1.75 3.9-3.9s-1.75-3.9-3.9-3.9-3.9 1.75-3.9 3.9S6 11 8.15 11zm0-5.84c1.07 0 1.94.87 1.94 1.94s-.87 1.94-1.94 1.94c-1.07 0-1.94-.87-1.94-1.94s.87-1.94 1.94-1.94zM28 20.25l2-3.18s-2.72-2.69-5.25-2.76c-2.42-.07-6.23 2.31-6.91 2.76l-2.98-3.88c.9-.48 3.11-1.99 3.26-5.38.18-3.96-.88-5.81-.88-5.81h-3.95s2.56 2.09 2.28 5.69c-.18 2.34-.28 3.31-6.54 4.58-1.18.24-7.17 2.03-7.03 4.79.16 3.09 6.37 4.63 6.37 4.63L9.9 19.5s-4.62-1.42-4.62-2.76c0-1.31 2.57-2.02 4.05-2.32L11.7 21c2.06.89 7.13 2.33 9.01 3.52 2.51 1.59 2.7 5.48 2.7 5.48h4.39s-1.8-6-5.88-8.15c-1.28-.68-2.9-1.28-4.11-1.69 4.8-6.14 10.19.09 10.19.09zm-16 5.68l6.99 1.36.05-1.29-6.8-1.93-.24 1.86z" style="fill: #000000;"/></svg>
