
<svg xmlns="http://www.w3.org/2000/svg" viewBox="0 0 32 32"><path stroke-width="0" d="M12.25 6.751a.75.75 0 1 0-1.5-.003.75.75 0 0 0 1.5.003M13.143 8.751a.75.75 0 1 0-1.5 0 .75.75 0 1 0 1.5 0M14.423 10.749a.75.75 0 1 0-1.5.001.75.75 0 0 0 1.5-.001M14.086 12.749a.75.75 0 1 0 1.502 0 .75.75 0 0 0-1.502 0M17.914 12.749a.75.75 0 1 0-1.5.001.75.75 0 0 0 1.5-.001M15.999 14a.75.75 0 1 0 0 1.498A.75.75 0 0 0 16 14M15.999 16a.75.75 0 1 0 0 1.498A.75.75 0 0 0 16 16M16.001 11.5a.75.75 0 0 0 0-1.5.75.75 0 1 0 0 1.5M18.328 10a.75.75 0 1 0-.001 1.5.75.75 0 0 0 .001-1.5M14.048 8.751a.75.75 0 1 0 1.502 0 .75.75 0 0 0-1.502 0M16.452 8.751a.75.75 0 1 0 1.502 0 .75.75 0 0 0-1.502 0M19.606 9.501a.751.751 0 0 0 0-1.502.75.75 0 0 0 0 1.502M13.75 7.5a.75.75 0 1 0 .003-1.5.75.75 0 0 0-.003 1.5M16.001 7.5a.75.75 0 1 0 0-1.498.75.75 0 0 0 0 1.498M18.249 7.5a.75.75 0 1 0 .003-1.5.75.75 0 0 0-.003 1.5M20.499 7.5a.75.75 0 1 0 .003-1.5.75.75 0 0 0-.003 1.5M19.375 24.5a.75.75 0 1 0-.003 1.5.75.75 0 0 0 .003-1.5M19.155 23.249a.75.75 0 1 0-1.498 0 .75.75 0 0 0 1.498 0M16.75 23.249a.75.75 0 1 0-1.498 0 .75.75 0 0 0 1.498 0M14.345 23.249a.75.75 0 1 0-1.498 0 .75.75 0 0 0 1.498 0M17.126 24.5a.75.75 0 1 0-.003 1.5.75.75 0 0 0 .003-1.5M14.876 24.5a.75.75 0 1 0-.003 1.5.75.75 0 0 0 .003-1.5M12.626 24.5a.75.75 0 1 0-.003 1.5.75.75 0 0 0 .003-1.5" style="fill: #000000;"/><path stroke-width="0" d="M24 28h-.07l.058-2.975c.107-1.296-.582-2.696-1.353-3.638-2.07-2.303-3.779-5.124-1.985-8.131.765-1.416 2.262-2.643 2.966-4.275.642-1.585.288-3.308.295-4.981H24a2 2 0 0 0 2-2H6a2 2 0 0 0 2 2h.089c.007 1.673-.345 3.396.293 4.981.7 1.633 2.187 2.858 2.949 4.275.987 1.733.992 3.755-.012 5.479-.768 1.407-2.251 2.648-2.947 4.282C7.8 24.178 8.056 26.505 8.08 28H8a2 2 0 0 0-2 2h20a2 2 0 0 0-2-2M9.321 28l.058-2.975c.03-2.274 2.197-3.41 3.387-5.245 2.673-3.941.582-7.396-2.265-10.194C8.983 8.02 9.37 5.986 9.327 4h13.346q-.015 1.488-.053 2.975c-.034 2.266-2.211 3.423-3.406 5.253-1.618 2.134-1.614 5.413-.006 7.551 1.198 1.835 3.376 2.97 3.407 5.245l.058 2.975H9.322Z" style="fill: #000000;"/></svg>
