
<svg xmlns="http://www.w3.org/2000/svg" viewBox="0 0 32 32"><path stroke-width="0" d="m25.345 5.924-4.85 2.8v5.022l-3.86 2.227-4.35-2.512-4.851 2.8v4.124l-2.892 1.916.553.834 2.339-1.55v.277l.238.138-2.402 1.59.553.835 2.818-1.866 3.644 2.104 4.35-2.512 4.352 2.512 4.85-2.8V16.84l4.358-2.515V8.725zm-9.21 15.361-3.85 2.223-3.851-2.223v-4.447l3.851-2.223 3.85 2.223zm8.703 0-3.85 2.223-3.852-2.223v-4.447l3.851-2.223 3.85 2.223zm4.357-7.536-3.85 2.223-3.85-2.223V9.302l3.85-2.223 3.85 2.223zM3.297 23.092c-.82 0-1.492.671-1.492 1.492s.671 1.492 1.492 1.492 1.492-.672 1.492-1.492-.672-1.492-1.492-1.492m0 2.238a.745.745 0 1 1 0-1.492.745.745 0 1 1 0 1.492" style="fill: #000000;"/></svg>
