
<svg xmlns="http://www.w3.org/2000/svg" viewBox="0 0 32 32"><path d="M19.87 18.74l-.84.72c1.01 1.63 1.01 3.56.01 5.19l.84.71c1.87-1.63 1.86-4.98-.01-6.62zm5.63-4.62l-.99.92a11.48 11.48 0 0 1 .01 14.02l.99.92c4.65-3.93 4.64-11.93-.01-15.86zm-2.94 2.28l-.98.9c2.24 2.71 2.24 6.81.01 9.53l.99.9c3.11-2.95 3.1-8.41-.02-11.33zm-5.11 1.99c-.11 1.13-1.36 1.74-2.21 2.25-.02.79-.03 2.09-.03 2.68.24 3.46-2.23 4.61-5.03 3.88-.26-.05-.87-.23-.91-.12-.6.5-1.09 1.96-1.27 2.9H5.4c.23-1.58 1.5-6.54 5.1-5.33.74.16 1.62.33 1.9.08.23-.17.27-.91.27-1.61 0-.67.01-1.86.03-2.7-.02-1.17 1.13-1.97 2.11-2.51-.9-1.22-2.43-2.84-2.2-5.46.1-1.17.02-2.51-1.09-4.51-.87-1.76-5.02-3.72-8.5-3.38V2.03c3.94-.19 8.52 1.21 10.73 4.68.85 1.33 1.24 2.96 1.37 4.52.07.77-.04 1.55.07 2.24.12.79.47 1.25.99 2.02.29.43.64.86 1.02 1.41.31.48.28 1.01.25 1.49z" style="fill: #000000;"/></svg>
