
<svg xmlns="http://www.w3.org/2000/svg" viewBox="0 0 32 32"><path d="M26.45 13.7c.22-1.2-.96-1.77-1.6-1.65l-6.74.96c-.11.02-.22.03-.32-.03l-.9-.77a.72.72 0 0 0-.58-.17l-.71.09c-.28.04-.52.23-.62.5l-.53 1.44s-1.65-.49-2.02-.55c-.39-.06-1.15.11-1.23 1.03-.01.11-.22 1.8 0 2.38.43 1.15 1.86 1.78 2.02 1.85.21.09.45.08.65-.03l2.16-1.18c.24-.13.62.03.71.28l.51 1.17c.25.56.8.94 1.39.96 0 0 5.78.38 5.8.38 1.42.06 1.88-1.34 1.8-1.96l-.21-1.68a4.3 4.3 0 0 1 .09-1.6l.33-1.42zm-1.92 3.21l.21 1.63c.03.15-.13.34-.29.32l-5.39-.28c-.31 0-.41-.12-.49-.29l-.49-1.11c-.35-.61-1.17-1.1-1.98-1.1-.7-.04-2.6 1.17-2.6 1.17-1.29-.71-.95-1.55-.88-1.93l1.66.24c.65.06 1.27-.35 1.64-1.08.02-.03.3-.85.3-.85s.78.65.84.68c.39.19.83.26 1.26.2l6.62-.98-.3 1.23c-.16.7-.2 1.43-.11 2.15zM6.05 2.02h-1.7c0 1.27.48 3.09 1.03 5.2.71 2.71 1.72 5.78 1.58 7.99-.12 2-1.95 14.8-1.95 14.8H6.8s2.62-12.55 2.76-14.65c.16-2.6-1.5-5.86-2.26-8.75-.49-1.86-1.1-3.53-1.25-4.59zm7.29 9.49c.22.04.45-.04.62-.19l1.8-1.67c.2-.19.6-.13.76.1l.78 1c.38.48 1.01.71 1.58.59 0 0 5.7-1.05 5.71-1.06 1.39-.29 1.59-1.5 1.26-2.34l-.62-1.58c-.2-.5-.3-1.03-.31-1.58l-.02-1.45c.01-1.21-1.28-1.51-1.96-1.21l-6.29 2.59c-.12.04-.22.11-.45-.01l-.93-.46a.783.783 0 0 0-.6-.03l-.67.26c-.27.1-.45.35-.48.64l-.16 1.52s-1.96.2-2.13.22c-.39.04-.97.37-.88 1.33.18 1.62.49 2.84 2.99 3.33zM11.91 8.3l1.67-.17c.64-.1 1.14-.65 1.33-1.46.01-.03.08-.9.08-.9s.92.43.98.45c.39.14.87.04 1.27-.12l6.18-2.58.01 1.27c.01.73.14 1.44.41 2.11l.6 1.53c.06.14-.04.36-.2.38l-5.57 1.03c-.1.02-.17 0-.23-.08l-.79-1c-.43-.57-1.28-.89-2.19-.58-.91.31-2.23 1.77-2.23 1.77-1.12 0-1.39-1.3-1.32-1.65zm12.9 13.56l-6.8-.25c-.11 0-.22-.01-.31-.09l-.75-.91a.747.747 0 0 0-.54-.27l-.72-.04a.743.743 0 0 0-.7.38L14.22 22s-1.87-.63-2.03-.68c-.37-.12-1.12-.05-1.35.85-.03.1-.44 1.46-.33 2.07.21 1.2 1.51 2.08 1.66 2.18.19.12.43.16.65.08l2.33-.77c.26-.09.6.14.65.4l.29 1.24c.14.6.62 1.07 1.19 1.19 0 0 5.62 1.4 5.64 1.41 1.39.32 2.09-.98 2.12-1.61l.09-1.69c.03-.54.16-1.06.38-1.56l.59-1.33c.42-1.15-.65-1.92-1.29-1.92zm-.68 2.63c-.29.66-.46 1.37-.5 2.09l-.09 1.64c0 .16-.18.31-.34.27l-5.58-1.4c-.04-.01-.07-.04-.07-.07l-.32-1.32c-.24-.66-.96-1.29-1.75-1.44-.68-.16-2.76.69-2.76.69-1.15-.93-.65-1.49-.52-2.05l1.59.54c.62.17 1.31-.12 1.81-.77.02-.03.45-.78.45-.78s.66.77.7.82c.3.33.77.4 1.21.42l6.69.22-.52 1.14z" style="fill: #000000;"/></svg>
