
<svg xmlns="http://www.w3.org/2000/svg" viewBox="0 0 32 32"><path stroke-width="0" d="m15.012 3.905.523-.095c.059-.012.125.046.127.106l.024.253a.55.55 0 0 0 .414.498c.352.09.824.318 1.15.06.247-.195.097-.61.172-.881.04-.147.126-.28.157-.428.054-.265-.145-.434-.383-.49-.252-.059-.56-.128-.817-.085-.067.011-.134.031-.2.02-.086-.015-.153-.077-.222-.129-.094-.07-.217-.12-.303-.014l-.206.26-.414-.208c-.076-.039-.22-.046-.315.14-.156.317-.241.575.158.956a.16.16 0 0 0 .135.037M13.977 6.836l.566-.127c.063-.015.138.045.143.11l.02.145a.514.514 0 0 0 .406.579q.42.085.849.12c.235.02.503.047.647-.182.08-.127.1-.282.11-.432.016-.262.051-.453.164-.693.073-.155.129-.343.044-.493a.45.45 0 0 0-.19-.168c-.3-.158-.67-.168-.993-.27-.177-.055-.317.004-.462.106-.116.081-.089.08-.201.023-.132-.067-.332-.206-.455-.037l-.213.291-.461-.208c-.084-.038-.242-.04-.337.167-.156.352-.238.638.214 1.034.04.035.097.046.15.035M13.012 10.1a.21.21 0 0 0 .18.001l.618-.294c.069-.033.17.016.193.09l.053.141a.7.7 0 0 0 .06.157l.011.033c.05.13.158.225.283.266a.7.7 0 0 0 .432.08c.271-.038.59-.09.934-.16a.68.68 0 0 0 .394-.226c.12-.157.057-.358.034-.536-.029-.23-.015-.463.048-.687.022-.077.05-.157.032-.235-.074-.325-.665-.38-.92-.415-.233-.033-.473-.044-.7.032-.119.04-.226.178-.36.144-.095-.024-.137-.116-.215-.166-.105-.068-.196-.046-.316-.04a.21.21 0 0 0-.18.13l-.17.39-.584-.119c-.107-.021-.288.018-.344.28-.087.446-.106.796.517 1.134M13.926 13.562c.052-.056.164-.046.213.015l.092.105a.676.676 0 0 0 .81.304l1.39-.482c.211-.073.415-.273.424-.506v-.038c-.009-.178-.125-.337-.212-.496a1.7 1.7 0 0 1-.202-.653c-.028-.27-.037-.519-.35-.59-.23-.053-.48.01-.708.047q-.402.066-.806.11c-.29.031-.553.263-.564.564-.002.044.001.088-.008.13-.04.196-.207.035-.307-.005a.22.22 0 0 0-.167.002l-.182.083a.21.21 0 0 0-.123.186l-.018.425-.589.098c-.107.017-.263.119-.222.384.078.447.185.781.888.875a.21.21 0 0 0 .169-.063zM14.476 17.182l.451-.513c.05-.058.163-.053.214.006l.042.045c.065.109.155.195.26.256.083.06.18.095.278.093.114.013.23.004.345-.039l1.73-.646c.218-.083.43-.276.427-.507a.4.4 0 0 0-.038-.163c-.048-.104-.125-.192-.194-.284a2 2 0 0 1-.287-.555c-.054-.165-.05-.372-.157-.516a.36.36 0 0 0-.223-.122c-.354-.072-.722.101-1.04.239a7 7 0 0 1-.989.318.74.74 0 0 0-.372.231c-.121.14-.089.232-.283.16a.22.22 0 0 0-.168.008l-.178.09a.21.21 0 0 0-.115.191l-.001.426-.584.12c-.107.023-.259.13-.207.394.096.444.216.773.922.838a.21.21 0 0 0 .167-.07M16.825 17.691c-.181.052-.372.082-.535.183-.054.033-.105.074-.165.095-.172.06-.275-.17-.44-.114l-.16.055a.18.18 0 0 0-.12.147l-.051.357-.505.033c-.092.006-.232.079-.22.306.029.384.091.674.676.812a.18.18 0 0 0 .148-.039l.44-.378c.049-.043.143-.025.178.03l.067.093a.67.67 0 0 0 .762.366l2.003-.48c.225-.054.475-.265.49-.51a.4.4 0 0 0-.004-.074c-.017-.118-.088-.226-.145-.333a1.7 1.7 0 0 1-.188-.567c-.015-.1-.022-.201-.059-.295-.09-.226-.376-.269-.59-.23-.328.059-.654.23-.968.343q-.304.109-.614.2M19.568 20.864c.024-.112.057-.226.033-.338-.045-.2-.27-.317-.476-.317s-.4.084-.596.149c-.514.17-1.061.206-1.602.235a.6.6 0 0 1-.205-.013c-.132-.04-.166-.164-.272-.225-.064-.038-.151-.022-.225-.024a.16.16 0 0 0-.142.085l-.149.28-.425-.123c-.077-.023-.214-.004-.272.187-.091.325-.127.583.313.871.04.025.09.028.134.012l.474-.18c.054-.022.125.02.138.077l.01.034q.011.07.037.131l.025.088a.34.34 0 0 0 .278.238.6.6 0 0 0 .188.058q.589.076 1.178.144c.401.048.826.198 1.227.075.207-.064.305-.181.334-.335a.8.8 0 0 0-.012-.309 2 2 0 0 1 .007-.8M18.725 23.274a1.8 1.8 0 0 0-.446-.101l-1.747-.24a.3.3 0 0 1-.084-.02c-.087-.043-.104-.159-.167-.233-.083-.097-.24-.106-.354-.047a.64.64 0 0 0-.253.282c-.11-.026-.2-.1-.298-.157s-.22-.094-.32-.042c-.15.079-.238.365-.245.524-.01.225.13.416.287.562a.16.16 0 0 0 .135.037l.523-.095c.059-.011.125.046.127.107l.015.158.003.023.008.092c.01.09.056.172.122.23.075.099.178.178.303.224.486.177 1.135.413 1.59.581.205.075.431.043.61-.077a.4.4 0 0 0 .151-.175c.04-.086.053-.184.068-.292.027-.199.089-.403.19-.578.088-.15.184-.273.109-.458a.6.6 0 0 0-.327-.305M16.743 25.693c-.259-.085-.507-.249-.775-.295-.198-.034-.358.035-.526.131-.112.064-.129.102-.232.041-.106-.062-.198-.199-.331-.17-.125.027-.198.188-.266.28l-.362-.163c-.067-.03-.19-.031-.266.131-.122.277-.186.502.17.814a.14.14 0 0 0 .116.027l.445-.1c.05-.011.109.036.113.088l.032.233c.01.066.043.125.088.17a.75.75 0 0 0 .432.399q.123.042.25.069.319.052.623.166c.197.074.4.09.6.011.175-.069.214-.203.258-.377.051-.203.146-.396.277-.56.057-.072.123-.143.141-.233.022-.104-.028-.212-.096-.295-.174-.209-.443-.286-.691-.367M15.933 28.225a2.3 2.3 0 0 0-.446-.134 3.3 3.3 0 0 1-.733-.207.545.545 0 0 0-.738.343c-.345 1.167-.03 2.006.423 2.793h.505c.195-.666.647-1.4 1.254-1.556.29-.075.112-.428.073-.795a.55.55 0 0 0-.338-.444M16.589 2.11l.005.002.949.154a.345.345 0 0 0 .395-.29l.038-.26a.81.81 0 0 0-.29-.736h-1.06a.8.8 0 0 0-.279.497q-.017.119-.038.236a.344.344 0 0 0 .28.398" style="fill: #000000;"/></svg>
