
<svg xmlns="http://www.w3.org/2000/svg" viewBox="0 0 32 32"><path d="M13.33 29.78H2v-2h9.33v-4h9.34v-4H30v2h-7.33v4h-9.34v4zM6.09 4.06c.3-1.28 1.58-2.07 2.86-1.77 1.28.3 2.07 1.58 1.77 2.86a2.377 2.377 0 0 1-2.86 1.77 2.377 2.377 0 0 1-1.77-2.86zm2.03 1.73c.65.15 1.31-.25 1.46-.91a1.211 1.211 0 1 0-2.36-.55c-.15.66.25 1.3.9 1.46zm10.89 12.99L19 20.55l-3.41-.28c-1-.08-1.92-.58-2.53-1.37l-.77-.98c-2.66 2.33-4.68 7.86-4.68 7.86H5s4.01-9.33 4.05-10.32l-.71-3.42-.27.63c-.38.71-1.05 1.11-1.77 1.11H3v-2h3.28l.87-1.89s.69-2.11 2.35-2.11h2.79c3.49.01 5.38 4.11 5.38 4.11l-1.43.81s-1.94-2.85-3.78-2.92h-.35l3.66 7.87 3.24 1.13z" style="fill: #000000;"/></svg>
