
<svg xmlns="http://www.w3.org/2000/svg" viewBox="0 0 32 32"><path d="M14.55 18.48H6.31v1.65h8.24v-1.65zm-8.24 8.24h7.42v-1.65H6.31v1.65zm0-3.29h11.54v-1.65H6.31v1.65zM28.24 7.12l-4.43-4.4c-.48-.48-1.11-.74-1.78-.74H10.85v4.96H3.01v23.08h18.13v-4.96h7.84V8.91c.01-.68-.26-1.31-.74-1.79zM19.3 28.37H4.86V8.79h8.39c.44 0 .79.35.79.79v4.45h4.47c.44 0 .79.35.79.79v13.55zm7.84-5.16h-5.99v-9.33c0-.68-.26-1.31-.74-1.79l-4.43-4.4c-.48-.48-1.11-.74-1.78-.74h-1.5V3.83h8.39c.44 0 .79.35.79.79v4.45h4.47c.44 0 .79.35.79.79v13.35z" style="fill: #000000;"/></svg>
