
<svg xmlns="http://www.w3.org/2000/svg" viewBox="0 0 32 32"><path d="M27.98 22.82l-4.49-3.81L19 22.83V28H2.01v2h27.96v-2h-1.99v-5.18zM26.48 28h-1.94v-3h-2v3h-2.05v-4.48l3-2.51 3 2.52V28zM6 16.01h2.75l1.29-1.5H6c-3.32-.73-1.93-4.68 0-4.5.24.02 1.84.32 1.84.32.89-6.9 7.51-4.27 7.39-.66h2c0-1.39-.53-2.71-1.45-3.75 2.4-3.36 9.77-1.91 7.53 3.11l1.34 1.49c4.06-1.77 3.83 3.99.45 3.99h-6.86l-1.21 1.5h8.95c4.74 0 5.85-7.79.21-8.19.35-5.27-7.85-8.34-11.98-3.13-1.4-.96-6.37-1.58-8.03 3.33C.74 8.02.54 15.8 6 16.01zm3.65 9.51L16 18.33l-.14-.32h-3.2l2-5.09-.32-.2-6.35 7.19.14.32h3.2l-2 5.09.32.2z" style="fill: #000000;"/></svg>
