
<svg xmlns="http://www.w3.org/2000/svg" viewBox="0 0 32 32"><path d="M25.12 9.59c-2.69 0-4.88 2.19-4.88 4.88s2.19 4.88 4.88 4.88S30 17.17 30 14.48c0-2.7-2.19-4.89-4.88-4.89zm0 7.91c-1.67 0-3.03-1.36-3.03-3.03 0-1.67 1.36-3.03 3.03-3.03s3.03 1.36 3.03 3.03c-.01 1.67-1.36 3.03-3.03 3.03zm-9.27 3.73c-3 4.82-7.98 8.63-13.85 8.79v-2.09c4.83-.09 9.25-3.89 11.33-8.09 2.04-3.88 1.96-9.58-1.44-12.43l-1.31.95 1.03-6.38 6.38 1-1.44 1.04c.67 1.42 1.17 2.9 1.45 4.36.83 4.41.19 9.12-2.15 12.85zM7.91 14.5l3.58 4.48H9.2l-2.44-3.05-2.44 3.05H2.04l3.58-4.48L2 9.98h2.29l2.47 3.09 2.47-3.09h2.29L7.91 14.5zm15.45 11l3.58 4.48h-2.29l-2.44-3.05-2.44 3.05h-2.29l3.58-4.48-3.62-4.52h2.29l2.47 3.09 2.47-3.09h2.29l-3.6 4.52z" style="fill: #000000;"/></svg>
