
<svg xmlns="http://www.w3.org/2000/svg" viewBox="0 0 32 32"><path d="M19.38 22.8c-.68-.07-3.67-.41-3.67-.41l-.02.02a.784.784 0 0 0-.14-.02c-1.22 0-2.32-.4-3.19-1.17-.42-1.33-.6-3.24.4-5.61.01-.02.01-.04.02-.05l-.04-.02h-1.99c-.29.82-.48 1.6-.57 2.33v.07c-.57-.77-1.37-1.56-2.49-2.33l-1.07 1.56c2.41 1.66 2.95 3.34 3.02 4.37-1.81-.14-5-.81-5.61-3.69-.84-3.94 2.98-6.03 3.14-6.12l.42-.22.08-.46c.03-.16.71-3.99 4.18-4.72.64-.13 1.25-.15 1.83-.1l1.48-1.67a7.974 7.974 0 0 0-3.69-.08c-3.97.83-5.24 4.5-5.57 5.81-1.85 1.15-4.56 3.97-3.72 7.96.84 3.97 4.99 5.13 7.78 5.23.41.73 1 1.34 1.76 1.76.78.44 1.7.65 2.68.65.94 0 1.94-.2 2.96-.59.1.01.2.02.29.05 1.19.33 1.52.38 1.57 1.58l.13 2.37h1.98l-.12-4.93c0-.81-.71-1.45-1.83-1.57zm10.42-8.46c-.42-1.18-1.46-1.82-2.2-2.15.04-1.02-.14-2.75-1.54-4.14L24.8 9.48c1.22 1.33.87 3.07.85 3.15l-.2.91.91.22c.37.09 1.4.48 1.66 1.21.45 1.35-1.26 2.87-1.26 2.87-.41-.09-1.3-.33-2.14-.9-1-.68-1.6-1.62-1.79-2.8l-1.55 1.75c1.34 3.18 5.19 3.92 5.19 3.92.11 1.15-.3 2.16-1.45 2.42-1.05.24-1.61 1.22-1.61 2.03l.05 5.03 2.17.02s.12-3.44.19-4.68c.04-.77.45-.86 1.16-1.21 2.12-1.02 1.72-3.74 1.72-4.82 0-.9 1.82-2.24 1.1-4.26zm-16.35-2.86h3.76l-2.35 5.98.38.23 7.46-8.44-.17-.37h-3.76l2.35-5.98-.38-.23-7.46 8.44.17.37z" style="fill: #000000;"/></svg>
