
<svg xmlns="http://www.w3.org/2000/svg" viewBox="0 0 32 32"><path stroke-width="0" d="M23.603 26.232h6.257c.734 0 1.33-.597 1.33-1.33v-2.829c0-.733-.596-1.33-1.33-1.33h-6.257c-.733 0-1.33.597-1.33 1.33v2.828c0 .734.597 1.33 1.33 1.33m-.354-4.159c0-.195.159-.354.354-.354h6.257c.195 0 .354.16.354.354v2.828a.355.355 0 0 1-.354.355h-6.257a.355.355 0 0 1-.354-.355zM23.603 11.257h6.257c.734 0 1.33-.597 1.33-1.33V7.097c0-.733-.596-1.33-1.33-1.33h-6.257c-.733 0-1.33.597-1.33 1.33v2.828c0 .734.597 1.33 1.33 1.33m-.354-4.159c0-.195.159-.354.354-.354h6.257c.195 0 .354.16.354.354v2.828a.355.355 0 0 1-.354.355h-6.257a.355.355 0 0 1-.354-.355zM20.31 22.489H17.5l-1.337-.01a.49.49 0 0 1-.488-.488v-3.516a2.515 2.515 0 0 0 0-4.928v-3.515c0-.272.221-.488.488-.488l1.337-.01h2.808v.518l1.519-1.518-1.519-1.518v.507l-2.808-.007h-1.337a1.5 1.5 0 0 0-1.493 1.497v4.535a2.515 2.515 0 0 0 0 4.927v4.535a1.5 1.5 0 0 0 1.493 1.498H17.5v-.001l2.808-.008v.508l1.519-1.518-1.519-1.518zm-6.913-6.478a1.778 1.778 0 1 1 3.556 0 1.778 1.778 0 0 1-3.556 0" style="fill: #000000;"/><path stroke-width="0" d="M10.488384 15.011001 9.278332 15.011001 9.278332 17.021927 10.488384 17.021927 10.488384 17.529739 12.006634 16.01149 10.488384 14.493179 10.488384 15.011001z" style="fill: #000000;"/><path stroke-width="0" d="M2.14 13.267c-.734 0-1.33.597-1.33 1.33v2.828c0 .734.596 1.33 1.33 1.33h5.808c.734 0 1.33-.596 1.33-1.33v-2.828c0-.733-.596-1.33-1.33-1.33h-4.57m4.57.976c.195 0 .354.16.354.354v2.828a.355.355 0 0 1-.354.355H2.14a.355.355 0 0 1-.354-.355v-2.828c0-.195.159-.354.354-.354z" style="fill: #000000;"/></svg>
