
<svg xmlns="http://www.w3.org/2000/svg" viewBox="0 0 320 320"><path stroke-width="0" d="M167.5 20 172.5 60.098 147.5 60.098 152.5 20 167.5 20 167.5 20z" style="fill: #000000;"/><path stroke-width="0" d="M152.5 300 147.5 259.902 172.5 259.902 167.5 300 152.5 300 152.5 300z" style="fill: #000000;"/><path stroke-width="0" d="M20 152.5 60.098 147.5 60.098 172.5 20 167.5 20 152.5 20 152.5z" style="fill: #000000;"/><path stroke-width="0" d="M300 167.5 259.902 172.5 259.902 147.5 300 152.5 300 167.5 300 167.5z" style="fill: #000000;"/><path stroke-width="0" d="M66.308 55.702 98.198 80.52 80.52 98.198 55.702 66.308 66.308 55.702 66.308 55.702z" style="fill: #000000;"/><path stroke-width="0" d="M253.692 264.298 221.802 239.48 239.48 221.802 264.298 253.692 253.692 264.298 253.692 264.298z" style="fill: #000000;"/><path stroke-width="0" d="M55.702 253.692 80.52 221.802 98.198 239.48 66.308 264.298 55.702 253.692 55.702 253.692z" style="fill: #000000;"/><path stroke-width="0" d="M264.298 66.308 239.48 98.198 221.802 80.52 253.692 55.702 264.298 66.308 264.298 66.308z" style="fill: #000000;"/><path stroke-width="0" d="M160 80c-44.183 0-80 35.817-80 80s35.817 80 80 80 80-35.817 80-80-35.817-80-80-80m0 140c-33.137 0-60-26.863-60-60s26.863-60 60-60 60 26.863 60 60-26.863 60-60 60" style="fill: #000000;"/></svg>
