
<svg xmlns="http://www.w3.org/2000/svg" viewBox="0 0 32 32"><path d="M19.01 20.79L16 26.24l-3.17-5.43C8.05 21.59 4.14 24.29 2.1 30h27.8c-2.07-5.78-6.04-8.47-10.89-9.21zm-3.02-1.56c4.26 0 7.73-3.47 7.73-7.73 0-.51-.05-1-.15-1.48h.01l-.04-.19c1.13.75 1.78 1.74 1.78 1.74L27 9.92s-1.24-.96-1.96-1.39c-.49-.29-.96-.45-1.39-.54.15-.07.31-.13.51-.18 1.47-.42 2.84-.15 2.84-.15V5.31s-1.56.21-2.36.43c-.79.21-1.37.57-1.78.93l-.76-3.5-.47-.21C20.32 2.35 18.27 2 15.99 2h-.01c-2.27 0-4.32.35-5.63.95l-.47.21-1.46 6.77v.01L8.4 10c-.1.48-.15.98-.15 1.49.01 4.27 3.48 7.74 7.74 7.74zm3.97-3.61a5.714 5.714 0 0 1-7.94.01l-.56-2.11c.92-.39 2.64-.98 4.53-.98 1.89 0 3.61.6 4.53.98l-.56 2.1zM10.6 9.58c.6-.41 2.56-1.57 5.4-1.57 2.82 0 4.78 1.15 5.39 1.56.21.6.34 1.25.34 1.92 0 .12-.01.24-.02.35-.94-.44-3.16-1.32-5.71-1.32s-4.78.88-5.71 1.32c-.01-.12-.02-.24-.02-.36-.01-.66.11-1.3.33-1.9z" style="fill: #000000;"/></svg>
