
<svg xmlns="http://www.w3.org/2000/svg" viewBox="0 0 32 32"><path fill="none" d="M16 30.9V30M16 12.3v-.8"/><path d="M13.5 9l1.5 2h2l1.5-2V8H23V2h-1.5v1c0 1.1-.9 2-2 2h-7.1c-1.1 0-2-.9-2-2V2H9v6h4.5v1zM15 8h2v1c0 .5-.4 1-1 1-.5 0-1-.4-1-1V8zm.3 4.4v4.4c-.8.3-1.3 1-1.3 1.9 0 1.1.9 2 2 2s2-.9 2-2c0-.9-.6-1.6-1.3-1.9v-4.4h-1.4zm13.1 7.3c-2.1-2.3-5.2-6.5-10.7-7.3v3.7c1.9.6 3.5 2.4 3.6 5.2-.1 3.6-2.7 5.5-5.2 5.5S11 25 10.9 21.3c.1-2.8 1.7-4.6 3.6-5.2v-3.7c-5.5.7-8.6 5-10.7 7.3-.5.4-1 .6-1.6.6v2c.7 0 1.2.3 1.7.7 2.4 2.5 6.8 6.9 12.3 7 5.5 0 9.9-4.5 12.3-7 .5-.4 1-.7 1.7-.7v-2c-.8 0-1.3-.2-1.8-.6zM9.3 21.3c0 2.3 1.1 4 2.7 5.2-3.3-1.2-6-3.5-7.6-5.2 1.7-1.7 4.4-4 7.7-5.2-1.7 1.2-2.8 3-2.8 5.2zM20 26.5c1.6-1.1 2.7-2.9 2.7-5.2 0-2.3-1.1-4.1-2.8-5.2 3.4 1.2 6.1 3.5 7.7 5.2-1.6 1.7-4.3 4-7.6 5.2z" style="fill: #000000;"/></svg>
