
<svg xmlns="http://www.w3.org/2000/svg" viewBox="0 0 32 32"><path d="M26.697 15.589c2.845-3.733 2.855-7.462.031-10.317-2.854-2.823-6.584-2.814-10.317.031-2.796 2.131-4.285 3.531-5.931 5.177-1.646 1.646-3.046 3.135-5.177 5.931-2.845 3.733-2.855 7.462-.031 10.317 2.854 2.823 6.584 2.813 10.317-.031 2.796-2.131 4.285-3.531 5.931-5.177 1.645-1.646 3.045-3.136 5.177-5.931zm-13.723 10.02a4.653 4.653 0 0 1-6.582 0 4.653 4.653 0 0 1 0-6.582L19.026 6.391a4.653 4.653 0 0 1 6.582 0 4.653 4.653 0 0 1 0 6.582L12.974 25.609z" style="fill: #000000;"/></svg>
