
<svg xmlns="http://www.w3.org/2000/svg" viewBox="0 0 32 32"><path d="M26.32 10.59L30 6.95l-4.12-.82L25.05 2 21.4 5.69A12.946 12.946 0 0 0 15 4C7.82 4 2 9.82 2 17s5.82 13 13 13 13-5.82 13-13c0-2.33-.62-4.51-1.69-6.4l.01-.01zM15 27.58C9.16 27.58 4.42 22.84 4.42 17S9.16 6.42 15 6.42c2.01 0 3.88.57 5.48 1.54-.04 1.13-.21 2.43-.9 3.04A7.536 7.536 0 0 0 15 9.44c-4.17 0-7.55 3.38-7.55 7.55s3.38 7.55 7.55 7.55 7.55-3.38 7.55-7.55c0-1.72-.58-3.31-1.56-4.58.66-.75 2.14-.86 3.04-.91.97 1.6 1.54 3.47 1.54 5.48.01 5.86-4.73 10.6-10.57 10.6zm.01-7.3c1.81 0 3.28-1.47 3.28-3.28 0-.55-.15-1.05-.38-1.51l2.02-2A6 6 0 0 1 21.06 17c0 3.34-2.71 6.05-6.05 6.05S8.95 20.34 8.95 17s2.71-6.05 6.05-6.05a6 6 0 0 1 3.51 1.13l-2.03 2.01a3.29 3.29 0 0 0-1.47-.36c-1.81 0-3.28 1.47-3.28 3.28.01 1.8 1.47 3.27 3.28 3.27zM25.62 9.07c-1.21 1.19-2.58 1.35-4.07 1.38.04-1.5.16-2.83 1.38-4.07l.62-.62c.08.42.35 1.87.42 2.26l2.26.42-.61.63z" style="fill: #000000;"/></svg>
