
<svg xmlns="http://www.w3.org/2000/svg" viewBox="0 0 32 32"><path d="M28.65 10.01c.97-1.01.69-2.47-.19-2.99-.49-.29-.86-.54-.74-1.14.28-1.37-.34-2.11-1.03-2.34-1.22-.4-3.44-.54-6.63-.54-5 0-8.42 2-9.87 2H9.06V3h-7v14h7v-1h1.12c.77 0 1.8 1.43 2.34 2.83.54 1.4 3.34 3.68 4.42 4.45s2.63 2.75 3.12 4.28c.33 1.03.16 1.68 1.38 1.37s1.48-3.28 1.31-4.45c-.17-1.17-1.28-2.88-1.6-3.76-.31-.88.11-1.63.11-1.63h6.1c2.43 0 2.97-3.08 1.85-4.02-.38-.32-.49-.92-.14-1.14 1.31-.86.97-2.5-.01-2.94-.58-.28-.65-.72-.41-.98zM7.06 14.05c0 .52-.42.95-.95.95H4.06V5h2.05c.52 0 .95.42.95.95v8.1z" style="fill: #000000;"/></svg>
