
<svg xmlns="http://www.w3.org/2000/svg" viewBox="0 0 32 32"><path d="M29.07 21.02c.98-.44 1.32-2.09.01-2.94-.34-.23-.23-.83.14-1.14 1.12-.94.58-4.02-1.85-4.02h-6.1s-.43-.74-.11-1.63c.31-.88 1.43-2.59 1.6-3.76.17-1.17-.09-4.13-1.31-4.45s-1.06.34-1.38 1.37c-.49 1.53-2.04 3.51-3.12 4.28-1.08.77-3.88 3.05-4.42 4.45-.54 1.4-1.57 2.83-2.34 2.83H9.07v-1h-7v14h7v-2h1.12c1.46 0 4.87 2 9.87 2 3.19 0 5.41-.14 6.64-.54.68-.23 1.3-.97 1.03-2.34-.12-.6.25-.85.74-1.14.88-.52 1.17-1.98.19-2.99-.25-.27-.18-.71.41-.98zM7.06 26.05c0 .52-.42.95-.95.95H4.06V17h2.05c.52 0 .95.42.95.95v8.1z" style="fill: #000000;"/></svg>
