
<svg xmlns="http://www.w3.org/2000/svg" viewBox="0 0 32 32"><path stroke-width="0" d="M16.419 26.273c1.04 0 .741-1.874 1.116-2.792.315-.77 1.158-.594 1.482.408.16.494.616 1.753.434 2.985-.144.968-.539 1.594-1.037 1.917s-.966.231-1.216 0c-.33-.305-.403-.702-.928-.702h-.538c-.526 0-.599.397-.928.702-.25.231-.717.323-1.216 0s-.894-.949-1.037-1.917c-.183-1.232.273-2.491.434-2.985.325-1.002 1.168-1.178 1.482-.408.375.919.077 2.792 1.116 2.792z" style="fill: #000000;"/><path stroke-width="0" d="M28.488 24.226c-1.886-.526-3.842-.714-5.609-1.543-.755-.352-1.145-.802-1.542-1.514a14 14 0 0 1-.735-1.586 9 9 0 0 0 1.451-1.257c3.252-3.369 3.264-9.314.023-12.67C16.89.022 7.52 3.957 7.505 11.776c-.112 3.429 1.551 6.185 3.91 7.764a14 14 0 0 1-.752 1.629c-.397.712-.787 1.162-1.542 1.514-1.767.829-3.723 1.017-5.609 1.543a8.6 8.6 0 0 0-1.512.63v2.096c.272-.198.568-.354.885-.509.248-.122.513-.227.778-.332.789-.27 1.696-.404 2.552-.603 1.606-.372 3.284-.743 4.657-1.771 1.026-.802 1.598-2.158 1.942-3.434 1.999.863 4.293.964 6.39.061.346 1.259.915 2.584 1.925 3.373 1.372 1.028 3.05 1.399 4.657 1.771.856.199 1.763.333 2.552.603.265.105.53.21.778.332.316.155.612.311.885.509v-2.096a8.6 8.6 0 0 0-1.512-.63ZM8.75 11.569c-.029-6.449 8.073-9.746 12.458-5.071 2.798 2.747 2.707 7.704-.192 10.323C16.57 21.162 8.713 17.898 8.75 11.57Z" style="fill: #000000;"/></svg>
