
<svg xmlns="http://www.w3.org/2000/svg" viewBox="0 0 32 32"><path stroke-width="0" d="M3 16.983h2.244c.08 4.408 3.015 8.614 7.343 9.966 6.902 1.803 12.042-3.717 12.813-7.594 1.182-5.912-3.837-10.859-7.434-11.221v1.634l-3.933-3.767 3.933-3.767v1.604c6.688 1.181 11.03 6.656 11.03 12.671v.01c.17 7.293-5.83 13.244-13.103 13.244C8.87 29.763 3.01 23.923 3 17v-.019Zm2.555-1.394c.09-.571.23-1.132.411-1.683l-2.034-.681a13 13 0 0 0-.501 2.024l2.124.341Zm1.051-3.195c.27-.521.581-1.012.922-1.473L5.815 9.639a12 12 0 0 0-1.112 1.763zM8.62 9.689c.421-.401.872-.771 1.342-1.102L8.74 6.824c-.571.391-1.112.842-1.613 1.322zm2.755-1.944c.521-.25 1.072-.461 1.623-.621l-.601-2.054c-.661.2-1.322.451-1.943.751zm-4.224 9.238v1.762l9.884.872 1.062-1.062h.01l-.872-6.979h-1.753l-.601 4.735-7.73.673Z" style="fill: #000000;"/></svg>
