
<svg xmlns="http://www.w3.org/2000/svg" viewBox="0 0 32 32"><path d="M28.98 17c-.01 6.91-5.86 12.74-12.87 12.74-7.26 0-13.25-5.94-13.08-13.22v-.01c0-6.06 4.41-11.57 11.19-12.68V2.26l3.76 3.76-3.76 3.76V8.12c-3.6.21-8.8 5.23-7.6 11.23.77 3.87 5.9 9.38 12.79 7.58 4.32-1.35 7.25-5.54 7.33-9.94h2.24zm-.43-1.75c-.11-.68-.28-1.36-.5-2.02l-2.03.68c.18.55.32 1.11.41 1.68l2.12-.34zm-1.27-3.84c-.32-.62-.69-1.21-1.11-1.76l-1.71 1.28c.34.46.65.95.92 1.47l1.9-.99zm-2.42-3.25c-.5-.48-1.04-.93-1.61-1.32L22.03 8.6c.47.33.92.7 1.34 1.1l1.49-1.54zm-3.32-2.32c-.62-.3-1.28-.55-1.94-.75L19 7.14c.55.16 1.1.37 1.62.62l.92-1.92zm-4.42 10.47l-.6-4.84h-1.75l-.87 7.08h.01l1.06 1.06 10-.87V17l-7.85-.69z" style="fill: #000000;"/></svg>
