
<svg xmlns="http://www.w3.org/2000/svg" viewBox="0 0 32 32"><path stroke-width="0" d="m25.49 6.698-.188-.189-4.978-4.977-1.823 1.823c-.371.371-.401.934-.13 1.359-5.738 5.931-13.923 14.747-16.637 18.8l1.679 1.679-1.881 1.88 3.394 3.395 1.882-1.88 1.678 1.678c4.053-2.714 12.869-10.899 18.8-16.638.425.272.988.242 1.36-.13l1.822-1.822zM9.78 27.208a1.59 1.59 0 0 1-2.113-.12c-.531-.533-.917-.921-1.279-1.287l.001-.001-.095-.094q-.046-.048-.094-.095H6.2c-.366-.36-.754-.747-1.287-1.278a1.59 1.59 0 0 1-.12-2.114 107 107 0 0 1 2.75-3.294l5.533 5.533a108 108 0 0 1-3.294 2.75m3.931-3.304L8.096 18.29c2.045-2.344 4.46-4.991 6.956-7.652l6.311 6.31a296 296 0 0 1-7.652 6.957m8.266-7.533-6.348-6.348c1.3-1.379 2.613-2.755 3.9-4.086l3.172 3.172.19.19 3.172 3.172a425 425 0 0 1-4.086 3.9" style="fill: #000000;"/><path stroke-width="0" d="M13.068121 14.171333 11.282904 15.956612 12.770575 17.444283 11.282904 18.931954 13.068121 20.717171 14.555792 19.2295 16.043524 20.717171 17.828741 18.931954 16.341009 17.444283 17.828741 15.956612 16.043524 14.171333 14.555792 15.659065 13.068121 14.171333z" style="fill: #000000;"/></svg>
