
<svg xmlns="http://www.w3.org/2000/svg" viewBox="0 0 32 32"><path stroke-width="0" d="M19.349 7.745c0 1.449-.725 2.742-1.782 3.398l-.127-.225c.353-.441.588-1.028.588-1.753 0-1.067-.558-1.684-1.381-2.644-.47-.548-.725-1.459-.725-1.459s-1.929 1.479-1.929 3.839c0 .872.225 1.547.588 2.027l-.118.196c-1.048-.627-1.812-1.87-1.812-3.486 0-2.517 2.526-4.837 3.672-5.778l.578.166c.029.637.137 1.616.499 2.193.607.96 1.949 1.694 1.949 3.525ZM20.273 12.142c-.94.096-2.628.148-4.273.148s-3.333-.052-4.273-.148v1.013q.245-.014.487-.025l1.121 2.354h.315l.477 14.657h3.754l.423-14.657h.36l1.123-2.358q.241.012.485.03v-1.013Z" style="fill: #000000;"/></svg>
