
<svg xmlns="http://www.w3.org/2000/svg" viewBox="0 0 32 32"><path d="M23.87 6.81H17v2h1.69l-2.38 4.98-.8-1.73c-.38-.83-1.25-1.06-1.84-.88L9.42 12.2c-.58.14-1.18.11-1.74-.08l-3.13-1.53L2 11.77v3.06l.98 2.12 5.83-2.69c.37-.01.73-.04 1.09-.13l3.94-.95.94 2.05-.71.33a2.31 2.31 0 0 0-2.46-.33c-.84.39-1.34 1.22-1.35 2.09L3.6 20.4c-.42-.44-1-.7-1.6-.72v4.64c.3-.01.61-.06.9-.19.75-.35 1.23-1.05 1.33-1.81l6.86-3.17c.67.56 1.62.72 2.46.33.84-.39 1.34-1.22 1.35-2.09l2.53-1.17-.48-1.05L20 8.81h1.54v6.77h-1.5v6.23c0 .79.51 1.35 1.01 1.55l.18.07h2.01c0-.02-.01-.05-.01-.07 0-1.56 1.27-2.83 2.83-2.83s2.83 1.27 2.83 2.83c0 .02-.01.05-.01.07H30v-8.17l-6.13-8.45zm-.53 8.77v-6.1l4.43 6.1h-4.43zm2.72 5.95a1.83 1.83 0 1 0 .002 3.662 1.83 1.83 0 0 0-.002-3.662z" style="fill: #000000;"/></svg>
