
<svg xmlns="http://www.w3.org/2000/svg" viewBox="0 0 32 32"><path d="M11.7 15.07h8.62c1.23 0 2.28-.88 2.5-2.09L24.06 6H7.97l1.23 6.99a2.548 2.548 0 0 0 2.5 2.08zM4.96 2v16.82c0 2.78 2.5 5.04 5.29 5.04L4.97 30h2.61l1-1.17h14.84l1 1.17h2.61l-5.27-6.15c2.78 0 5.28-2.25 5.28-5.04V2H4.96zm17.42 25.62H9.63l1.08-1.26H21.3l1.08 1.26zm-10.62-2.48l1.1-1.28h6.3l1.1 1.28h-8.5zm13.76-7.56c-.01 2.13-2.21 3.71-4.18 3.71H10.66c-1.97 0-4.18-1.59-4.18-3.71V3.53h19.03v14.05zm-15.5-1.11c-.83 0-1.51.67-1.51 1.51 0 .83.67 1.51 1.51 1.51.83 0 1.51-.67 1.51-1.51s-.68-1.51-1.51-1.51zm11.98 0c-.83 0-1.51.67-1.51 1.51 0 .83.67 1.51 1.51 1.51s1.51-.67 1.51-1.51-.67-1.51-1.51-1.51z" style="fill: #000000;"/></svg>
