
<svg xmlns="http://www.w3.org/2000/svg" viewBox="0 0 32 32"><path d="M11.7 21.3c-1.1 1.3-2.4 3.1-2.4 3.1l-1.5-1.5s1.8-1.3 3.1-2.4l.8.8zm2.9.3h-1.1c-.1 1.5-.5 3.6-.5 3.6h2.2c-.1 0-.5-2.1-.6-3.6zM7 17.1v2.2s2.1-.4 3.6-.5v-1.1c-1.5-.2-3.6-.6-3.6-.6zm16.3-9.7s-1.3 1.8-2.4 3.1l.8.8c1.3-1.1 3.1-2.4 3.1-2.4l-1.5-1.5zm-5.8-.8s.4 2.1.5 3.6h1.1c.1-1.5.5-3.6.5-3.6h-2.1zm4.5 6.5v1.1c1.5.1 3.6.5 3.6.5v-2.2c0 .1-2.1.5-3.6.6zm-6.3 3h-4.5L9 13.8c-.3-.3-.8-.5-1.3-.5H6c-1 0-2-.4-2.7-1-.7-.6-1.2-1.5-1.2-2.5-.1-1 .3-2 1-2.8.7-.7 1.6-1.1 2.6-1.2 0-1 .5-1.9 1.2-2.6.7-.7 1.7-1.1 2.8-1 2 .1 3.6 1.8 3.6 3.9v1.7c0 .5.2.9.5 1.3l5.8 5.8h-5.1l1.2 1.2zm-4.6-4H14l-1.7-1.7c-.7-.7-1.1-1.7-1.1-2.7V6.1c0-1-.8-1.9-1.7-1.9-.5 0-1 .1-1.3.5-.4.3-.6.7-.6 1.2 0 .2 0 .9-.4 1.4-.4.4-1 .5-1.4.4-.5.1-.9.3-1.3.6-.3.4-.5.8-.5 1.3.1.9.9 1.7 1.9 1.7h1.7c1 0 2 .4 2.7 1.1l.7.7h1.1l-1-1zm11.4 17.7c-2-.1-3.7-1.8-3.7-3.9v-1.7c0-.5-.2-.9-.5-1.3l-5.4-5.4h5.2l-1.4-1.4H21l2 2c.3.3.8.5 1.3.5H26c2.1 0 3.8 1.6 3.9 3.6.1 1-.3 2-1 2.8-.7.7-1.6 1.1-2.6 1.2-.1 1-.5 1.9-1.2 2.6-.6.7-1.7 1-2.6 1zm5.5-7.4c0-.9-.9-1.7-1.9-1.7h-1.7c-1 0-2-.4-2.7-1.1l-.3-.3h-1.1l1.1 1.1h-2.9l1.3 1.3c.7.7 1.1 1.7 1.1 2.7v1.7c0 1 .8 1.9 1.7 1.9.5 0 1-.2 1.3-.5.4-.3.6-.8.6-1.3 0-.2 0-.9.4-1.4.4-.4 1-.5 1.4-.4.5 0 .9-.2 1.3-.6.2-.5.4-1 .4-1.4z" style="fill: #000000;"/></svg>
