
<svg xmlns="http://www.w3.org/2000/svg" viewBox="0 0 32 32"><path d="M15.962 4.307a2.35 2.35 0 0 0-2.82-1.745 2.35 2.35 0 0 0-1.744 2.82 2.35 2.35 0 0 0 2.82 1.744 2.347 2.347 0 0 0 1.744-2.82zM13.95 6.012a1.205 1.205 0 0 1-1.439-.897 1.205 1.205 0 0 1 .897-1.44 1.205 1.205 0 0 1 1.439.898 1.205 1.205 0 0 1-.897 1.439zM2.997 18.815l.01 1.744 3.591-.276a3.581 3.581 0 0 0 2.494-1.35l.759-.966c2.621 2.307 3.584 8.533 3.584 8.533h2.572s-2.933-9.982-2.963-10.957l.7-3.371.266.62c.375.7 1.025 1.095 1.745 1.095h3.252v-1.971h-3.243l-.857-1.863s-.68-2.08-2.316-2.08H9.84c-3.44.01-5.303 4.051-5.303 4.051l1.41.798s1.912-2.809 3.725-2.878h.345l-3.597 7.757-3.424 1.114z" style="fill: #000000;"/><path d="M28.307 29.5h-25.3v-1.85l13.07-.01c2.04 0 4.04-.15 4.83-.49 3.59-1.54 3.92-5.51 3.92-5.91 0-2-.95-3.19-1.15-3.53-.35-.49-.76-.95-1.24-1.37l-2.52 2.52-1.62-1.61.79-.78c0-.02.02-.03.03-.05l5.58-5.59 1.62 1.62-.78.78c-.01.02-.03.03-.04.05l-1.05 1.05c1.36 1.07 2.51 2.25 3.22 3.61 2.57 4.92.64 11.56.64 11.56z" style="fill: #000000;"/></svg>
