
<svg xmlns="http://www.w3.org/2000/svg" viewBox="0 0 32 32"><path d="M24.342 8.852a1.31 1.31 0 1 0-2.62 0 1.31 1.31 0 0 0 2.62 0z" style="fill: #000000;"/><path d="M26.582 10.128c1.345-3.275-2.515-6.453-5.488-4.546-1.328.795-2.021 2.472-1.632 3.954l1.267-.242c-.179-3.644 5.191-3.274 4.375.302-.253.866-1.08 1.571-2.072 1.672v1.146c1.507.132 3.011-.859 3.55-2.286z" style="fill: #000000;"/><path d="M22.056 2.103c-4.368.497-7.07 5.891-4.828 9.587l1.118-.546c-1.831-4.317 2.819-8.723 6.903-6.505 1.777.954 2.811 3.026 2.512 5.033-.238 2.011-1.861 3.801-3.976 4.307l.191 1.297c2.817-.174 5.281-2.472 5.791-5.263.981-4.414-3.281-8.74-7.711-7.91zM27.954 15.807a8.552 8.552 0 0 1-1.729.948c.122.919-.248 1.93-1.458 2.535.9.3 1.5 1.3 1.5 2.2 0 2.1-2.7 3.1-4.1 1.6 0 3-4.6 3.1-4.6 0 0-1.9 2.6-3 4.1-1.5 0-1 .7-1.9 1.6-2.3-.971-.465-1.403-1.232-1.462-2.01a8.485 8.485 0 0 1-2.016-.544c-.033.809.161 1.627.579 2.254-2-.5-5.1 1.1-4.7 4.8.4 3.3 3 2.59 2.94 6.21h2.36c.1-3.6 1.5-2.61 2.5-4.51 3.8.5 5.8-3.6 4-6.2.685-.99.845-2.327.486-3.483zM12.867 8.89c-.7 1.8-3.7 2-4.5 0-.2.6-.8 1.2-1.4 1.4 2.2 1 1.7 3.8 0 4.5 2.4 1 1.6 4.5-.8 4.5-2.5 0-3.2-3.6-.8-4.5-2.3-1.1-1.7-3.9 0-4.5-.9-.3-1.5-1.3-1.5-2.2 0-1.3 1-2.3 2.3-2.3.9 0 1.9.6 2.2 1.5 1-2.2 3.8-1.7 4.5 0 .579-1.069 1.415-1.5 2.218-1.512.229-.59.514-1.152.862-1.671-1.011-.212-2.068-.025-3.08.582-1.3-.9-3.1-.9-4.5 0-3.5-2.3-8 1.6-5.6 5.6-.9 1.2-.9 3.2 0 4.5-1.1 1.5-.9 4.5.9 5.8 1.5 1.1 1.4 3.4 1.4 3.4h2.2s-.1-2.3 1.4-3.5c2.4-1.8 1.5-5 .9-5.8.3-.5.8-1.4.6-2.7 1.2.1 2.2-.3 2.6-.6.682.472 1.528.69 2.366.667a8.477 8.477 0 0 1-.498-1.766c-.702-.137-1.36-.585-1.768-1.4z" style="fill: #000000;"/></svg>
