
<svg xmlns="http://www.w3.org/2000/svg" viewBox="0 0 32 32"><path d="M23.77 6.29c-.08-.06-.16-.11-.24-.16-.24-.15-.48-.3-.74-.44-.1-.05-.2-.11-.3-.16-.3-.16-.62-.3-.94-.44-.05-.02-.11-.05-.16-.07-.03-.02-.05-.02-.07-.03-1.26-.5-2.7-.85-4.31-.95V2h-2v2.04c-1.62.1-3.05.44-4.31.94-.04.02-.06.02-.09.03-.05.02-.11.05-.16.08-.32.14-.64.28-.94.44-.1.05-.2.11-.3.17-.25.14-.5.29-.74.44-.08.05-.17.1-.25.15l.01.01c-4.45 3.02-5.88 8.12-6.24 9.47l1.35 1.18c1.84-.76 5.08-.56 6.48 1.79h1.72c.9-1.49 2.42-1.98 3.48-2.15v8.62c0 1.51.09 3.03-.89 3.56-.02.01-.03.02-.05.02-.08.04-.19.06-.29.09-.29.08-.6.12-.97.12-1.87 0-2.33-1.07-2.33-2.93v-1.59l-1.72.29v1.15c0 2.46.75 4.06 4.08 4.06 3.31 0 4.15-1.57 4.15-4.15v-.88-8.37c1.06.17 2.57.67 3.47 2.15h1.72c1.4-2.36 4.64-2.56 6.48-1.79l1.35-1.18c-.38-1.35-1.8-6.45-6.25-9.47zM12.21 7.75c-1.22 1.89-2.34 4.56-2.54 8.03-1.57-1.06-3.37-1.42-5.19-1.18.77-2 2.09-4.81 4.86-6.66v.01c.63-.43 1.31-.79 2.01-1.07 0 0 .01 0 .01-.01.42-.17.7.11.77.2.09.09.25.36.08.68zM16 4.62zm6.33 11.16c-.19-3.47-1.32-6.14-2.54-8.03a.603.603 0 0 1 .07-.69c.08-.09.35-.37.77-.2h.01c.7.28 1.38.65 2.02 1.07v-.01c2.77 1.86 4.09 4.67 4.86 6.66-1.82-.22-3.62.14-5.19 1.2z" style="fill: #000000;"/></svg>
