<svg width="40" height="40" viewBox="0 0 40 40" fill="none" xmlns="http://www.w3.org/2000/svg">
<path d="M13.7502 22.4997L15.5127 24.2622L18.7502 21.0372V36.2497H21.2502V21.0372L24.4877 24.2622L26.2502 22.4997L20.0002 16.2497L13.7502 22.4997Z" fill="#EB1600"/>
<path d="M29.3753 27.4997H28.7503V24.9997H29.3753C30.8672 25.0594 32.3216 24.524 33.4187 23.5113C34.5158 22.4986 35.1656 21.0916 35.2253 19.5997C35.285 18.1079 34.7496 16.6534 33.7369 15.5563C32.7242 14.4592 31.3172 13.8094 29.8253 13.7497H28.7503L28.6253 12.7247C28.348 10.6203 27.3151 8.68839 25.7192 7.28894C24.1232 5.88949 22.0729 5.11789 19.9503 5.11789C17.8277 5.11789 15.7774 5.88949 14.1814 7.28894C12.5855 8.68839 11.5526 10.6203 11.2753 12.7247L11.2503 13.7497H10.1753C8.68347 13.8094 7.27643 14.4592 6.26374 15.5563C5.25104 16.6534 4.71564 18.1079 4.77531 19.5997C4.83499 21.0916 5.48485 22.4986 6.58194 23.5113C7.67902 24.524 9.13347 25.0594 10.6253 24.9997H11.2503V27.4997H10.6253C8.62082 27.487 6.69177 26.7338 5.20904 25.3848C3.72632 24.0359 2.79458 22.1864 2.59297 20.1921C2.39137 18.1977 2.93412 16.1992 4.11688 14.5808C5.29964 12.9624 7.03891 11.8383 9.00031 11.4247C9.53995 8.90786 10.9264 6.65217 12.9282 5.03404C14.9301 3.41591 17.4263 2.5332 20.0003 2.5332C22.5744 2.5332 25.0706 3.41591 27.0724 5.03404C29.0743 6.65217 30.4607 8.90786 31.0003 11.4247C32.9617 11.8383 34.701 12.9624 35.8837 14.5808C37.0665 16.1992 37.6093 18.1977 37.4076 20.1921C37.206 22.1864 36.2743 24.0359 34.7916 25.3848C33.3089 26.7338 31.3798 27.487 29.3753 27.4997Z" fill="#EB1600"/>
</svg>
