
<svg xmlns="http://www.w3.org/2000/svg" viewBox="0 0 32 32"><path stroke-width="0" d="M29.131 4.937c-.397-.97-1.093-1.913-2.049-2.43-1.362-.764-3.146-.662-4.397.287-.678.521-1.161 1.265-1.432 2.074-.253.777-.261 1.61-.134 2.393q.066.389.107.776l-.698-.024c-.679-.048-1.348.048-1.905.484-.75.575-1.092 1.485-1.197 2.378a19 19 0 0 0-.067.611c-.056.664-.104 1.767-.126 2.177s-.067 2.335-1.219 2.335-1.191-1.972-1.22-2.402-.055-1.197-.092-1.718c-.075-.887-.128-1.8-.601-2.59-.44-.782-1.291-1.311-2.203-1.288-.377.007-.751.026-1.125.041q.041-.39.108-.781c.127-.783.118-1.616-.134-2.393-.27-.809-.753-1.553-1.432-2.074-1.251-.949-3.035-1.05-4.397-.287-.956.517-1.651 1.46-2.049 2.43-1.091 2.684-1.286 6.555.181 9.152a5.4 5.4 0 0 0 1.653 1.727 4.4 4.4 0 0 0 2.518.716c1.751-.043 3.549-1.154 3.945-2.926.177-.73.131-1.436-.017-2.15-.099-.414-.23-.841-.308-1.258a6 6 0 0 1-.105-.921c.248.01.497.018.741.033.354.014.747.041.998.31.21.205.353.54.41.927.032.204.048.636.05.964.002.312-.06 2.545-.155 3.772-.056.722-.552 1.357-1.193 1.7-1.169.624-2.176 1.597-2.478 3.034-.35 1.748.12 3.611 1.542 4.777.421.366.924.649 1.426.885.186.084.421.189.541.303.278.256.313.675.334 1.054L12.998 30h1.419l.036-2.395c.035-.975.011-2.016-.757-2.754-.303-.291-.614-.447-.947-.607-.366-.186-.731-.397-1.032-.675-.983-.82-1.056-2.238-.716-3.399.649-1.955 3.172-2.172 4.998-2.172s4.349.217 4.998 2.172c.339 1.162.267 2.579-.716 3.399-.301.278-.666.488-1.032.675-.333.16-.644.316-.947.607-.768.737-.792 1.779-.757 2.754L17.581 30H19l.046-2.965c.021-.379.056-.799.334-1.054.12-.113.355-.219.541-.303.502-.235 1.005-.518 1.426-.885 1.422-1.166 1.892-3.029 1.542-4.777-.302-1.436-1.309-2.409-2.478-3.034-.641-.342-1.137-.977-1.193-1.7a64 64 0 0 1-.179-4.092c-.011-.687.189-1.571.893-1.798.193-.065.411-.062.618-.079.217-.013.463-.025.713-.037a6 6 0 0 1-.105.92c-.078.417-.208.843-.308 1.258-.148.714-.195 1.42-.017 2.15.396 1.772 2.194 2.883 3.945 2.926a4.37 4.37 0 0 0 2.518-.716 5.36 5.36 0 0 0 1.653-1.727c1.467-2.597 1.273-6.47.181-9.152ZM7.612 14.738c-1.245.159-2.344-.653-2.893-1.722-.673-1.38-.733-3.044-.621-4.564.13-1.325.441-3.253 1.438-4.162.757-.711 2.009-.802 2.872-.239.454.303.79.786.996 1.281.21.55.24 1.155.175 1.754-.078.72-.162 1.461-.161 2.193.001.662.092 1.323.241 1.966.033.143.068.33.097.476l.028.227c.2 1.567-.613 2.586-2.171 2.789Zm19.668-1.722c-.549 1.069-1.647 1.88-2.893 1.722-1.56-.204-2.37-1.223-2.171-2.789l.028-.227c.029-.144.062-.332.097-.476a9 9 0 0 0 .241-1.966l-.003-.054c.519-.017 1.03-.033 1.421-.048l.003-1.013a76 76 0 0 0-1.481-.077 52 52 0 0 0-.101-1.003c-.065-.599-.035-1.203.175-1.754.206-.495.542-.979.996-1.281.863-.564 2.115-.472 2.872.239.998.911 1.308 2.835 1.438 4.162.111 1.52.052 3.183-.621 4.564Z" style="fill: #000000;"/></svg>
