
<svg xmlns="http://www.w3.org/2000/svg" viewBox="0 0 32 32"><path d="M19.5 12.2l3.4-.3C22.9 9 20.1 7.3 17 7V5.5h-2V7c-2.9.3-5 2-5 4.9 0 3.4 3 4.5 5 4.9v6.8c-1.7-.6-2.6-2.2-2.4-4.3l-3.4.3c-.1 3 2.6 4.9 5.8 5.3v1.6h2V25c3.6-.2 5.8-2.5 5.8-5.4 0-3.9-3.8-4.9-5.8-5.3v-6c1.7.3 2.6 1.7 2.5 3.9zM15 13.6c-3.6-1.3-2.5-5.1 0-5.4v5.4zm5.2 7c0 1.9-1.2 3.1-3.2 3.3v-6.5c2.1.6 3.2 1.4 3.2 3.2zM16 2C8.3 2 2 8.3 2 16s6.3 14 14 14 14-6.3 14-14S23.7 2 16 2zm0 26C9.4 28 4 22.6 4 16S9.4 4 16 4s12 5.4 12 12-5.4 12-12 12z" style="fill: #000000;"/></svg>
