
<svg xmlns="http://www.w3.org/2000/svg" viewBox="0 0 32 32"><path d="M24.9 7.2C23.5 4.3 18.8 2 14.4 2 7.5 2 3.5 6.7 3.1 11.8H2v4.6h1.7c.3 1 .8 2 1.4 3 .5.7.9 1.9.9 2.6l.4 8h1.5l.4-7.3c0-1.6-.4-3.1-1.3-4.3-.4-.6-.7-1.3-1-2h10.2c.4 1.5 1.2 3.3 3.1 4.1 1.3.5 3.2.8 5.1.9v.2c0 .8.1 2.4.1 3.6 0 1-.1 1.7-1.4 1.6-.9-.1-6-1.3-6 3.2h1.5c0-2.2 3.9-1 5.5-1.2 1.7-.2 2.4-1.4 2.5-3 0-1.6-.2-3.1-.1-4.1l.2-.1h3.4V7.1c-.1 0-2.9 0-5.2.1zm-8.6 4.6H5.5c.5-4 3.5-7.7 8.9-7.7 3.8 0 6.5 1.4 8 3.3-1.2.2-2.3.4-3.1.7-1.7.8-2.6 2.3-3 3.7zm10.6 8.3c-2.2-.1-5.4-.3-7.1-1-1.2-.5-1.8-1.6-2.1-2.7h2.9c1.3 0 2.3-1 2.3-2.3 0-1.3-1-2.3-2.3-2.3h-2.7c.3-.9.9-1.8 1.9-2.2 1.7-.7 4.9-.9 7.1-1v11.5zM22 17c-.6 0-1 .4-1 1s.4 1 1 1 1-.4 1-1-.4-1-1-1z" style="fill: #000000;"/></svg>
