
<svg xmlns="http://www.w3.org/2000/svg" viewBox="0 0 32 32"><path d="M9.87 18.33c.98 0 1.78-.8 1.78-1.78s-.8-1.78-1.78-1.78-1.78.8-1.78 1.78.79 1.78 1.78 1.78zm0-2.79c.55 0 1.01.45 1.01 1.01 0 .55-.45 1.01-1.01 1.01s-1-.45-1-1.01a.993.993 0 0 1 1-1.01zm12.27-3.96c.98 0 1.78-.8 1.78-1.78s-.8-1.78-1.78-1.78-1.78.8-1.78 1.78c-.01.98.79 1.78 1.78 1.78zm0-2.79c.55 0 1.01.45 1.01 1.01 0 .55-.45 1-1.01 1s-1-.45-1-1a.993.993 0 0 1 1-1.01zM30 22.01V4.99H2V22h9.99v1.35c0 1.02-.11 1.66-1.97 1.66H8V27h16v-1.99h-2.03c-1.86 0-1.97-.64-1.97-1.66V22h10zM16.5 7.02H28V13h-3.11c-.71-.66-1.62-1.07-2.75-1.07s-2.05.41-2.75 1.07H16.5V7.02zm-1 12.99h-2.6c-.73-.82-1.75-1.33-3.03-1.33-1.28 0-2.3.51-3.04 1.33H4V14h11.5v6.01zm0-7.01h-2.88c-.71-.66-1.62-1.07-2.75-1.07s-2.05.41-2.76 1.07H4V7.02h11.5V13zm3.6 7.01h-2.6V14H28v6.01h-2.83c-.73-.82-1.75-1.33-3.03-1.33-1.29 0-2.31.51-3.04 1.33zm-9.23-8.43c.98 0 1.78-.8 1.78-1.78s-.8-1.78-1.78-1.78-1.78.8-1.78 1.78c-.01.98.79 1.78 1.78 1.78zm0-2.79c.55 0 1.01.45 1.01 1.01 0 .55-.45 1-1.01 1s-1-.45-1-1a.993.993 0 0 1 1-1.01zm14.05 7.76c0-.98-.8-1.78-1.78-1.78s-1.78.8-1.78 1.78.8 1.78 1.78 1.78 1.78-.8 1.78-1.78zm-2.79 0c0-.55.45-1.01 1-1.01s1.01.45 1.01 1.01c0 .55-.45 1.01-1.01 1.01s-1-.46-1-1.01z" style="fill: #000000;"/></svg>
