
<svg xmlns="http://www.w3.org/2000/svg" viewBox="0 0 32 32"><path d="M12.323 15.801c-2.366 0-4.286 1.92-4.286 4.286s1.92 4.286 4.286 4.286 4.286-1.92 4.286-4.286-1.92-4.286-4.286-4.286zm0 7.321a3.03 3.03 0 0 1-3.026-3.026 3.03 3.03 0 0 1 3.026-3.026c1.672 0 3.026 1.363 3.026 3.026s-1.354 3.026-3.026 3.026zm19.152-5.867c-1.43-1.01-3.11-2.01-4.96-1.95 1.22-4.07-2.11-8.23-5.91-9.58-1.31-.55-2.65-.92-3.94-1.29l-.79 1.29c1.71 2.19.22 5.21.47 7.95.2 2.92 2.46 6.02 5.47 5.92-.78 1.83-2.29 3.29-4.06 4.26-1.47.8-3.25 1.36-5.45 1.36-5.16 0-8.03-3.16-9.99-5.13 1.96-1.97 4.69-5.21 9.99-5.21 1.38 0 2.73.26 3.8.62l-.33-2.4c-1.08-.39-2.09-.56-3.45-.56-5.63 0-8.7 4.08-10.66 6.2-.41.3-.8.49-1.33.49v1.73c.53 0 .92.19 1.33.49 1.96 2.11 4.99 6.12 10.66 6.12 5.28 0 8.51-3.8 10.02-6.52.07-.14.14-.28.2-.41 0 .01 0 .02.01.02.89 1.47 3.33 1.61 4.79.7 1.76-1.01 2.14-3.14 4.15-3.55.11-.1.13-.29.17-.42l-.19-.13zm-11.97-9.59l-.15-.19-.38.27c1.2 1.86 2.36 3.79 2.99 5.87.62 1.76.63 3.5.17 5.1-.01.02-.01.05-.02.07-1.61-.32-2.81-2.14-3.56-3.47-1.28-2.58.28-5.51-.38-8.36-.04-.2-.09-.4-.16-.59 4.47 1.2 8.54 3.74 7.84 8.99-.9.13-1.78.58-2.44 1.24-.1-3.26-1.9-6.44-3.91-8.93zm10.31 10.07c-1.14.7-1.89 2.16-2.97 2.71-.68.35-1.58.51-2.29.34-.75-.23-1.13-.66-1.25-1.16.38-.43.84-.8 1.34-1.07.93-.55 2.04-.63 3.09-.45l.07-.29c-1.52-.49-3.11-.15-4.39.7.42-1.12 1.66-2.22 2.84-2.24 1.43-.21 2.85.37 4.21 1.13-.23.09-.45.2-.65.33z" style="fill: #000000;"/></svg>
