
<svg xmlns="http://www.w3.org/2000/svg" viewBox="0 0 32 32"><path stroke-width="0" d="m17.197 17.731.009-.01a4.85 4.85 0 0 0 1.164-2.528.24.24 0 1 0-.477-.07 4.34 4.34 0 0 1-1.048 2.28.24.24 0 0 0 .352.328M13.125 18.201l.013-.005a4.84 4.84 0 0 0 2.122-1.8.24.24 0 1 0-.402-.265 4.34 4.34 0 0 1-1.913 1.624.24.24 0 1 0 .18.446M11.639 17.036h.007c1.468 0 2.513-1.051 3.042-2.07.206-.398.327-.891.479-1.32.152-.428.336-.764.555-.882a.24.24 0 1 0-.23-.424c-.42.228-.617.687-.779 1.146s-.289.942-.452 1.258c-.473.91-1.379 1.81-2.615 1.81a.24.24 0 1 0-.007.482" style="fill: #000000;"/><path stroke-width="0" d="m14.791 18.817.011-.008c.92-.657 1.51-1.659 1.874-2.598s.509-1.805.509-2.274c0-.624-.132-1.228-.591-1.54a.241.241 0 1 0-.271.4c.238.16.38.59.38 1.14 0 .363-.133 1.217-.476 2.1-.343.882-.895 1.802-1.705 2.38a.24.24 0 1 0 .27.4M14.3 11.105l.01-.008c.42-.342.934-.563 1.67-.563q.32 0 .61.052a.24.24 0 0 0 .093-.472l-.008-.002a4 4 0 0 0-.694-.06c-.838 0-1.48.27-1.975.671a.24.24 0 1 0 .293.382" style="fill: #000000;"/><path stroke-width="0" d="M13.74 13.233a.24.24 0 0 0 .34-.104c.213-.4.44-.752.73-.996s.64-.395 1.17-.395c.966 0 1.902.821 1.902 2.408a.24.24 0 1 0 .482.007v-.007c0-1.785-1.138-2.89-2.383-2.89-.627 0-1.114.199-1.482.509s-.62.718-.843 1.138a.24.24 0 0 0 .085.33M10.91 15.832h.006c.75 0 1.319-.219 1.747-.56s.714-.793.959-1.248a.24.24 0 1 0-.425-.228c-.232.432-.488.822-.835 1.1s-.786.454-1.446.454a.241.241 0 0 0-.007.482M19.092 13.685a.24.24 0 1 0 .48-.041 5 5 0 0 0-.068-.505c-.226-1.234-.89-2.208-1.873-2.71a.241.241 0 1 0-.22.43c.84.428 1.415 1.251 1.62 2.368q.04.22.06.458M13.487 11.395a.24.24 0 0 0-.201.1c-.48.65-.824 1.376-1.223 1.893s-.8.824-1.503.759a.241.241 0 0 0-.044.48c.873.08 1.482-.364 1.929-.945.447-.58.786-1.302 1.228-1.9a.24.24 0 0 0-.186-.387" style="fill: #000000;"/><path stroke-width="0" d="M15.74 13.648s-.053.794-.468 1.726a.24.24 0 1 0 .44.196c.45-1.012.509-1.89.509-1.89a.24.24 0 1 0-.48-.032M15.74 7.644c-.72 0-1.347.146-1.886.38a.24.24 0 1 0 .19.442h.001a4.2 4.2 0 0 1 1.695-.34c.963 0 1.756.22 2.417.564a.241.241 0 1 0 .223-.427c-.727-.379-1.603-.62-2.64-.62M13.174 8.445h-.024a.24.24 0 0 0-.128.045c-.675.472-1.168 1.06-1.531 1.556-.182.248-.333.474-.455.649s-.228.3-.258.324a.24.24 0 1 0 .29.385l.005-.005c.136-.105.231-.247.358-.429s.274-.402.448-.64c.349-.475.808-1.018 1.419-1.445a.24.24 0 0 0-.124-.44M10.276 13.257a.24.24 0 0 0 .314.153c.486-.167.837-.532 1.144-.95a.24.24 0 1 0-.388-.285c-.283.385-.564.66-.912.78a.24.24 0 0 0-.158.302M11.864 11.394a.241.241 0 0 0 .405.26c.617-.959 1.292-1.943 2.779-2.238a.24.24 0 1 0-.094-.473c-1.664.33-2.467 1.481-3.09 2.451M21.516 13.76a.24.24 0 0 0 .218-.263s-.255-3.117-2.39-4.592a.24.24 0 1 0-.274.397c1.883 1.3 2.185 4.24 2.185 4.24a.24.24 0 0 0 .261.217M19.888 17.553l.008-.011a4.85 4.85 0 0 0 .856-2.649.24.24 0 1 0-.48-.013 4.34 4.34 0 0 1-.772 2.388.24.24 0 1 0 .388.285M19.317 16.155l.008-.012c.271-.436.313-.94.287-1.46a.24.24 0 1 0-.481.025c.024.477-.02.868-.215 1.18a.24.24 0 0 0 .401.267M15.97 8.848a.24.24 0 0 0-.004.481c1.628.095 2.617.735 3.242 1.6.625.864.875 1.974.925 2.988a.241.241 0 0 0 .481-.024c-.052-1.075-.313-2.275-1.015-3.247-.703-.972-1.86-1.696-3.604-1.798z" style="fill: #000000;"/><path stroke-width="0" d="M4.145 4.145v17.782h6.6c.81 0 1.303.228 1.303.939v1.383c0 1.008-.108 1.64-1.946 1.64H8.097v1.966h15.806v-1.976h-1.995c-1.838 0-1.947-.632-1.947-1.64v-1.373c0-.701.504-.939 1.314-.939h6.58V4.145zM25.89 19.952H6.12V6.122h19.77z" style="fill: #000000;"/></svg>
