
<svg xmlns="http://www.w3.org/2000/svg" viewBox="0 0 32 32"><path d="M28.33 14.39C26.05 11.9 22.5 7.23 16 7.23c-6.56 0-10.15 4.76-12.43 7.23-.48.35-.94.57-1.56.57v2.02c.62 0 1.08.22 1.56.57 2.28 2.46 5.82 7.14 12.43 7.14 5.52 0 9.87-4.55 12.28-7.04.54-.43 1.03-.68 1.72-.68v-2.02c-.68.01-1.16-.23-1.67-.63zm-12.35 7.63c-6.02 0-9.37-3.68-11.65-5.98 2.28-2.3 5.47-6.08 11.65-6.08s9.37 3.78 11.65 6.08c-2.28 2.3-5.63 5.98-11.65 5.98zM16 11.04c-2.76 0-5 2.24-5 5s2.24 5 5 5 5-2.24 5-5c0-2.75-2.24-5-5-5zm0 8.54c-1.95 0-3.53-1.59-3.53-3.53 0-1.95 1.59-3.53 3.53-3.53 1.95 0 3.53 1.59 3.53 3.53 0 1.94-1.58 3.53-3.53 3.53z" style="fill: #000000;"/></svg>
