
<svg xmlns="http://www.w3.org/2000/svg" viewBox="0 0 32 32"><path d="M25 23.595L18 26v-1l7-2.405v1zm0-3.023l-7 2.405v1l7-2.405v-1zM31 8.25v17.46l-15 5.35-15-5.35V8.25l15-4.29 15 4.29zm-8.29-.29l-11.24 3.88 4.49 1.66 11.52-4.18-4.77-1.36zM4.6 9.29l2.59.96 10.68-3.67-1.05-.3c-.53-.16-1.11-.16-1.64 0L4.6 9.29zm.39 15.72l10.05 3.59.4-14.31L11 12.76v8.06L9 19l-2 .61v-8.23l-4-1.37v12.17c0 1.27.8 2.4 1.99 2.83zM29 9.95l-12.44 4.37.4 14.28 10.05-3.59A3.012 3.012 0 0 0 29 22.18V9.95z" style="fill: #000000;"/></svg>
