
<svg xmlns="http://www.w3.org/2000/svg" viewBox="0 0 32 32"><path d="M27.381 15.241c-.78-.845-1.515-1.65-1.515-2.14h-1c0 .49-.735 1.295-1.51 2.14-1.405 1.53-3.325 3.625-3.325 6.395 0 2.48 1.225 3.81 2.25 4.485 1.165.775 2.32.98 3.085.98s1.92-.205 3.09-.975c1.025-.675 2.25-2.005 2.25-4.485 0-2.77-1.925-4.87-3.325-6.4zm-3.29.675c.505-.55.955-1.04 1.275-1.505.32.465.77.955 1.275 1.505.75.82 1.6 1.745 2.215 2.81.805 1.66.64 3.05-.435 4.2-.7.745-1.875 1.175-3.055 1.175s-2.36-.43-3.055-1.17c-1.08-1.15-1.24-2.545-.435-4.2.615-1.065 1.465-1.995 2.215-2.815zm1.959-4.046c-.14.22-.34.42-.52.61 0 0-.01 0-.02-.01h-.01c-.06-.05-.19-.12-.4-.25-.2-.12-.31-.19-.38-.24 0 0-.01 0-.03-.01l-.01-.01v-.01l.01-.01c.07-.11.08-.15.15-.26 1.76-3.07-1.22-7.32-4.74-6.09l-.43.14-.18-.47c-1.47-3.72-6.4-3.74-8.18-.25-.04-.02-.45-.22-.49-.23 0-.01-.01-.01-.01-.01-3.68-.95-6.4 3.05-5.04 6.35l.14.43-.32.18c-3.53 2.02-3.92 7.04-.36 9.26l.27.17.02.2c.43 1.93 1.9 3.47 3.83 3.79 1.46.24 2.78-.36 3.82-1.43.08-.07.19-.16.32-.28l.21-3.26-6.87-4.91.34-.54 6.65 3.6.2-3.09-4.25-5.01.46-.46 3.93 3.33.39-6.1h.96l.37 6.01 4.22-3.56.45.45-4.53 5.36.2 3.12 4.61-2.26.34.56-4.84 3.47v.01l.24 3.86c.12.09.24.16.37.23.86.48 1.87.42 2.79.21l.19 1.31-.64.08c-.95.14-1.84-.05-2.63-.47L17 31h-4l.33-5.05c-3.3 3.16-9.75.63-8.95-4.17-4.24-1.42-4.8-7.92-.79-10.1.36-.21.68-.37 1-.54-2.54-3.95 1.94-9.45 6.31-7.45 2.21-4.24 7.66-3.62 9.37.79.84-.3 1.84-.69 2.91-.49 3.22.8 4.81 5.2 2.87 7.88z" style="fill: #000000;"/></svg>
