
<svg xmlns="http://www.w3.org/2000/svg" viewBox="0 0 32 32"><path d="M30.86 25.326v-.03c-.02-.02-.06-.07-.09-.09-.96-.81-2.32-.97-3.52-.77-1.33.2-2.37 1.25-3.66 1.64-2.06.78-4.03-.32-5.74-1.35-1.93-.97-3.79-.11-5.49.94-1.28.63-2.64.74-3.95.33-1.29-.38-2.33-1.39-3.66-1.59-1.24-.19-2.65-.02-3.62.85v.03c-.01-.07-.05-.28-.13-.78-.01-.08-.02-.13-.02-.15v-.02l.02-.02.02-.04c.89-1.12 2.42-1.45 3.77-1.24 1.32.13 2.48.96 3.72 1.34 1.95.67 3.77-.36 5.52-1.12 1.3-.45 2.64-.45 3.94 0 1.22.42 2.33 1.25 3.66 1.3 3.17.27 6.35-3.48 9.37-.05a13 13 0 0 1-.14.82zM30.2 19.956l1.42-7.95H22c0 .55-.22 1.05-.59 1.41-.36.37-.86.59-1.41.59h-9.08l-.94-6H7v-2H2v8.01H.74l1.03 5.78c-.28.18-.53.41-.75.68l-.02.03-.01.02H.98v.02c0 .03.01.08.02.16.08.49.12.7.13.77v-.03c.97-.86 2.38-1.04 3.62-.85 1.33.2 2.37 1.21 3.66 1.59 1.31.41 2.67.31 3.95-.33 1.7-1.04 3.56-1.91 5.49-.94 1.71 1.03 3.68 2.13 5.74 1.35 1.29-.39 2.33-1.43 3.66-1.64 1.2-.19 2.56-.03 3.52.77l.09.09v.04a13 13 0 0 0 .14-.82c-.27-.3-.53-.55-.8-.75zM9 9.006l.82 5h-5.8v-3c0-1.1.89-1.99 1.99-1.99L9 9.006zm-6-2h3v.73H3v-.73zm18.63 13.74c-1.33-.05-2.44-.87-3.66-1.3-1.3-.45-2.64-.45-3.94 0-1.75.77-3.57 1.79-5.52 1.12-1.24-.37-2.4-1.2-3.72-1.34a4.49 4.49 0 0 0-1.1-.04L3 15.016h20.94c2.39 0 4.28 1.95 4.29 4.25-2.17-.1-4.39 1.68-6.6 1.48z" style="fill: #000000;"/></svg>
