
<svg xmlns="http://www.w3.org/2000/svg" viewBox="0 0 32 32"><path d="M12 7.5c2-.3 4.3-.1 6.1.9l-.4 1c-1.7-.4-3.6-.6-5.6-.8L12 7.5zm16.9 11.3c0 4.6-4.8 8.3-10.7 8.3S7.5 23.4 7.5 18.8c0-1 .6-1.9 1.8-2.6-3.6-1.1-6.2-3.8-6.2-7.1 0-2.4 4.1-4.2 9.6-4.2s9.6 1.9 9.6 4.2c0 2-1 3.8-2.5 5.1 5.3.3 9.1 2.2 9.1 4.6zm-16.2-6.6c4.8 0 8.2-1.5 8.5-2.9-.2-1.3-3.8-2.7-8.5-2.7S4.4 7.9 4.2 9.2c.3 1.5 3.6 3 8.5 3zm0 2.6c.8-.2 2.2-.5 3.5-.5 1.6-.5 3-1.3 3.8-2.4-1.7.9-4.4 1.5-7.4 1.5s-5.7-.6-7.4-1.5c1.5 1.7 4.3 2.9 7.5 2.9zm14 6.9c-1.9 1.1-5 1.8-8.5 1.8s-6.6-.7-8.5-1.8c1.6 2 4.9 3.3 8.5 3.3 3.6.1 6.9-1.2 8.5-3.3zm1-2.5c0-1.5-3.9-3.1-9.5-3.1s-9.4 1.6-9.5 3.1c.6 1.6 4.3 3.1 9.5 3.1 5.2.1 9.1-1.6 9.5-3.1zm-10-2.1v1.1c2.1.2 4.5.5 6.2.8l.4-1.1c-2.1-.9-4.4-1.1-6.6-.8z" style="fill: #000000;"/></svg>
