
<svg xmlns="http://www.w3.org/2000/svg" viewBox="0 0 32 32"><path d="M5.4 19.98c.03.01.06.01.09.01s.07 0 .1-.01H5.4zm7.52 0c.03.01.06.01.09.01s.06 0 .09-.01h-.18zm6.59 0v.01h8.01v-.01h-8.01zM5.99 30.99V31h8.03v-.01H5.99zm11.99 0V31h8.04v-.01h-8.04zM29 21.98v.01H17.51v-.01H29zM4.99 31.99V32h10.03v-.01H4.99zm11.99 0V32h10.04v-.01H16.98zm12.54-12.01v-2.99H17.51v2.99h-1.2c-.33-1.74-.98-5.15-1.02-5.46l-.25-1.76H13.7l-.29-3.73c8.91-.4 6.48-7.68 6.48-7.68s-5.43-1.63-6.97 4.24c-1.41-2.91-4.98-2.03-4.98-2.03S6.75 8.9 12.52 9.07l-.25 3.69h-1.29c-.05.36-.91 5.11-1.29 7.22h-.8L7.52 5.46v-.02H3.46v.02L2.08 19.98H1.01v12.01H31V19.98h-1.48zM19.18 2.1c.98 4.77-3.66 6.4-4.54 5.43l3.53-4.02-.4-.39-3.57 3.57c-.31-1.15.57-5.29 4.98-4.59zm-7.23 5.07L9.88 5.1l-.4.4 2.03 2.34c-.57.39-3.04-.49-2.78-3.53 2.91-.27 3.31 2.11 3.22 2.86zm7.56 10.82h8.01v2h-8.01v-2zm-7.59-4.19h2.17l.3 4.74v.07c0 .73-.56 1.33-1.29 1.37-.03.01-.06.01-.09.01s-.06 0-.09-.01c-.75-.04-1.34-.68-1.3-1.44l.3-4.74zM4.44 6.44h2.09l.38 12.08v.04c0 .75-.58 1.37-1.32 1.42-.03.01-.07.01-.1.01s-.06 0-.09-.01a1.41 1.41 0 0 1-1.33-1.46l.37-12.08zM14.02 31H5.99v-6.01h8.03V31zm12 0h-8.04v-6.01h8.04V31zm2.98-.01h-1.98v-7H16.98v7h-1.96v-7H4.99v7H3.01v-9.01H29v9.01z" style="fill: #000000;"/></svg>
