
<svg xmlns="http://www.w3.org/2000/svg" viewBox="0 0 32 32"><path d="M15.03 12.19s.48 3.62.48 5.59h.97c0-1.97.48-5.59.48-5.59h-1.93zm.97 6.23c-.49 0-.88.4-.88.88s.39.88.88.88.88-.4.88-.88-.39-.87-.88-.88zm12.49-3.76C26.83 13.03 23.27 7.19 16 7.19S5.17 13.03 3.51 14.66c-.29.28-.91.52-1.51.52v2.02c.6 0 1.1.14 1.52.52.49.46 4.52 7.09 12.48 7.09s11.99-6.64 12.48-7.09c.42-.38.91-.52 1.52-.52v-2.02c-.6 0-1.22-.24-1.51-.52zM4.33 16.19c1.62-1.63 4.19-3.86 7.41-5.08-3.41 2.47-3.39 7.71-.01 10.16-3.21-1.23-5.78-3.45-7.4-5.08zM16 21.65c-2.55-.01-5.09-1.83-5.19-5.46.1-3.65 2.64-5.47 5.19-5.49 2.55.01 5.09 1.84 5.19 5.49-.1 3.63-2.64 5.45-5.19 5.46zm4.27-.39c3.38-2.45 3.4-7.69-.01-10.16 3.22 1.23 5.79 3.45 7.41 5.08-1.62 1.64-4.19 3.86-7.4 5.08z" style="fill: #000000;"/></svg>
