
<svg xmlns="http://www.w3.org/2000/svg" viewBox="0 0 32 32"><path d="M20.03 6.28C18.47 4.59 17 2.98 17 2h-2c0 .98-1.47 2.59-3.02 4.28-2.81 3.06-6.65 7.25-6.65 12.79 0 4.96 2.45 7.62 4.5 8.97C12.16 29.59 14.47 30 16 30c1.53 0 3.84-.41 6.18-1.95 2.05-1.35 4.5-4.01 4.5-8.97 0-5.54-3.85-9.74-6.65-12.8zm-6.58 1.35c1.01-1.1 1.91-2.08 2.55-3.01.64.93 1.54 1.91 2.55 3.01 1.5 1.64 3.2 3.49 4.43 5.62 1.61 3.32 1.28 6.1-.87 8.4C20.71 23.14 18.36 24 16 24c-2.36 0-4.72-.86-6.11-2.34-2.16-2.3-2.48-5.09-.87-8.4 1.23-2.13 2.93-3.99 4.43-5.63z" style="fill: #000000;"/></svg>
