
<svg xmlns="http://www.w3.org/2000/svg" viewBox="0 0 32 32"><path fill-rule="evenodd" d="M19 24v-.42c4.62-1.31 8-5.55 8-10.58 0-6.08-4.92-11-11-11S5 6.93 5 13c0 5.03 3.38 9.28 8 10.58V24c0 1.14-.85 2.11-1.98 2.25L5 27v3h22v-3l-6.02-.75A2.267 2.267 0 0 1 19 24zM6.97 13c0-4.98 4.05-9.03 9.03-9.03s9.03 4.05 9.03 9.03c0 4.98-4.05 9.03-9.03 9.03S6.97 17.98 6.97 13zM16 8c-2.76 0-5 2.24-5 5s2.24 5 5 5 5-2.24 5-5-2.24-5-5-5zm0 7.65c-1.47 0-2.65-1.19-2.65-2.65s1.19-2.65 2.65-2.65 2.65 1.19 2.65 2.65-1.18 2.65-2.65 2.65zm0-4.3c-.91 0-1.65.74-1.65 1.65s.74 1.65 1.65 1.65 1.65-.74 1.65-1.65-.74-1.65-1.65-1.65zm0 2.15c-.28 0-.5-.22-.5-.5s.22-.5.5-.5.5.22.5.5-.22.5-.5.5z" clip-rule="evenodd" style="fill: #000000;"/></svg>
