
<svg xmlns="http://www.w3.org/2000/svg" viewBox="0 0 32 32"><path stroke-width="0" d="M16 9c-2.475 0-4.5 2.025-4.5 4.5S13.525 18 16 18s4.5-2.025 4.5-4.5S18.475 9 16 9m0 8c-1.925 0-3.5-1.575-3.5-3.5S14.075 10 16 10s3.5 1.575 3.5 3.5S17.925 17 16 17" style="fill: #000000;"/><path stroke-width="0" d="m14.915 11.311-.415.264v3.849l.415.264 3.585-1.887v-.566l-3.585-1.925Zm1.046 2.986c-.136.075-.253.146-.367.146s-.34-.056-.34-.302v-1.283c0-.226.226-.302.34-.302s.18.04.357.132 1.492.811 1.492.811-1.343.72-1.483.797Z" style="fill: #000000;"/><path stroke-width="0" d="M20 22h10V5H2v17h10v1.36c0 1.02-.14 1.64-2 1.64H8v2h16v-2h-2c-1.86 0-2-.62-2-1.64zM4 20V7h24v13z" style="fill: #000000;"/></svg>
