
<svg xmlns="http://www.w3.org/2000/svg" viewBox="0 0 32 32"><path d="M10.58 11.23h2.8v2.81h-2.8zM5.83 15.35h2.81v2.8H5.83zM15.33 14.04h2.798l.012-.012V11.23h-2.81v2.81zM5.83 11.23h2.81v2.81H5.83z" style="fill: #000000;"/><path d="M9.118 20.587c-.006-.042-.008-.085-.013-.127H3.54V8.92h16.92v3.83l.174.139c.15.119.298.247.446.376.337.302.64.612.92.93V5.08h-3.84V2h-2.31v3.08h-7.7V2h-2.3v3.08H2V22h7.408a10.12 10.12 0 0 1-.29-1.413z" style="fill: #000000;"/><path d="M28.94 17.81c-.92.11-1.78.31-2.6.58-.13-1.01-.39-2.06-.77-3.12l-.04-.12c-1.06.57-1.99 1.2-2.81 1.9-.21-.42-.45-.83-.72-1.22-.43-.65-.95-1.25-1.54-1.78-.15-.13-.3-.26-.45-.38l-.56.47c-.93.79-1.68 1.77-2.25 2.85-.79-.66-1.68-1.27-2.69-1.81l-.04.12c-.38 1.05-.64 2.09-.77 3.09a14.021 14.021 0 0 0-2.6-.58l-.52-.07-.58-.07v1.21c0 .55.04 1.08.11 1.58.07.54.18 1.06.33 1.54 1.89 6.35 9.28 7.94 9.37 7.96l.21.04.21-.05c.1-.02 9.81-2.39 9.81-11.07v-1.2l-1.1.13zM12.51 22a8.08 8.08 0 0 1-.41-1.54c-.04-.17-.06-.34-.08-.51a11.641 11.641 0 0 1 1.96.63c.75.33 1.42.75 2.01 1.23 0 .06 0 .13.01.19.03 1.82.55 3.62 1.65 5.13-1.81-.86-4.1-2.43-5.14-5.13zm7.52 5.6c-.49-.8-.87-1.6-1.11-2.44-.3-1.05-.42-2.11-.39-3.16.01-.51.05-1.03.14-1.54.22-1.49.71-2.95 1.37-4.33.15.29.29.58.42.88.7 1.58 1.1 3.29 1.11 4.99.04 1.95-.44 3.88-1.54 5.6zm2.17-.44c1.03-1.57 1.8-3.29 1.74-5.23.62-.53 1.31-.99 2.1-1.33.61-.28 1.27-.49 1.98-.65-.48 3.98-3.56 6.14-5.82 7.21z" style="fill: #000000;"/></svg>
