
<svg xmlns="http://www.w3.org/2000/svg" viewBox="0 0 32 32"><path d="M26.82 20.89c2.04 2.62-2.84 8.28-10.81 8.28-7.97 0-12.85-5.66-10.81-8.28.94-1.2 3.59-.68 6.03.15.3-2.52.68-5.62.73-6.04-10.6-.53-8.59-12.17-8.59-12.17h4.65s-4.03 10.14 7.97 10.14 7.97-10.14 7.97-10.14h4.65S30.62 14.46 20.04 15c.05.42.42 3.52.73 6.04 2.46-.83 5.11-1.35 6.05-.15zM16 11.01c-2.25 0-4.09-1.83-4.09-4.09S13.75 2.84 16 2.84s4.09 1.83 4.09 4.09-1.84 4.08-4.09 4.08zm0-6.17c-1.15 0-2.09.94-2.09 2.09s.94 2.09 2.09 2.09 2.09-.94 2.09-2.09c0-1.16-.94-2.09-2.09-2.09z" style="fill: #000000;"/></svg>
