
<svg xmlns="http://www.w3.org/2000/svg" viewBox="0 0 32 32"><path d="M27.012 8c-.826.1-1.599.28-2.335.522-.117-.907-.35-1.85-.692-2.802l-.036-.108a14.255 14.255 0 0 0-2.524 1.706 8.959 8.959 0 0 0-.647-1.095 8.347 8.347 0 0 0-1.787-1.94l-.503.421a8.617 8.617 0 0 0-2.02 2.56A14.184 14.184 0 0 0 14.05 5.64l-.036.107a13.213 13.213 0 0 0-.692 2.776 12.591 12.591 0 0 0-2.335-.521l-.467-.063L10 7.875v1.087c0 .494.036.97.099 1.42.063.484.161.951.296 1.382 1.698 5.704 8.336 7.132 8.416 7.15l.189.036.189-.045c.09-.018 8.811-2.147 8.811-9.943V7.884l-.988.117zm-14.758 3.764a7.252 7.252 0 0 1-.368-1.383 4.037 4.037 0 0 1-.072-.458 10.456 10.456 0 0 1 1.76.566 7.897 7.897 0 0 1 1.806 1.105c0 .054 0 .116.01.17.026 1.635.493 3.252 1.481 4.608-1.625-.772-3.682-2.182-4.616-4.608zm6.755 5.03c-.44-.718-.781-1.437-.997-2.191a9.322 9.322 0 0 1-.35-2.839c.009-.458.045-.925.125-1.383.198-1.338.638-2.65 1.23-3.89.136.261.261.522.378.791.629 1.42.988 2.955.997 4.482.036 1.752-.395 3.486-1.383 5.03zm1.95-.395c.924-1.41 1.616-2.955 1.562-4.698a7.399 7.399 0 0 1 1.886-1.194 8.975 8.975 0 0 1 1.779-.584c-.431 3.575-3.198 5.515-5.228 6.476z" style="fill: #000000;"/><path d="M26.01 20H6V6h6.55V4H4v18h6.68c.82 0 1.32.23 1.32.95v1.4c0 1.02-.11 1.66-1.97 1.66H8V28h16v-2h-2.02c-1.86 0-1.97-.64-1.97-1.66v-1.39c0-.71.51-.95 1.33-.95H28v-5.02h-1.99V20z" style="fill: #000000;"/></svg>
