
<svg xmlns="http://www.w3.org/2000/svg" viewBox="0 0 32 32"><path d="M16.01 8.01c1.66 0 3-1.35 3-3s-1.35-3-3-3-3 1.35-3 3 1.34 3 3 3zm0-4.5c.83 0 1.5.67 1.5 1.5s-.67 1.5-1.5 1.5-1.5-.67-1.5-1.5.67-1.5 1.5-1.5zm4.77 14.82h1.98c-.13-1.71-.41-3.9-1.61-6.16-.38-.72-.86-1.3-1.42-1.75A5.933 5.933 0 0 0 16 9a5.99 5.99 0 0 0-3.73 1.42c-.56.45-1.03 1.04-1.42 1.75-1.2 2.26-1.48 4.45-1.61 6.16h1.98c.21-6.42 2.19-6.56 2.19-6.56v.02c-.02.24-2.16 11.21-2.16 11.21h1.6l.34 7h1.92l.27-7h1.23l.27 7h2.02l.27-7h1.57s-2.14-10.97-2.16-11.2v-.02c.01-.01 1.99.14 2.2 6.55z" style="fill: #000000;"/></svg>
