
<svg xmlns="http://www.w3.org/2000/svg" viewBox="0 0 32 32"><path d="M27.98 8.63c-.8-.61-2.97-2.48-3.8-3.22-.37-.33-.54-.73-.52-1.21.03-.66.44-1.43 1.05-2.04h-2.2c-.36.63-.57 1.31-.6 1.96-.04 1.01.34 1.9 1.1 2.59.75.68 3.01 2.63 3.91 3.32.98.74 1.33 1.8 1.24 2.47-.04.32-.17.53-.38.62-.45.19-1.47-.03-2.98-1.21a323.9 323.9 0 0 0-2.74-2.11c-1.95-1.5-3.97-3.04-5.12-3.98-2.11-1.72-4.37-2.29-6.06-1.52-1.03.47-1.67 1.39-1.7 2.47-.05 1.56 1.11 3.09 3.19 4.21 1.75.94 7.09 3.81 7.83 7.88.32 1.77-.31 3.62-1.86 5.49l-.82-.81a7.604 7.604 0 0 1-6.29 3.04c-4.2-.12-7.51-3.61-7.39-7.81.05-1.69.65-3.22 1.61-4.46l-.14-2.67-.17.17a10.556 10.556 0 0 0-3.07 7.51 10.52 10.52 0 0 0 3.14 7.48c2 1.98 4.64 3.07 7.46 3.07.17 0 .35 0 .52-.01 2.65-.13 5.14-1.24 7.01-3.12l.26-.27-.88-.87c1.97-2.33 2.76-4.7 2.33-7.04-.89-4.89-6.79-8.06-8.72-9.11-1.7-.92-2.29-1.95-2.27-2.61.01-.41.25-.74.68-.93.82-.37 2.37-.23 4.23 1.29 1.17.96 3.2 2.51 5.16 4.01.97.74 1.92 1.47 2.74 2.1 2.36 1.83 3.87 1.79 4.72 1.44.8-.33 1.33-1.06 1.45-2.01.19-1.45-.58-3.1-1.92-4.11z" style="fill: #000000;"/></svg>
