
<svg xmlns="http://www.w3.org/2000/svg" viewBox="0 0 32 32"><path stroke-width="0" d="M24.675 11.728s-2.31 1.78-2.31 3.24v2.01a.49.49 0 0 1-.57.4.514.514 0 0 1-.41-.51V8.695s-.118-4.549-.364-5.873c-1.265-.015-1-.015-2.265-.015-.266 1.343-.36 3.937-.36 5.984 0 1.963-.004 1.02.009 4.86a.48.48 0 0 1-.53.297.51.51 0 0 1-.396-.424c-.004-1.727-.01-4.501-.01-6.824 0-2.062-.078-4.625-.328-5.968-1.266 0-1 0-2.266-.016-.266 1.344-.359 3.938-.359 5.984 0 2.253.005 4.797.01 6.507v.341a.49.49 0 0 1-.57.4.514.514 0 0 1-.406-.494l-.004-1.019v-3.74h-.006c-.002-2.045-.081-4.549-.327-5.873-1.265-.015-1-.015-2.265-.015-.266 1.343-.36 3.937-.36 5.984 0 3.091.01 5.047.014 5.686-.001.017 0 .034-.006.051-.04.27-.29.45-.56.4a.5.5 0 0 1-.393-.399 736 736 0 0 1-.004-2.582c0-2.062-.078-4.625-.328-5.969-1.266-.015-1-.015-2.266-.015-.267 1.344-.36 3.937-.36 5.984 0 .806 0 1.44.002 1.952h-.002v7.03c.002 2.903 1.61 5.425 3.976 6.759v3.596h3.147V29.75c0-.009.022-.63-.477-1.051-.364-.302-.802-.907-.837-1.607-.026-.473.14-.907.478-1.257.245-.259.512-.35.78-.35.74 0 .84.315 1.186.507.355.197.731.32 1.06.32.328 0 .705-.123 1.06-.32.346-.192.446-.508 1.186-.508.268 0 .535.092.784.346.338.346.504.784.478 1.257-.04.701-.473 1.305-.837 1.608-.503.42-.481 1.046-.481 1.05v1.538h3.15V27.58c2.335-1.35 3.952-3.797 3.977-6.649v-8.733zm-13.24-7.64c0-.386.315-.702.702-.702s.703.316.703.703v1.9c0 .387-.317.704-.703.704s-.703-.317-.703-.703zm0 3.843c0-.387.315-.703.702-.703s.703.316.703.703v5.165c0 .387-.317.703-.703.703s-.703-.316-.703-.703zm-3.97-.7c0-.386.316-.702.702-.702.387 0 .703.316.703.703V9.2a.705.705 0 0 1-.703.702.705.705 0 0 1-.702-.702zm0 6.924v-3.014c0-.386.316-.702.702-.702.387 0 .703.316.703.702v3.014a.705.705 0 0 1-.703.703.705.705 0 0 1-.702-.703m4.387 10.751a.705.705 0 0 1-.903-.415L7.932 16.34a.705.705 0 0 1 .415-.903.705.705 0 0 1 .903.415l3.017 8.152a.705.705 0 0 1-.415.902m2.103-.606a.705.705 0 0 1-.81-.575l-1.451-8.57a.705.705 0 0 1 .575-.81.705.705 0 0 1 .81.575l1.451 8.57a.705.705 0 0 1-.575.81m2.737-.631a.705.705 0 0 1-.703.702.705.705 0 0 1-.703-.702v-8.693c0-.386.316-.702.703-.702s.703.316.703.702zm0-10.573a.705.705 0 0 1-.703.703.705.705 0 0 1-.703-.703v-6.34c0-.386.316-.703.703-.703s.703.317.703.703zm0-8.486a.705.705 0 0 1-.703.703.705.705 0 0 1-.703-.703V2.052c0-.386.316-.702.703-.702s.703.316.703.702zm2.503-.494c0-.386.316-.702.703-.702s.703.316.703.702V5.99c0 .386-.317.703-.703.703s-.703-.317-.703-.703zm0 3.815c0-.387.316-.703.703-.703s.703.316.703.703v5.165c0 .387-.317.703-.703.703s-.703-.316-.703-.703zm-.205 15.794a.705.705 0 0 1-.81.575.705.705 0 0 1-.575-.81l1.45-8.57a.705.705 0 0 1 .81-.576c.382.065.64.43.576.81zm4.693-3.17-2.754 3.939c-.221.317-.662.395-.978.173s-.395-.662-.174-.978l2.754-3.94c.221-.316.662-.394.978-.173s.395.662.174.979m.856-2.178a.705.705 0 0 1-.703.703.705.705 0 0 1-.702-.703v-4.014c0-.387.316-.703.702-.703.387 0 .703.316.703.703z" style="fill: #000000;"/></svg>
