<svg width="500" height="501" viewBox="0 0 500 501" fill="none" xmlns="http://www.w3.org/2000/svg">
    <path d="M60.73 68.2945L73.85 68.0145L80.51 67.9045C82.74 67.9045 84.97 67.9045 87.21 67.9045H87.65V68.3545L87.71 79.5445V80.0445H87.21L74 79.9245C69.58 79.9245 65.17 79.8145 60.76 79.7545H60.48V79.4845C60.48 77.5845 60.57 75.7045 60.61 73.8345L60.73 68.2945ZM60.73 68.2945L60.87 73.9545C60.87 75.8145 60.98 77.6545 61 79.4845L60.73 79.2145C65.14 79.2145 69.55 79.0545 73.97 79.0545L87.21 78.9845L86.71 79.4845L86.76 68.2945L87.21 68.7445C85.02 68.7445 82.85 68.7445 80.66 68.6845L74.08 68.5745L60.73 68.2945Z" fill="#EBEBEB"/>
    <path d="M75.5002 54.1844L88.6202 53.9044L95.2802 53.7944C97.5102 53.7944 99.7502 53.7944 101.98 53.7944H102.42V54.2444L102.48 65.4344V65.9344H102L88.7402 65.7944C84.3202 65.7944 79.9102 65.6844 75.5002 65.6244H75.2202V65.3544C75.2202 63.4544 75.3102 61.5744 75.3502 59.7044L75.5002 54.1844ZM75.5002 54.1844L75.6402 59.8444C75.6402 61.7044 75.7502 63.5444 75.7702 65.3744L75.5002 65.1044C79.9102 65.1044 84.3202 64.9444 88.7402 64.9444L102 64.8744L101.5 65.3744V54.1844L101.95 54.6344C99.7702 54.6344 97.5902 54.6344 95.4002 54.5744L88.8202 54.4644L75.5002 54.1844Z" fill="#EBEBEB"/>
    <path d="M101.18 197.954L114.3 197.674L120.96 197.564C123.19 197.514 125.43 197.564 127.66 197.504H128.1V197.954L128.16 209.144V209.644H127.66L114.42 209.574C110 209.574 105.59 209.464 101.18 209.414H100.9V209.144C100.9 207.244 100.99 205.354 101.03 203.484L101.18 197.954ZM101.18 197.954L101.32 203.604C101.32 205.464 101.43 207.314 101.45 209.144L101.18 208.864C105.59 208.864 110 208.704 114.42 208.704L127.66 208.644L127.16 209.144V197.954L127.61 198.394C125.42 198.394 123.25 198.394 121.06 198.394L114.48 198.284L101.18 197.954Z" fill="#EBEBEB"/>
    <path d="M116 183.845L129.12 183.565L135.78 183.455C138.01 183.455 140.25 183.455 142.48 183.395H142.92V183.845L142.98 195.035V195.535H142.48L129.24 195.465C124.82 195.465 120.41 195.355 116 195.305H115.72V195.035C115.72 193.135 115.81 191.245 115.86 189.375L116 183.845ZM116 183.845L116.14 189.495C116.14 191.355 116.25 193.205 116.27 195.035L116 194.795C120.41 194.745 124.82 194.645 129.24 194.635L142.48 194.575L141.98 195.075V183.885L142.43 184.325C140.25 184.325 138.07 184.325 135.88 184.275L129.3 184.165L116 183.845Z" fill="#EBEBEB"/>
    <path d="M46.0002 54.1844L59.1302 53.9044L65.7402 53.7944C67.9602 53.7944 70.2002 53.7944 72.4302 53.7944H72.8802V54.2444L72.9302 65.4344V65.9344H72.4202L59.1902 65.7944C54.7802 65.7944 50.3702 65.6844 45.9502 65.6244H45.6802V65.3544C45.6802 63.4544 45.7702 61.5744 45.8102 59.7044L46.0002 54.1844ZM46.0002 54.1844L46.1502 59.8444C46.1502 61.7044 46.2602 63.5444 46.2802 65.3744L46.0002 65.1044C50.4202 65.1044 54.8302 64.9444 59.2402 64.9444L72.4802 64.8744L71.9802 65.3744L72.0002 54.1844L72.4402 54.6344C70.2602 54.6344 68.0902 54.6344 65.9002 54.5744L59.3202 54.4644L46.0002 54.1844Z" fill="#EBEBEB"/>
    <path d="M439.27 297.204L426.15 297.484L419.49 297.604C417.26 297.604 415.03 297.604 412.79 297.654H412.35V297.204L412.29 286.024V285.514H412.79L426.03 285.574C430.45 285.574 434.86 285.684 439.27 285.734H439.55V286.004C439.55 287.894 439.46 289.784 439.42 291.654L439.27 297.204ZM439.27 297.204L439.13 291.554C439.13 289.694 439.02 287.854 439 286.024L439.27 286.294C434.86 286.344 430.45 286.454 426.03 286.454L412.79 286.514L413.29 286.024L413.24 297.204L412.79 296.764C414.98 296.764 417.15 296.764 419.34 296.764L425.92 296.884L439.27 297.204Z" fill="#EBEBEB"/>
    <path d="M454.05 311.315L440.92 311.595L434.26 311.715C432.03 311.715 429.8 311.715 427.57 311.765H427.12V311.315L427.07 300.125V299.625H427.58L440.82 299.685C445.23 299.685 449.64 299.795 454.06 299.845H454.33V300.105C454.33 302.005 454.24 303.895 454.2 305.765L454.05 311.315ZM454.05 311.315L453.9 305.665C453.9 303.805 453.79 301.965 453.77 300.125L454.05 300.405C449.63 300.455 445.22 300.565 440.81 300.565L427.57 300.625L428.07 300.125L428 311.315L427.56 310.875C429.74 310.875 431.91 310.875 434.1 310.925L440.68 311.045L454.05 311.315Z" fill="#EBEBEB"/>
    <path d="M87.4302 311.315L74.3102 311.595L67.6502 311.715C65.4202 311.715 63.1802 311.715 60.9502 311.765H60.5102V311.315L60.4502 300.125V299.625H61.0002L74.2402 299.685C78.6602 299.685 83.0702 299.795 87.4802 299.845H87.7602V300.105C87.7602 302.005 87.6702 303.895 87.6202 305.765L87.4302 311.315ZM87.4302 311.315L87.2902 305.665C87.2902 303.805 87.1802 301.965 87.1602 300.125L87.4302 300.405C83.0202 300.455 78.6102 300.565 74.1902 300.565L61.0002 300.625L61.5002 300.125L61.4502 311.315L61.0002 310.875C63.1802 310.875 65.3602 310.875 67.5502 310.925L74.1302 311.045L87.4302 311.315Z" fill="#EBEBEB"/>
    <path d="M412.68 54.1844L425.81 53.9044L432.47 53.7944C434.69 53.7944 436.93 53.7944 439.16 53.7944H439.61V54.2444L439.66 65.4344V65.9344H439.16L425.92 65.7944C421.51 65.7944 417.09 65.6844 412.68 65.6244H412.41V65.3544C412.41 63.4544 412.49 61.5744 412.54 59.7044L412.68 54.1844ZM412.68 54.1844L412.82 59.8444C412.87 61.7044 412.94 63.5444 412.95 65.3744L412.68 65.1044C417.09 65.1044 421.51 64.9444 425.92 64.9444L439.16 64.8744L438.66 65.3744L438.72 54.1844L439.16 54.6344C436.98 54.6344 434.8 54.6344 432.62 54.5744L426 54.4644L412.68 54.1844Z" fill="#EBEBEB"/>
    <path d="M450.67 226.575H317.53V40.6445H450.67V226.575ZM321.48 222.625H446.72V44.5945H321.48V222.625Z" fill="#EBEBEB"/>
    <path d="M386.07 45.6245H382.12V224.595H386.07V45.6245Z" fill="#EBEBEB"/>
    <path d="M454.26 48.6345H313.95V54.1345H454.26V48.6345Z" fill="#EBEBEB"/>
    <path d="M454.26 54.8245H313.95V60.3245H454.26V54.8245Z" fill="#EBEBEB"/>
    <path d="M454.26 61.0044H313.95V66.5044H454.26V61.0044Z" fill="#EBEBEB"/>
    <path d="M454.26 67.1946H313.95V72.6946H454.26V67.1946Z" fill="#EBEBEB"/>
    <path d="M454.26 73.3845H313.95V78.8845H454.26V73.3845Z" fill="#EBEBEB"/>
    <path d="M454.26 79.5745H313.95V85.0745H454.26V79.5745Z" fill="#EBEBEB"/>
    <path d="M454.26 85.7644H313.95V91.2644H454.26V85.7644Z" fill="#EBEBEB"/>
    <path d="M454.26 91.9546H313.95V97.4546H454.26V91.9546Z" fill="#EBEBEB"/>
    <path d="M454.26 98.1445H313.95V103.645H454.26V98.1445Z" fill="#EBEBEB"/>
    <path d="M442.52 47.5144H441.53V154.564H442.52V47.5144Z" fill="#A6A6A6"/>
    <path d="M443.78 159.165H440.27L441.15 154.125H442.9L443.78 159.165Z" fill="#A6A6A6"/>
    <path d="M446.08 47.5144H445.09V181.564H446.08V47.5144Z" fill="#A6A6A6"/>
    <path d="M447.34 185.275H443.83L444.71 180.235H446.46L447.34 185.275Z" fill="#A6A6A6"/>
    <path d="M460.39 39.8745H307.82V51.3845H460.39V39.8745Z" fill="#DBDBDB"/>
    <path d="M154.04 105.875H42.2202V112.515H154.04V105.875Z" fill="#EBEBEB"/>
    <path d="M57.3504 112.514H50.7104V134.474H57.3504V112.514Z" fill="#EBEBEB"/>
    <path d="M57.3504 112.514H50.7104V119.304H57.3504V112.514Z" fill="#DBDBDB"/>
    <path d="M145.55 112.514H138.91V134.474H145.55V112.514Z" fill="#EBEBEB"/>
    <path d="M145.55 112.514H138.91V119.304H145.55V112.514Z" fill="#DBDBDB"/>
    <path d="M67.4302 105.874V63.5544H56.7702V105.874H67.4302Z" fill="#C7C7C7"/>
    <path d="M67.4302 65.9544V61.3044H56.7702V65.9544H67.4302Z" fill="#DBDBDB"/>
    <path d="M67.4302 73.6345V71.9045H56.7702V73.6345H67.4302Z" fill="#DBDBDB"/>
    <path d="M68.7603 100.325V95.6746H56.7803V100.325H68.7603Z" fill="#DBDBDB"/>
    <path d="M74.8701 105.874V56.5144H67.4201V105.874H74.8701Z" fill="#DBDBDB"/>
    <path d="M73.3501 80.1445V61.1545H68.8801V80.1445H73.3501Z" fill="#EBEBEB"/>
    <path d="M127.842 100.591L92.7393 65.8901L87.5017 71.1883L122.605 105.89L127.842 100.591Z" fill="#C7C7C7"/>
    <path d="M118.59 93.4878L105.084 80.1375L101.942 83.3164L115.447 96.6668L118.59 93.4878Z" fill="#DBDBDB"/>
    <path d="M87.52 105.885V68.3945H74.87V105.885H87.52Z" fill="#A6A6A6"/>
    <path d="M87.52 101.905V98.4146H74.87V101.905H87.52Z" fill="#C7C7C7"/>
    <path d="M87.52 96.1244V94.7644H74.87V96.1244H87.52Z" fill="#C7C7C7"/>
    <path d="M56.77 105.895V70.6545H48.03V105.895H56.77Z" fill="#A6A6A6"/>
    <path d="M56.77 102.145V98.8645H48.03V102.145H56.77Z" fill="#C7C7C7"/>
    <path d="M56.77 81.1845V77.9045H48.03V81.1845H56.77Z" fill="#C7C7C7"/>
    <path d="M56.77 84.7146V83.4446H48.03V84.7146H56.77Z" fill="#C7C7C7"/>
    <path d="M451.32 447.385C451.32 461.575 361.18 473.085 250 473.085C138.82 473.085 48.6802 461.575 48.6802 447.385C48.6802 433.195 138.82 421.685 250 421.685C361.18 421.685 451.32 433.195 451.32 447.385Z" fill="#EBEBEB"/>
    <path d="M400.14 327.434C400.14 327.434 383.55 323.674 374.46 315.294C365.37 306.914 360.28 291.904 360.28 291.904C366.586 293.113 372.804 294.747 378.89 296.794C381.173 299.15 383.073 301.85 384.52 304.794C384.663 302.9 384.663 300.998 384.52 299.104C386.645 300.02 388.634 301.225 390.43 302.684C398 309.244 400.14 327.434 400.14 327.434Z" fill="#EB1600"/>
    <path d="M370.64 299.194C368.38 297.634 366.08 296.124 363.83 294.544C363.69 294.454 363.83 294.234 363.96 294.324C368.24 296.874 372.45 299.604 376.53 302.464C377.95 303.464 379.35 304.494 380.73 305.554L380.44 305.064C379.94 304.234 379.44 303.414 378.89 302.594C377.851 300.932 376.673 299.359 375.37 297.894C375.32 297.844 375.37 297.764 375.45 297.814C376.74 299.304 378.03 300.814 379.21 302.364C379.77 303.114 380.29 303.894 380.79 304.684C381.05 305.104 381.3 305.514 381.53 305.944L381.78 306.364C383.93 308.054 386.02 309.814 388.01 311.664C389.243 312.811 390.433 313.998 391.58 315.224C390.93 313.224 390.37 311.224 389.63 309.224C389.63 309.154 389.72 309.124 389.74 309.224C390.46 311.294 391.25 313.384 391.81 315.514C393.08 316.884 394.3 318.304 395.44 319.794L395.38 319.524C395.19 318.734 395 317.954 394.79 317.184C394.39 315.684 393.94 314.184 393.44 312.714C392.483 309.661 390.971 306.809 388.98 304.304C388.93 304.244 388.98 304.164 389.06 304.224C392.168 308.102 394.344 312.642 395.42 317.494C395.6 318.194 395.76 318.904 395.92 319.614C396.01 319.994 396.11 320.374 396.17 320.764C396.67 321.444 397.17 322.124 397.64 322.824C400.456 327.152 402.803 331.769 404.64 336.594C406.725 342.006 408.514 347.528 410 353.134C409.994 353.152 409.982 353.167 409.967 353.178C409.952 353.189 409.933 353.195 409.915 353.195C409.896 353.195 409.878 353.189 409.863 353.178C409.847 353.167 409.836 353.152 409.83 353.134C406.58 343.424 403.27 333.574 397.71 324.904C396.538 323.071 395.273 321.299 393.92 319.594C391.171 319.418 388.458 318.88 385.85 317.994C383.005 317.03 380.291 315.717 377.77 314.084C376.333 313.114 374.948 312.069 373.62 310.954C373.611 310.951 373.603 310.946 373.596 310.939C373.59 310.932 373.585 310.924 373.582 310.915C373.58 310.906 373.579 310.896 373.581 310.887C373.583 310.877 373.587 310.869 373.593 310.861C373.598 310.854 373.606 310.848 373.615 310.844C373.623 310.84 373.633 310.838 373.642 310.838C373.651 310.838 373.661 310.841 373.669 310.845C373.677 310.85 373.684 310.857 373.69 310.864C376.008 312.736 378.568 314.286 381.3 315.474C383.981 316.705 386.787 317.644 389.67 318.274C390.89 318.544 392.14 318.744 393.38 318.914C391.846 317.024 390.213 315.214 388.49 313.494C387.93 312.934 387.35 312.394 386.77 311.854C384.836 310.502 382.785 309.327 380.64 308.344C377.92 307.024 375.24 305.634 372.55 304.264C371.03 303.494 369.55 302.704 368 301.954C367.93 301.954 368 301.834 368.06 301.864C370.78 303.184 373.55 304.414 376.3 305.674C379.05 306.934 381.52 308.054 384 309.444L384.32 309.634C382.07 307.634 379.74 305.814 377.32 304.014C375.14 302.394 372.91 300.794 370.64 299.194Z" fill="#263238"/>
    <path d="M371.59 307.794C372.94 308.384 374.31 308.904 375.65 309.534C376.99 310.164 378.32 310.924 379.65 311.694C379.656 311.698 379.661 311.702 379.665 311.707C379.669 311.713 379.672 311.719 379.674 311.725C379.676 311.732 379.677 311.739 379.676 311.745C379.675 311.752 379.673 311.759 379.67 311.764C379.666 311.77 379.662 311.776 379.657 311.78C379.651 311.784 379.645 311.787 379.639 311.789C379.632 311.791 379.626 311.791 379.619 311.791C379.612 311.79 379.606 311.788 379.6 311.784C378.28 311.154 376.94 310.564 375.6 309.904C374.26 309.244 372.93 308.504 371.55 307.904C371.49 307.794 371.52 307.724 371.59 307.794Z" fill="#263238"/>
    <path d="M454 243.794C450.92 247.745 449.17 252.568 449 257.574C448.95 259.064 449.18 261.144 449.36 263.574C445.217 265.978 441.547 269.116 438.53 272.834C441.841 270.91 445.645 269.999 449.47 270.214C449.384 271.894 449.174 273.566 448.84 275.214C446.438 275.222 444.061 275.694 441.84 276.604C444.017 276.582 446.176 277.011 448.18 277.864C445.18 287.274 436.44 296.944 412.18 301.044C409.61 289.504 411.13 277.428 416.48 266.884C423.77 252.554 454 243.794 454 243.794Z" fill="#EB1600"/>
    <path d="M403.8 341.284C404.22 337.284 404.743 333.284 405.37 329.284C406.598 321.287 408.23 313.357 410.26 305.524C411.214 301.848 412.386 298.232 413.77 294.694C413.7 294.05 413.67 293.402 413.68 292.754C413.68 291.974 413.68 291.194 413.68 290.414C413.68 288.864 413.77 287.314 413.9 285.764C414.146 282.692 414.644 279.645 415.39 276.654C415.84 274.924 416.39 273.224 416.86 271.514C416.864 271.504 416.872 271.495 416.882 271.488C416.892 271.482 416.903 271.478 416.915 271.478C416.926 271.478 416.938 271.482 416.948 271.488C416.957 271.495 416.965 271.504 416.97 271.514C416.16 274.499 415.558 277.536 415.17 280.604C414.74 283.625 414.469 286.666 414.36 289.714C414.36 290.544 414.31 291.384 414.31 292.214C414.31 292.574 414.31 292.934 414.31 293.284C415.504 290.386 416.87 287.561 418.4 284.824C420.866 280.486 423.644 276.332 426.71 272.394C426.716 271.934 426.783 271.477 426.91 271.034C427.02 270.494 427.14 269.954 427.26 269.404C427.51 268.304 427.79 267.194 428.09 266.104C428.69 263.904 429.49 261.774 430.18 259.604C430.184 259.594 430.192 259.585 430.202 259.578C430.212 259.572 430.223 259.568 430.235 259.568C430.246 259.568 430.258 259.572 430.268 259.578C430.277 259.585 430.285 259.594 430.29 259.604C429.65 261.754 429.22 263.984 428.73 266.174C428.48 267.254 428.25 268.334 428.01 269.424C427.89 269.964 427.77 270.504 427.66 271.044C427.66 271.044 427.66 271.134 427.66 271.174C428.64 269.934 429.64 268.714 430.66 267.514C435.29 262.074 440.37 257.054 445.49 252.084C446.12 251.464 446.76 250.874 447.4 250.264C447.4 250.264 447.53 250.264 447.48 250.354C442.59 255.454 437.78 260.604 433.22 266.004C432.13 267.294 431.07 268.594 430.02 269.904L431.68 268.804C433.09 267.884 434.52 266.984 435.99 266.164C437.46 265.344 438.99 264.524 440.46 263.774C441.93 263.024 443.68 262.374 445.19 261.504C445.25 261.504 445.31 261.574 445.24 261.604C443.705 262.312 442.225 263.131 440.81 264.054C439.33 264.934 437.86 265.814 436.41 266.734C434.96 267.654 433.55 268.534 432.13 269.454C430.95 270.224 429.79 271.064 428.56 271.764C425.746 275.381 423.148 279.161 420.78 283.084C419.317 285.558 417.982 288.104 416.78 290.714L417.65 290.334L419.88 289.334C421.3 288.704 422.74 288.084 424.17 287.464C426.89 286.274 429.66 285.194 432.33 283.894C433.835 283.185 435.291 282.376 436.69 281.474C436.75 281.474 436.8 281.474 436.74 281.574C431.74 285.004 426.18 287.414 420.68 289.854L418.29 290.914C417.63 291.204 416.97 291.524 416.29 291.784C414.657 295.433 413.283 299.192 412.18 303.034C410.011 310.764 408.249 318.601 406.9 326.514C405.51 334.444 404.57 342.424 403.84 350.444C403.75 351.444 403.66 352.444 403.54 353.444C403.526 353.518 403.488 353.585 403.43 353.633C403.372 353.682 403.3 353.708 403.225 353.708C403.15 353.708 403.077 353.682 403.019 353.633C402.962 353.585 402.923 353.518 402.91 353.444C403 349.404 403.37 345.334 403.8 341.284Z" fill="#263238"/>
    <path d="M418.57 274.244C419.01 271.774 419.67 269.364 420.33 266.944C420.33 266.874 420.46 266.944 420.44 266.944C419.83 269.314 419.39 271.734 418.94 274.134C418.49 276.534 418.09 279.054 417.74 281.524C417.74 281.524 417.67 281.574 417.67 281.524C417.831 279.083 418.132 276.652 418.57 274.244Z" fill="#263238"/>
    <path d="M429 280.934C430.69 279.816 432.454 278.814 434.28 277.934C435.16 277.484 436.06 277.044 436.95 276.614C437.84 276.184 438.84 275.794 439.76 275.334C439.82 275.334 439.87 275.394 439.76 275.424C438.87 275.874 438.03 276.424 437.16 276.884L434.46 278.364C432.69 279.314 430.94 280.364 429.08 281.144C429.059 281.139 429.04 281.128 429.024 281.113C429.007 281.098 428.995 281.08 428.987 281.06C428.979 281.039 428.977 281.017 428.979 280.996C428.981 280.974 428.988 280.953 429 280.934Z" fill="#263238"/>
    <path opacity="0.1" d="M399.84 298.694C399.84 298.694 384.49 295.024 377.44 284.694C370.71 274.864 368.53 258.095 368.36 256.615C368.63 257.975 371.8 272.614 382.25 279.454C390.26 284.714 398 289.014 399.84 298.694Z" fill="#263238"/>
    <path d="M399.84 298.694C399.84 298.694 384.49 295.024 377.44 284.694C370.71 274.864 368.53 258.094 368.36 256.614C368.355 256.581 368.355 256.548 368.36 256.514C368.36 256.514 375.72 266.984 383.46 269.654C391.2 272.324 402.06 281.584 399.84 298.694Z" fill="#EB1600"/>
    <path d="M371.06 262.314C372.437 265.136 374.025 267.851 375.81 270.434C377.598 272.886 379.722 275.074 382.12 276.934C384.21 278.594 386.41 280.094 388.52 281.714V281.634C388.12 281.054 387.7 280.474 387.26 279.924C386.38 278.794 385.42 277.734 384.45 276.684C382.55 274.614 380.6 272.584 378.89 270.344C377.936 269.098 377.112 267.758 376.43 266.344C376.43 266.274 376.5 266.244 376.53 266.344C379.02 271.534 384 274.854 387.53 279.234C388.032 279.857 388.503 280.505 388.94 281.174C389.292 281.661 389.591 282.184 389.83 282.734C391.774 284.294 393.533 286.072 395.07 288.034C394.936 287.021 394.729 286.018 394.45 285.034C394.095 283.666 393.546 282.356 392.82 281.144C392.82 281.084 392.88 281.014 392.92 281.084C393.661 282.299 394.261 283.594 394.71 284.944C395.034 286.02 395.222 287.132 395.27 288.254C396.03 289.286 396.725 290.365 397.35 291.484C397.28 291.154 397.22 290.824 397.16 290.484C396.85 288.954 396.52 287.424 396.16 285.914C395.435 282.841 394.187 279.915 392.47 277.264C392.42 277.204 392.47 277.144 392.56 277.204C394.321 279.814 395.698 282.663 396.65 285.664C397.14 287.174 397.53 288.664 397.88 290.254C398.05 291.004 398.2 291.764 398.34 292.524C398.42 292.914 398.5 293.324 398.57 293.724C400.09 297.069 401.275 300.556 402.11 304.134C403.614 310.528 404.707 317.011 405.38 323.544C406.173 330.385 406.527 337.269 406.44 344.154C406.44 345.024 406.37 345.884 406.33 346.744C406.33 346.964 405.98 347.004 405.97 346.744C405.82 343.334 405.73 339.924 405.53 336.524C405.33 333.124 405.03 329.724 404.67 326.324C403.969 319.654 402.901 313.027 401.47 306.474C400.22 300.864 398.61 295.214 395.54 290.294C394.015 287.846 392.15 285.627 390 283.704C387.85 281.774 385.5 280.084 383.23 278.294C380.93 276.544 378.842 274.53 377.01 272.294C375.136 269.815 373.502 267.163 372.13 264.374L371.03 262.294C370.93 262.314 371 262.254 371.06 262.314Z" fill="#263238"/>
    <path d="M373.71 264.575C374.72 266.646 375.862 268.65 377.13 270.575C377.13 270.575 377.13 270.665 377.06 270.575C375.741 268.675 374.584 266.668 373.6 264.575C373.57 264.545 373.68 264.505 373.71 264.575Z" fill="#263238"/>
    <path d="M456.18 291.904C456.18 291.904 456.43 313.724 443.38 320.014C430.33 326.304 423.38 321.074 414.48 323.184C414.82 322.664 421.15 313.564 431.21 311.064C441.57 308.474 453 300.994 456.18 291.904Z" fill="#EB1600"/>
    <path opacity="0.1" d="M456.18 291.904C456.18 291.904 456.43 313.724 443.38 320.014C430.33 326.304 423.38 321.074 414.48 323.184C419.165 320.949 424.173 319.468 429.32 318.794C437.55 317.794 453.26 312.444 456.18 291.904Z" fill="black"/>
    <path d="M413.62 323.574C415.169 322.155 416.918 320.969 418.81 320.054C419.08 319.924 419.37 319.814 419.66 319.694C419.792 319.519 419.936 319.352 420.09 319.194C420.49 318.784 420.89 318.394 421.32 318.024C422.14 317.32 423.02 316.688 423.95 316.134C426.11 314.864 428.48 313.974 430.69 312.794C430.75 312.794 430.81 312.854 430.74 312.894C429.65 313.454 428.59 314.084 427.53 314.704C426.47 315.324 425.44 315.884 424.43 316.534C423.526 317.117 422.664 317.762 421.85 318.464C421.62 318.664 421.4 318.884 421.18 319.104C422.623 318.62 424.096 318.229 425.59 317.934C427.98 317.454 430.39 317.114 432.78 316.604C433.948 316.354 435.103 316.044 436.24 315.674C437.32 314.794 438.4 313.934 439.43 312.984C440.669 311.847 441.797 310.595 442.8 309.244C442.8 309.194 442.94 309.244 442.89 309.304C441.309 311.445 439.52 313.425 437.55 315.214C438.11 314.994 438.66 314.764 439.21 314.514C443.693 312.507 447.54 309.308 450.33 305.264C450.33 305.204 450.47 305.264 450.43 305.324C448.057 308.794 444.993 311.735 441.43 313.964C439.647 315.078 437.741 315.981 435.75 316.654C433.437 317.371 431.078 317.929 428.69 318.324C426.35 318.704 424.041 319.252 421.78 319.964C419.698 320.67 417.741 321.699 415.98 323.014C412.658 325.596 409.981 328.913 408.16 332.704C405.821 337.753 404.364 343.164 403.85 348.704C403.85 348.934 403.47 348.934 403.48 348.704C404.09 339.484 406.55 329.934 413.62 323.574Z" fill="#263238"/>
    <path d="M428.76 316.454C429.44 315.437 430.361 314.602 431.44 314.024C432.677 313.379 433.764 312.479 434.63 311.384C434.63 311.324 434.77 311.384 434.72 311.444C433.937 312.442 432.986 313.294 431.91 313.964C430.726 314.595 429.681 315.459 428.84 316.504C428.8 316.554 428.72 316.504 428.76 316.454Z" fill="#263238"/>
    <path d="M421.83 339.674L421.24 351.674L419.42 388.324H392.05L390.23 351.674L389.64 339.674H421.83Z" fill="#37474F"/>
    <path d="M421.83 339.674L421.24 351.674H390.23L389.64 339.674H421.83Z" fill="#263238"/>
    <path d="M423.75 334.665H387.72V346.115H423.75V334.665Z" fill="#37474F"/>
    <path d="M42.2202 388.324L94.1602 388.084L146.11 387.994L250 387.824L353.89 387.994L405.84 388.084L457.78 388.324L405.84 388.574L353.89 388.664L250 388.824L146.11 388.654L94.1602 388.574L42.2202 388.324Z" fill="#263238"/>
    <path d="M375.22 415.055V66.5245C375.22 59.4056 369.449 53.6345 362.33 53.6345L137.68 53.6345C130.561 53.6345 124.79 59.4056 124.79 66.5245L124.79 415.055C124.79 422.173 130.561 427.945 137.68 427.945H362.33C369.449 427.945 375.22 422.173 375.22 415.055Z" fill="#263238"/>
    <path d="M364.65 79.8345H135.64V401.974H364.65V79.8345Z" fill="white"/>
    <path d="M277.24 69.5345V68.1445C277.24 67.4542 276.681 66.8945 275.99 66.8945H223.99C223.3 66.8945 222.74 67.4542 222.74 68.1445V69.5345C222.74 70.2249 223.3 70.7845 223.99 70.7845H275.99C276.681 70.7845 277.24 70.2249 277.24 69.5345Z" fill="#37474F"/>
    <path d="M250 421.684C253.894 421.684 257.05 418.528 257.05 414.634C257.05 410.741 253.894 407.584 250 407.584C246.107 407.584 242.95 410.741 242.95 414.634C242.95 418.528 246.107 421.684 250 421.684Z" fill="#37474F"/>
    <path d="M329.37 124.074H170.93V126.304H329.37V124.074Z" fill="#EBEBEB"/>
    <path d="M329.37 130.995H170.93V133.225H329.37V130.995Z" fill="#EBEBEB"/>
    <path d="M329.37 341.725H170.93V343.955H329.37V341.725Z" fill="#EBEBEB"/>
    <path d="M329.37 348.645H170.93V350.875H329.37V348.645Z" fill="#EBEBEB"/>
    <path d="M209.45 372.655C213.493 372.655 216.77 369.377 216.77 365.335C216.77 361.292 213.493 358.015 209.45 358.015C205.407 358.015 202.13 361.292 202.13 365.335C202.13 369.377 205.407 372.655 209.45 372.655Z" fill="#EB1600"/>
    <path d="M209.57 369.604L205.21 365.194L206.68 363.744L209.22 366.324L214.52 358.024L216.25 359.134L209.57 369.604Z" fill="white"/>
    <path d="M227.78 365.275C227.785 364.749 227.88 364.228 228.06 363.735C228.245 363.231 228.527 362.769 228.89 362.374C229.276 361.938 229.752 361.591 230.286 361.358C230.82 361.125 231.398 361.011 231.98 361.025C232.682 361.012 233.373 361.192 233.98 361.545C234.523 361.86 234.964 362.325 235.25 362.884L234 363.795C233.9 363.569 233.762 363.362 233.59 363.185C233.439 363.031 233.267 362.9 233.08 362.795C232.896 362.701 232.701 362.63 232.5 362.585C232.306 362.545 232.108 362.525 231.91 362.525C231.535 362.515 231.163 362.601 230.83 362.775C230.529 362.932 230.266 363.154 230.06 363.425C229.854 363.698 229.698 364.006 229.6 364.335C229.374 365.016 229.374 365.753 229.6 366.435C229.711 366.77 229.884 367.082 230.11 367.355C230.331 367.616 230.599 367.833 230.9 367.995C231.21 368.153 231.552 368.235 231.9 368.235C232.103 368.231 232.304 368.204 232.5 368.154C232.707 368.111 232.906 368.037 233.09 367.935C233.28 367.825 233.455 367.69 233.61 367.534C233.774 367.359 233.906 367.156 234 366.935L235.35 367.715C235.216 368.034 235.019 368.323 234.77 368.564C234.519 368.81 234.233 369.015 233.92 369.175C233.284 369.516 232.573 369.695 231.85 369.694C231.272 369.699 230.7 369.569 230.18 369.314C229.687 369.068 229.245 368.728 228.88 368.314C228.516 367.902 228.228 367.428 228.03 366.914C227.84 366.389 227.755 365.832 227.78 365.275Z" fill="#EB1600"/>
    <path d="M240.08 369.654C239.493 369.664 238.911 369.537 238.38 369.284C237.387 368.804 236.617 367.958 236.23 366.925C236.032 366.418 235.93 365.879 235.93 365.335C235.93 364.776 236.039 364.222 236.25 363.705C236.453 363.195 236.748 362.728 237.12 362.324C237.496 361.91 237.947 361.57 238.45 361.324C238.975 361.089 239.545 360.97 240.12 360.974C240.703 360.964 241.279 361.094 241.8 361.354C242.299 361.597 242.745 361.937 243.11 362.354C243.494 362.775 243.796 363.263 244 363.794C244.197 364.298 244.299 364.834 244.3 365.374C244.3 365.933 244.192 366.487 243.98 367.004C243.784 367.512 243.492 367.977 243.12 368.374C242.746 368.771 242.297 369.09 241.8 369.314C241.26 369.558 240.672 369.674 240.08 369.654ZM237.61 365.335C237.611 365.698 237.669 366.059 237.78 366.404C237.885 366.734 238.048 367.042 238.26 367.314C238.477 367.575 238.742 367.793 239.04 367.955C239.366 368.115 239.727 368.194 240.09 368.185C240.461 368.192 240.828 368.109 241.16 367.944C241.461 367.782 241.726 367.561 241.94 367.294C242.151 367.017 242.313 366.706 242.42 366.374C242.519 366.05 242.573 365.714 242.58 365.374C242.581 365.01 242.52 364.648 242.4 364.305C242.294 363.974 242.128 363.665 241.91 363.395C241.703 363.126 241.436 362.911 241.13 362.764C240.82 362.61 240.477 362.532 240.13 362.534C239.763 362.527 239.399 362.61 239.07 362.775C238.762 362.926 238.495 363.149 238.29 363.425C238.078 363.697 237.915 364.005 237.81 364.335C237.693 364.656 237.626 364.993 237.61 365.335Z" fill="#EB1600"/>
    <path d="M247.17 364.134V369.594H245.52V361.074H246.8L251.24 366.664V361.084H252.9V369.594H251.55L247.17 364.134Z" fill="#EB1600"/>
    <path d="M254.67 369.594V361.074H260.4V362.524H256.33V364.724H259.71V366.064H256.33V369.594H254.67Z" fill="#EB1600"/>
    <path d="M261.56 369.594V361.074H263.22V369.594H261.56Z" fill="#EB1600"/>
    <path d="M265 369.595V361.075H268.77C269.147 361.071 269.519 361.153 269.86 361.315C270.182 361.479 270.473 361.699 270.72 361.965C270.955 362.235 271.144 362.543 271.28 362.875C271.41 363.192 271.478 363.532 271.48 363.875C271.489 364.407 271.347 364.93 271.07 365.385C270.814 365.83 270.421 366.18 269.95 366.385L271.89 369.595H270L268.26 366.735H266.63V369.595H265ZM266.66 365.285H268.74C268.888 365.288 269.033 365.25 269.16 365.175C269.293 365.103 269.409 365.005 269.5 364.885C269.604 364.754 269.682 364.604 269.73 364.445C269.791 364.271 269.821 364.088 269.82 363.905C269.819 363.717 269.785 363.531 269.72 363.355C269.661 363.193 269.573 363.044 269.46 362.915C269.356 362.796 269.23 362.698 269.09 362.625C268.957 362.558 268.809 362.523 268.66 362.525H266.66V365.285Z" fill="#EB1600"/>
    <path d="M279.92 369.594V363.954L277.73 368.154H276.83L274.63 363.954V369.594H273V361.074H274.78L277.3 365.924L279.84 361.074H281.61V369.594H279.92Z" fill="#EB1600"/>
    <path d="M289.27 368.144V369.594H283.35V361.074H289.16V362.524H285V364.524H288.59V365.874H285V368.094L289.27 368.144Z" fill="#EB1600"/>
    <path d="M290.57 369.595V361.075H293.66C294.287 361.059 294.91 361.175 295.49 361.415C295.991 361.617 296.442 361.928 296.81 362.325C297.164 362.715 297.433 363.175 297.6 363.675C297.966 364.782 297.966 365.977 297.6 367.085C297.417 367.585 297.128 368.041 296.754 368.421C296.38 368.8 295.928 369.095 295.43 369.285C294.875 369.499 294.284 369.604 293.69 369.595H290.57ZM296.19 365.325C296.198 364.941 296.14 364.559 296.02 364.195C295.922 363.867 295.755 363.563 295.53 363.305C295.314 363.054 295.044 362.856 294.74 362.725C294.396 362.589 294.029 362.521 293.66 362.525H292.22V368.145H293.66C294.035 368.148 294.406 368.073 294.75 367.925C295.054 367.79 295.324 367.588 295.54 367.335C295.758 367.069 295.921 366.764 296.02 366.435C296.139 366.077 296.197 365.702 296.19 365.325Z" fill="#EB1600"/>
    <path d="M312.64 326.194H187.36V220.214L249.99 180.434L312.64 220.214V326.194Z" fill="#EB1600"/>
    <path opacity="0.2" d="M312.64 326.194H187.36V220.214L249.99 180.434L312.64 220.214V326.194Z" fill="black"/>
    <path d="M305.57 175.395H194.42V318.085H305.57V175.395Z" fill="#EBEBEB"/>
    <path d="M243.23 260.764L217.78 235.004L226.33 226.554L241.2 241.604L272.08 193.184L282.22 199.644L243.23 260.764Z" fill="#EB1600"/>
    <path d="M312.64 246.794V326.194H187.36V246.794C192.74 249.794 198.03 253.034 203.36 256.154C208.69 259.274 213.97 262.514 219.24 265.754C225.11 269.324 230.98 272.964 236.83 276.624L237.02 276.514C236.96 276.514 236.92 276.614 236.87 276.644C241.244 279.344 245.62 282.061 250 284.794C254.36 282.044 258.75 279.274 263.13 276.564C263.08 276.564 263.04 276.474 262.98 276.434C263.039 276.475 263.103 276.509 263.17 276.534C269.017 272.888 274.88 269.261 280.76 265.654C286.034 262.434 291.32 259.241 296.62 256.074C302 252.984 307.26 249.794 312.64 246.794Z" fill="#EB1600"/>
    <g opacity="0.2">
        <path d="M312.64 246.794C307.58 250.344 302.43 253.794 297.33 257.254C292.23 260.714 287.04 264.094 281.86 267.484C276.46 271.024 271.05 274.531 265.63 278.004L265.14 278.344L250.71 287.544L249.99 287.974L249.29 287.544L234.88 278.324L234.37 278.004C228.937 274.524 223.52 271.011 218.12 267.464C212.96 264.094 207.81 260.674 202.67 257.254C197.53 253.834 192.42 250.294 187.36 246.794C192.74 249.794 198.03 253.034 203.36 256.154C208.69 259.274 213.97 262.514 219.24 265.754C225.11 269.324 230.98 272.964 236.83 276.624C241.23 279.338 245.62 282.061 250 284.794C254.36 282.044 258.75 279.274 263.13 276.564C268.977 272.918 274.84 269.291 280.72 265.684C285.994 262.464 291.28 259.271 296.58 256.104C302 252.984 307.26 249.794 312.64 246.794Z" fill="black"/>
        <path d="M237 276.464C236.94 276.464 236.9 276.564 236.85 276.594L234.85 278.274C231.71 280.924 228.49 283.464 225.22 285.934C221.22 288.934 217.15 291.934 213.05 294.794C208.95 297.654 204.79 300.454 200.55 303.164C196.31 305.874 192.05 308.524 187.63 310.954C191.43 307.624 195.38 304.514 199.37 301.494C203.36 298.474 207.46 295.494 211.54 292.624C215.62 289.754 219.82 286.944 224.05 284.234C227.42 282.074 230.85 279.944 234.34 277.954C235.15 277.484 235.96 277.034 236.79 276.574L237 276.464Z" fill="black"/>
        <path d="M312.34 310.954C307.92 308.524 303.63 305.874 299.42 303.164C295.21 300.454 291 297.634 286.9 294.794C282.8 291.954 278.72 288.974 274.73 285.934C271.48 283.464 268.26 280.934 265.14 278.294L263.14 276.594C263.09 276.594 263.05 276.504 262.99 276.464C263.049 276.505 263.113 276.539 263.18 276.564C264.01 277.034 264.82 277.484 265.63 277.954C269.12 279.954 272.53 282.074 275.92 284.234C280.15 286.944 284.29 289.764 288.41 292.624C292.53 295.484 296.59 298.444 300.58 301.494C304.57 304.544 308.54 307.624 312.34 310.954Z" fill="black"/>
    </g>
    <path d="M196.4 168.594C195.734 163.098 195.734 157.541 196.4 152.044C197.067 157.541 197.067 163.098 196.4 168.594Z" fill="#263238"/>
    <path d="M189.36 171.224C187.169 169.533 185.094 167.696 183.15 165.724C181.177 163.787 179.339 161.715 177.65 159.524C182.009 162.94 185.941 166.869 189.36 171.224Z" fill="#263238"/>
    <path d="M186.25 178.054C183.505 178.41 180.738 178.577 177.97 178.554C175.205 178.585 172.442 178.422 169.7 178.065C172.442 177.704 175.205 177.537 177.97 177.565C180.738 177.538 183.505 177.702 186.25 178.054Z" fill="#263238"/>
    <path d="M188.88 185.084C185.461 189.44 181.533 193.371 177.18 196.794C180.592 192.429 184.521 188.494 188.88 185.074V185.084Z" fill="#263238"/>
    <path d="M302.85 168.594C302.503 165.848 302.339 163.082 302.36 160.314C302.34 157.549 302.511 154.786 302.87 152.044C303.537 157.541 303.537 163.098 302.87 168.594H302.85Z" fill="#263238"/>
    <path d="M309.89 171.224C313.31 166.869 317.241 162.94 321.6 159.524C319.912 161.715 318.074 163.787 316.1 165.724C314.157 167.696 312.082 169.533 309.89 171.224Z" fill="#263238"/>
    <path d="M313 178.055C315.746 177.702 318.512 177.538 321.28 177.565C324.045 177.536 326.809 177.704 329.55 178.065C326.808 178.422 324.045 178.586 321.28 178.555C318.512 178.577 315.745 178.41 313 178.055Z" fill="#263238"/>
    <path d="M310.37 185.084C314.729 188.501 318.658 192.433 322.07 196.794C319.882 195.1 317.81 193.259 315.87 191.284C313.897 189.347 312.059 187.275 310.37 185.084Z" fill="#263238"/>
    <path d="M169.29 457.914C167.13 458.614 105.6 457.814 103.29 456.294C102.4 455.734 101.99 446.764 101.81 435.904V435.564C101.81 433.334 101.74 431.024 101.73 428.694C101.73 428.374 101.73 428.054 101.73 427.694L104.73 395.774L145.89 396.184L141.82 427.804V429.054L141.57 435.594V436.274C141.57 436.274 164.99 447.114 167.37 449.054C169.75 450.994 171.44 457.234 169.29 457.914Z" fill="#F7A9A0"/>
    <path d="M169.29 457.915C167.13 458.615 105.6 457.815 103.29 456.295C102.4 455.735 101.99 446.765 101.81 435.905V435.565C101.81 433.335 101.74 431.025 101.73 428.695C101.73 428.375 101.73 428.055 101.73 427.695L141.81 427.805V429.055L141.56 435.595V436.275C141.56 436.275 164.98 447.115 167.36 449.055C169.74 450.995 171.44 457.235 169.29 457.915Z" fill="#EBEBEB"/>
    <path d="M169.47 458.064C167.29 458.764 105.2 458.174 102.85 456.654C101.95 456.084 101.51 447.034 101.29 436.084L141.29 436.354C141.29 436.354 164.96 447.214 167.37 449.154C169.78 451.094 171.64 457.354 169.47 458.064Z" fill="#EB1600"/>
    <path d="M168.6 455.574C158.2 455.214 116.19 454.764 105.88 455.204C105.8 455.204 105.8 455.264 105.88 455.274C116.19 455.844 158.19 455.954 168.6 455.744C168.82 455.734 168.82 455.574 168.6 455.574Z" fill="#263238"/>
    <path d="M163.42 446.884C162.264 446.846 161.112 447.046 160.036 447.473C158.961 447.899 157.985 448.543 157.17 449.364C155.698 450.839 154.846 452.821 154.79 454.904C154.79 454.964 154.91 454.964 154.92 454.904C155.292 452.846 156.322 450.965 157.854 449.542C159.387 448.119 161.34 447.232 163.42 447.014C163.431 447.019 163.442 447.02 163.454 447.019C163.465 447.018 163.476 447.014 163.485 447.007C163.495 447.001 163.502 446.992 163.508 446.982C163.513 446.972 163.516 446.961 163.516 446.949C163.516 446.938 163.513 446.927 163.508 446.917C163.502 446.906 163.495 446.898 163.485 446.891C163.476 446.885 163.465 446.881 163.454 446.88C163.442 446.879 163.431 446.88 163.42 446.884Z" fill="#263238"/>
    <path d="M145.35 437.435C141.18 437.335 136.35 438.755 133.72 442.135C133.62 442.275 133.81 442.415 133.93 442.345C137.593 440.474 141.445 438.999 145.42 437.945C145.48 437.927 145.532 437.889 145.566 437.837C145.601 437.784 145.615 437.721 145.606 437.659C145.598 437.597 145.567 437.54 145.52 437.499C145.473 437.458 145.413 437.435 145.35 437.435Z" fill="#263238"/>
    <path d="M148.55 438.715C144.39 438.615 139.55 440.045 136.92 443.425C136.82 443.555 137.01 443.695 137.13 443.635C140.791 441.758 144.643 440.28 148.62 439.225C148.68 439.207 148.732 439.169 148.766 439.117C148.8 439.064 148.814 439.001 148.806 438.939C148.797 438.877 148.767 438.82 148.72 438.779C148.673 438.738 148.612 438.715 148.55 438.715Z" fill="#263238"/>
    <path d="M151.76 439.994C147.59 439.904 142.76 441.324 140.13 444.704C140.03 444.834 140.21 444.984 140.34 444.914C144 443.045 147.848 441.57 151.82 440.514C151.876 440.493 151.924 440.454 151.955 440.402C151.986 440.351 151.999 440.291 151.992 440.231C151.986 440.171 151.959 440.116 151.917 440.073C151.875 440.03 151.82 440.002 151.76 439.994Z" fill="#263238"/>
    <path d="M155 441.284C150.84 441.184 146 442.614 143.37 445.994C143.27 446.124 143.46 446.264 143.58 446.204C147.219 444.332 151.047 442.854 155 441.794C155.059 441.783 155.112 441.751 155.15 441.704C155.188 441.658 155.209 441.6 155.209 441.539C155.209 441.479 155.188 441.421 155.15 441.375C155.112 441.328 155.059 441.296 155 441.284Z" fill="#263238"/>
    <path d="M108.63 445.344C103.95 445.344 103.9 452.574 108.63 452.604C113.36 452.634 113.31 445.374 108.63 445.344Z" fill="white"/>
    <path d="M150 426.354C147.91 424.584 145.23 426.274 143.92 428.074C141.703 431.208 140.351 434.871 140 438.694C140 438.774 140.06 438.814 140.13 438.814C140.145 438.893 140.178 438.966 140.227 439.029C140.277 439.092 140.34 439.142 140.412 439.175C140.485 439.208 140.564 439.224 140.644 439.22C140.723 439.217 140.801 439.194 140.87 439.154C143.87 437.154 147.3 435.334 149.58 432.464C150.9 430.794 151.94 428.034 150 426.354ZM144.8 435.164C143.36 436.164 141.87 437.164 140.47 438.234C141.165 436.145 141.966 434.092 142.87 432.084C143.325 431.119 143.843 430.183 144.42 429.284C145.34 427.914 149.42 424.474 149.83 429.014C150 431.514 146.48 433.934 144.76 435.164H144.8Z" fill="#263238"/>
    <path d="M129.62 440.134C133.25 440.724 137 439.734 140.57 439.214C140.647 439.194 140.718 439.157 140.778 439.104C140.839 439.052 140.886 438.987 140.917 438.913C140.948 438.84 140.961 438.76 140.957 438.681C140.952 438.601 140.929 438.524 140.89 438.454C140.902 438.444 140.912 438.431 140.919 438.416C140.926 438.402 140.93 438.386 140.93 438.369C140.93 438.353 140.926 438.337 140.919 438.322C140.912 438.308 140.902 438.295 140.89 438.284C138.073 435.696 134.624 433.896 130.89 433.064C128.7 432.614 125.59 433.174 125.24 435.894C124.89 438.464 127.51 439.794 129.62 440.134ZM127.13 437.794C124.35 434.194 129.71 433.954 131.31 434.344C132.331 434.609 133.334 434.943 134.31 435.344C136.37 436.164 138.31 437.254 140.24 438.264C138.47 438.414 136.73 438.714 134.96 438.924C132.89 439.144 128.67 439.724 127.13 437.794Z" fill="#263238"/>
    <path opacity="0.1" d="M134.3 458.164C118.87 457.894 103.98 457.384 102.85 456.654C101.95 456.084 101.51 447.034 101.29 436.084H106.99C113.29 441.244 126.62 451.974 134.3 458.164Z" fill="black"/>
    <path d="M144.2 435.794H99.8901C99.8901 435.794 108.81 332.304 108.46 330.494C108.02 328.174 105.4 317.704 101.92 304.014C100.83 299.734 99.6501 295.144 98.4301 290.384C95.1201 277.504 91.4301 263.434 88.3101 251.184C83.5501 232.844 79.8301 218.594 79.8301 218.594H117.38C117.38 218.594 121.76 232.464 127.28 250.524C136.28 279.854 148.28 320.234 149.46 330.054C151.38 345.884 144.2 435.794 144.2 435.794Z" fill="#37474F"/>
    <path d="M142.24 428.214C135.47 428.074 137.41 428.024 130.64 427.954C127.33 427.954 105.57 427.734 102.47 428.244C102.451 428.244 102.434 428.252 102.42 428.265C102.407 428.278 102.4 428.296 102.4 428.314C102.4 428.333 102.407 428.351 102.42 428.364C102.434 428.377 102.451 428.384 102.47 428.384C105.57 428.894 127.33 428.704 130.64 428.674C137.41 428.614 135.47 428.554 142.24 428.414C142.266 428.414 142.292 428.404 142.311 428.385C142.329 428.366 142.34 428.341 142.34 428.314C142.34 428.288 142.329 428.262 142.311 428.244C142.292 428.225 142.266 428.214 142.24 428.214Z" fill="#263238"/>
    <path d="M116.8 324.145C115.35 317.745 113.17 311.465 111.28 305.145C107.44 292.378 103.576 279.611 99.6898 266.845C97.7498 260.465 95.8031 254.085 93.8498 247.705C92.8631 244.485 91.8631 241.268 90.8498 238.055C89.8498 234.905 88.7398 231.795 87.8498 228.615C87.4898 227.325 87.2898 228.035 87.7598 229.675C88.6898 232.975 89.6098 236.285 90.5798 239.585C92.4798 246.118 94.3998 252.645 96.3398 259.165C100.18 272.145 104.053 285.115 107.96 298.075C109.913 304.581 111.87 311.081 113.83 317.575C114.821 320.669 115.619 323.821 116.22 327.015C116.748 330.351 116.882 333.737 116.62 337.105C116.19 343.885 115.4 350.655 114.78 357.415C114.16 364.175 113.52 370.975 112.9 377.745C111.653 391.238 110.413 404.728 109.18 418.215C109.03 419.925 108.88 421.635 108.75 423.355C108.75 423.925 109.57 423.875 109.63 423.355C111.09 410.025 112.21 396.635 113.46 383.285C114.71 369.935 115.96 356.695 117.2 343.405C117.51 340.065 117.87 336.725 117.87 333.405C117.862 330.288 117.503 327.181 116.8 324.145Z" fill="#263238"/>
    <path d="M113.12 218.574C110.51 238.744 105.54 276.574 101.92 303.994C93.4501 270.794 79.8301 218.574 79.8301 218.574H113.12Z" fill="#263238"/>
    <path d="M122.34 458.515C120.19 459.215 58.6601 458.645 56.3401 457.135C55.4501 456.575 55.0101 447.605 54.7901 436.745V436.405C54.7401 434.175 54.7001 431.865 54.6901 429.535C54.6901 429.215 54.6901 428.895 54.6901 428.535C54.5501 412.875 55.6901 396.625 55.6901 396.625L95.9101 396.885L94.7801 428.505V429.755L94.5601 436.305V436.975C94.5601 436.975 117.91 447.795 120.29 449.695C122.67 451.595 124.5 457.795 122.34 458.515Z" fill="#F7A9A0"/>
    <path d="M122.34 458.514C120.19 459.214 58.6599 458.644 56.3399 457.134C55.4499 456.574 55.0099 447.604 54.7899 436.744V436.404C54.7399 434.174 54.6999 431.864 54.6899 429.534C54.6899 429.214 54.6899 428.894 54.6899 428.534H94.7699V429.784L94.5499 436.334V437.004C94.5499 437.004 117.91 447.794 120.29 449.694C122.67 451.594 124.5 457.794 122.34 458.514Z" fill="#EBEBEB"/>
    <path d="M122.59 458.385C120.41 459.085 58.3202 458.495 55.9702 456.975C55.0702 456.405 54.6302 447.355 54.4102 436.405L94.4102 436.675C94.4102 436.675 118.08 447.535 120.48 449.475C122.88 451.415 124.76 457.675 122.59 458.385Z" fill="#EB1600"/>
    <path d="M121.72 455.894C111.31 455.534 69.3099 455.084 58.9999 455.524C58.9199 455.524 58.9199 455.584 58.9999 455.584C69.2999 456.164 111.31 456.274 121.72 456.064C121.94 456.054 121.94 455.894 121.72 455.894Z" fill="#263238"/>
    <path d="M116.54 447.205C115.384 447.165 114.232 447.365 113.156 447.792C112.081 448.219 111.105 448.863 110.29 449.685C108.814 451.157 107.962 453.141 107.91 455.225C107.91 455.285 108.03 455.285 108.04 455.225C108.412 453.167 109.442 451.285 110.974 449.862C112.507 448.439 114.46 447.552 116.54 447.335C116.553 447.329 116.564 447.32 116.572 447.309C116.58 447.297 116.584 447.284 116.584 447.27C116.584 447.256 116.58 447.242 116.572 447.23C116.564 447.219 116.553 447.21 116.54 447.205Z" fill="#263238"/>
    <path d="M98.4701 437.795C94.3001 437.705 89.4701 439.125 86.8401 442.505C86.7401 442.635 86.9201 442.785 87.0501 442.715C90.7128 440.844 94.5646 439.369 98.5401 438.315C98.5964 438.293 98.6438 438.252 98.6745 438.2C98.7052 438.148 98.7175 438.087 98.7094 438.027C98.7013 437.967 98.6734 437.912 98.63 437.869C98.5866 437.827 98.5303 437.801 98.4701 437.795Z" fill="#263238"/>
    <path d="M101.67 439.034C97.5098 438.934 92.6698 440.354 90.0398 443.744C89.9398 443.874 90.1298 444.014 90.2498 443.954C93.9111 442.078 97.7631 440.599 101.74 439.544C101.8 439.527 101.852 439.489 101.886 439.437C101.92 439.384 101.935 439.321 101.926 439.259C101.917 439.197 101.887 439.14 101.84 439.099C101.793 439.058 101.732 439.035 101.67 439.034Z" fill="#263238"/>
    <path d="M104.88 440.314C100.71 440.214 95.8797 441.644 93.2497 445.024C93.1397 445.154 93.3297 445.294 93.4597 445.234C97.1171 443.359 100.966 441.884 104.94 440.834C104.996 440.813 105.043 440.774 105.075 440.722C105.106 440.671 105.119 440.611 105.112 440.551C105.105 440.491 105.079 440.436 105.037 440.393C104.994 440.35 104.939 440.322 104.88 440.314Z" fill="#263238"/>
    <path d="M108.08 441.605C103.91 441.505 99.08 442.925 96.45 446.315C96.35 446.445 96.54 446.585 96.66 446.525C100.321 444.646 104.173 443.168 108.15 442.115C108.21 442.097 108.262 442.059 108.296 442.007C108.331 441.954 108.345 441.891 108.336 441.829C108.328 441.767 108.297 441.71 108.25 441.669C108.203 441.628 108.143 441.605 108.08 441.605Z" fill="#263238"/>
    <path d="M61.75 445.665C57.07 445.665 57.02 452.895 61.75 452.925C66.48 452.955 66.43 445.695 61.75 445.665Z" fill="white"/>
    <path d="M103.08 426.675C100.98 424.905 98.31 426.595 96.99 428.395C94.7881 431.529 93.45 435.189 93.11 439.005C93.1082 439.022 93.1103 439.039 93.1164 439.055C93.1224 439.071 93.1321 439.086 93.1448 439.097C93.1574 439.109 93.1726 439.118 93.1892 439.122C93.2057 439.127 93.2231 439.128 93.24 439.125C93.2536 439.204 93.2861 439.278 93.3346 439.342C93.3832 439.406 93.4464 439.458 93.519 439.492C93.5916 439.526 93.6714 439.543 93.7517 439.54C93.8319 439.537 93.9102 439.514 93.98 439.475C96.98 437.475 100.41 435.655 102.69 432.775C104 431.095 105.06 428.345 103.08 426.675ZM97.88 435.485C96.44 436.485 94.95 437.485 93.55 438.545C94.2612 436.454 95.0789 434.401 96 432.395C96.4554 431.432 96.9732 430.5 97.55 429.605C98.47 428.235 102.55 424.795 102.96 429.325C103.12 431.795 99.6 434.255 97.88 435.485Z" fill="#263238"/>
    <path d="M82.7399 440.455C86.3599 441.045 90.1199 440.044 93.6799 439.534C93.7553 439.515 93.8253 439.479 93.8844 439.428C93.9436 439.378 93.9904 439.314 94.0213 439.243C94.0522 439.172 94.0663 439.094 94.0626 439.016C94.0589 438.939 94.0375 438.863 93.9999 438.795C94.0144 438.784 94.0262 438.771 94.0343 438.755C94.0424 438.74 94.0467 438.722 94.0467 438.705C94.0467 438.687 94.0424 438.669 94.0343 438.654C94.0262 438.638 94.0144 438.625 93.9999 438.615C91.1788 436.032 87.7314 434.233 83.9999 433.395C81.8099 432.955 78.6999 433.515 78.3499 436.235C77.9999 438.795 80.6299 440.105 82.7399 440.455ZM80.2499 438.055C77.4699 434.455 82.8299 434.225 84.4299 434.615C85.4517 434.879 86.4541 435.213 87.4299 435.615C89.4515 436.487 91.4273 437.462 93.3499 438.534C91.5799 438.684 89.8399 438.974 88.0799 439.194C85.9999 439.464 81.7899 440.045 80.2499 438.055Z" fill="#263238"/>
    <path d="M116.17 218.574C116.17 218.574 115.3 236.574 111.17 250.774C110.84 251.954 110.48 253.104 110.1 254.214C106.335 255.743 102.717 257.611 99.2897 259.794C99.2897 259.794 98.8597 274.244 98.4297 290.374C97.9497 308.374 97.4297 328.494 97.5497 332.764C97.9297 348.764 95.5497 436.434 95.5497 436.434L51.2397 436.614C51.2397 436.614 59.2397 338.614 59.2397 332.804C59.1497 323.414 61.3797 281.894 63.1097 251.624C64.1097 232.964 65.0297 218.624 65.0297 218.624L116.17 218.574Z" fill="#37474F"/>
    <path d="M93.9999 428.544C87.2299 428.434 89.1699 428.374 82.4099 428.334C79.0899 428.334 57.3299 428.214 54.2399 428.744C54.2214 428.744 54.2036 428.752 54.1904 428.765C54.1773 428.778 54.1699 428.796 54.1699 428.814C54.1699 428.833 54.1773 428.851 54.1904 428.864C54.2036 428.877 54.2214 428.884 54.2399 428.884C57.3299 429.384 79.0999 429.094 82.4099 429.054C89.1799 428.954 87.2299 428.914 93.9999 428.744C94.0264 428.744 94.0519 428.734 94.0706 428.715C94.0894 428.696 94.0999 428.671 94.0999 428.644C94.0999 428.618 94.0894 428.592 94.0706 428.574C94.0519 428.555 94.0264 428.544 93.9999 428.544Z" fill="#263238"/>
    <path d="M68.7198 224.995C67.8998 249.715 67.0398 274.435 65.9298 299.135C64.8198 323.835 63.3298 348.715 61.2598 373.435C60.0998 387.255 58.9998 406.695 57.5098 420.435C57.5098 420.525 57.6398 420.565 57.6598 420.435C60.8798 395.915 62.6598 365.605 64.2698 340.925C65.8798 316.245 66.9298 291.545 67.7698 266.845C68.2498 252.845 68.6098 238.845 69.0298 224.905C68.9998 224.795 68.7298 224.795 68.7198 224.995Z" fill="#263238"/>
    <path d="M112 253.145C107.579 254.99 103.327 257.215 99.2901 259.795C99.2625 259.816 99.2436 259.847 99.2365 259.882C99.2294 259.916 99.2346 259.952 99.2513 259.983C99.268 260.014 99.2951 260.038 99.3278 260.051C99.3604 260.064 99.3967 260.065 99.4301 260.055C103.7 257.975 108.06 255.975 112.22 253.665C112.273 253.626 112.311 253.571 112.329 253.508C112.346 253.445 112.342 253.378 112.316 253.317C112.291 253.257 112.246 253.207 112.188 253.176C112.131 253.145 112.065 253.134 112 253.145Z" fill="#263238"/>
    <path d="M112.21 237.905C111.91 239.475 111.53 241.035 111.21 242.605C110.89 244.175 110.66 245.605 110.27 247.025C109.947 248.428 109.233 249.711 108.21 250.725C107.64 251.255 107 251.725 106.39 252.225L105.39 253.015C105.39 252.805 105.48 252.595 105.51 252.375C105.62 251.775 105.72 251.185 105.82 250.585C106.04 249.255 106.25 247.925 106.46 246.585C106.86 243.965 107.22 241.325 107.77 238.745C107.77 238.635 107.63 238.595 107.61 238.745C106.96 241.305 106.24 243.835 105.67 246.425C105.39 247.695 104.4 253.955 104.36 254.425C104.32 254.895 104.27 255.345 104.26 255.805C104.194 256.269 104.194 256.74 104.26 257.205C104.26 257.325 104.42 257.305 104.47 257.205C104.664 256.772 104.799 256.314 104.87 255.845C104.99 255.405 105.09 254.945 105.17 254.495C105.17 254.335 105.17 254.165 105.24 253.995C105.86 253.625 106.43 253.125 107.01 252.705C107.59 252.285 108.27 251.815 108.85 251.325C109.903 250.389 110.652 249.16 111 247.795C111.381 246.32 111.628 244.814 111.74 243.295C111.94 241.515 112.08 239.725 112.33 237.955C112.39 237.795 112.23 237.795 112.21 237.905Z" fill="#263238"/>
    <path d="M96.0002 177.865C99.4302 188.195 114.79 221.035 121.24 223.335C127.96 225.715 153.91 228.685 159.67 224.155C162.49 221.925 163.47 198.155 159.67 198.755C155.87 199.355 132.99 200.185 130.27 199.215C127.55 198.245 109.38 171.795 102 165.355C89.2702 154.305 94.1702 172.295 96.0002 177.865Z" fill="#F7A9A0"/>
    <path d="M153.93 198.355L153.56 227.945C153.56 227.945 126.95 228.015 119.86 224.285C112.77 220.555 97.7698 186.365 94.0198 173.285C90.2698 160.205 96.2698 158.185 105.8 167.785C115.33 177.385 129.66 197.505 131.36 197.915C133.06 198.325 153.93 198.355 153.93 198.355Z" fill="#EB1600"/>
    <path d="M118.42 182.405C112.945 183.323 107.643 185.077 102.7 187.605L101.8 188.075C101.57 188.185 101.35 188.305 101.13 188.435C100.69 188.665 100.26 188.905 99.8299 189.165L99.6399 188.685L100.55 188.155L101.21 187.805C101.62 187.575 102.04 187.345 102.46 187.135C104.998 185.818 107.645 184.72 110.37 183.855C112.892 183.038 115.473 182.412 118.09 181.985L118.42 182.405ZM124.36 189.875C123.888 190.122 123.404 190.346 122.91 190.545C121.633 191.083 120.286 191.44 118.91 191.605C118.21 191.685 117.51 191.805 116.81 191.845L114.7 191.905C111.877 191.828 109.092 191.238 106.48 190.165C104.91 189.555 103.38 188.815 101.85 188.075C101.65 187.995 101.46 187.895 101.26 187.805C100.78 187.585 100.26 187.355 99.8099 187.145L99.3399 186.945L98.8999 186.755L99.0699 187.175C99.0699 187.295 99.1699 187.415 99.2099 187.535H99.2999L100.59 188.115L101.17 188.395C102.83 189.185 104.5 190.025 106.24 190.705C108.922 191.808 111.781 192.414 114.68 192.495L116.84 192.445C117.56 192.445 118.28 192.275 118.99 192.195C120.434 192.028 121.847 191.661 123.19 191.105C123.747 190.885 124.291 190.635 124.82 190.355L124.36 189.875ZM114.12 177.135C112.249 178.003 110.429 178.978 108.67 180.055C105.36 182.091 102.223 184.395 99.2899 186.945L99.0199 187.175C99.0199 187.295 99.1199 187.415 99.1599 187.535V187.615C99.1599 187.615 99.1599 187.615 99.2199 187.615C99.3899 187.465 99.5499 187.315 99.7199 187.185C102.601 184.73 105.674 182.509 108.91 180.545C110.703 179.472 112.548 178.491 114.44 177.605L114.12 177.135Z" fill="white"/>
    <path d="M146.18 212.965C146.18 210.615 146.35 201.245 146.56 198.965H146.63C146.86 201.225 146.98 210.475 146.97 212.825C147.047 217.497 146.87 222.171 146.44 226.825C146.434 226.84 146.424 226.853 146.411 226.862C146.397 226.872 146.381 226.877 146.365 226.877C146.349 226.877 146.333 226.872 146.319 226.862C146.306 226.853 146.296 226.84 146.29 226.825C145.94 222.215 146.13 217.585 146.18 212.965Z" fill="#263238"/>
    <path opacity="0.1" d="M94 173.275C97.75 186.365 112.75 220.545 119.84 224.275C123.24 226.065 131.12 226.985 138.41 227.445L96.65 161.795C93.08 161.415 91.73 165.285 94 173.275Z" fill="black"/>
    <path d="M60.3798 245.264C60.5398 245.424 125.46 240.984 126 240.264C126.76 239.264 106.21 173.264 101.06 163.614C98.8698 159.484 88.3698 158.884 84.2198 162.794C73.8298 172.564 66.5998 204.154 65.0798 213.624C62.5598 229.244 59.7998 244.694 60.3798 245.264Z" fill="#EB1600"/>
    <path d="M122.53 227.135L120.71 226.065C118.257 224.636 115.73 223.337 113.14 222.175L111.72 221.555L111.03 221.275C109.118 220.485 107.157 219.817 105.16 219.275C102.431 218.513 99.6346 218.018 96.8101 217.795C91.142 217.549 85.4703 218.19 80.0001 219.695L79.0001 219.975C78.7501 220.035 78.5101 220.105 78.2701 220.185C74.4585 221.35 70.7548 222.842 67.2001 224.645C66.2001 225.115 65.2001 225.645 64.2801 226.135L63.9801 226.295L62.8801 226.885L62.9701 226.375L64.1001 225.795C65.2201 225.185 66.3501 224.595 67.4901 224.045C68.4301 223.565 69.3901 223.115 70.3501 222.685C72.7648 221.577 75.2424 220.612 77.7701 219.795L78.5001 219.585C78.9501 219.435 79.4001 219.305 79.8601 219.185C82.6149 218.41 85.4323 217.878 88.2801 217.595C91.1225 217.286 93.9855 217.212 96.8401 217.375C101.861 217.804 106.78 219.036 111.41 221.025L112.09 221.325L113.28 221.855C115.874 223.05 118.401 224.385 120.85 225.855L122.41 226.775L122.53 227.135ZM119.17 216.135C117.51 217.135 115.89 218.135 114.28 219.195C113.28 219.815 112.37 220.445 111.41 221.055L111.03 221.305C109.72 222.145 108.39 222.955 107.03 223.715C104.595 225.138 101.943 226.151 99.1801 226.715C97.8 226.979 96.3897 227.05 94.9901 226.925C94.2901 226.855 93.5801 226.835 92.8901 226.735L90.8101 226.365C88.0635 225.707 85.4583 224.558 83.1201 222.975C81.7101 222.055 80.3701 220.975 79.0101 219.975L78.4901 219.585C78.0701 219.265 77.6401 218.945 77.2101 218.645L76.8001 218.345L76.2001 217.935C73.818 216.239 70.9921 215.276 68.0701 215.165C66.9172 215.186 65.7781 215.42 64.7101 215.855L64.6201 216.395C65.7111 215.94 66.8783 215.696 68.0601 215.675C70.8759 215.81 73.5907 216.766 75.8701 218.425L76.2201 218.665L76.6301 218.955C77.0101 219.225 77.3901 219.505 77.7601 219.795L78.2801 220.185C79.7501 221.305 81.2101 222.465 82.7801 223.485C85.1745 225.112 87.8444 226.291 90.6601 226.965L92.8001 227.355C93.5101 227.455 94.2301 227.485 94.9501 227.555C96.3996 227.68 97.8594 227.609 99.2901 227.345C102.11 226.761 104.813 225.714 107.29 224.245C108.78 223.405 110.23 222.495 111.66 221.555L112.03 221.325L114.55 219.675C116.11 218.675 117.69 217.675 119.29 216.675L119.17 216.135ZM118.07 212.595C116.333 212.033 114.567 211.566 112.78 211.195C109.967 210.626 107.1 210.364 104.23 210.415C101.36 210.469 98.4989 210.77 95.6801 211.315C92.863 211.846 90.0914 212.595 87.3901 213.555C83.7368 214.867 80.1981 216.48 76.8101 218.375C76.6101 218.475 76.4201 218.585 76.2301 218.695C74.8101 219.485 73.4201 220.305 72.0401 221.155C70.5101 222.095 68.9901 223.065 67.4901 224.045C66.3201 224.795 65.1601 225.565 64.0001 226.325L62.8801 227.055C62.8801 227.215 62.8301 227.365 62.8101 227.515C64.2901 226.575 65.7501 225.615 67.2201 224.675C68.2201 224.005 69.3001 223.335 70.3501 222.675C70.9801 222.275 71.6101 221.885 72.2501 221.505C73.6901 220.635 75.1601 219.785 76.6401 218.975L77.2201 218.665C80.5394 216.847 84.0007 215.302 87.5701 214.045C92.9275 212.137 98.5465 211.064 104.23 210.865C107.071 210.799 109.911 211.04 112.7 211.585C114.563 211.96 116.402 212.441 118.21 213.025C118.16 212.855 118.11 212.705 118.07 212.565V212.595Z" fill="white"/>
    <path d="M75.4998 170.295C58.2698 189.295 38.8398 221.405 47.1498 228.295C54.7498 234.555 82.4698 228.595 99.8998 221.785C103.22 220.485 89.7598 191.145 86.3798 192.885C82.821 194.779 79.1472 196.449 75.3798 197.885C74.3798 198.145 79.6598 191.745 85.4998 176.365C91.3998 160.655 85.3498 159.425 75.4998 170.295Z" fill="#F7A9A0"/>
    <path d="M128.73 190.665C128.73 194.075 120.34 193.405 120.34 193.405C121.563 194.201 122.469 195.4 122.9 196.795C123.53 199.305 119.9 201.405 119.9 201.405C120.99 202.498 121.731 203.89 122.03 205.405C122.39 207.865 119.03 210.515 119.03 210.515C119.474 212.086 119.34 213.764 118.65 215.245C116.65 219.135 109.93 219.245 105.78 220.085C101.13 221.16 96.5748 222.611 92.1599 224.425L84.4399 193.775C84.4399 193.775 102.44 183.085 107.44 183.325C111.66 183.615 128.71 185.445 128.73 190.665Z" fill="#F7A9A0"/>
    <path d="M120.27 193.304C115.81 192.004 111.05 191.785 106.46 191.615C106.36 191.615 106.35 191.764 106.46 191.774C111.04 191.884 115.69 193.224 120.24 193.524C120.269 193.528 120.299 193.521 120.322 193.503C120.346 193.485 120.361 193.459 120.365 193.429C120.369 193.4 120.361 193.371 120.344 193.347C120.326 193.324 120.299 193.308 120.27 193.304Z" fill="#263238"/>
    <path d="M119.75 201.094C118.709 200.898 117.646 200.841 116.59 200.924C115.47 200.924 114.35 200.974 113.23 201.024C110.983 201.124 108.743 201.284 106.51 201.504C106.41 201.504 106.4 201.664 106.51 201.664C108.75 201.564 110.99 201.494 113.22 201.484H116.58C117.637 201.571 118.7 201.538 119.75 201.384C119.778 201.372 119.801 201.351 119.817 201.325C119.834 201.3 119.842 201.27 119.842 201.239C119.842 201.209 119.834 201.179 119.817 201.153C119.801 201.128 119.778 201.107 119.75 201.094Z" fill="#263238"/>
    <path d="M118.87 210.605C117.927 210.439 116.963 210.439 116.02 210.605L113 210.795C111 210.905 108.91 211.025 106.86 211.065C106.839 211.065 106.818 211.073 106.803 211.088C106.788 211.103 106.78 211.123 106.78 211.145C106.78 211.166 106.788 211.186 106.803 211.201C106.818 211.216 106.839 211.225 106.86 211.225C108.94 211.225 111.02 211.225 113.1 211.135L116.16 211.045C117.092 211.101 118.027 210.989 118.92 210.715C118.934 210.708 118.946 210.696 118.951 210.681C118.957 210.666 118.956 210.649 118.95 210.635C118.943 210.62 118.931 210.609 118.916 210.603C118.901 210.597 118.884 210.598 118.87 210.605Z" fill="#263238"/>
    <path d="M83.5699 193.524L90.2099 226.524C90.2099 226.524 48.9399 237.294 44.6599 226.854C40.3799 216.414 64.6599 177.644 78.6599 166.584C92.6599 155.524 87.3999 172.944 86.9699 174.344C85.0799 180.534 76.2799 196.674 76.2799 196.674L83.5699 193.524Z" fill="#EB1600"/>
    <path d="M90.2102 226.485C90.2102 226.485 48.9402 237.255 44.6602 226.815C42.3602 221.195 48.3202 207.385 56.4902 194.095L56.6202 193.885L56.7902 193.615C56.8402 193.525 56.9002 193.435 56.9602 193.345C59.9107 188.589 63.1015 183.986 66.5202 179.555L66.8702 179.105C70.3137 174.493 74.2615 170.28 78.6402 166.545C92.6402 155.485 87.3802 172.905 86.9502 174.305C86.8202 174.745 86.6502 175.235 86.4502 175.765C86.3702 175.965 86.2902 176.185 86.2002 176.405C85.0502 179.345 83.2002 183.305 81.3302 186.945L81.1102 187.385C81.1102 187.385 81.1102 187.485 81.0402 187.525L80.9202 187.755C78.5502 192.425 76.4002 196.385 76.2702 196.625L83.5702 193.525L90.2102 226.485Z" fill="#EB1600"/>
    <path d="M81.33 186.944L81.11 187.384C81.11 187.384 81.11 187.484 81.04 187.524L80.54 187.844L76.47 190.494C74.0813 192.067 71.5852 193.471 69 194.694C67.6913 195.298 66.3195 195.754 64.91 196.054C63.4831 196.387 61.9943 196.342 60.59 195.924C60.24 195.824 59.88 195.744 59.59 195.634L58.59 195.204C57.9254 194.921 57.2835 194.586 56.67 194.204L56.52 194.114L56.65 193.904L56.82 193.634C56.8651 193.677 56.9155 193.714 56.97 193.744L57.11 193.824C57.649 194.18 58.2178 194.487 58.81 194.744L59.81 195.164L60.81 195.454C62.1404 195.86 63.5536 195.912 64.91 195.604C66.2868 195.318 67.6281 194.882 68.91 194.304C71.4776 193.109 73.9601 191.74 76.34 190.204L79.59 188.124L80.44 187.574L81.33 186.944ZM80.33 187.554C75.2 188.804 70.17 190.394 65.05 191.644C62.37 192.314 59.65 192.904 56.92 193.344C56.86 193.434 56.8 193.524 56.75 193.614L56.58 193.884L57.04 193.804C59.77 193.344 62.48 192.734 65.16 192.054C69.97 190.844 74.69 189.344 79.48 188.104L80.48 187.844C80.6 187.844 80.73 187.774 80.86 187.754L80.98 187.524C80.98 187.524 80.98 187.434 81.05 187.384L80.33 187.554ZM80.66 179.244C79.4154 179.915 78.1136 180.474 76.77 180.914C75.4526 181.363 74.0578 181.54 72.67 181.434C70.5644 181.138 68.5612 180.339 66.83 179.104L66.48 179.554C68.301 180.833 70.404 181.653 72.61 181.944C74.0713 182.05 75.5387 181.853 76.92 181.364C78.3047 180.915 79.644 180.335 80.92 179.634C82.7372 178.648 84.5028 177.57 86.21 176.404C86.3 176.184 86.38 175.964 86.46 175.764C84.6018 177.024 82.6792 178.185 80.7 179.244H80.66Z" fill="white"/>
    <path d="M82.8601 193.554C78.1201 195.214 65.7001 201.414 62.9701 203.954C62.9584 203.97 62.952 203.988 62.9517 204.008C62.9514 204.027 62.9572 204.046 62.9684 204.061C62.9796 204.077 62.9955 204.089 63.0138 204.095C63.0321 204.101 63.0519 204.101 63.0701 204.094C65.7501 202.204 81.0701 194.694 83.5001 193.774C83.5001 193.774 83.6201 194.064 83.6701 194.144C83.7201 194.224 83.8101 194.194 83.8101 194.084C83.7677 193.814 83.7075 193.547 83.6301 193.284L82.8601 193.554Z" fill="#263238"/>
    <path d="M79.3302 211.995C78.8802 209.695 77.1602 200.475 76.9102 198.155C76.9102 198.155 76.9102 198.105 76.9702 198.155C77.6502 200.315 79.6102 209.365 80.0702 211.665C81.0876 216.239 81.852 220.866 82.3602 225.525C82.3602 225.605 82.2402 225.655 82.2102 225.525C81.0002 221.105 80.2102 216.525 79.3302 211.995Z" fill="#263238"/>
    <path d="M75.9398 196.794C77.2298 193.984 78.8098 191.314 80.2298 188.574C81.6498 185.834 83.1198 183.114 84.4398 180.344H84.4997C83.6997 182.234 82.8998 184.124 82.0398 185.984C82.2998 185.694 82.5397 185.384 82.7797 185.074C83.2197 184.514 83.6197 183.924 84.0197 183.334C84.0197 183.334 84.0898 183.334 84.0798 183.334C83.7684 183.996 83.3826 184.62 82.9297 185.194C82.595 185.626 82.2272 186.03 81.8298 186.404C81.4798 187.164 81.1098 187.924 80.7298 188.674C79.4985 191.466 78.0577 194.16 76.4197 196.734C76.3597 196.924 75.8898 196.924 75.9398 196.794Z" fill="#263238"/>
    <path d="M62.24 231.135C67.11 231.075 85.5 227.465 90.05 226.525C89.99 226.045 90.05 225.874 89.93 225.194C89.93 225.104 90.06 225.064 90.08 225.194C90.2 225.844 90.64 227.134 90.46 227.194C88.27 228.054 67.02 231.765 62.24 231.365C62.2249 231.365 62.2099 231.362 62.196 231.356C62.182 231.35 62.1694 231.341 62.1587 231.331C62.148 231.32 62.1395 231.307 62.1338 231.294C62.128 231.28 62.125 231.265 62.125 231.25C62.125 231.234 62.128 231.219 62.1338 231.206C62.1395 231.192 62.148 231.179 62.1587 231.168C62.1694 231.158 62.182 231.149 62.196 231.143C62.2099 231.137 62.2249 231.135 62.24 231.135Z" fill="#263238"/>
    <path d="M111.76 227.805L146 232.415L158.99 184.825L124.75 180.225L111.76 227.805Z" fill="#263238"/>
    <path d="M113.45 228.025L147.68 232.635L160.67 185.055L126.44 180.445L113.45 228.025Z" fill="#37474F"/>
    <path d="M141.84 205.025C141.626 205.914 141.094 206.694 140.344 207.217C139.594 207.74 138.678 207.971 137.77 207.865C137.341 207.819 136.928 207.682 136.557 207.463C136.186 207.243 135.867 206.946 135.621 206.592C135.375 206.238 135.209 205.836 135.133 205.411C135.057 204.987 135.073 204.552 135.18 204.135C135.394 203.245 135.925 202.464 136.675 201.939C137.425 201.414 138.341 201.181 139.25 201.285C139.679 201.33 140.094 201.467 140.466 201.687C140.837 201.907 141.157 202.205 141.403 202.56C141.649 202.915 141.815 203.319 141.891 203.745C141.966 204.17 141.949 204.607 141.84 205.025Z" fill="white"/>
    <path d="M160.33 194.865C161.76 198.865 165.84 204.074 165.9 207.234C165.941 208.013 165.73 208.784 165.3 209.433C164.87 210.083 164.242 210.578 163.51 210.844C163.51 210.844 166.51 212.714 166.04 215.584C165.83 217.064 163.27 218.024 163.27 218.024C163.917 218.483 164.425 219.111 164.737 219.84C165.05 220.569 165.154 221.37 165.04 222.154C164.62 224.154 162.12 224.824 162.12 224.824C162.12 224.824 163.62 227.395 162.53 229.314C160.31 233.204 142.7 231.415 140.64 224.645C139.64 221.495 143.95 222.164 143.95 222.164C143.95 222.164 138.03 219.714 138.31 216.074C138.59 212.434 144.09 213.634 144.09 213.634C144.09 213.634 138.38 211.214 139.09 207.464C139.8 203.714 145.09 205.714 145.09 205.714C145.09 205.714 141.44 202.714 142.61 199.914C144.54 195.364 151.36 202.024 155.32 201.494L158.11 195.324L160.33 194.865Z" fill="#F7A9A0"/>
    <path d="M163.3 200.795C162.3 196.885 167.42 192.705 166.98 188.795C166.39 183.545 160.1 187.995 158.06 195.315L157.47 201.315L163.3 200.795Z" fill="#F7A9A0"/>
    <path d="M161.75 224.985C161.763 224.985 161.776 224.99 161.785 224.999C161.795 225.009 161.8 225.021 161.8 225.035C161.8 225.048 161.795 225.061 161.785 225.07C161.776 225.079 161.763 225.085 161.75 225.085C155.592 225.951 149.316 224.929 143.75 222.155C143.57 222.065 143.65 221.735 143.86 221.805C149.638 223.727 155.664 224.798 161.75 224.985Z" fill="#263238"/>
    <path d="M163.35 218.065C163.42 218.065 163.42 218.185 163.35 218.195C156.54 219.098 149.631 217.538 143.87 213.795C143.67 213.655 143.63 213.335 143.87 213.475C147.9 215.795 157.63 217.975 163.35 218.065Z" fill="#263238"/>
    <path d="M144.71 205.295C150.38 208.905 156.63 210.295 163.26 210.885C163.34 210.885 163.33 211.015 163.26 211.025C159.94 211.645 155.75 210.855 152.55 209.965C149.554 209.198 146.812 207.656 144.6 205.495C144.5 205.405 144.59 205.215 144.71 205.295Z" fill="#263238"/>
    <path d="M102.27 166.154C102.39 169.154 102.48 175.964 97.86 175.454C96.003 175.086 94.2915 174.19 92.93 172.874C91.4726 171.665 90.1545 170.296 89 168.794C87.6757 167.163 86.4852 165.427 85.44 163.604C85.44 163.534 85.28 163.604 85.33 163.684C86.39 165.514 87.27 167.404 88.51 169.134C89.6809 170.811 91.0735 172.322 92.65 173.624C94.1305 175 95.9983 175.887 98 176.164C98.8585 176.225 99.7113 175.986 100.413 175.488C101.115 174.99 101.623 174.265 101.85 173.434C102.533 171.07 102.676 168.582 102.27 166.154Z" fill="#263238"/>
    <path d="M97.7198 172.445C94.3798 172.735 88.9198 166.445 87.3198 162.175C87.7394 159.949 88.2701 157.747 88.9098 155.575C89.4198 153.465 89.9098 151.095 90.2698 148.905L103.53 154.255C102.346 156.884 101.486 159.648 100.97 162.485C100.94 162.787 100.94 163.092 100.97 163.395C100.97 163.395 100.97 163.495 100.97 163.545C101 165.295 100.94 172.165 97.7198 172.445Z" fill="#F7A9A0"/>
    <path d="M100.93 163.394C100.935 163.444 100.935 163.495 100.93 163.544C100.454 163.541 99.9793 163.501 99.5098 163.424C91.5698 162.074 91.1198 152.064 91.1598 149.274L94.4798 150.604L103.48 154.254C102.296 156.883 101.44 159.647 100.93 162.484C100.901 162.787 100.901 163.092 100.93 163.394Z" fill="#263238"/>
    <path d="M88.7501 133.905C87.3701 138.905 90.3301 153.035 93.9101 156.115C99.1101 160.595 107.43 160.825 111.19 154.615C114.83 148.615 110.65 130.205 106.66 127.425C100.79 123.315 90.7801 126.565 88.7501 133.905Z" fill="#F7A9A0"/>
    <path d="M102.72 142.844C102.72 142.844 102.66 142.904 102.72 142.944C102.94 143.894 103.04 145.024 102.24 145.514C102.24 145.514 102.24 145.574 102.24 145.564C103.23 145.204 103.09 143.714 102.72 142.844Z" fill="#263238"/>
    <path d="M101.67 142.025C100.11 142.225 100.67 145.325 102.06 145.145C103.45 144.965 103 141.865 101.67 142.025Z" fill="#263238"/>
    <path d="M108.15 141.794C108.15 141.794 108.24 141.794 108.24 141.874C108.37 142.874 108.68 143.924 109.6 144.104V144.154C108.51 144.154 108.12 142.714 108.15 141.794Z" fill="#263238"/>
    <path d="M108.85 140.635C110.38 140.265 111.01 143.345 109.59 143.635C108.17 143.925 107.57 140.945 108.85 140.635Z" fill="#263238"/>
    <path d="M100.21 140.795C100.6 140.614 100.978 140.407 101.34 140.175C101.759 140.012 102.112 139.712 102.34 139.325C102.391 139.186 102.396 139.035 102.352 138.894C102.309 138.753 102.22 138.63 102.1 138.545C101.838 138.411 101.545 138.35 101.251 138.367C100.958 138.385 100.674 138.481 100.43 138.645C99.8876 138.901 99.4599 139.35 99.2299 139.905C99.1786 140.038 99.1688 140.184 99.2018 140.323C99.2349 140.463 99.3093 140.589 99.4153 140.685C99.5213 140.781 99.6538 140.843 99.7957 140.863C99.9375 140.882 100.082 140.859 100.21 140.795Z" fill="#263238"/>
    <path d="M109.85 139.684C109.41 139.684 109 139.604 108.56 139.564C108.101 139.586 107.648 139.456 107.27 139.194C107.169 139.087 107.106 138.95 107.09 138.804C107.074 138.658 107.105 138.511 107.18 138.384C107.367 138.158 107.611 137.986 107.887 137.886C108.163 137.786 108.461 137.761 108.75 137.814C109.353 137.831 109.928 138.074 110.36 138.494C110.452 138.595 110.514 138.72 110.537 138.855C110.56 138.99 110.543 139.129 110.489 139.254C110.436 139.38 110.347 139.487 110.233 139.564C110.12 139.64 109.987 139.682 109.85 139.684Z" fill="#263238"/>
    <path d="M102.86 151.844C103.104 152.09 103.425 152.245 103.77 152.284C104.129 152.215 104.469 152.072 104.77 151.864C104.77 151.864 104.84 151.864 104.77 151.914C104.661 152.125 104.498 152.303 104.298 152.43C104.097 152.556 103.867 152.627 103.63 152.634C103.426 152.613 103.234 152.532 103.076 152.402C102.918 152.273 102.801 152.1 102.74 151.904C102.76 151.854 102.83 151.794 102.86 151.844Z" fill="#263238"/>
    <path d="M103.4 148.575C103.708 148.915 104.083 149.188 104.501 149.377C104.919 149.566 105.371 149.667 105.83 149.675C106.231 149.682 106.631 149.635 107.02 149.535L107.24 149.475L107.44 149.405C107.491 149.387 107.534 149.353 107.563 149.307C107.592 149.262 107.605 149.208 107.6 149.155C107.606 149.121 107.606 149.088 107.6 149.055V148.975C107.5 148.225 107.24 147.115 107.24 147.115C107.53 147.205 109.02 147.605 108.93 147.215C108.3 143.891 107.332 140.641 106.04 137.515C106.034 137.497 106.022 137.482 106.007 137.471C105.992 137.46 105.974 137.454 105.955 137.454C105.936 137.454 105.918 137.46 105.903 137.471C105.888 137.482 105.876 137.497 105.87 137.515C106.43 140.595 107.54 143.515 108.16 146.625C107.63 146.476 107.081 146.405 106.53 146.415C106.43 146.415 107.07 148.555 107.08 148.895C106.483 149.054 105.861 149.092 105.249 149.006C104.638 148.92 104.05 148.712 103.52 148.395C103.4 148.425 103.33 148.505 103.4 148.575Z" fill="#263238"/>
    <path d="M106.58 149.355C106.261 149.936 105.8 150.428 105.24 150.785C104.938 150.961 104.589 151.041 104.24 151.015C103.45 150.945 103.32 150.255 103.36 149.635C103.381 149.295 103.445 148.959 103.55 148.635C104.459 149.187 105.519 149.439 106.58 149.355Z" fill="#263238"/>
    <path d="M105.24 150.794C104.938 150.97 104.589 151.051 104.24 151.024C103.45 150.954 103.32 150.264 103.36 149.644C103.756 149.601 104.156 149.69 104.496 149.898C104.837 150.106 105.098 150.421 105.24 150.794Z" fill="#FF9ABB"/>
    <path d="M109.38 131.555C108.58 130.445 107.7 129.335 106.9 129.245C106.1 129.155 106.01 131.075 104.35 131.555C102.1 132.195 100.55 130.345 97.3498 130.805C92.6998 131.475 91.5098 135.735 92.7998 142.245C93.9498 148.065 90.5698 149.365 90.5698 149.365C90.5698 149.365 85.6898 137.035 88.3798 132.025C91.0698 127.015 98.9398 123.365 105.38 126.215C107.67 127.245 109.38 131.555 109.38 131.555Z" fill="#263238"/>
    <path d="M92.9198 146.134C92.9198 146.134 89.4898 141.684 87.4598 142.924C85.4298 144.164 88.1398 150.724 90.6398 151.524C90.9516 151.65 91.2856 151.711 91.6216 151.703C91.9576 151.696 92.2885 151.62 92.5943 151.481C92.9002 151.341 93.1745 151.141 93.4006 150.893C93.6267 150.644 93.8 150.352 93.9098 150.034L92.9198 146.134Z" fill="#F7A9A0"/>
    <path d="M88.2798 144.794C88.2798 144.794 88.2798 144.794 88.2798 144.864C89.0843 145.222 89.805 145.744 90.3957 146.397C90.9865 147.049 91.4341 147.818 91.7098 148.654C91.6016 148.487 91.4584 148.345 91.29 148.238C91.1216 148.131 90.932 148.062 90.7343 148.035C90.5366 148.008 90.3355 148.025 90.1448 148.084C89.9541 148.142 89.7784 148.241 89.6298 148.374C89.6298 148.374 89.6298 148.474 89.6798 148.464C89.9778 148.352 90.3033 148.336 90.6113 148.416C90.9193 148.497 91.1948 148.671 91.3998 148.914C91.7309 149.329 92.0222 149.775 92.2698 150.244C92.3498 150.394 92.6298 150.304 92.5598 150.124C92.4898 147.884 90.6498 144.894 88.2798 144.794Z" fill="#263238"/>
    <path d="M100.71 124.455C98.7591 123.898 96.7384 123.625 94.7099 123.644C92.4199 123.714 85.4499 125.364 83.9799 127.044C82.5099 128.724 83.1099 135.445 83.2199 136.425C83.3299 137.405 84.6799 143.214 87.0399 144.304C89.3999 145.394 88.0399 135.364 90.8699 131.524C93.6999 127.684 100.71 124.455 100.71 124.455Z" fill="#EB1600"/>
    <path opacity="0.1" d="M100.71 124.465C100.71 124.465 93.7097 127.685 90.8197 131.525C87.9297 135.365 89.3397 145.385 86.9997 144.305C86.4543 144.004 85.9737 143.598 85.5859 143.111C85.198 142.623 84.9104 142.064 84.7397 141.465C84.7397 138.465 85.1897 133.765 87.1297 130.245C88.9497 126.955 92.6398 124.845 96.7598 123.715C98.0957 123.85 99.4173 124.101 100.71 124.465Z" fill="black"/>
    <path d="M88.4999 150.144C88.2699 147.454 89.8599 139.894 92.0599 135.364C94.2599 130.834 102.23 127.144 103.4 127.024C106.26 126.744 107.1 128.024 107.51 127.674C107.92 127.324 104.58 124.574 103.7 124.224C102.387 123.802 100.996 123.679 99.6299 123.864C98.3999 124.084 90.9299 126.034 88.6799 129.704C86.4299 133.374 83.9999 143.064 84.9999 145.274C85.2599 145.804 85.9999 146.044 86.4099 146.804C86.8899 147.804 87.2899 148.954 87.7199 149.634C88.1499 150.314 88.5199 150.374 88.4999 150.144Z" fill="#EB1600"/>
    <path d="M92.4197 133.435C91.7259 133.135 91.0571 132.781 90.4197 132.375C89.7495 131.972 89.1315 131.488 88.5797 130.935C88.5797 130.935 88.4697 130.935 88.5097 130.995C88.9946 131.636 89.5785 132.197 90.2397 132.655C90.904 133.099 91.6475 133.411 92.4297 133.575C92.4483 133.573 92.4656 133.565 92.4778 133.551C92.49 133.536 92.4961 133.518 92.4947 133.5C92.4934 133.481 92.4848 133.464 92.4707 133.452C92.4566 133.439 92.4383 133.433 92.4197 133.435Z" fill="#263238"/>
    <path d="M88.0598 147.484C87.9498 147.304 87.7998 147.154 87.6798 146.984C87.5382 146.793 87.4206 146.585 87.3298 146.364C87.2058 145.934 87.0348 145.518 86.8198 145.124C86.5979 144.833 86.3428 144.568 86.0598 144.334C85.7206 144.089 85.474 143.737 85.3598 143.334H85.2798C85.3998 144.144 86.0298 144.634 86.4898 145.254C86.7237 145.679 86.9178 146.124 87.0698 146.584C87.2468 147.004 87.5557 147.355 87.9498 147.584C87.9998 147.614 88.0898 147.554 88.0598 147.484Z" fill="#263238"/>
    <path d="M88.5199 144.465C88.2199 144.205 87.9099 143.975 87.6299 143.685C87.3499 143.395 87.1299 143.085 86.8999 142.775C86.6699 142.465 86.4899 142.135 86.2699 141.775C86.0499 141.415 85.7199 141.065 85.4799 140.675C85.4799 140.675 85.3799 140.675 85.4099 140.735C85.6599 141.125 85.8299 141.575 86.0599 141.975C86.266 142.321 86.4931 142.655 86.7399 142.975C86.9732 143.284 87.2343 143.572 87.5199 143.835C87.8057 144.109 88.1466 144.321 88.5199 144.455C88.5199 144.455 88.5399 144.485 88.5199 144.465Z" fill="#263238"/>
    <path d="M89.0799 141.715C88.4461 141.332 87.8731 140.857 87.3799 140.305C86.8999 139.765 86.4399 139.195 85.9999 138.625C85.9999 138.625 85.8999 138.625 85.9299 138.625C86.257 139.302 86.6704 139.934 87.1599 140.505C87.3978 140.784 87.6699 141.033 87.9699 141.245C88.2948 141.46 88.6397 141.645 88.9999 141.795C88.9999 141.795 89.1299 141.795 89.0799 141.715Z" fill="#263238"/>
    <path d="M89.7399 139.055C89.4338 138.909 89.1587 138.705 88.9299 138.455C88.6499 138.195 88.3799 137.925 88.1199 137.645C87.8599 137.375 87.5999 137.125 87.3499 136.855C87.0798 136.601 86.8653 136.295 86.7199 135.955C86.7199 135.955 86.6299 135.955 86.6399 135.955C86.7184 136.319 86.8792 136.661 87.1099 136.955C87.3328 137.31 87.5872 137.645 87.8699 137.955C88.1496 138.243 88.4468 138.513 88.7599 138.765C89.0244 139.006 89.3554 139.163 89.7099 139.215C89.7204 139.217 89.7312 139.216 89.7417 139.214C89.7522 139.212 89.7621 139.208 89.7709 139.202C89.7797 139.196 89.7873 139.188 89.7931 139.179C89.7989 139.17 89.803 139.16 89.8049 139.15C89.8069 139.139 89.8068 139.128 89.8046 139.118C89.8024 139.107 89.7981 139.097 89.7921 139.089C89.7861 139.08 89.7784 139.072 89.7694 139.066C89.7605 139.061 89.7504 139.057 89.7399 139.055Z" fill="#263238"/>
    <path d="M90 135.795C89.7067 135.595 89.4267 135.385 89.16 135.165C88.9 134.935 88.64 134.705 88.39 134.465C88.14 134.225 87.85 133.965 87.6 133.695C87.6 133.695 87.5 133.695 87.53 133.745C87.7205 134.06 87.9379 134.357 88.18 134.635C88.419 134.905 88.6763 135.159 88.95 135.395C89.2213 135.631 89.5086 135.848 89.81 136.045C90.106 136.271 90.447 136.431 90.81 136.515C90.8183 136.509 90.8251 136.502 90.8297 136.493C90.8344 136.484 90.8369 136.474 90.8369 136.465C90.8369 136.455 90.8344 136.445 90.8297 136.436C90.8251 136.427 90.8183 136.42 90.81 136.415C90.5597 136.183 90.2886 135.976 90 135.795Z" fill="#263238"/>
    <path d="M94.2298 131.594C93.9098 131.314 93.5998 131.034 93.2298 130.774C92.8598 130.514 92.5198 130.284 92.1398 130.064C91.4221 129.624 90.6574 129.265 89.8598 128.994C89.8598 128.994 89.7698 129.044 89.8598 129.074C91.2798 129.954 92.7498 130.774 94.1698 131.674C94.1804 131.682 94.1938 131.686 94.2069 131.684C94.22 131.682 94.2319 131.675 94.2398 131.664C94.2478 131.654 94.2512 131.64 94.2493 131.627C94.2474 131.614 94.2404 131.602 94.2298 131.594Z" fill="#263238"/>
    <path d="M95.4802 129.065C95.1713 128.795 94.8363 128.557 94.4802 128.355C93.6911 127.957 92.859 127.652 92.0002 127.445C91.9402 127.445 91.9102 127.505 92.0002 127.525C92.7702 127.875 93.5402 128.215 94.2802 128.605C94.6402 128.805 95.0102 129.005 95.3502 129.235C95.6902 129.465 95.9802 129.775 96.3502 130.025C96.1286 129.649 95.8326 129.322 95.4802 129.065Z" fill="#263238"/>
    <path d="M97.53 127.674C97.2238 127.399 96.8885 127.157 96.53 126.955C95.8756 126.557 95.1589 126.273 94.41 126.115C94.41 126.115 94.34 126.185 94.41 126.205C95.1056 126.477 95.775 126.811 96.41 127.205C96.73 127.405 97.05 127.625 97.41 127.845C97.77 128.065 98.02 128.345 98.35 128.525C98.1043 128.216 97.8297 127.931 97.53 127.674Z" fill="#263238"/>
    <path d="M98.9199 126.095C98.6099 125.915 98.2799 125.745 97.9199 125.585C97.6072 125.409 97.2702 125.281 96.9199 125.205V125.295L98.7399 126.365C99.2757 126.736 99.7717 127.161 100.22 127.635C100.22 127.635 100.28 127.635 100.22 127.635C99.9522 127.002 99.4989 126.465 98.9199 126.095Z" fill="#263238"/>
    <path d="M100.85 125.354C100.258 124.957 99.5964 124.675 98.8998 124.524C98.8498 124.524 98.8298 124.594 98.8998 124.614C99.5512 124.852 100.162 125.189 100.71 125.614C101.265 126.018 101.775 126.481 102.23 126.994C102.23 126.994 102.3 126.994 102.28 126.994C101.944 126.339 101.453 125.776 100.85 125.354Z" fill="#263238"/>
    <path d="M105.28 126.025C105.096 125.841 104.903 125.667 104.7 125.505C104.497 125.343 104.283 125.196 104.06 125.065C103.83 124.925 103.6 124.795 103.38 124.645C103.38 124.645 103.28 124.695 103.38 124.725C103.614 124.861 103.835 125.018 104.04 125.195L104.62 125.675L105.21 126.155C105.395 126.334 105.592 126.501 105.8 126.655C105.651 126.425 105.477 126.214 105.28 126.025Z" fill="#263238"/>
    <path d="M166.43 107.104C166.013 111.111 164.491 114.924 162.033 118.116C159.575 121.307 156.278 123.753 152.51 125.18C148.742 126.606 144.652 126.957 140.697 126.193C136.741 125.429 133.076 123.581 130.11 120.854L119.23 122.454L124.67 113.054C123.424 109.996 122.89 106.694 123.111 103.399C123.331 100.104 124.299 96.9019 125.942 94.0367C127.584 91.1716 129.858 88.7184 132.59 86.8632C135.322 85.0081 138.441 83.7998 141.71 83.3301C144.979 82.8604 148.312 83.1417 151.456 84.1525C154.6 85.1634 157.473 86.8773 159.856 89.1641C162.238 91.4508 164.069 94.2504 165.208 97.3503C166.347 100.45 166.765 103.769 166.43 107.054V107.104Z" fill="white"/>
    <path d="M166.43 107.104C166.006 111.105 164.487 114.911 162.04 118.104C160.844 119.717 159.407 121.137 157.78 122.314C156.178 123.533 154.41 124.516 152.53 125.234C150.654 125.969 148.685 126.44 146.68 126.634C145.682 126.719 144.68 126.739 143.68 126.694C142.673 126.662 141.671 126.555 140.68 126.374C136.672 125.639 132.949 123.8 129.93 121.064L130.18 121.144L119.29 122.794L118.5 122.914L118.9 122.224L124.31 112.794V113.174C123.03 110.059 122.483 106.692 122.71 103.332C122.937 99.972 123.933 96.709 125.62 93.7944C127.315 90.8954 129.643 88.417 132.43 86.5444C135.899 84.2582 139.945 83.0012 144.099 82.9189C148.253 82.8365 152.346 83.9322 155.903 86.0791C159.46 88.226 162.337 91.3363 164.2 95.0502C166.063 98.764 166.836 102.929 166.43 107.064V107.104ZM166.43 107.104C166.777 103.831 166.368 100.521 165.235 97.4301C164.101 94.3393 162.274 91.5499 159.892 89.2767C157.511 87.0036 154.64 85.3074 151.499 84.3187C148.359 83.3301 145.034 83.0755 141.78 83.5744C138.549 84.0573 135.471 85.2714 132.78 87.1244C130.122 88.9919 127.9 91.4144 126.27 94.2244C124.671 97.0414 123.728 100.183 123.51 103.414C123.313 106.649 123.836 109.886 125.04 112.894L125.12 113.084L125.02 113.264L119.54 122.644L119.16 122.074L130.04 120.544H130.19L130.3 120.644C133.204 123.365 136.809 125.221 140.71 126.004C141.698 126.207 142.702 126.327 143.71 126.364C144.709 126.436 145.711 126.436 146.71 126.364C148.697 126.21 150.652 125.779 152.52 125.084C154.397 124.406 156.163 123.452 157.76 122.254C158.567 121.668 159.335 121.03 160.06 120.344C160.771 119.635 161.439 118.884 162.06 118.094C164.499 114.902 166.011 111.1 166.43 107.104Z" fill="#263238"/>
    <path d="M142.26 117.244L132.98 107.844L136.1 104.764L141.52 110.254L152.79 92.5845L156.49 94.9445L142.26 117.244Z" fill="#EB1600"/>
</svg>
