<svg width="74" height="80" viewBox="0 0 74 80" fill="none" xmlns="http://www.w3.org/2000/svg">
<path d="M65.6088 79.0641H8.73169V30.9492L37.1657 12.889L65.6088 30.9492V79.0641Z" fill="#EB1600"/>
<path opacity="0.2" d="M65.6088 79.0641H8.73169V30.9492L37.1657 12.889L65.6088 30.9492V79.0641Z" fill="black"/>
<path d="M62.3991 10.601H11.937V75.3822H62.3991V10.601Z" fill="#EBEBEB"/>
<path d="M34.0968 49.3589L22.5425 37.6639L26.4242 33.8276L33.1752 40.6603L47.1947 18.6776L51.7982 21.6105L34.0968 49.3589Z" fill="#EB1600"/>
<path d="M65.6088 43.0165V79.0641H8.73169V43.0165C11.1742 44.3785 13.5759 45.8494 15.9957 47.2659C18.4155 48.6824 20.8126 50.1534 23.2052 51.6243C25.8702 53.2451 28.5352 54.8977 31.1911 56.5593L31.2773 56.5094C31.2501 56.5094 31.2319 56.5548 31.2092 56.5684C33.1947 57.7942 35.1817 59.0275 37.1702 60.2685C39.1497 59.02 41.1427 57.7624 43.1313 56.5321C43.1086 56.5321 43.0904 56.4912 43.0632 56.473C43.0899 56.4917 43.1189 56.5069 43.1494 56.5184C45.8038 54.8628 48.4658 53.2163 51.1353 51.5789C53.5294 50.117 55.9295 48.6673 58.3357 47.2296C60.7782 45.8267 63.1663 44.3785 65.6088 43.0165Z" fill="#EB1600"/>
<g opacity="0.2">
<path d="M65.6088 43.0165C63.3116 44.6282 60.9735 46.1945 58.6581 47.7653C56.3427 49.3362 53.9864 50.8707 51.6347 52.4097C49.1831 54.0169 46.727 55.6089 44.2663 57.1858L44.0438 57.3402L37.4926 61.517L37.1657 61.7122L36.8479 61.517L30.3058 57.3311L30.0742 57.1858C27.6075 55.6059 25.1483 54.0109 22.6967 52.4007C20.3541 50.8707 18.016 49.318 15.6824 47.7653C13.3489 46.2126 11.0289 44.6055 8.73169 43.0165C11.1742 44.3785 13.5759 45.8494 15.9957 47.2659C18.4155 48.6824 20.8126 50.1534 23.2052 51.6243C25.8702 53.2451 28.5352 54.8977 31.1911 56.5593C33.1887 57.7911 35.1817 59.0275 37.1702 60.2685C39.1497 59.02 41.1427 57.7624 43.1313 56.5321C45.7857 54.8765 48.4476 53.23 51.1171 51.5925C53.5112 50.1307 55.9114 48.6809 58.3176 47.2432C60.7782 45.8267 63.1663 44.3785 65.6088 43.0165Z" fill="black"/>
<path d="M31.2682 56.4867C31.241 56.4867 31.2228 56.5321 31.2001 56.5457L30.2921 57.3084C28.8666 58.5115 27.4047 59.6647 25.9201 60.7861C24.1041 62.1481 22.2563 63.5101 20.3949 64.8085C18.5335 66.1069 16.6449 67.3781 14.7199 68.6085C12.795 69.8388 10.8609 71.0419 8.85425 72.1452C10.5794 70.6333 12.3727 69.2214 14.1842 67.8503C15.9957 66.4792 17.8571 65.1263 19.7094 63.8233C21.5617 62.5203 23.4685 61.2446 25.3889 60.0143C26.9189 59.0336 28.4761 58.0666 30.0606 57.1631C30.4283 56.9498 30.7961 56.7455 31.1729 56.5366L31.2682 56.4867Z" fill="black"/>
<path d="M65.4725 72.1452C63.4659 71.0419 61.5182 69.8388 59.6069 68.6085C57.6955 67.3781 55.7842 66.0979 53.9228 64.8085C52.0614 63.5191 50.2091 62.1662 48.3976 60.7861C46.9221 59.6647 45.4602 58.5161 44.0437 57.3175L43.1357 56.5457C43.113 56.5457 43.0949 56.5049 43.0676 56.4867C43.0944 56.5053 43.1234 56.5206 43.1539 56.5321C43.5307 56.7455 43.8985 56.9498 44.2662 57.1631C45.8507 58.0711 47.3988 59.0336 48.9379 60.0143C50.8583 61.2446 52.7378 62.5249 54.6083 63.8233C56.4788 65.1218 58.322 66.4656 60.1335 67.8503C61.9449 69.235 63.7473 70.6333 65.4725 72.1452Z" fill="black"/>
</g>
<path d="M12.8359 7.5137C12.5332 5.01828 12.5332 2.49542 12.8359 0C13.1386 2.49542 13.1386 5.01828 12.8359 7.5137Z" fill="#263238"/>
<path d="M9.63983 8.70767C8.64476 7.93993 7.70282 7.10569 6.82049 6.21067C5.92441 5.33094 5.0901 4.39044 4.32349 3.39587C6.30234 4.94672 8.08729 6.73015 9.63983 8.70767Z" fill="#263238"/>
<path d="M8.22781 11.8085C6.98144 11.97 5.72545 12.0459 4.46869 12.0355C3.2135 12.0495 1.95887 11.9752 0.714111 11.8131C1.95875 11.6493 3.21339 11.5734 4.46869 11.5861C5.72535 11.5742 6.98133 11.6485 8.22781 11.8085Z" fill="#263238"/>
<path d="M9.42191 15.0001C7.8694 16.9775 6.08615 18.7623 4.11011 20.3165C5.65911 18.3347 7.44273 16.548 9.42191 14.9956V15.0001Z" fill="#263238"/>
<path d="M61.1642 7.5137C61.0064 6.26701 60.9321 5.01118 60.9417 3.75458C60.9328 2.49923 61.0101 1.24474 61.1733 0C61.4759 2.49542 61.4759 5.01828 61.1733 7.5137H61.1642Z" fill="#263238"/>
<path d="M64.3604 8.70767C65.9129 6.73015 67.6978 4.94672 69.6767 3.39587C68.9101 4.39044 68.0758 5.33094 67.1797 6.21067C66.2973 7.10569 65.3554 7.93993 64.3604 8.70767Z" fill="#263238"/>
<path d="M65.7722 11.8086C67.0187 11.6485 68.2747 11.5742 69.5313 11.5861C70.7866 11.5733 72.0413 11.6492 73.2859 11.8131C72.0412 11.9754 70.7865 12.0497 69.5313 12.0356C68.2746 12.0459 67.0186 11.9701 65.7722 11.8086Z" fill="#263238"/>
<path d="M64.5784 15.0001C66.5573 16.5511 68.3409 18.3362 69.8902 20.3165C68.8966 19.547 67.9562 18.7112 67.0754 17.8149C66.1794 16.9351 65.3451 15.9946 64.5784 15.0001Z" fill="#263238"/>
</svg>
